<?xml version="1.0" encoding="UTF-8"?>
<svg width="325px" height="91px" viewBox="0 0 325 91" version="1.1" xmlns="http://www.w3.org/2000/svg" xmlns:xlink="http://www.w3.org/1999/xlink">
    <title>Powered-by-Jina-Large-Basic</title>
    <g id="页面-1" stroke="none" stroke-width="1" fill="none" fill-rule="evenodd">
        <g id="Powered-by-Jina-Large-Basic" fill="#898989" fill-rule="nonzero">
            <g id="Powered-by-Stripe---white">
                <path d="M190.411231,53.7946452 C194.056185,53.7946452 197.010986,56.7310027 197.010986,60.3532049 C197.010986,63.9753644 194.056185,66.9117647 190.411231,66.9117647 C186.766285,66.9117647 183.811475,63.9753644 183.811475,60.3532049 C183.811475,56.7310027 186.766285,53.7946452 190.411231,53.7946452 Z M211.202425,39.6826086 C211.974942,39.6826086 212.615834,40.2426955 212.736287,40.9765772 L212.756629,41.2355204 L212.68764,53.7763687 C212.68764,60.9348819 206.906475,66.7515654 199.730714,66.8671458 L199.512824,66.8689048 L199.512824,53.7763687 L199.549952,53.776197 L199.585957,41.2227353 C199.588375,40.3714139 200.283493,39.6826086 201.140162,39.6826086 L211.202425,39.6826086 Z M159.772131,44.2581176 L162.521311,51.7308235 L165.24918,44.2581176 L169.191803,44.2581176 L161.732787,61.88 L157.811475,61.88 L160.539344,55.7990588 L155.701639,44.2581176 L159.772131,44.2581176 Z M247.576546,39.6676355 C253.799579,39.7663189 258.88039,44.5375559 259.421814,50.6054644 L259.469532,51.3746238 L259.469532,58.7615948 C259.469532,59.587115 258.81785,60.2613188 257.997869,60.3039569 L241.649027,60.3060976 C240.790674,60.3060976 240.094823,59.6146323 240.094823,58.7615948 L240.094823,41.2105509 C240.094823,40.3575563 240.790674,39.6660481 241.649027,39.6660481 L247.576546,39.6676355 Z M274.65618,39.6660481 C280.183448,39.6660481 284.702167,43.9572776 285.022808,49.3700736 L285.040984,49.3699449 L285.040984,58.7615948 C285.040984,59.6145894 284.345175,60.3060976 283.486779,60.3060976 L274.036182,60.3060976 L274.036009,60.2879926 C268.589343,59.9692244 264.271332,55.478754 264.271332,49.9860729 C264.271332,44.2864712 268.920777,39.6660481 274.65618,39.6660481 Z M231.424435,39.6660481 C232.282788,39.6660481 232.978639,40.3575134 232.978639,41.2105509 L232.978639,58.7615519 C232.978639,59.6145894 232.282788,60.3060547 231.424435,60.3060547 L221.358027,60.3060547 C220.499675,60.3060547 219.803823,59.6145894 219.803823,58.7615519 L219.803823,41.2105509 C219.803823,40.3575134 220.499675,39.6660481 221.358027,39.6660481 L231.424435,39.6660481 Z M145.152459,40.3611765 L145.152459,45.9496471 L145.374951,45.6284706 C145.695475,45.2173647 146.111475,44.8747765 146.622951,44.6007059 C147.262295,44.2581176 147.993989,44.0868235 148.818033,44.0868235 C149.798361,44.0868235 150.686339,44.3366275 151.481967,44.8362353 C152.277596,45.3358431 152.906284,46.0495686 153.368033,46.9774118 C153.829781,47.9052549 154.060656,48.9829804 154.060656,50.2105882 C154.060656,51.4381961 153.829781,52.5194902 153.368033,53.4544706 C152.906284,54.389451 152.277596,55.1103137 151.481967,55.6170588 C150.686339,56.1238039 149.798361,56.3771765 148.818033,56.3771765 C147.979781,56.3771765 147.248087,56.209451 146.622951,55.874 C146.122842,55.6056392 145.709115,55.2664769 145.38177,54.8565129 L145.152459,54.5357647 L145.152459,56.2058824 L141.508197,56.2058824 L141.508197,40.3611765 L145.152459,40.3611765 Z M87.1,44.0868235 C88.2508197,44.0868235 89.2737705,44.3294902 90.1688525,44.8148235 C91.0639344,45.3001569 91.7636612,45.9924706 92.2680328,46.8917647 C92.7724044,47.7910588 93.0245902,48.8402353 93.0245902,50.0392941 L93.0086066,50.5638824 L93.0086066,50.5638824 L92.9606557,51.1098824 L84.7131148,51.1098824 L84.7566257,51.4664477 C84.8543033,52.0364368 85.0777778,52.4849935 85.4270492,52.8121176 C85.8461749,53.2046667 86.3612022,53.4009412 86.9721311,53.4009412 C87.7677596,53.4009412 88.3512722,53.1058603 88.7226691,52.5156985 L88.8688525,52.2447059 L92.747541,52.2447059 L92.6090164,52.7063435 C92.3987432,53.3092988 92.0861749,53.8620078 91.6713115,54.3644706 C91.1527322,54.992549 90.5027322,55.4850196 89.7213115,55.8418824 C88.9398907,56.1987451 88.0661202,56.3771765 87.1,56.3771765 C85.9349727,56.3771765 84.8978142,56.1273725 83.9885246,55.6277647 C83.079235,55.1281569 82.3688525,54.4144314 81.857377,53.4865882 C81.3459016,52.5587451 81.0901639,51.4738824 81.0901639,50.232 C81.0901639,48.9901176 81.3423497,47.9052549 81.8467213,46.9774118 C82.3510929,46.0495686 83.0579235,45.3358431 83.9672131,44.8362353 C84.8765027,44.3366275 85.920765,44.0868235 87.1,44.0868235 Z M111.480328,44.0868235 C112.631148,44.0868235 113.654098,44.3294902 114.54918,44.8148235 C115.444262,45.3001569 116.143989,45.9924706 116.648361,46.8917647 C117.152732,47.7910588 117.404918,48.8402353 117.404918,50.0392941 L117.388934,50.5638824 L117.388934,50.5638824 L117.340984,51.1098824 L109.093443,51.1098824 L109.136954,51.4664477 C109.234631,52.0364368 109.458106,52.4849935 109.807377,52.8121176 C110.226503,53.2046667 110.74153,53.4009412 111.352459,53.4009412 C112.148087,53.4009412 112.7316,53.1058603 113.102997,52.5156985 L113.24918,52.2447059 L117.127869,52.2447059 L116.989344,52.7063435 C116.779071,53.3092988 116.466503,53.8620078 116.051639,54.3644706 C115.53306,54.992549 114.88306,55.4850196 114.101639,55.8418824 C113.320219,56.1987451 112.446448,56.3771765 111.480328,56.3771765 C110.315301,56.3771765 109.278142,56.1273725 108.368852,55.6277647 C107.459563,55.1281569 106.74918,54.4144314 106.237705,53.4865882 C105.72623,52.5587451 105.470492,51.4738824 105.470492,50.232 C105.470492,48.9901176 105.722678,47.9052549 106.227049,46.9774118 C106.731421,46.0495686 107.438251,45.3358431 108.347541,44.8362353 C109.256831,44.3366275 110.301093,44.0868235 111.480328,44.0868235 Z M132.216393,40.3611765 L132.216393,56.2058824 L128.572131,56.2058824 L128.572131,54.4929412 L128.350066,54.8218259 C128.030678,55.2420675 127.618087,55.5892235 127.112295,55.8632941 C126.480055,56.2058824 125.744809,56.3771765 124.906557,56.3771765 C123.92623,56.3771765 123.038251,56.1238039 122.242623,55.6170588 C121.446995,55.1103137 120.818306,54.389451 120.356557,53.4544706 C119.894809,52.5194902 119.663934,51.4381961 119.663934,50.2105882 C119.663934,48.9829804 119.894809,47.9052549 120.356557,46.9774118 C120.818306,46.0495686 121.446995,45.3358431 122.242623,44.8362353 C123.038251,44.3366275 123.92623,44.0868235 124.906557,44.0868235 C125.687978,44.0868235 126.401913,44.2509804 127.048361,44.5792941 C127.565519,44.8419451 127.994022,45.1776816 128.333869,45.5865035 L128.572131,45.9068235 L128.572131,40.3611765 L132.216393,40.3611765 Z M53.1081967,44.0868235 C54.273224,44.0868235 55.3245902,44.3366275 56.2622951,44.8362353 C57.2,45.3358431 57.9387978,46.0531373 58.4786885,46.9881176 C59.0185792,47.923098 59.2885246,49.0043922 59.2885246,50.232 C59.2885246,51.4596078 59.0150273,52.540902 58.4680328,53.4758824 C57.9210383,54.4108627 57.1751366,55.1281569 56.2303279,55.6277647 C55.2855191,56.1273725 54.2306011,56.3771765 53.0655738,56.3771765 C51.9005464,56.3771765 50.8527322,56.1273725 49.9221311,55.6277647 C48.9915301,55.1281569 48.2598361,54.4144314 47.7270492,53.4865882 C47.1942623,52.5587451 46.9278689,51.4738824 46.9278689,50.232 C46.9278689,49.0043922 47.1978142,47.923098 47.7377049,46.9881176 C48.2775956,46.0531373 49.0163934,45.3358431 49.9540984,44.8362353 C50.8918033,44.3366275 51.9431694,44.0868235 53.1081967,44.0868235 Z M64.7016393,44.2581176 L66.3852459,52.8014118 L68.3885246,44.2581176 L72.2459016,44.2581176 L74.2704918,52.7585882 L75.9327869,44.2581176 L79.3639344,44.2581176 L76.1459016,56.2058824 L72.1180328,56.2058824 L70.242623,48.4548235 L68.3032787,56.2058824 L64.2967213,56.2058824 L61.057377,44.2581176 L64.7016393,44.2581176 Z M103.381967,44.1296471 L103.381967,48.0051765 L102.380328,48.0051765 L101.944627,48.0215327 C101.25003,48.0760534 100.713297,48.2668758 100.334426,48.594 C99.9447307,48.9304706 99.7220475,49.4845546 99.6663767,50.2562521 L99.652459,50.6602353 L99.652459,56.2058824 L96.0081967,56.2058824 L96.0081967,44.2581176 L99.652459,44.2581176 L99.652459,46.2494118 L99.9209836,45.8721365 C100.296066,45.391371 100.739344,44.9996784 101.25082,44.6970588 C101.762295,44.3944392 102.319235,44.2128675 102.921639,44.1523435 L103.381967,44.1296471 Z M39.1918033,41.1748235 L39.773133,41.1920719 C40.7163631,41.2495664 41.5313297,41.4507974 42.2180328,41.7957647 C43.0420765,42.2097255 43.6601093,42.7807059 44.0721311,43.5087059 C44.484153,44.2367059 44.6901639,45.0717647 44.6901639,46.0138824 C44.6901639,46.8846275 44.4912568,47.6804314 44.0934426,48.4012941 C43.6956284,49.1221569 43.0846995,49.7038431 42.2606557,50.1463529 C41.5739526,50.5151111 40.7491196,50.73022 39.7861566,50.7916797 L39.1918033,50.8101176 L36.9327869,50.8101176 L36.9327869,56.2058824 L33.2885246,56.2058824 L33.2885246,41.1748235 L39.1918033,41.1748235 Z M53.1081967,47.2557647 C52.3978142,47.2557647 51.8081967,47.5091373 51.3393443,48.0158824 C50.8704918,48.5226275 50.6360656,49.2613333 50.6360656,50.232 C50.6360656,51.1883922 50.8669399,51.9235294 51.3286885,52.4374118 C51.7904372,52.9512941 52.3693989,53.2082353 53.0655738,53.2082353 C53.7617486,53.2082353 54.354918,52.9512941 54.845082,52.4374118 C55.3352459,51.9235294 55.5803279,51.1883922 55.5803279,50.232 C55.5803279,49.2756078 55.3423497,48.5404706 54.8663934,48.0265882 C54.3904372,47.5127059 53.8043716,47.2557647 53.1081967,47.2557647 Z M125.972131,47.2771765 C125.247541,47.2771765 124.63306,47.5376863 124.128689,48.0587059 C123.624317,48.5797255 123.372131,49.2970196 123.372131,50.2105882 C123.372131,51.1241569 123.624317,51.8485882 124.128689,52.3838824 C124.63306,52.9191765 125.247541,53.1868235 125.972131,53.1868235 C126.696721,53.1868235 127.311202,52.9227451 127.815574,52.3945882 C128.319945,51.8664314 128.572131,51.1455686 128.572131,50.232 C128.572131,49.3184314 128.319945,48.5975686 127.815574,48.0694118 C127.311202,47.5412549 126.696721,47.2771765 125.972131,47.2771765 Z M147.731148,47.2771765 C147.006557,47.2771765 146.392077,47.5412549 145.887705,48.0694118 C145.383333,48.5975686 145.131148,49.3184314 145.131148,50.232 C145.131148,51.1455686 145.383333,51.8664314 145.887705,52.3945882 C146.392077,52.9227451 147.006557,53.1868235 147.731148,53.1868235 C148.455738,53.1868235 149.07377,52.9191765 149.585246,52.3838824 C150.096721,51.8485882 150.352459,51.1241569 150.352459,50.2105882 C150.352459,49.2970196 150.100273,48.5797255 149.595902,48.0587059 C149.09153,47.5376863 148.469945,47.2771765 147.731148,47.2771765 Z M87.057377,47.0202353 C86.4464481,47.0202353 85.9314208,47.1986667 85.5122951,47.5555294 C85.1769945,47.8410196 84.9439891,48.2224345 84.8132787,48.6997741 L84.7344262,49.0757647 L89.295082,49.0757647 C89.295082,48.4476863 89.0819672,47.9480784 88.6557377,47.5769412 C88.2295082,47.2058039 87.6967213,47.0202353 87.057377,47.0202353 Z M111.437705,47.0202353 C110.826776,47.0202353 110.311749,47.1986667 109.892623,47.5555294 C109.557322,47.8410196 109.324317,48.2224345 109.193607,48.6997741 L109.114754,49.0757647 L113.67541,49.0757647 C113.67541,48.4476863 113.462295,47.9480784 113.036066,47.5769412 C112.609836,47.2058039 112.077049,47.0202353 111.437705,47.0202353 Z M38.9147541,44.1296471 L36.9327869,44.1296471 L36.9327869,47.8981176 L38.9147541,47.8981176 C39.610929,47.8981176 40.1295082,47.7339608 40.4704918,47.4056471 C40.8114754,47.0773333 40.9819672,46.6134118 40.9819672,46.0138824 C40.9819672,45.4143529 40.8114754,44.9504314 40.4704918,44.6221176 C40.1863388,44.3485229 39.7788555,44.1889259 39.2480419,44.1433268 L38.9147541,44.1296471 Z M226.438116,24.0882353 C230.083028,24.0882353 233.037872,27.0245926 233.037872,30.646795 C233.037872,34.2689974 230.083028,37.2053547 226.438116,37.2053547 C222.793162,37.2053547 219.838361,34.2689974 219.838361,30.646795 C219.838361,27.0245926 222.793162,24.0882353 226.438116,24.0882353 Z" id="形状"></path>
            </g>
        </g>
    </g>
</svg>