<?xml version="1.0" encoding="UTF-8"?>
<svg width="320px" height="320px" viewBox="0 0 320 320" version="1.1" xmlns="http://www.w3.org/2000/svg" xmlns:xlink="http://www.w3.org/1999/xlink">
    <title>JCloud-dark</title>
    <g id="JCloud-dark" stroke="none" stroke-width="1" fill="none" fill-rule="evenodd">
        <g id="编组">
            <rect id="矩形备份-11" fill-rule="nonzero" x="0" y="0" width="320" height="320"></rect>
            <g id="编组-4备份" transform="translate(20.000000, 60.000000)">
                <path d="M256,79.8170732 C269.254834,79.8170732 280,90.5622392 280,103.817073 L280,163 C280,176.254834 269.254834,187 256,187 L196.571429,187 C183.316595,187 172.571429,176.254834 172.571429,163 L172.571429,103.817073 C172.571429,90.5622392 183.316595,79.8170732 196.571429,79.8170732 L256,79.8170732 Z M198.169366,110.093818 C195.503074,108.649809 192.149146,109.552333 190.574155,112.183335 L190.574155,112.183335 L190.444918,112.410652 C189.004211,115.083055 189.904672,118.444669 192.529657,120.02327 L192.529657,120.02327 L214.231325,133.073025 L192.421291,146.861608 L192.197604,147.010379 C189.714601,148.74624 189.008986,152.150329 190.640831,154.743329 C192.320671,157.412594 195.841369,158.21156 198.50453,156.52787 L198.50453,156.52787 L228.150872,137.785013 L228.366293,137.64224 C231.740047,135.299571 231.610909,130.197871 228.042505,128.051922 L228.042505,128.051922 L198.396164,110.223351 Z M260.581882,148.231707 L237.703833,148.231707 C235.184875,148.231707 233.142857,150.273726 233.142857,152.792683 C233.142857,155.31164 235.184875,157.353659 237.703833,157.353659 L237.703833,157.353659 L260.581882,157.353659 C263.100839,157.353659 265.142857,155.31164 265.142857,152.792683 C265.142857,150.273726 263.100839,148.231707 260.581882,148.231707 L260.581882,148.231707 Z" id="形状结合" fill="#FBCB67"></path>
                <path d="M141.776,0 C180.100571,0 214.04,23.3154785 227.931429,58.0873691 C229.787429,62.7348563 227.485714,67.9919798 222.789714,69.8288061 C218.094857,71.6667634 212.782857,69.3888274 210.925714,64.7413402 C199.768,36.811175 172.525714,18.0968107 141.776,18.0968107 C112.677714,18.0968107 87.5097143,36.1495104 76.6137143,63.8783485 C75.2468571,67.3563293 71.8628571,69.647838 68.0925714,69.647838 C40.7954286,69.647838 18.2857143,92.4192811 18.2857143,119.401626 C18.2857143,146.475586 40.1474286,168.459817 67.2685714,168.896403 L68.0925714,168.903189 L156.099429,168.903189 C161.148571,168.903189 165.242286,172.954613 165.242286,177.951595 C165.242286,182.854699 161.301714,186.846177 156.384,186.995476 L156.099429,187 L68.0925714,187 C30.4777143,187 0,156.72856 0,119.401626 C0,84.7258744 27.0422857,55.2868877 61.424,51.879032 L61.9257143,51.83379 L62.2068571,51.2365952 C76.8091429,20.4855897 106.501714,0.429799254 140.673143,0.006786304 L141.776,0 Z" id="路径备份-5" fill="#FBCB67"></path>
            </g>
        </g>
    </g>
</svg>