<svg width="196" height="196" xmlns="http://www.w3.org/2000/svg">
  <g fill="#009191">
    <path d="m114.273 78.817.743.01c14.942.557 23.351 6.6 30.048 15.432-3.066 30.618-29.92 52.984-60.417 51.743-15.517-.928-29.071-7.875-38.753-18.353 16.555-22.724 43.353-48.341 67.638-48.825l.74-.007Z" fill-opacity=".8"/>
    <path d="m32.447 105.7.011-.016c5.811-8.304 15.12-16.555 27.59-13.234 23.713 6.777 45.972 20.659 59.544 20.267 12.916-.373 18.132-4.101 23.791-9.215-6.897 25.397-31.506 43.028-59.08 41.934-24.974-1.456-44.889-18.042-51.856-39.737Z" fill-opacity=".8"/>
    <path d="m150.06 136.033 23.083 20.725c4.783 4.294 5.17 11.632.865 16.401-4.25 4.71-11.503 5.14-16.285 1.001l-.16-.141-24.38-21.888a78.302 78.302 0 0 0 16.877-16.098ZM19.104 83.965c2.072-37.95 35.21-66.93 73.18-64.86 37.971 2.76 67.657 35.19 64.896 73.14-2.762 37.95-35.21 66.93-73.18 64.86-37.97-2.07-66.967-35.19-64.896-73.14ZM91.442 30.93C60.37 29.66 32.469 53.76 31.2 84.836c-1.269 31.076 22.194 58.347 53.9 60.25 31.071 1.268 58.339-22.198 60.24-53.908 1.256-30.764-21.726-57.8-52.95-60.184l-.95-.064Z"/>
  </g>
</svg>
