<?xml version="1.0" encoding="UTF-8"?>
<svg width="235px" height="100px" viewBox="0 0 235 100" version="1.1" xmlns="http://www.w3.org/2000/svg" xmlns:xlink="http://www.w3.org/1999/xlink">
    <!-- Generator: Sketch 64 (93537) - https://sketch.com -->
    <title>Company logo/Dark/Company logo_Dark</title>
    <desc>Created with Sketch.</desc>
    <g id="页面-2" stroke="none" stroke-width="1" fill="none" fill-rule="evenodd">
        <path d="M63.5031483,36.3490646 C65.4913734,36.3490646 67.1031483,37.9608395 67.1031483,39.9490646 L67.1030945,39.9687365 L66.9430272,69.2610544 C66.9430272,85.9777417 53.5269902,99.5609456 36.8746443,99.830938 L36.3690476,99.835034 L36.3690476,69.2610544 L36.4550476,69.2600646 L36.5387251,39.9388664 C36.5443462,37.9546307 38.1544671,36.3490646 40.1387107,36.3490646 L63.5031483,36.3490646 Z M15.2869898,69.2410714 C23.7297611,69.2410714 30.5739796,76.0852899 30.5739796,84.5280612 C30.5739796,92.9708326 23.7297611,99.815051 15.2869898,99.815051 C6.84421846,99.815051 -1.18838273e-12,92.9708326 -1.18838273e-12,84.5280612 C-1.18838273e-12,76.0852899 6.84421846,69.2410714 15.2869898,69.2410714 Z M110.462925,36.3490646 C112.45115,36.3490646 114.062925,37.9608395 114.062925,39.9490646 L114.062925,80.9480442 C114.062925,82.9362693 112.45115,84.5480442 110.462925,84.5480442 L87.0889456,84.5480442 C85.1007205,84.5480442 83.4889456,82.9362693 83.4889456,80.9480442 L83.4889456,39.9490646 C83.4889456,37.9608395 85.1007205,36.3490646 87.0889456,36.3490646 L110.462925,36.3490646 Z M147.334609,36.1692177 L147.791321,36.1728598 C162.683657,36.4105374 174.757092,48.2515025 175.366588,63.0507163 L175.381539,63.5000739 L175.390731,63.5111843 L175.390731,80.7681973 C175.390731,82.6922861 173.881265,84.2638201 171.981924,84.3632072 L171.790731,84.3681973 L134.028997,84.3681973 C132.040771,84.3681973 130.428997,82.7564224 130.428997,80.7681973 L130.428997,39.7692177 C130.428997,37.7809926 132.040771,36.1692177 134.028997,36.1692177 L147.334609,36.1692177 Z M210.640731,35.8095238 C223.467441,35.8095238 233.953689,45.8302336 234.697977,58.4701558 L234.740221,58.4702381 L234.740221,80.4085034 C234.740221,82.3967285 233.128446,84.0085034 231.140221,84.0085034 L209.201956,84.0085034 L209.201243,83.9662223 C196.561618,83.2216228 186.541241,72.7355104 186.541241,59.9090136 C186.541241,46.5992329 197.330951,35.8095238 210.640731,35.8095238 Z M98.7359694,0 C107.178741,0 114.022959,6.84421846 114.022959,15.2869898 C114.022959,23.7297611 107.178741,30.5739796 98.7359694,30.5739796 C90.2931981,30.5739796 83.4489796,23.7297611 83.4489796,15.2869898 C83.4489796,6.84421846 90.2931981,0 98.7359694,0 Z" id="Company-logo/Dark/Company-logo_Dark" fill="#FFFFFF"></path>
    </g>
</svg>