<?xml version="1.0" encoding="UTF-8"?>
<svg width="236px" height="72px" viewBox="0 0 236 72" version="1.1" xmlns="http://www.w3.org/2000/svg" xmlns:xlink="http://www.w3.org/1999/xlink">
    <!-- Generator: Sketch 64 (93537) - https://sketch.com -->
    <title>Product logo/Core/vertical/dark/Product logo_Core_vertical_dark</title>
    <desc>Created with Sketch.</desc>
    <g id="页面-2" stroke="none" stroke-width="1" fill="none" fill-rule="evenodd">
        <g id="Product-logo/Core/vertical/dark/Product-logo_Core_vertical_dark" fill="#FFFFFF" fill-rule="nonzero">
            <path d="M104.596405,15.5232166 C105.727974,15.5232166 106.702381,15.1145943 107.519626,14.2973497 C108.336871,13.480105 108.745493,12.505698 108.745493,11.3741285 C108.745493,10.242559 108.336871,9.26815199 107.519626,8.45090737 C106.702381,7.63366275 105.727974,7.22504044 104.596405,7.22504044 C103.464835,7.22504044 102.490428,7.63366275 101.673184,8.45090737 C100.855939,9.26815199 100.447317,10.242559 100.447317,11.3741285 C100.447317,12.505698 100.855939,13.480105 101.673184,14.2973497 C102.490428,15.1145943 103.464835,15.5232166 104.596405,15.5232166 Z M92.9035203,70.2157413 C95.8372189,70.2157413 98.4146827,69.5766141 100.635912,68.2983597 C102.857141,67.0201052 104.606882,65.2703636 105.885137,63.0491346 C107.163391,60.8279056 107.802518,58.2713968 107.802518,55.3796081 L107.802518,55.3796081 L107.802518,24.3243125 C107.802518,23.360383 107.509149,22.5850483 106.922409,21.9983086 C106.335669,21.4115689 105.560334,21.118199 104.596405,21.118199 C103.674385,21.118199 102.909528,21.4115689 102.301833,21.9983086 C101.694139,22.5850483 101.390291,23.360383 101.390291,24.3243125 L101.390291,24.3243125 L101.390291,55.3796081 C101.390291,57.0140974 101.023579,58.4599917 100.290154,59.7172911 C99.5567297,60.9745905 98.5613677,61.9699526 97.3040683,62.7033772 C96.0467688,63.4368019 94.5799195,63.8035142 92.9035203,63.8035142 C91.9815007,63.8035142 91.2271211,64.0968841 90.6403813,64.6836238 C90.0536416,65.2703636 89.7602718,66.0456982 89.7602718,67.0096277 C89.7602718,67.9316473 90.0536416,68.6965045 90.6403813,69.3041992 C91.2271211,69.9118939 91.9815007,70.2157413 92.9035203,70.2157413 Z M130.308156,15.5232166 C131.439726,15.5232166 132.414133,15.1145943 133.231377,14.2973497 C134.048622,13.480105 134.457244,12.505698 134.457244,11.3741285 C134.457244,10.242559 134.048622,9.26815199 133.231377,8.45090737 C132.414133,7.63366275 131.439726,7.22504044 130.308156,7.22504044 C129.176587,7.22504044 128.20218,7.63366275 127.384935,8.45090737 C126.56769,9.26815199 126.159068,10.242559 126.159068,11.3741285 C126.159068,12.505698 126.56769,13.480105 127.384935,14.2973497 C128.20218,15.1145943 129.176587,15.5232166 130.308156,15.5232166 Z M130.308156,55.5053381 C131.272086,55.5053381 132.04742,55.2014907 132.63416,54.593796 C133.2209,53.9861013 133.51427,53.2212441 133.51427,52.2992246 L133.51427,52.2992246 L133.51427,24.3243125 C133.51427,23.360383 133.2209,22.5850483 132.63416,21.9983086 C132.04742,21.4115689 131.272086,21.118199 130.308156,21.118199 C129.386137,21.118199 128.621279,21.4115689 128.013585,21.9983086 C127.40589,22.5850483 127.102043,23.360383 127.102043,24.3243125 L127.102043,24.3243125 L127.102043,52.2992246 C127.102043,53.2212441 127.40589,53.9861013 128.013585,54.593796 C128.621279,55.2014907 129.386137,55.5053381 130.308156,55.5053381 Z M181.228761,55.568203 C182.15078,55.568203 182.915637,55.2643557 183.523332,54.656661 C184.131027,54.0489663 184.434874,53.2841091 184.434874,52.3620895 L184.434874,52.3620895 L184.434874,36.8973067 C184.434874,33.4187783 183.774792,30.4850797 182.454628,28.0962108 C181.134463,25.7073419 179.332334,23.8947352 177.04824,22.6583908 C174.764146,21.4220464 172.176205,20.8038742 169.284416,20.8038742 C166.518357,20.8038742 164.024714,21.4115689 161.803485,22.6269583 C160.69287,23.234653 159.700127,23.9497421 158.825257,24.7722254 L158.596911,24.9929715 L158.597371,24.3243125 C158.597371,23.4345314 158.347399,22.7054465 157.847455,22.1370579 L157.717261,21.9983086 C157.130522,21.4115689 156.355187,21.118199 155.391258,21.118199 C154.469238,21.118199 153.704381,21.4115689 153.096686,21.9983086 C152.488991,22.5850483 152.185144,23.360383 152.185144,24.3243125 L152.185144,24.3243125 L152.185144,52.3620895 C152.185144,53.2841091 152.488991,54.0489663 153.096686,54.656661 C153.704381,55.2643557 154.469238,55.568203 155.391258,55.568203 C156.355187,55.568203 157.130522,55.2643557 157.717261,54.656661 C158.304001,54.0489663 158.597371,53.2841091 158.597371,52.3620895 L158.597371,52.3620895 L158.596911,34.6346619 L158.602959,34.3264088 C158.651388,33.0030779 159.014608,31.8135329 159.692619,30.7577739 L159.85467,30.5165122 C160.69287,29.3220777 161.82444,28.3686256 163.249379,27.656156 C164.674318,26.9436863 166.266898,26.5874515 168.027117,26.5874515 C169.954976,26.5874515 171.662808,26.9541638 173.150612,27.6875885 C174.638416,28.4210131 175.822373,29.5421051 176.702483,31.0508644 C177.582592,32.5596237 178.022647,34.5084378 178.022647,36.8973067 L178.022647,36.8973067 L178.022647,52.3620895 C178.022647,53.2841091 178.326494,54.0489663 178.934189,54.656661 C179.541884,55.2643557 180.306741,55.568203 181.228761,55.568203 Z M216.118798,55.756798 C219.178226,55.756798 221.92333,54.9919408 224.354109,53.4622265 C225.743125,52.5881041 226.964502,51.536078 228.018238,50.3061484 L228.251413,50.0267438 L228.251737,52.3620895 C228.251737,53.2131845 228.510636,53.930366 229.028435,54.5136339 L229.163279,54.656661 C229.770974,55.2643557 230.535831,55.568203 231.45785,55.568203 C232.37987,55.568203 233.144727,55.2643557 233.752422,54.656661 C234.360117,54.0489663 234.663964,53.2841091 234.663964,52.3620895 L234.663964,52.3620895 L234.663964,38.343201 C234.663964,35.0323126 233.899107,32.0567039 232.369392,29.4163752 C230.839678,26.7760464 228.775612,24.6910249 226.177193,23.1613106 C223.578774,21.6315963 220.645075,20.8667391 217.376097,20.8667391 C214.107118,20.8667391 211.162942,21.6315963 208.543569,23.1613106 C205.924195,24.6910249 203.849651,26.7760464 202.319936,29.4163752 C200.790222,32.0567039 200.025365,35.0323126 200.025365,38.343201 C200.025365,41.6540895 200.727357,44.6192206 202.131342,47.2385944 C203.535326,49.8579682 205.452707,51.9325122 207.883486,53.4622265 C210.314265,54.9919408 213.059369,55.756798 216.118798,55.756798 Z M217.376097,50.0989506 C215.280598,50.0989506 213.384171,49.5855533 211.686817,48.5587588 C209.989463,47.5319643 208.648343,46.1279799 207.663459,44.3468057 C206.678574,42.5656316 206.186132,40.56443 206.186132,38.343201 C206.186132,36.0800621 206.678574,34.0579055 207.663459,32.2767313 C208.648343,30.4955572 209.989463,29.0915728 211.686817,28.0647783 C213.384171,27.0379838 215.280598,26.5245865 217.376097,26.5245865 C219.513506,26.5245865 221.42041,27.0379838 223.096809,28.0647783 C224.773209,29.0915728 226.093373,30.4955572 227.057302,32.2767313 C228.021232,34.0579055 228.503197,36.0800621 228.503197,38.343201 C228.503197,40.56443 228.021232,42.5656316 227.057302,44.3468057 C226.093373,46.1279799 224.773209,47.5319643 223.096809,48.5587588 C221.42041,49.5855533 219.513506,50.0989506 217.376097,50.0989506 Z" id="jina" stroke="#FFFFFF" stroke-width="1.67259786"></path>
            <g id="编组-11备份-7" transform="translate(0.839362, 0.309609)">
                <path d="M42.428869,26.0659305 C31.5676915,25.8163538 19.4316905,37.4278753 12.0263423,47.6605194 C16.2227063,51.9033231 23.2757083,55.6579178 29.6936768,55.9074945 C43.0233037,56.6562246 54.5242712,46.2816421 55.7584959,33.0540777 C52.7963566,29.0608507 49.0936825,26.3155072 42.428869,26.0659305 Z" id="路径" fill-opacity="0.803488"></path>
                <path d="M55.3252041,36.5000207 C52.6994318,38.9832568 50.4865111,40.827274 44.5627724,41.0037955 C38.6390338,41.180317 28.9233568,34.9300453 18.5730342,31.8789381 C13.0192025,30.3533844 8.9020747,34.2523608 6.37760574,38.0662449 C9.40696847,47.9823435 18.2426097,55.3558527 29.0978262,55.8643707 C41.467724,56.8814064 52.8007351,48.4501909 55.3252041,36.5000207 Z" id="路径" fill-opacity="0.803488"></path>
                <path d="M57.822558,51.4812323 L67.99806,60.607199 C70.106428,62.4981178 70.2770584,65.7294494 68.3794348,67.8295284 C66.5053906,69.9035125 63.3087187,70.0931853 61.200748,68.270365 L61.1299718,68.2080364 L50.3842248,58.5689973 C53.2059078,56.5892997 55.7147993,54.1973776 57.822558,51.4812323 Z" id="形状结合"></path>
                <path d="M31.9609649,5.27388464 C45.9494533,6.11420283 56.3009347,18.1587637 55.7413952,31.8839609 C54.9020859,45.8892641 42.8719858,56.2531886 29.1632672,55.6929765 C15.1747788,54.8526583 4.82329732,42.8080974 5.3828369,29.0829002 C5.94237648,15.3577029 18.2522463,4.71367246 31.9609649,5.27388464 M32.3326663,0.0509821588 C15.5801799,-0.863277386 0.959828153,11.9363562 0.0460561697,28.6977813 C-0.867715814,45.4592063 11.925092,60.0873589 28.6775783,61.0016185 C45.4300647,61.915878 59.7458258,49.1162444 60.9641884,32.3548194 C62.182551,15.5933945 49.0851526,1.26999491 32.3326663,0.0509821588 Z" id="形状"></path>
            </g>
        </g>
    </g>
</svg>