<svg id="edKCN8pxISh1" xmlns="http://www.w3.org/2000/svg" xmlns:xlink="http://www.w3.org/1999/xlink" viewBox="0 0 1334 420" shape-rendering="geometricPrecision" text-rendering="geometricPrecision"><style><![CDATA[#edKCN8pxISh5 {animation: edKCN8pxISh5__m 12000ms linear infinite normal forwards}@keyframes edKCN8pxISh5__m { 0% {d: path('M346.361416,182.109242C352.276565,253.171378,274.261811,346.051519,193.336842,342.759077C152.16334,340.296607,28.003048,335.988919,30.969978,224.429195C41.799491,209.56431,134.961254,186.576465,182.172556,187.759232C231.345444,188.991142,341.39782,233.889185,341.39782,233.889185');animation-timing-function: cubic-bezier(0.455,0.03,0.515,0.955)} 50% {d: path('M346.361416,182.109242C352.276565,253.171378,274.261811,346.051519,193.336842,342.759077C152.16334,340.296607,28.003048,335.988919,30.969978,224.429195C41.799491,209.56431,134.961254,232.706418,182.172556,233.889185C231.345444,235.121095,341.39782,233.889185,341.39782,233.889185');animation-timing-function: cubic-bezier(0.455,0.03,0.515,0.955)} 100% {d: path('M346.361416,182.109242C352.276565,253.171378,274.261811,346.051519,193.336842,342.759077C152.16334,340.296607,28.003048,335.988919,30.969978,224.429195C41.799491,209.56431,134.961254,186.576465,182.172556,187.759232C231.345444,188.991142,341.39782,233.889185,341.39782,233.889185')}} #edKCN8pxISh6 {animation: edKCN8pxISh6__m 12000ms linear infinite normal forwards}@keyframes edKCN8pxISh6__m { 0% {d: path('M346.361416,182.109242C352.276565,253.171378,255.685398,339.822525,174.760429,336.530083C133.586927,334.067613,18.002408,316.8989,20.969338,205.339175C31.798851,190.474291,70.418178,232.889174,123.822925,232.889174C167.688567,232.889174,222.523904,204.325027,267.22456,204.325027C305.794655,204.325027,341.39782,226.429176,341.39782,226.429176');animation-timing-function: cubic-bezier(0.445,0.05,0.55,0.95)} 25% {d: path('M346.361416,205.339174C352.276565,276.40131,255.685398,339.822525,174.760429,336.530083C133.586927,334.067613,28.003048,344.4489,30.969978,232.889175C41.799491,218.024291,83.274876,210,112.94418,210.3748C154.416127,210.898698,190.876647,237.491942,235.577303,237.491942C274.147398,237.491942,319.64033,218.701383,319.64033,218.701383');animation-timing-function: cubic-bezier(0.445,0.05,0.55,0.95)} 50% {d: path('M346.361416,182.109242C352.276565,253.171378,255.685398,339.822525,174.760429,336.530083C133.586927,334.067613,18.002408,316.8989,20.969338,205.339175C31.798851,190.474291,70.418178,232.889174,123.822925,232.889174C167.688567,232.889174,222.523904,204.325027,267.22456,204.325027C305.794655,204.325027,341.39782,226.429176,341.39782,226.429176');animation-timing-function: cubic-bezier(0.445,0.05,0.55,0.95)} 75% {d: path('M346.361416,205.339174C352.276565,276.40131,255.685398,339.822525,174.760429,336.530083C133.586927,334.067613,28.003048,344.4489,30.969978,232.889175C41.799491,218.024291,83.274876,210,112.94418,210.3748C154.416127,210.898698,190.876647,237.491942,235.577303,237.491942C274.147398,237.491942,319.64033,218.701383,319.64033,218.701383');animation-timing-function: cubic-bezier(0.445,0.05,0.55,0.95)} 100% {d: path('M346.361416,182.109242C352.276565,253.171378,255.685398,339.822525,174.760429,336.530083C133.586927,334.067613,18.002408,316.8989,20.969338,205.339175C31.798851,190.474291,70.418178,232.889174,123.822925,232.889174C167.688567,232.889174,222.523904,204.325027,267.22456,204.325027C305.794655,204.325027,341.39782,226.429176,341.39782,226.429176')}} #edKCN8pxISh7 {animation: edKCN8pxISh7__m 12000ms linear infinite normal forwards}@keyframes edKCN8pxISh7__m { 0% {d: path('M36.248834,229.240538L36.279297,229.199532C23.930343,221.668314,97.924685,204.628196,125.794953,204.32959C159.281869,203.970806,219.744642,232.889174,261.284774,232.889174C303.552075,232.889174,335.814799,208.624911,335.814799,229.240538C335.814799,287.684051,247.225393,340.986739,184.144584,341.759174C150.809763,342.167365,104.248129,329.998155,73.728814,301.759174C53.210998,282.774403,43.68158,252.382813,36.248834,229.240538Z');animation-timing-function: cubic-bezier(0.42,0,0.58,1)} 25% {d: path('M32.942006,245.049174L32.942006,218.701383C20.593052,211.170165,71.401229,237.491942,127.772906,237.491942C173.91322,237.491942,206.393025,210,248.428076,210C296.887939,210,342.380871,232.889175,342.380871,237.491942C342.380871,295.935454,247.225393,340.986739,184.144584,341.759174C149.485372,342.183582,106.622168,326.948449,74.710816,301.526758C55.29632,286.060498,39.935503,266.823822,32.942006,245.049174Z');animation-timing-function: cubic-bezier(0.42,0,0.58,1)} 50% {d: path('M36.248834,229.240538L36.279297,229.199532C23.930343,221.668314,97.924685,204.628196,125.794953,204.32959C159.281869,203.970806,219.744642,232.889174,261.284774,232.889174C303.552075,232.889174,335.814799,208.624911,335.814799,229.240538C335.814799,287.684051,247.225393,340.986739,184.144584,341.759174C150.809763,342.167365,100.315925,325.398155,69.79661,297.159174C49.278794,278.174403,43.68158,252.382813,36.248834,229.240538Z');animation-timing-function: cubic-bezier(0.42,0,0.58,1)} 75% {d: path('M32.942006,245.049174L32.942006,218.701383C20.593052,211.170165,71.401229,237.491942,127.772906,237.491942C173.91322,237.491942,206.393025,210,248.428076,210C296.887939,210,342.380871,232.889175,342.380871,237.491942C342.380871,295.935454,247.225393,340.986739,184.144584,341.759174C149.485372,342.183582,106.622168,326.948449,74.710816,301.526758C55.29632,286.060498,39.935503,266.823822,32.942006,245.049174Z');animation-timing-function: cubic-bezier(0.42,0,0.58,1)} 100% {d: path('M36.248834,229.240538L36.279297,229.199532C23.930343,221.668314,97.924685,204.628196,125.794953,204.32959C159.281869,203.970806,219.744642,232.889174,261.284774,232.889174C303.552075,232.889174,335.814799,208.624911,335.814799,229.240538C335.814799,287.684051,247.225393,340.986739,184.144584,341.759174C150.809763,342.167365,105.231179,325.968155,74.711864,297.729174C54.194048,278.744403,43.68158,252.382813,36.248834,229.240538Z')}}]]></style><g id="edKCN8pxISh2"><g id="edKCN8pxISh3"><g id="edKCN8pxISh4"><path id="edKCN8pxISh5" d="M346.361416,182.109242C352.276565,253.171378,274.261811,346.051519,193.336842,342.759077C152.16334,340.296607,28.003048,335.988919,30.969978,224.429195C41.799491,209.56431,134.961254,186.576465,182.172556,187.759232C231.345444,188.991142,341.39782,233.889185,341.39782,233.889185" transform="matrix(1 0 0 1.000001 1.972028 -0.000245)" fill="rgb(50,200,205)" stroke="rgb(255,255,255)" stroke-width="3"/><path id="edKCN8pxISh6" d="M346.361416,182.109242C352.276565,253.171378,255.685398,339.822525,174.760429,336.530083C133.586927,334.067613,18.002408,316.8989,20.969338,205.339175C31.798851,190.474291,70.418178,232.889174,123.822925,232.889174C167.688567,232.889174,222.523904,204.325027,267.22456,204.325027C305.794655,204.325027,341.39782,226.429176,341.39782,226.429176" transform="matrix(1 0 0 1 1.972028 0)" fill="rgb(251,203,103)" stroke="rgb(255,255,255)" stroke-width="5"/><path id="edKCN8pxISh7" d="M36.248834,229.240538L36.279297,229.199532C23.930343,221.668314,97.924685,204.628196,125.794953,204.32959C159.281869,203.970806,219.744642,232.889174,261.284774,232.889174C303.552075,232.889174,335.814799,208.624911,335.814799,229.240538C335.814799,287.684051,247.225393,340.986739,184.144584,341.759174C150.809763,342.167365,104.248129,329.998155,73.728814,301.759174C53.210998,282.774403,43.68158,252.382813,36.248834,229.240538Z" fill="rgb(255,118,115)" stroke="rgb(255,255,255)" stroke-width="8"/><path id="edKCN8pxISh8" d="M348.333444,310.720142L409.585573,365.712409C422.277045,377.106909,423.304167,396.578612,411.881286,409.233494C400.600344,421.73113,381.357748,422.874079,368.668669,411.889933L368.242627,411.514347L303.552075,353.434439C320.539756,341.504169,335.644198,327.089247,348.333444,310.720142ZM0.844866,172.556319C6.340588,71.85609,94.272152,-5.042267,195.027069,0.450473C295.781985,7.774126,374.554011,93.82705,367.22638,194.52728C359.89875,295.227508,273.799094,372.125865,173.044178,366.633126C72.289261,361.140385,-4.650857,273.25655,0.844866,172.556319ZM192.791536,31.828919C110.34283,28.463245,36.307259,92.411049,32.942006,174.870059C29.576752,257.329068,91.833937,329.691057,175.965268,334.739568C258.413973,338.105241,330.766919,275.840274,335.814799,191.698428C339.146399,110.064009,278.161447,38.325679,195.308869,32.000511L192.791536,31.828919Z" transform="matrix(1 0 0 1 0 0.575226)" fill="rgb(0,145,145)" stroke="none" stroke-width="1"/></g><path id="edKCN8pxISh9" d="M634.62,333.66C657.926667,333.66,676.736667,326.82,691.05,313.14C705.363333,299.46,712.52,280.84,712.52,257.28L712.52,257.28L712.52,66.9L668.82,66.9L668.82,257.28C668.82,268.68,665.906667,277.863333,660.08,284.83C654.253333,291.796667,645.766667,295.28,634.62,295.28C623.473333,295.28,615.05,291.86,609.35,285.02C603.65,278.18,600.673333,268.933333,600.42,257.28L600.42,257.28L556.72,257.28C556.72,280.84,563.876667,299.46,578.19,313.14C592.503333,326.82,611.313333,333.66,634.62,333.66ZM805.683333,93.88C813.41,93.88,819.933333,91.22,825.253333,85.9C830.573333,80.58,833.233333,73.993333,833.233333,66.14C833.233333,58.286667,830.573333,51.7,825.253333,46.38C819.933333,41.06,813.41,38.4,805.683333,38.4C797.956667,38.4,791.433333,41.06,786.113333,46.38C780.793333,51.7,778.133333,58.286667,778.133333,66.14C778.133333,73.993333,780.793333,80.58,786.113333,85.9C791.433333,91.22,797.956667,93.88,805.683333,93.88ZM827.153333,331L827.153333,121.62L783.833333,121.62L783.833333,331L827.153333,331ZM928.486667,331L928.486667,213.96C928.486667,195.213333,933.236667,180.836667,942.736667,170.83C952.236667,160.823333,965.093333,155.82,981.306667,155.82C997.52,155.82,1010.31333,160.823333,1019.68667,170.83C1029.06,180.836667,1033.74667,195.213333,1033.74667,213.96L1033.74667,213.96L1033.74667,331L1076.68667,331L1076.68667,207.5C1076.68667,179.38,1069.02333,157.466667,1053.69667,141.76C1038.37,126.053333,1018.92667,118.2,995.366667,118.2C964.713333,118.2,942.42,130.36,928.486667,154.68L928.486667,154.68L928.486667,121.62L885.166667,121.62L885.166667,331L928.486667,331ZM1217.16,334.42C1233.62667,334.42,1248.06667,330.556667,1260.48,322.83C1272.89333,315.103333,1282.64667,304.78,1289.74,291.86L1289.74,291.86L1289.74,331L1333.44,331L1333.44,121.62L1289.74,121.62L1289.74,158.86C1282.9,146.7,1273.21,136.883333,1260.67,129.41C1248.13,121.936667,1233.62667,118.2,1217.16,118.2C1189.04,118.2,1165.54333,128.143333,1146.67,148.03C1127.79667,167.916667,1118.36,193.756667,1118.36,225.55C1118.36,257.343333,1127.86,283.436667,1146.86,303.83C1165.86,324.223333,1189.29333,334.42,1217.16,334.42ZM1226.28,296.8C1209.05333,296.8,1194.17,290.276667,1181.63,277.23C1169.09,264.183333,1162.82,246.893333,1162.82,225.36C1162.82,203.826667,1169.09,186.853333,1181.63,174.44C1194.17,162.026667,1209.05333,155.82,1226.28,155.82C1243.50667,155.82,1258.39,162.153333,1270.93,174.82C1283.47,187.486667,1289.74,204.586667,1289.74,226.12C1289.74,247.653333,1283.40667,264.88,1270.74,277.8C1258.32667,290.466667,1243.50667,296.8,1226.28,296.8Z" transform="matrix(1 0 0 1 -34.527719 8.424183)" fill="rgb(0,145,145)" stroke="none" stroke-width="1"/></g></g><path id="edKCN8pxISh10" d="" fill="none" stroke="rgb(63,87,135)" stroke-width="2.668"/><ellipse id="edKCN8pxISh11" rx="165.560716" ry="165.560716" transform="matrix(0.91339 0 0 0.91339 184.59333 184.109245)" fill="none" fill-opacity="0" stroke="rgb(255,255,255)" stroke-width="10"/></svg>