<svg id="eyHZd0EPpTF1" xmlns="http://www.w3.org/2000/svg" xmlns:xlink="http://www.w3.org/1999/xlink" viewBox="0 0 1334 420" shape-rendering="geometricPrecision" text-rendering="geometricPrecision"><style><![CDATA[#eyHZd0EPpTF6_ts {animation: eyHZd0EPpTF6_ts__ts 1500ms linear infinite normal forwards}@keyframes eyHZd0EPpTF6_ts__ts { 0% {transform: translate(188.008474px,279.817546px) scale(1,1);animation-timing-function: cubic-bezier(0.42,0,0.58,1)} 50% {transform: translate(188.008474px,279.817546px) scale(1,0.189264);animation-timing-function: cubic-bezier(0.42,0,0.58,1)} 100% {transform: translate(188.008474px,279.817546px) scale(1,1)}} #eyHZd0EPpTF7_to {animation: eyHZd0EPpTF7_to__to 1500ms linear infinite normal forwards}@keyframes eyHZd0EPpTF7_to__to { 0% {transform: translate(863.61017px,303.973007px);animation-timing-function: cubic-bezier(0.445,0.05,0.55,0.95)} 100% {transform: translate(-26.050848px,303.973007px)}} #eyHZd0EPpTF8_to {animation: eyHZd0EPpTF8_to__to 1500ms linear infinite normal forwards}@keyframes eyHZd0EPpTF8_to__to { 0% {transform: translate(-46.694915px,283.349973px);animation-timing-function: cubic-bezier(0.42,0,0.58,1)} 100% {transform: translate(352.423728px,283.349973px)}}]]></style><g id="eyHZd0EPpTF2"><g id="eyHZd0EPpTF3"><g id="eyHZd0EPpTF4"><g id="eyHZd0EPpTF5" clip-path="url(#eyHZd0EPpTF9)"><g id="eyHZd0EPpTF6_ts" transform="translate(188.008474,279.817546) scale(1,1)"><path id="eyHZd0EPpTF6" d="M23.59322,205.625424C23.59322,205.625424,134.120573,163.408279,183.864411,163.104182C236.015397,162.785369,352.423727,205.625424,352.423727,205.625424L352.423727,354.009665L23.593219,354.009665L23.59322,205.625424Z" transform="translate(-188.008473,-279.817544)" fill="rgb(50,200,205)" stroke="rgb(255,255,255)" stroke-width="0"/></g><g id="eyHZd0EPpTF7_to" transform="translate(863.61017,303.973007)"><path id="eyHZd0EPpTF7" d="M100.271186,18.845763C100.271186,18.845763,167.694618,-30.74761,201.525422,-30.798304C235.564441,-30.84931,303.552074,18.845763,303.552074,18.845763C303.552074,18.845763,368.580689,65.919176,401.084744,66.032204C434.063666,66.146883,500.37288,18.845763,500.37288,18.845763C500.37288,18.845763,565.595727,-30.595695,598.617705,-30.798304C632.464142,-31.005972,699.932202,18.845763,699.932202,18.845763C699.932202,18.845763,765.866437,65.843191,798.705614,66.032204C832.357892,66.225897,900.474574,18.845763,900.474574,18.845763L900.474574,137.834183L99.288134,137.834183L100.271186,18.845763Z" transform="scale(2.241721,1) translate(-499.881354,-78.339973)" fill="rgb(251,203,103)" stroke="rgb(255,255,255)" stroke-width="0"/></g><g id="eyHZd0EPpTF8_to" transform="translate(-46.694915,283.349973)"><path id="eyHZd0EPpTF8" d="M100.271186,18.845763C100.271186,18.845763,167.694618,-30.74761,201.525422,-30.798304C235.564441,-30.84931,303.552074,18.845763,303.552074,18.845763C303.552074,18.845763,368.580689,65.919176,401.084744,66.032204C434.063666,66.146883,500.37288,18.845763,500.37288,18.845763C500.37288,18.845763,565.595727,-30.595695,598.617705,-30.798304C632.464142,-31.005972,699.932202,18.845763,699.932202,18.845763C699.932202,18.845763,765.866437,65.843191,798.705614,66.032204C832.357892,66.225897,900.474574,18.845763,900.474574,18.845763L900.474574,137.834183L99.288134,137.834183L100.271186,18.845763Z" transform="translate(-499.881354,-78.339973)" fill="rgb(235,97,97)" stroke="rgb(255,255,255)" stroke-width="0"/></g><clipPath id="eyHZd0EPpTF9" transform="matrix(0.970024 0 0 0.970022 4.804448 3.519164)"><ellipse id="eyHZd0EPpTF10" rx="165.560716" ry="165.560716" transform="matrix(0.881106 0 0 0.881106 184.59333 188.232861)" fill="none" fill-opacity="0" stroke="rgb(255,255,255)" stroke-width="10"/></clipPath></g><path id="eyHZd0EPpTF11" d="M348.333444,310.720142L409.585573,365.712409C422.277045,377.106909,423.304167,396.578612,411.881286,409.233494C400.600344,421.73113,381.357748,422.874079,368.668669,411.889933L368.242627,411.514347L303.552075,353.434439C320.539756,341.504169,335.644198,327.089247,348.333444,310.720142ZM0.844866,172.556319C6.340588,71.85609,94.272152,-5.042267,195.027069,0.450473C295.781985,7.774126,374.554011,93.82705,367.22638,194.52728C359.89875,295.227508,273.799094,372.125865,173.044178,366.633126C72.289261,361.140385,-4.650857,273.25655,0.844866,172.556319ZM192.791536,31.828919C110.34283,28.463245,36.307259,92.411049,32.942006,174.870059C29.576752,257.329068,91.833937,329.691057,175.965268,334.739568C258.413973,338.105241,330.766919,275.840274,335.814799,191.698428C339.146399,110.064009,278.161447,38.325679,195.308869,32.000511L192.791536,31.828919Z" transform="matrix(1 0 0 1 0 0.575226)" fill="rgb(0,145,145)" stroke="none" stroke-width="1"/></g><path id="eyHZd0EPpTF12" d="M634.62,333.66C657.926667,333.66,676.736667,326.82,691.05,313.14C705.363333,299.46,712.52,280.84,712.52,257.28L712.52,257.28L712.52,66.9L668.82,66.9L668.82,257.28C668.82,268.68,665.906667,277.863333,660.08,284.83C654.253333,291.796667,645.766667,295.28,634.62,295.28C623.473333,295.28,615.05,291.86,609.35,285.02C603.65,278.18,600.673333,268.933333,600.42,257.28L600.42,257.28L556.72,257.28C556.72,280.84,563.876667,299.46,578.19,313.14C592.503333,326.82,611.313333,333.66,634.62,333.66ZM805.683333,93.88C813.41,93.88,819.933333,91.22,825.253333,85.9C830.573333,80.58,833.233333,73.993333,833.233333,66.14C833.233333,58.286667,830.573333,51.7,825.253333,46.38C819.933333,41.06,813.41,38.4,805.683333,38.4C797.956667,38.4,791.433333,41.06,786.113333,46.38C780.793333,51.7,778.133333,58.286667,778.133333,66.14C778.133333,73.993333,780.793333,80.58,786.113333,85.9C791.433333,91.22,797.956667,93.88,805.683333,93.88ZM827.153333,331L827.153333,121.62L783.833333,121.62L783.833333,331L827.153333,331ZM928.486667,331L928.486667,213.96C928.486667,195.213333,933.236667,180.836667,942.736667,170.83C952.236667,160.823333,965.093333,155.82,981.306667,155.82C997.52,155.82,1010.31333,160.823333,1019.68667,170.83C1029.06,180.836667,1033.74667,195.213333,1033.74667,213.96L1033.74667,213.96L1033.74667,331L1076.68667,331L1076.68667,207.5C1076.68667,179.38,1069.02333,157.466667,1053.69667,141.76C1038.37,126.053333,1018.92667,118.2,995.366667,118.2C964.713333,118.2,942.42,130.36,928.486667,154.68L928.486667,154.68L928.486667,121.62L885.166667,121.62L885.166667,331L928.486667,331ZM1217.16,334.42C1233.62667,334.42,1248.06667,330.556667,1260.48,322.83C1272.89333,315.103333,1282.64667,304.78,1289.74,291.86L1289.74,291.86L1289.74,331L1333.44,331L1333.44,121.62L1289.74,121.62L1289.74,158.86C1282.9,146.7,1273.21,136.883333,1260.67,129.41C1248.13,121.936667,1233.62667,118.2,1217.16,118.2C1189.04,118.2,1165.54333,128.143333,1146.67,148.03C1127.79667,167.916667,1118.36,193.756667,1118.36,225.55C1118.36,257.343333,1127.86,283.436667,1146.86,303.83C1165.86,324.223333,1189.29333,334.42,1217.16,334.42ZM1226.28,296.8C1209.05333,296.8,1194.17,290.276667,1181.63,277.23C1169.09,264.183333,1162.82,246.893333,1162.82,225.36C1162.82,203.826667,1169.09,186.853333,1181.63,174.44C1194.17,162.026667,1209.05333,155.82,1226.28,155.82C1243.50667,155.82,1258.39,162.153333,1270.93,174.82C1283.47,187.486667,1289.74,204.586667,1289.74,226.12C1289.74,247.653333,1283.40667,264.88,1270.74,277.8C1258.32667,290.466667,1243.50667,296.8,1226.28,296.8Z" transform="matrix(1 0 0 1 -34.527719 8.424183)" fill="rgb(0,145,145)" stroke="none" stroke-width="1"/></g></g></svg>