<svg height="20" viewBox="0 0 64 64" width="20" xmlns="http://www.w3.org/2000/svg"><g id="flat"><path d="m61.93 5.62c-.46-1.11-2.59-1.13-5.71-.45l-.13.03 1.13 1.78c.11-.03.22-.05.32-.07a12.35 12.35 0 0 1 2.23-.31 10.783 10.783 0 0 1 -1.9 1.27c-1.16.66-2.58 1.37-3.79 1.97l-.53.27a33.67 33.67 0 0 1 -4.51 1.94 5.818 5.818 0 0 1 -2.13.44c.02-.34.52-.86 1.48-1.54.06-.04.12-.09.18-.13l-.32-2.22c-.08.06-.16.11-.24.17-1.61 1.15-3.62 2.94-2.94 4.61a1.728 1.728 0 0 0 1.02.96 2.488 2.488 0 0 0 .93.16 11.137 11.137 0 0 0 3.84-.98c.98-.38 2.16-.91 3.59-1.63l.53-.26q1.575-.78 2.88-1.47c3.01-1.6 4.74-2.9 4.07-4.54z" fill="#ad6327"/><path d="m54.98 11.63q1.575-.78 2.88-1.47a5 5 0 0 1 -4.86 3.84 4.937 4.937 0 0 1 -2.14-.48c.98-.38 2.16-.91 3.59-1.63z" fill="#d3843d"/><path d="m53.55 10.11a33.67 33.67 0 0 1 -4.51 1.94 4.882 4.882 0 0 1 -1.04-3.05 1.7 1.7 0 0 1 .01-.23 5 5 0 0 1 8.21-3.6 5.122 5.122 0 0 1 1.32 1.74 5.178 5.178 0 0 1 .33.96c-1.16.66-2.58 1.37-3.79 1.97z" fill="#d3843d"/><path d="m38 33a5.8 5.8 0 0 1 -.35 2 6 6 0 0 1 -11.65-2 5.8 5.8 0 0 1 .35-2 6 6 0 0 1 11.65 2z" fill="#e97424"/><path d="m37.65 35a6 6 0 0 1 -11.65-2 5.8 5.8 0 0 1 .35-2h3.34a2.195 2.195 0 0 1 2.34 2 2.195 2.195 0 0 0 2.34 2z" fill="#f9bb4b"/><path d="m32 44c-9.374 0-17-4.935-17-11s7.626-11 17-11a22.5 22.5 0 0 1 11.964 3.157l-1.075 1.686a20.5 20.5 0 0 0 -10.889-2.843c-8.271 0-15 4.037-15 9s6.729 9 15 9 15-4.037 15-9a5.921 5.921 0 0 0 -1.151-3.427l1.639-1.146a7.883 7.883 0 0 1 1.512 4.573c0 6.065-7.626 11-17 11z" fill="#394d5c"/><path d="m32 48c-8.45 0-16.362-2.8-20.647-7.312l1.447-1.376c3.923 4.125 11.28 6.688 19.2 6.688 12.131 0 22-5.832 22-13s-9.869-13-22-13-22 5.832-22 13a7.7 7.7 0 0 0 .207 1.771l-1.948.458a9.784 9.784 0 0 1 -.259-2.229c0-8.271 10.767-15 24-15s24 6.729 24 15-10.767 15-24 15z" fill="#394d5c"/><path d="m32 52c-16.542 0-30-8.523-30-19 0-8.3 8.359-15.577 20.8-18.1l.4 1.961c-11.485 2.327-19.2 8.813-19.2 16.139 0 9.374 12.561 17 28 17a38.676 38.676 0 0 0 19.489-4.859l1.022 1.718c-5.574 3.316-12.859 5.141-20.511 5.141z" fill="#394d5c"/><path d="m57.725 42.688-1.45-1.376a12.015 12.015 0 0 0 3.725-8.312c0-9.374-12.561-17-28-17-1.313 0-2.63.056-3.915.166l-.17-1.992c1.34-.115 2.715-.174 4.085-.174 16.542 0 30 8.523 30 19a13.935 13.935 0 0 1 -4.275 9.688z" fill="#394d5c"/><circle cx="55" cy="45" fill="#91cdf2" r="4"/><circle cx="11" cy="38" fill="#d3843d" r="4"/><circle cx="45" cy="28" fill="#e1462b" r="4"/><circle cx="25" cy="14" fill="#f9bb4b" r="4"/><path d="m25 54h2v2h-2z" fill="#fcf05a"/><path d="m25 58h2v2h-2z" fill="#fcf05a"/><path d="m23 56h2v2h-2z" fill="#fcf05a"/><path d="m27 56h2v2h-2z" fill="#fcf05a"/><path d="m37 6h2v2h-2z" fill="#fcf05a"/><path d="m37 10h2v2h-2z" fill="#fcf05a"/><path d="m35 8h2v2h-2z" fill="#fcf05a"/><path d="m39 8h2v2h-2z" fill="#fcf05a"/><path d="m15 10a3 3 0 0 1 -3-3 1 1 0 0 0 -2 0 3 3 0 0 1 -3 3 1 1 0 0 0 0 2 3 3 0 0 1 3 3 1 1 0 0 0 2 0 3 3 0 0 1 3-3 1 1 0 0 0 0-2zm-4 2.031a4.988 4.988 0 0 0 -1.031-1.031 4.988 4.988 0 0 0 1.031-1.031 4.988 4.988 0 0 0 1.031 1.031 4.988 4.988 0 0 0 -1.031 1.031z" fill="#f98c96"/><path d="m57 54a3 3 0 0 1 -3-3 1 1 0 0 0 -2 0 3 3 0 0 1 -3 3 1 1 0 0 0 0 2 3 3 0 0 1 3 3 1 1 0 0 0 2 0 3 3 0 0 1 3-3 1 1 0 0 0 0-2zm-4 2.031a4.988 4.988 0 0 0 -1.031-1.031 4.988 4.988 0 0 0 1.031-1.031 4.988 4.988 0 0 0 1.031 1.031 4.988 4.988 0 0 0 -1.031 1.031z" fill="#f98c96"/><circle cx="7" cy="53" fill="#50b4f8" r="4"/><g fill="#32b1cc"><path d="m19 31h2v2h-2z"/><path d="m41 34h2v2h-2z"/><path d="m50 29h2v2h-2z"/><path d="m14 26h2v2h-2z"/><path d="m22 36h2v2h-2z"/><path d="m5 17h2v2h-2z"/><path d="m19 7h2v2h-2z"/><path d="m57 17h2v2h-2z"/><path d="m42 53h2v2h-2z"/><path d="m16 52h2v2h-2z"/></g></g></svg>