<svg id="mermaid-svg" width="100%" xmlns="http://www.w3.org/2000/svg" xmlns:xlink="http://www.w3.org/1999/xlink" height="374" style="max-width: 468px;" viewBox="-20 -20 468 374"><style>#mermaid-svg{font-family:"trebuchet ms",verdana,arial,sans-serif;font-size:16px;fill:#333;}#mermaid-svg .error-icon{fill:hsl(217.6470588235,100%,75%);}#mermaid-svg .error-text{fill:rgb(63.75,63.75,63.75);stroke:rgb(63.75,63.75,63.75);}#mermaid-svg .edge-thickness-normal{stroke-width:2px;}#mermaid-svg .edge-thickness-thick{stroke-width:3.5px;}#mermaid-svg .edge-pattern-solid{stroke-dasharray:0;}#mermaid-svg .edge-pattern-dashed{stroke-dasharray:3;}#mermaid-svg .edge-pattern-dotted{stroke-dasharray:2;}#mermaid-svg .marker{fill:#0b0b0b;}#mermaid-svg .marker.cross{stroke:#0b0b0b;}#mermaid-svg svg{font-family:"trebuchet ms",verdana,arial,sans-serif;font-size:16px;}#mermaid-svg g.classGroup text{fill:hsl(37.6470588235,60%,60%);fill:#333;stroke:none;font-family:"trebuchet ms",verdana,arial,sans-serif;font-size:10px;}#mermaid-svg g.classGroup text .title{font-weight:bolder;}#mermaid-svg .classTitle{font-weight:bolder;}#mermaid-svg .node rect,#mermaid-svg .node circle,#mermaid-svg .node ellipse,#mermaid-svg .node polygon,#mermaid-svg .node path{fill:#FFC666;stroke:hsl(37.6470588235,60%,60%);stroke-width:1px;}#mermaid-svg .divider{stroke:hsl(37.6470588235,60%,60%);stroke:1;}#mermaid-svg g.clickable{cursor:pointer;}#mermaid-svg g.classGroup rect{fill:#FFC666;stroke:hsl(37.6470588235,60%,60%);}#mermaid-svg g.classGroup line{stroke:hsl(37.6470588235,60%,60%);stroke-width:1;}#mermaid-svg .classLabel .box{stroke:none;stroke-width:0;fill:#FFC666;opacity:0.5;}#mermaid-svg .classLabel .label{fill:hsl(37.6470588235,60%,60%);font-size:10px;}#mermaid-svg .relation{stroke:#0b0b0b;stroke-width:1;fill:none;}#mermaid-svg .dashed-line{stroke-dasharray:3;}#mermaid-svg #compositionStart,#mermaid-svg .composition{fill:#0b0b0b !important;stroke:#0b0b0b !important;stroke-width:1;}#mermaid-svg #compositionEnd,#mermaid-svg .composition{fill:#0b0b0b !important;stroke:#0b0b0b !important;stroke-width:1;}#mermaid-svg #dependencyStart,#mermaid-svg .dependency{fill:#0b0b0b !important;stroke:#0b0b0b !important;stroke-width:1;}#mermaid-svg #dependencyStart,#mermaid-svg .dependency{fill:#0b0b0b !important;stroke:#0b0b0b !important;stroke-width:1;}#mermaid-svg #extensionStart,#mermaid-svg .extension{fill:#0b0b0b !important;stroke:#0b0b0b !important;stroke-width:1;}#mermaid-svg #extensionEnd,#mermaid-svg .extension{fill:#0b0b0b !important;stroke:#0b0b0b !important;stroke-width:1;}#mermaid-svg #aggregationStart,#mermaid-svg .aggregation{fill:#FFC666 !important;stroke:#0b0b0b !important;stroke-width:1;}#mermaid-svg #aggregationEnd,#mermaid-svg .aggregation{fill:#FFC666 !important;stroke:#0b0b0b !important;stroke-width:1;}#mermaid-svg .edgeTerminals{font-size:11px;}#mermaid-svg:root{--mermaid-font-family:"trebuchet ms",verdana,arial,sans-serif;}#mermaid-svg class{fill:apa;}</style><g></g><defs><marker id="extensionStart" class="extension" refX="0" refY="7" markerWidth="190" markerHeight="240" orient="auto"><path d="M 1,7 L18,13 V 1 Z"></path></marker></defs><defs><marker id="extensionEnd" refX="19" refY="7" markerWidth="20" markerHeight="28" orient="auto"><path d="M 1,1 V 13 L18,7 Z"></path></marker></defs><defs><marker id="compositionStart" class="extension" refX="0" refY="7" markerWidth="190" markerHeight="240" orient="auto"><path d="M 18,7 L9,13 L1,7 L9,1 Z"></path></marker></defs><defs><marker id="compositionEnd" refX="19" refY="7" markerWidth="20" markerHeight="28" orient="auto"><path d="M 18,7 L9,13 L1,7 L9,1 Z"></path></marker></defs><defs><marker id="aggregationStart" class="extension" refX="0" refY="7" markerWidth="190" markerHeight="240" orient="auto"><path d="M 18,7 L9,13 L1,7 L9,1 Z"></path></marker></defs><defs><marker id="aggregationEnd" refX="19" refY="7" markerWidth="20" markerHeight="28" orient="auto"><path d="M 18,7 L9,13 L1,7 L9,1 Z"></path></marker></defs><defs><marker id="dependencyStart" class="extension" refX="0" refY="7" markerWidth="190" markerHeight="240" orient="auto"><path d="M 5,7 L9,13 L1,7 L9,1 Z"></path></marker></defs><defs><marker id="dependencyEnd" refX="19" refY="7" markerWidth="20" markerHeight="28" orient="auto"><path d="M 18,7 L9,13 L14,7 L9,1 Z"></path></marker></defs><g id="classid-880-0" class="classGroup" transform="translate(119.5,0 )"><rect x="0" y="0" width="189" height="58" class=" "></rect><text y="15" x="0"><tspan class="title" x="55">880&lt;Document&gt;</tspan></text><line x1="0" y1="21" y2="21" x2="189"></line><text x="5" y="31" fill="white" class="classText"><tspan x="5">+id 🐲</tspan></text><line x1="0" y1="37" y2="37" x2="189"></line><text x="5" y="52" fill="white" class="classText"><tspan x="5">+embedding(&lt;class 'numpy.ndarray'&gt;)</tspan></text></g><g id="classid-63c-1" class="classGroup" transform="translate(0,108 )"><rect x="0" y="0" width="189" height="88" class=" "></rect><text y="15" x="0"><tspan class="title" x="55">63c&lt;Document&gt;</tspan></text><line x1="0" y1="21" y2="21" x2="189"></line><text x="5" y="31" fill="white" class="classText"><tspan x="5">+id 🐦</tspan><tspan x="5" dy="10">+granularity 1</tspan><tspan x="5" dy="10">+parent_id 🐲</tspan><tspan x="5" dy="10">+content_hash ab4eb93f68</tspan></text><line x1="0" y1="67" y2="67" x2="189"></line><text x="5" y="82" fill="white" class="classText"><tspan x="5">+embedding(&lt;class 'numpy.ndarray'&gt;)</tspan></text></g><g id="classid-1ea-2" class="classGroup" transform="translate(0,246 )"><rect x="0" y="0" width="189" height="88" class=" "></rect><text y="15" x="0"><tspan class="title" x="55">1ea&lt;Document&gt;</tspan></text><line x1="0" y1="21" y2="21" x2="189"></line><text x="5" y="31" fill="white" class="classText"><tspan x="5">+id 🐢</tspan><tspan x="5" dy="10">+granularity 2</tspan><tspan x="5" dy="10">+parent_id 🐦</tspan><tspan x="5" dy="10">+content_hash b73204970c</tspan></text><line x1="0" y1="67" y2="67" x2="189"></line><text x="5" y="82" fill="white" class="classText"><tspan x="5">+embedding(&lt;class 'numpy.ndarray'&gt;)</tspan></text></g><g id="classid-df9-3" class="classGroup" transform="translate(239,118 )"><rect x="0" y="0" width="189" height="68" class=" "></rect><text y="15" x="0"><tspan class="title" x="56.5">df9&lt;Document&gt;</tspan></text><line x1="0" y1="21" y2="21" x2="189"></line><text x="5" y="31" fill="white" class="classText"><tspan x="5">+id 🐯</tspan><tspan x="5" dy="10">+adjacency 1</tspan></text><line x1="0" y1="47" y2="47" x2="189"></line><text x="5" y="62" fill="white" class="classText"><tspan x="5">+embedding(&lt;class 'numpy.ndarray'&gt;)</tspan></text></g><path d="M149.82407407407408,58L140.6033950617284,62.166666666666664C131.3827160493827,66.33333333333333,112.94135802469135,74.66666666666667,103.72067901234568,83C94.5,91.33333333333333,94.5,99.66666666666667,94.5,103.83333333333333L94.5,108" id="edge0" class="relation" marker-end="url(#dependencyEnd)"></path><g class="classLabel"><rect class="box" x="91.765625" y="64.140625" width="38.015625" height="16.015625"></rect><text class="label" x="110.77105824848951" y="75.64738790444827" fill="red" text-anchor="middle">chunks</text></g><g class="cardinality"><text class="type2" x="104.5" y="95.5" fill="black" font-size="6">1/1</text></g><path d="M94.5,196L94.5,200.16666666666666C94.5,204.33333333333334,94.5,212.66666666666666,94.5,221C94.5,229.33333333333334,94.5,237.66666666666666,94.5,241.83333333333334L94.5,246" id="edge1" class="relation" marker-end="url(#dependencyEnd)"></path><g class="classLabel"><rect class="box" x="75.5" y="209.5" width="38" height="16"></rect><text class="label" x="94.5" y="221" fill="red" text-anchor="middle">chunks</text></g><g class="cardinality"><text class="type2" x="104.5" y="233.5" fill="black" font-size="6">1/1</text></g><path d="M278.1759259259259,58L287.3966049382716,62.166666666666664C296.61728395061726,66.33333333333333,315.0586419753086,74.66666666666667,324.27932098765433,84.66666666666667C333.5,94.66666666666667,333.5,106.33333333333333,333.5,112.16666666666667L333.5,118" id="edge2" class="relation" marker-end="url(#dependencyEnd)"></path><g class="classLabel"><rect class="box" x="299.78125" y="66.203125" width="44.015625" height="16.015625"></rect><text class="label" x="321.7853332669295" y="77.70634306622756" fill="red" text-anchor="middle">matches</text></g><g class="cardinality"><text class="type2" x="343.5" y="105.5" fill="black" font-size="6">1/1</text></g></svg>