<?xml version="1.0" encoding="UTF-8"?>
<svg width="320px" height="320px" viewBox="0 0 320 320" version="1.1" xmlns="http://www.w3.org/2000/svg" xmlns:xlink="http://www.w3.org/1999/xlink">
    <title>cas-dark2</title>
    <g id="cas-dark2" stroke="none" stroke-width="1" fill="none" fill-rule="evenodd">
        <g id="编组">
            <rect id="矩形备份-11" fill-rule="nonzero" x="0" y="0" width="320" height="320"></rect>
            <g id="编组-4备份" transform="translate(30.000000, 30.000000)">
                <rect id="矩形" x="0" y="0" width="260" height="260"></rect>
                <path d="M79.8382,105.3338 L79.8387473,198.251658 L79.8581727,198.569286 C79.9609939,199.405908 80.4657239,200.149047 81.2223548,200.549567 L176.1838,250.8168 L175.321116,251.116603 C163.13226,255.212655 148.863942,257.4 136.114898,257.4 L134.366431,257.390613 C98.9122839,257.008932 69.4350516,244.99295 45.5867065,222.191679 L45.1984,221.8164 L45.1984,128.206 L79.8382,105.3338 Z M85.038,151.5364 L198.347845,207.833508 C199.081889,208.198212 199.944933,208.195424 200.676606,207.825983 L253.0606,181.376 L252.68315,182.217944 C238.785339,212.657349 213.438718,236.206074 182.603219,248.332789 L85.0382,196.6848 L85.038,151.5364 Z M94.5854,48.9034 L127.4208,67.6806 L81.0059794,98.3345989 L80.993,98.3434 L41.167499,124.636201 C40.4385768,125.117439 40,125.932528 40,126.80598 L39.9986216,216.903048 C18.4105009,194.129033 5.2,163.554471 5.2,129.944705 L5.21890038,127.743672 C5.35743788,119.682615 6.25685405,111.727068 7.89344246,103.948485 L8.385,101.7094 L94.5854,48.9034 Z M218.465,157.6328 L252.5146,175.825 L199.4902,202.5972 L161.9306,183.976 L218.465,157.6328 Z M103.3058,6.9186 L188.1542,55.1408 L188.3804,96.0284 L95.8260948,43.6198997 L95.5088518,43.4675701 C94.7515813,43.165163 93.8876553,43.2337245 93.1817236,43.6684005 L10.2336,94.7414 L10.4224055,94.1005404 C23.0156994,51.9707113 57.7410478,18.7862444 101.529426,7.36865099 L103.3058,6.9186 Z M135.13399,2.6 L136.796234,2.61010192 C169.453788,3.00718732 200.121611,15.0955821 223.675828,36.1955055 L224.0342,36.5196 L224.4268,78.3016 L193.5804,96.0258 L193.347709,53.6090522 L193.327615,53.3000964 C193.225741,52.4860452 192.743238,51.760275 192.016583,51.3539933 L109.7772,5.3716 L111.117717,5.09626593 C119.474965,3.43580737 127.266317,2.6 135.13399,2.6 Z" id="形状结合" fill="#FBCB67" fill-rule="nonzero"></path>
            </g>
        </g>
    </g>
</svg>