<?xml version="1.0" encoding="UTF-8"?>
<svg width="1334px" height="420px" viewBox="0 0 1334 420" version="1.1" xmlns="http://www.w3.org/2000/svg" xmlns:xlink="http://www.w3.org/1999/xlink">
    <title>编组</title>
    <g id="页面-1" stroke="none" stroke-width="1" fill="none" fill-rule="evenodd">
        <g id="编组" fill-rule="nonzero">
            <g id="search-colorful-2-(1)">
                <path d="M253.372701,156.277847 L255.345487,156.30161 C294.993851,157.781419 317.308175,173.81792 335.076914,197.251496 C326.942484,278.497775 255.685398,337.844572 174.760429,334.55213 C133.586927,332.08966 97.6211261,313.654997 71.9297986,285.852619 C115.859703,225.553238 186.96644,157.579877 251.408659,156.296241 L253.372701,156.277847 Z" id="路径" fill="#FFCC66"></path>
                <path d="M36.2488338,230.229515 L36.2792969,230.188509 C51.6985728,208.153557 76.3984951,186.260679 109.486721,195.071888 C172.409598,213.053946 231.474262,249.890653 267.486539,248.850302 C301.759666,247.860195 315.599863,237.968797 330.616793,224.400087 C312.316999,291.789265 247.015535,338.571951 173.848212,335.669832 C107.579403,331.805943 54.737451,287.794867 36.2488338,230.229515 Z" id="路径" fill="#FF7673"></path>
                <path d="M145.424025,206.425735 L146.740567,205.339174 L149.455137,206.353704 C193.608473,222.953397 228.726533,240.876108 256.425474,245.502441 C291.068352,251.288564 313.874563,235.219533 330.616793,221.670975 C312.528819,289.99792 247.106131,337.491404 173.779253,334.553575 C133.182726,332.16263 97.6276207,314.545215 71.9297986,287.883044 C91.3273803,259.359229 117.070313,229.98339 145.424025,206.425735 Z" id="路径" fill="#FF9F73"></path>
                <path d="M348.333444,310.720142 L409.585573,365.712409 C422.277045,377.106909 423.304167,396.578612 411.881286,409.233494 C400.600344,421.73113 381.357748,422.874079 368.668669,411.889933 L368.242627,411.514347 L303.552075,353.434439 C320.539756,341.504169 335.644198,327.089247 348.333444,310.720142 Z M0.844865679,172.556319 C6.34058839,71.8560898 94.2721519,-5.04226716 195.027069,0.450472625 C295.781985,7.77412577 374.554011,93.8270496 367.22638,194.52728 C359.89875,295.227508 273.799094,372.125865 173.044178,366.633126 C72.2892609,361.140385 -4.65085703,273.25655 0.844865679,172.556319 Z M192.791536,31.8289191 C110.34283,28.4632449 36.307259,92.4110485 32.9420055,174.870059 C29.5767519,257.329068 91.8339374,329.691057 175.965268,334.739568 C258.413973,338.105241 330.766919,275.840274 335.814799,191.698428 C339.146399,110.064009 278.161447,38.3256794 195.308869,32.0005112 L192.791536,31.8289191 Z" id="形状" fill="#009191"></path>
            </g>
            <path d="M634.62,333.66 C657.926667,333.66 676.736667,326.82 691.05,313.14 C705.363333,299.46 712.52,280.84 712.52,257.28 L712.52,257.28 L712.52,66.9 L668.82,66.9 L668.82,257.28 C668.82,268.68 665.906667,277.863333 660.08,284.83 C654.253333,291.796667 645.766667,295.28 634.62,295.28 C623.473333,295.28 615.05,291.86 609.35,285.02 C603.65,278.18 600.673333,268.933333 600.42,257.28 L600.42,257.28 L556.72,257.28 C556.72,280.84 563.876667,299.46 578.19,313.14 C592.503333,326.82 611.313333,333.66 634.62,333.66 Z M805.683333,93.88 C813.41,93.88 819.933333,91.22 825.253333,85.9 C830.573333,80.58 833.233333,73.9933333 833.233333,66.14 C833.233333,58.2866667 830.573333,51.7 825.253333,46.38 C819.933333,41.06 813.41,38.4 805.683333,38.4 C797.956667,38.4 791.433333,41.06 786.113333,46.38 C780.793333,51.7 778.133333,58.2866667 778.133333,66.14 C778.133333,73.9933333 780.793333,80.58 786.113333,85.9 C791.433333,91.22 797.956667,93.88 805.683333,93.88 Z M827.153333,331 L827.153333,121.62 L783.833333,121.62 L783.833333,331 L827.153333,331 Z M928.486667,331 L928.486667,213.96 C928.486667,195.213333 933.236667,180.836667 942.736667,170.83 C952.236667,160.823333 965.093333,155.82 981.306667,155.82 C997.52,155.82 1010.31333,160.823333 1019.68667,170.83 C1029.06,180.836667 1033.74667,195.213333 1033.74667,213.96 L1033.74667,213.96 L1033.74667,331 L1076.68667,331 L1076.68667,207.5 C1076.68667,179.38 1069.02333,157.466667 1053.69667,141.76 C1038.37,126.053333 1018.92667,118.2 995.366667,118.2 C964.713333,118.2 942.42,130.36 928.486667,154.68 L928.486667,154.68 L928.486667,121.62 L885.166667,121.62 L885.166667,331 L928.486667,331 Z M1217.16,334.42 C1233.62667,334.42 1248.06667,330.556667 1260.48,322.83 C1272.89333,315.103333 1282.64667,304.78 1289.74,291.86 L1289.74,291.86 L1289.74,331 L1333.44,331 L1333.44,121.62 L1289.74,121.62 L1289.74,158.86 C1282.9,146.7 1273.21,136.883333 1260.67,129.41 C1248.13,121.936667 1233.62667,118.2 1217.16,118.2 C1189.04,118.2 1165.54333,128.143333 1146.67,148.03 C1127.79667,167.916667 1118.36,193.756667 1118.36,225.55 C1118.36,257.343333 1127.86,283.436667 1146.86,303.83 C1165.86,324.223333 1189.29333,334.42 1217.16,334.42 Z M1226.28,296.8 C1209.05333,296.8 1194.17,290.276667 1181.63,277.23 C1169.09,264.183333 1162.82,246.893333 1162.82,225.36 C1162.82,203.826667 1169.09,186.853333 1181.63,174.44 C1194.17,162.026667 1209.05333,155.82 1226.28,155.82 C1243.50667,155.82 1258.39,162.153333 1270.93,174.82 C1283.47,187.486667 1289.74,204.586667 1289.74,226.12 C1289.74,247.653333 1283.40667,264.88 1270.74,277.8 C1258.32667,290.466667 1243.50667,296.8 1226.28,296.8 Z" id="Jina" fill="#009191"></path>
        </g>
    </g>
</svg>