<?xml version="1.0" encoding="UTF-8"?>
<svg width="1334px" height="420px" viewBox="0 0 1334 420" version="1.1" xmlns="http://www.w3.org/2000/svg" xmlns:xlink="http://www.w3.org/1999/xlink">
    <title>编组备份 3</title>
    <g id="页面-1" stroke="none" stroke-width="1" fill="none" fill-rule="evenodd">
        <g id="编组备份-3" fill="#FFFFFF" fill-rule="nonzero">
            <g id="search-dark">
                <path d="M253.030809,156.350365 L255.003184,156.374123 C294.643279,157.853623 316.952949,173.88678 334.717982,197.315468 C326.585249,278.544803 255.343024,337.879224 174.434932,334.587468 C133.270016,332.125512 97.3117161,313.694694 71.6257465,285.898114 C115.54649,225.611308 186.638397,157.652123 251.067177,156.368755 L253.030809,156.350365 Z" id="路径备份-20" fill-opacity="0.8"></path>
                <path d="M35.952223,230.28661 L35.9826798,230.245613 C51.3987399,208.215256 76.093511,186.326944 109.174836,195.136315 C172.08459,213.114623 231.136937,249.943648 267.141704,248.903513 C301.407683,247.913613 315.244993,238.024278 330.258792,224.458397 C311.962814,291.833522 246.674969,338.606451 173.522905,335.704938 C107.267916,331.841854 54.4369844,287.839957 35.952223,230.28661 Z" id="路径备份-21" fill-opacity="0.8"></path>
                <path d="M347.971747,310.760451 L409.211103,365.741248 C421.899928,377.133373 422.926836,396.601015 411.506337,409.253258 C400.227747,421.748287 380.989165,422.890998 368.302732,411.909143 L367.876778,411.533635 L303.199718,353.465839 C320.183856,341.538057 335.285148,327.126142 347.971747,310.760451 Z M0.555638387,172.625442 C6.05021496,71.9462137 93.9634403,-4.9361061 194.697344,0.555488168 C295.431248,7.87761396 374.186846,93.9125914 366.860743,194.59182 C359.534642,295.271047 273.452942,372.153367 172.719039,366.661774 C71.9851339,361.170178 -4.93893819,273.304672 0.555638387,172.625442 Z M192.462278,31.9273906 C110.030767,28.5624184 36.010636,92.4968856 32.6460844,174.938699 C29.2815326,257.380511 91.5257343,329.727409 175.639519,334.774868 C258.071029,338.139839 330.408886,275.887857 335.455714,191.763559 C338.786619,110.146164 277.814385,38.4227961 194.979086,32.098947 L192.462278,31.9273906 Z" id="形状备份-2"></path>
            </g>
            <path d="M634.62,333.66 C657.926667,333.66 676.736667,326.82 691.05,313.14 C705.363333,299.46 712.52,280.84 712.52,257.28 L712.52,257.28 L712.52,66.9 L668.82,66.9 L668.82,257.28 C668.82,268.68 665.906667,277.863333 660.08,284.83 C654.253333,291.796667 645.766667,295.28 634.62,295.28 C623.473333,295.28 615.05,291.86 609.35,285.02 C603.65,278.18 600.673333,268.933333 600.42,257.28 L600.42,257.28 L556.72,257.28 C556.72,280.84 563.876667,299.46 578.19,313.14 C592.503333,326.82 611.313333,333.66 634.62,333.66 Z M805.683333,93.88 C813.41,93.88 819.933333,91.22 825.253333,85.9 C830.573333,80.58 833.233333,73.9933333 833.233333,66.14 C833.233333,58.2866667 830.573333,51.7 825.253333,46.38 C819.933333,41.06 813.41,38.4 805.683333,38.4 C797.956667,38.4 791.433333,41.06 786.113333,46.38 C780.793333,51.7 778.133333,58.2866667 778.133333,66.14 C778.133333,73.9933333 780.793333,80.58 786.113333,85.9 C791.433333,91.22 797.956667,93.88 805.683333,93.88 Z M827.153333,331 L827.153333,121.62 L783.833333,121.62 L783.833333,331 L827.153333,331 Z M928.486667,331 L928.486667,213.96 C928.486667,195.213333 933.236667,180.836667 942.736667,170.83 C952.236667,160.823333 965.093333,155.82 981.306667,155.82 C997.52,155.82 1010.31333,160.823333 1019.68667,170.83 C1029.06,180.836667 1033.74667,195.213333 1033.74667,213.96 L1033.74667,213.96 L1033.74667,331 L1076.68667,331 L1076.68667,207.5 C1076.68667,179.38 1069.02333,157.466667 1053.69667,141.76 C1038.37,126.053333 1018.92667,118.2 995.366667,118.2 C964.713333,118.2 942.42,130.36 928.486667,154.68 L928.486667,154.68 L928.486667,121.62 L885.166667,121.62 L885.166667,331 L928.486667,331 Z M1217.16,334.42 C1233.62667,334.42 1248.06667,330.556667 1260.48,322.83 C1272.89333,315.103333 1282.64667,304.78 1289.74,291.86 L1289.74,291.86 L1289.74,331 L1333.44,331 L1333.44,121.62 L1289.74,121.62 L1289.74,158.86 C1282.9,146.7 1273.21,136.883333 1260.67,129.41 C1248.13,121.936667 1233.62667,118.2 1217.16,118.2 C1189.04,118.2 1165.54333,128.143333 1146.67,148.03 C1127.79667,167.916667 1118.36,193.756667 1118.36,225.55 C1118.36,257.343333 1127.86,283.436667 1146.86,303.83 C1165.86,324.223333 1189.29333,334.42 1217.16,334.42 Z M1226.28,296.8 C1209.05333,296.8 1194.17,290.276667 1181.63,277.23 C1169.09,264.183333 1162.82,246.893333 1162.82,225.36 C1162.82,203.826667 1169.09,186.853333 1181.63,174.44 C1194.17,162.026667 1209.05333,155.82 1226.28,155.82 C1243.50667,155.82 1258.39,162.153333 1270.93,174.82 C1283.47,187.486667 1289.74,204.586667 1289.74,226.12 C1289.74,247.653333 1283.40667,264.88 1270.74,277.8 C1258.32667,290.466667 1243.50667,296.8 1226.28,296.8 Z" id="Jina"></path>
        </g>
    </g>
</svg>