<svg width="196" height="196" xmlns="http://www.w3.org/2000/svg">
  <g fill="#FBCB67">
    <path d="M98 170a31.34 31.34 0 0 1-14.503-3.557L35.978 141.61C29.84 138.405 26 132.116 26 125.266s3.84-13.14 9.978-16.346c3.192-1.67 7.153-.475 8.847 2.672 1.695 3.147.482 7.052-2.709 8.724a5.588 5.588 0 0 0-3.012 4.943 5.588 5.588 0 0 0 3.012 4.943L89.62 155.04a18.09 18.09 0 0 0 16.76 0l47.504-24.838a5.588 5.588 0 0 0 3.012-4.943 5.588 5.588 0 0 0-3.012-4.943c-3.191-1.672-4.404-5.577-2.71-8.724 1.695-3.147 5.656-4.343 8.848-2.672 6.139 3.206 9.978 9.496 9.978 16.346s-3.84 13.139-9.978 16.345l-47.52 24.832A31.34 31.34 0 0 1 98 170Z"/>
    <path d="M85.417 109.11 33.141 81.46A13.404 13.404 0 0 1 26 69.617c0-4.963 2.747-9.52 7.14-11.845l52.277-27.65a26.923 26.923 0 0 1 25.166 0l52.276 27.65A13.404 13.404 0 0 1 170 69.616c0 4.963-2.747 9.52-7.14 11.845l-52.277 27.65a26.923 26.923 0 0 1-25.166 0Z"/>
  </g>
</svg>
