<?xml version="1.0" encoding="UTF-8"?>
<svg width="320px" height="320px" viewBox="0 0 320 320" version="1.1" xmlns="http://www.w3.org/2000/svg" xmlns:xlink="http://www.w3.org/1999/xlink">
    <title>docarray-dark 2</title>
    <g id="docarray-dark-2" stroke="none" stroke-width="1" fill="none" fill-rule="evenodd">
        <g id="编组" transform="translate(31.000000, 31.000000)" fill="#FBCB67" fill-rule="nonzero">
            <g id="编组-57" transform="translate(129.000000, 129.000000) scale(-1, 1) translate(-129.000000, -129.000000) ">
                <path d="M155,0.0045310358 C160.42678,0.0045310358 164.84543,4.32478085 164.996032,9.71569372 L165,10 C165,15.5228475 160.522847,20 155,20 L129,20 C69.9989231,20 21.9467921,66.8780096 20.0576823,125.419953 L20.0146029,127.197486 L20,129 C20,188.597047 67.8298231,237.022841 127.197486,237.985397 L155,237.996137 C160.523473,237.998271 165,242.476528 165,248 C165,253.522847 160.522847,258 155,258 L129,258 C58.4677146,258 1.15645429,201.394063 0.0172823144,131.133251 L0,129 C0,58.4677146 56.6059375,1.15645429 126.866749,0.0172823144 L155,0.0045310358 Z M240,0 C249.830669,0 257.820682,7.88078333 257.997024,17.6693348 L258,18 L258,248 C258,253.42924 253.673329,257.847932 248.279905,257.996158 L248,258 L204,258 C198.477153,258 194,253.522847 194,248 C194,242.477153 198.477153,238 204,238 L238,238 L238,20 L204,20 C198.477153,20 194,15.5228475 194,10 C194,4.4771525 198.477153,0 204,0 L240,0 Z M151.5,126 C172.210678,126 189,142.789322 189,163.5 C189,184.210678 172.210678,201 151.5,201 C130.789322,201 114,184.210678 114,163.5 C114,161.329305 114.184434,159.201688 114.538488,157.131962 L114.679179,156.358558 L124.117669,156.35849 C126.796188,156.35849 129.425849,155.641266 131.733454,154.281331 C138.772774,150.132866 141.180601,141.130787 137.209662,134.03715 L137.04051,133.742705 L134.788887,129.920123 C139.820587,127.411237 145.495487,126 151.5,126 Z M89.7549106,88.0242111 C91.100011,85.6125382 94.1454775,84.7479105 96.5571504,86.0930109 C97.2462577,86.4773576 97.8333702,87.0186169 98.2718658,87.6712617 L98.4292442,87.9211357 L128.425282,138.819895 C129.82731,141.198924 129.035293,144.264076 126.656264,145.666104 C125.972529,146.069047 125.203973,146.302717 124.414554,146.349669 L124.117669,146.35849 L65.7330609,146.35849 C62.9716371,146.35849 60.7330609,144.119914 60.7330609,141.35849 C60.7330609,140.600665 60.9053061,139.854027 61.2352488,139.174527 L61.3663409,138.92297 L89.7549106,88.0242111 Z M200.311688,65 C201.909369,65 203.215349,66.24892 203.306596,67.8237272 L203.311688,68 L203.311688,127 C203.311688,128.597681 202.062768,129.903661 200.488006,129.994907 L200.311738,130 L185.175,129.999 L184.696417,129.525108 C176.194189,121.212238 164.852133,116.319831 152.707395,116.015135 L152.099498,116.003729 L151.5,116 C150.380425,116 149.068887,116.085584 147.565386,116.256751 L147.05711,116.316977 L146.178383,116.431441 L145.260158,116.563515 L144.786234,116.636155 L143.808762,116.794644 L142.791791,116.970742 L142.268493,117.065395 L141.192274,117.267908 L140.639353,117.375768 L139.503887,117.604696 L138.311,117.855 L138.311688,68 C138.311688,66.4614925 139.469809,65.1934785 140.961825,65.0201832 L141.135416,65.0050927 L141.311688,65 L200.311688,65 Z" id="形状"></path>
            </g>
        </g>
    </g>
</svg>