<svg version="1.1" viewBox="0.0 0.0 627.8871391076116 163.3753280839895" fill="none" stroke="none" stroke-linecap="square" stroke-miterlimit="10" xmlns:xlink="http://www.w3.org/1999/xlink" xmlns="http://www.w3.org/2000/svg"><clipPath id="p.0"><path d="m0 0l627.88715 0l0 163.37534l-627.88715 0l0 -163.37534z" clip-rule="nonzero"/></clipPath><g clip-path="url(#p.0)"><path fill="#000000" fill-opacity="0.0" d="m0 0l627.88715 0l0 163.37534l-627.88715 0z" fill-rule="evenodd"/><path fill="#ffcc66" d="m183.77953 27.826868l0 0c0 -2.6527596 2.1504822 -4.8032455 4.803253 -4.8032455l115.77934 0c1.2738953 0 2.4956055 0.5060539 3.3963928 1.4068375c0.90078735 0.90078354 1.4068298 2.122507 1.4068298 3.396408l0 19.212404c0 2.6527596 -2.1504822 4.8032455 -4.8032227 4.8032455l-115.77934 0c-2.652771 0 -4.803253 -2.150486 -4.803253 -4.8032455z" fill-rule="evenodd"/><path stroke="#ffffff" stroke-width="1.0" stroke-linejoin="round" stroke-linecap="butt" d="m183.77953 27.826868l0 0c0 -2.6527596 2.1504822 -4.8032455 4.803253 -4.8032455l115.77934 0c1.2738953 0 2.4956055 0.5060539 3.3963928 1.4068375c0.90078735 0.90078354 1.4068298 2.122507 1.4068298 3.396408l0 19.212404c0 2.6527596 -2.1504822 4.8032455 -4.8032227 4.8032455l-115.77934 0c-2.652771 0 -4.803253 -2.150486 -4.803253 -4.8032455z" fill-rule="evenodd"/><path fill="#000000" d="m191.93225 41.23557q-1.109375 0 -2.0 -0.484375q-0.890625 -0.5 -1.40625 -1.359375q-0.5 -0.875 -0.5 -1.953125q0 -1.078125 0.5 -1.9375q0.515625 -0.875 1.40625 -1.359375q0.90625 -0.484375 2.015625 -0.484375q0.828125 0 1.53125 0.28125q0.703125 0.265625 1.1875 0.796875l-0.5 0.5q-0.875 -0.875 -2.203125 -0.875q-0.875 0 -1.609375 0.40625q-0.71875 0.390625 -1.140625 1.09375q-0.40625 0.703125 -0.40625 1.578125q0 0.875 0.40625 1.578125q0.421875 0.703125 1.140625 1.109375q0.734375 0.40625 1.609375 0.40625q1.34375 0 2.203125 -0.890625l0.5 0.5q-0.484375 0.53125 -1.203125 0.8125q-0.703125 0.28125 -1.53125 0.28125zm4.2713013 -7.96875l0.75 0l0 7.90625l-0.75 0l0 -7.90625zm2.866562 2.296875l0.75 0l0 5.609375l-0.75 0l0 -5.609375zm0.375 -1.21875q-0.234375 0 -0.390625 -0.15625q-0.15625 -0.171875 -0.15625 -0.390625q0 -0.21875 0.15625 -0.375q0.15625 -0.15625 0.390625 -0.15625q0.234375 0 0.390625 0.15625q0.171875 0.15625 0.171875 0.359375q0 0.234375 -0.171875 0.40625q-0.15625 0.15625 -0.390625 0.15625zm7.366562 4.265625l-4.6875 0q0.0625 0.875 0.671875 1.40625q0.609375 0.53125 1.53125 0.53125q0.515625 0 0.953125 -0.171875q0.4375 -0.1875 0.765625 -0.5625l0.421875 0.5q-0.375 0.4375 -0.9375 0.671875q-0.546875 0.234375 -1.21875 0.234375q-0.875 0 -1.546875 -0.359375q-0.65625 -0.375 -1.03125 -1.015625q-0.375 -0.65625 -0.375 -1.46875q0 -0.828125 0.359375 -1.46875q0.359375 -0.65625 0.984375 -1.015625q0.625 -0.359375 1.40625 -0.359375q0.765625 0 1.390625 0.359375q0.625 0.359375 0.96875 1.0q0.359375 0.640625 0.359375 1.484375l-0.015625 0.234375zm-2.703125 -2.4375q-0.8125 0 -1.359375 0.515625q-0.546875 0.515625 -0.625 1.34375l3.96875 0q-0.078125 -0.828125 -0.625 -1.34375q-0.546875 -0.515625 -1.359375 -0.515625zm7.108322 -0.640625q1.0625 0 1.6875 0.609375q0.625 0.609375 0.625 1.78125l0 3.25l-0.765625 0l0 -3.171875q0 -0.875 -0.4375 -1.328125q-0.4375 -0.46875 -1.25 -0.46875q-0.90625 0 -1.4375 0.546875q-0.515625 0.53125 -0.515625 1.484375l0 2.9375l-0.75 0l0 -5.609375l0.71875 0l0 1.03125q0.3125 -0.5 0.859375 -0.78125q0.546875 -0.28125 1.265625 -0.28125zm7.3081055 5.296875q-0.203125 0.1875 -0.515625 0.296875q-0.3125 0.09375 -0.65625 0.09375q-0.796875 0 -1.21875 -0.421875q-0.421875 -0.421875 -0.421875 -1.203125l0 -3.390625l-1.0 0l0 -0.640625l1.0 0l0 -1.21875l0.75 0l0 1.21875l1.703125 0l0 0.640625l-1.703125 0l0 3.34375q0 0.5 0.25 0.765625q0.25 0.265625 0.71875 0.265625q0.234375 0 0.453125 -0.078125q0.21875 -0.078125 0.375 -0.21875l0.265625 0.546875zm2.670227 2.40625q-0.59375 -0.96875 -0.921875 -2.234375q-0.3125 -1.28125 -0.3125 -2.75q0 -1.453125 0.3125 -2.734375q0.328125 -1.296875 0.921875 -2.25l0.71875 0q-0.625 1.078125 -0.921875 2.3125q-0.28125 1.234375 -0.28125 2.671875q0 1.4375 0.28125 2.671875q0.296875 1.234375 0.921875 2.3125l-0.71875 0zm5.0996857 -7.703125q0.796875 0 1.4375 0.359375q0.640625 0.34375 1.0 1.0q0.359375 0.640625 0.359375 1.484375q0 0.84375 -0.359375 1.5q-0.359375 0.640625 -1.0 1.0q-0.640625 0.34375 -1.4375 0.34375q-0.671875 0 -1.234375 -0.28125q-0.546875 -0.28125 -0.890625 -0.828125l0 3.125l-0.75 0l0 -7.671875l0.71875 0l0 1.109375q0.34375 -0.546875 0.890625 -0.84375q0.5625 -0.296875 1.265625 -0.296875zm-0.046875 5.015625q0.578125 0 1.0625 -0.265625q0.484375 -0.265625 0.75 -0.765625q0.28125 -0.5 0.28125 -1.140625q0 -0.640625 -0.28125 -1.140625q-0.265625 -0.5 -0.75 -0.765625q-0.484375 -0.28125 -1.0625 -0.28125q-0.59375 0 -1.078125 0.28125q-0.46875 0.265625 -0.75 0.765625q-0.265625 0.5 -0.265625 1.140625q0 0.640625 0.265625 1.140625q0.28125 0.5 0.75 0.765625q0.484375 0.265625 1.078125 0.265625zm5.115631 -3.875q0.265625 -0.578125 0.78125 -0.859375q0.53125 -0.28125 1.3125 -0.28125l0 0.734375l-0.171875 -0.015625q-0.890625 0 -1.390625 0.546875q-0.5 0.53125 -0.5 1.515625l0 2.859375l-0.75 0l0 -5.609375l0.71875 0l0 1.109375zm5.6970215 4.546875q-0.8125 0 -1.46875 -0.359375q-0.640625 -0.375 -1.015625 -1.015625q-0.375 -0.65625 -0.375 -1.46875q0 -0.828125 0.375 -1.46875q0.375 -0.65625 1.015625 -1.015625q0.65625 -0.359375 1.46875 -0.359375q0.8125 0 1.453125 0.359375q0.65625 0.359375 1.015625 1.015625q0.375 0.640625 0.375 1.46875q0 0.8125 -0.375 1.46875q-0.359375 0.640625 -1.015625 1.015625q-0.640625 0.359375 -1.453125 0.359375zm0 -0.671875q0.59375 0 1.0625 -0.265625q0.484375 -0.265625 0.75 -0.765625q0.265625 -0.5 0.265625 -1.140625q0 -0.640625 -0.265625 -1.140625q-0.265625 -0.5 -0.75 -0.765625q-0.46875 -0.28125 -1.0625 -0.28125q-0.59375 0 -1.078125 0.28125q-0.46875 0.265625 -0.75 0.765625q-0.265625 0.5 -0.265625 1.140625q0 0.640625 0.265625 1.140625q0.28125 0.5 0.75 0.765625q0.484375 0.265625 1.078125 0.265625zm7.337784 0.28125q-0.203125 0.1875 -0.515625 0.296875q-0.3125 0.09375 -0.65625 0.09375q-0.796875 0 -1.21875 -0.421875q-0.421875 -0.421875 -0.421875 -1.203125l0 -3.390625l-1.0 0l0 -0.640625l1.0 0l0 -1.21875l0.75 0l0 1.21875l1.703125 0l0 0.640625l-1.703125 0l0 3.34375q0 0.5 0.25 0.765625q0.25 0.265625 0.71875 0.265625q0.234375 0 0.453125 -0.078125q0.21875 -0.078125 0.375 -0.21875l0.265625 0.546875zm3.4675598 0.390625q-0.8125 0 -1.46875 -0.359375q-0.640625 -0.375 -1.015625 -1.015625q-0.375 -0.65625 -0.375 -1.46875q0 -0.828125 0.375 -1.46875q0.375 -0.65625 1.015625 -1.015625q0.65625 -0.359375 1.46875 -0.359375q0.8125 0 1.4531403 0.359375q0.65625 0.359375 1.015625 1.015625q0.375 0.640625 0.375 1.46875q0 0.8125 -0.375 1.46875q-0.359375 0.640625 -1.015625 1.015625q-0.64064026 0.359375 -1.4531403 0.359375zm0 -0.671875q0.59375 0 1.0625 -0.265625q0.48439026 -0.265625 0.75001526 -0.765625q0.265625 -0.5 0.265625 -1.140625q0 -0.640625 -0.265625 -1.140625q-0.265625 -0.5 -0.75001526 -0.765625q-0.46875 -0.28125 -1.0625 -0.28125q-0.59375 0 -1.078125 0.28125q-0.46875 0.265625 -0.75 0.765625q-0.265625 0.5 -0.265625 1.140625q0 0.640625 0.265625 1.140625q0.28125 0.5 0.75 0.765625q0.484375 0.265625 1.078125 0.265625zm6.712799 0.671875q-0.828125 0 -1.484375 -0.359375q-0.65625 -0.359375 -1.03125 -1.015625q-0.375 -0.65625 -0.375 -1.46875q0 -0.828125 0.375 -1.46875q0.375 -0.65625 1.03125 -1.015625q0.65625 -0.359375 1.484375 -0.359375q0.734375 0 1.296875 0.28125q0.57810974 0.28125 0.90623474 0.8125l-0.5625 0.390625q-0.28123474 -0.421875 -0.71873474 -0.625q-0.421875 -0.203125 -0.921875 -0.203125q-0.609375 0 -1.09375 0.28125q-0.484375 0.265625 -0.765625 0.765625q-0.265625 0.5 -0.265625 1.140625q0 0.640625 0.265625 1.140625q0.28125 0.5 0.765625 0.765625q0.484375 0.265625 1.09375 0.265625q0.5 0 0.921875 -0.1875q0.4375 -0.203125 0.71873474 -0.625l0.5625 0.375q-0.328125 0.546875 -0.90623474 0.828125q-0.578125 0.28125 -1.296875 0.28125zm5.8722687 0q-0.8125 0 -1.46875 -0.359375q-0.640625 -0.375 -1.015625 -1.015625q-0.375 -0.65625 -0.375 -1.46875q0 -0.828125 0.375 -1.46875q0.375 -0.65625 1.015625 -1.015625q0.65625 -0.359375 1.46875 -0.359375q0.8125 0 1.453125 0.359375q0.65625 0.359375 1.015625 1.015625q0.375 0.640625 0.375 1.46875q0 0.8125 -0.375 1.46875q-0.359375 0.640625 -1.015625 1.015625q-0.640625 0.359375 -1.453125 0.359375zm0 -0.671875q0.59375 0 1.0625 -0.265625q0.484375 -0.265625 0.75 -0.765625q0.265625 -0.5 0.265625 -1.140625q0 -0.640625 -0.265625 -1.140625q-0.265625 -0.5 -0.75 -0.765625q-0.46875 -0.28125 -1.0625 -0.28125q-0.59375 0 -1.078125 0.28125q-0.46875 0.265625 -0.75 0.765625q-0.265625 0.5 -0.265625 1.140625q0 0.640625 0.265625 1.140625q0.28125 0.5 0.75 0.765625q0.484375 0.265625 1.078125 0.265625zm4.400299 -7.28125l0.75 0l0 7.90625l-0.75 0l0 -7.90625zm2.5540466 2.625l4.625 0l0 0.640625l-4.625 0l0 -0.640625zm0 2.46875l4.625 0l0 0.625l-4.625 0l0 -0.625zm6.518036 -5.140625q0.25 0 0.40625 0.171875q0.15625 0.15625 0.15625 0.390625q0 0.140625 -0.046875 0.28125q-0.03125 0.140625 -0.09375 0.328125l-0.453125 1.46875l-0.515625 0l0.375 -1.53125q-0.1875 -0.046875 -0.296875 -0.1875q-0.09375 -0.15625 -0.09375 -0.359375q0 -0.25 0.15625 -0.40625q0.15625 -0.15625 0.40625 -0.15625zm7.0698853 2.34375l0 4.921875q0 1.4375 -0.703125 2.125q-0.703125 0.6875 -2.109375 0.6875q-0.765625 0 -1.46875 -0.234375q-0.703125 -0.234375 -1.140625 -0.640625l0.390625 -0.5625q0.40625 0.359375 0.984375 0.5625q0.578125 0.203125 1.21875 0.203125q1.0625 0 1.5625 -0.5q0.5 -0.5 0.5 -1.546875l0 -0.703125q-0.34375 0.53125 -0.921875 0.8125q-0.5625 0.265625 -1.265625 0.265625q-0.78125 0 -1.4375 -0.34375q-0.640625 -0.34375 -1.015625 -0.96875q-0.359375 -0.625 -0.359375 -1.40625q0 -0.796875 0.359375 -1.40625q0.375 -0.625 1.015625 -0.953125q0.640625 -0.34375 1.4375 -0.34375q0.71875 0 1.296875 0.28125q0.578125 0.28125 0.921875 0.828125l0 -1.078125l0.734375 0zm-2.875 4.71875q0.609375 0 1.09375 -0.25q0.5 -0.265625 0.765625 -0.734375q0.28125 -0.46875 0.28125 -1.0625q0 -0.59375 -0.28125 -1.0625q-0.265625 -0.46875 -0.75 -0.71875q-0.484375 -0.265625 -1.109375 -0.265625q-0.609375 0 -1.09375 0.265625q-0.484375 0.25 -0.765625 0.71875q-0.265625 0.46875 -0.265625 1.0625q0 0.59375 0.265625 1.0625q0.28125 0.46875 0.765625 0.734375q0.484375 0.25 1.09375 0.25zm5.7164917 -3.609375q0.265625 -0.578125 0.78125 -0.859375q0.53125 -0.28125 1.3125 -0.28125l0 0.734375l-0.171875 -0.015625q-0.890625 0 -1.390625 0.546875q-0.5 0.53125 -0.5 1.515625l0 2.859375l-0.75 0l0 -5.609375l0.71875 0l0 1.109375zm6.344116 -1.140625q0.796875 0 1.4375 0.359375q0.640625 0.34375 1.0 1.0q0.359375 0.640625 0.359375 1.484375q0 0.84375 -0.359375 1.5q-0.359375 0.640625 -1.0 1.0q-0.640625 0.34375 -1.4375 0.34375q-0.671875 0 -1.234375 -0.28125q-0.546875 -0.28125 -0.890625 -0.828125l0 3.125l-0.75 0l0 -7.671875l0.71875 0l0 1.109375q0.34375 -0.546875 0.890625 -0.84375q0.5625 -0.296875 1.265625 -0.296875zm-0.046875 5.015625q0.578125 0 1.0625 -0.265625q0.484375 -0.265625 0.75 -0.765625q0.28125 -0.5 0.28125 -1.140625q0 -0.640625 -0.28125 -1.140625q-0.265625 -0.5 -0.75 -0.765625q-0.484375 -0.28125 -1.0625 -0.28125q-0.59375 0 -1.078125 0.28125q-0.46875 0.265625 -0.75 0.765625q-0.265625 0.5 -0.265625 1.140625q0 0.640625 0.265625 1.140625q0.28125 0.5 0.75 0.765625q0.484375 0.265625 1.078125 0.265625zm6.709381 0.671875q-0.828125 0 -1.484375 -0.359375q-0.65625 -0.359375 -1.03125 -1.015625q-0.375 -0.65625 -0.375 -1.46875q0 -0.828125 0.375 -1.46875q0.375 -0.65625 1.03125 -1.015625q0.65625 -0.359375 1.484375 -0.359375q0.734375 0 1.296875 0.28125q0.578125 0.28125 0.90625 0.8125l-0.5625 0.390625q-0.28125 -0.421875 -0.71875 -0.625q-0.421875 -0.203125 -0.921875 -0.203125q-0.609375 0 -1.09375 0.28125q-0.484375 0.265625 -0.765625 0.765625q-0.265625 0.5 -0.265625 1.140625q0 0.640625 0.265625 1.140625q0.28125 0.5 0.765625 0.765625q0.484375 0.265625 1.09375 0.265625q0.5 0 0.921875 -0.1875q0.4375 -0.203125 0.71875 -0.625l0.5625 0.375q-0.328125 0.546875 -0.90625 0.828125q-0.578125 0.28125 -1.296875 0.28125zm3.999817 -8.0q0.25 0 0.40625 0.171875q0.15625 0.15625 0.15625 0.390625q0 0.140625 -0.046875 0.28125q-0.03125 0.140625 -0.09375 0.328125l-0.453125 1.46875l-0.515625 0l0.375 -1.53125q-0.1875 -0.046875 -0.296875 -0.1875q-0.09375 -0.15625 -0.09375 -0.359375q0 -0.25 0.15625 -0.40625q0.15625 -0.15625 0.40625 -0.15625zm1.5404053 10.015625q0.640625 -1.078125 0.9375 -2.296875q0.296875 -1.234375 0.296875 -2.6875q0 -1.453125 -0.296875 -2.671875q-0.296875 -1.234375 -0.9375 -2.3125l0.734375 0q0.59375 0.953125 0.90625 2.25q0.328125 1.28125 0.328125 2.734375q0 1.46875 -0.3125 2.75q-0.3125 1.265625 -0.921875 2.234375l-0.734375 0z" fill-rule="nonzero"/><path fill="#ffcc66" d="m183.77953 73.71925l0 0c0 -2.6527557 2.1504822 -4.8032455 4.803253 -4.8032455l115.77934 0c1.2738953 0 2.4956055 0.50605774 3.3963928 1.4068375c0.90078735 0.90078735 1.4068298 2.1225128 1.4068298 3.396408l0 19.21241c0 2.6527557 -2.1504822 4.8032455 -4.8032227 4.8032455l-115.77934 0c-2.652771 0 -4.803253 -2.1504898 -4.803253 -4.8032455z" fill-rule="evenodd"/><path stroke="#ffffff" stroke-width="1.0" stroke-linejoin="round" stroke-linecap="butt" d="m183.77953 73.71925l0 0c0 -2.6527557 2.1504822 -4.8032455 4.803253 -4.8032455l115.77934 0c1.2738953 0 2.4956055 0.50605774 3.3963928 1.4068375c0.90078735 0.90078735 1.4068298 2.1225128 1.4068298 3.396408l0 19.21241c0 2.6527557 -2.1504822 4.8032455 -4.8032227 4.8032455l-115.77934 0c-2.652771 0 -4.803253 -2.1504898 -4.803253 -4.8032455z" fill-rule="evenodd"/><path fill="#000000" d="m193.08492 86.05234q-0.828125 0 -1.5 -0.359375q-0.671875 -0.375 -1.046875 -1.015625q-0.375 -0.65625 -0.375 -1.46875q0 -0.8125 0.375 -1.453125q0.375 -0.65625 1.046875 -1.015625q0.671875 -0.375 1.515625 -0.375q0.609375 0 1.140625 0.203125q0.53125 0.203125 0.90625 0.609375l-0.375 0.375q-0.65625 -0.671875 -1.65625 -0.671875q-0.671875 0 -1.21875 0.3125q-0.546875 0.296875 -0.859375 0.828125q-0.296875 0.53125 -0.296875 1.1875q0 0.65625 0.296875 1.1875q0.3125 0.515625 0.859375 0.828125q0.546875 0.296875 1.21875 0.296875q1.0 0 1.65625 -0.671875l0.375 0.375q-0.375 0.40625 -0.90625 0.625q-0.53125 0.203125 -1.15625 0.203125zm3.2050476 -5.984375l0.5625 0l0 5.9375l-0.5625 0l0 -5.9375zm2.1519775 1.734375l0.5625 0l0 4.203125l-0.5625 0l0 -4.203125zm0.28125 -0.921875q-0.171875 0 -0.296875 -0.125q-0.109375 -0.125 -0.109375 -0.28125q0 -0.171875 0.109375 -0.28125q0.125 -0.125 0.296875 -0.125q0.1875 0 0.296875 0.125q0.125 0.109375 0.125 0.265625q0 0.171875 -0.125 0.296875q-0.109375 0.125 -0.296875 0.125zm5.5269775 3.203125l-3.515625 0q0.046875 0.65625 0.5 1.0625q0.453125 0.390625 1.15625 0.390625q0.390625 0 0.71875 -0.140625q0.328125 -0.140625 0.5625 -0.40625l0.328125 0.375q-0.28125 0.328125 -0.703125 0.515625q-0.421875 0.171875 -0.921875 0.171875q-0.65625 0 -1.15625 -0.28125q-0.5 -0.28125 -0.78125 -0.765625q-0.265625 -0.484375 -0.265625 -1.109375q0 -0.609375 0.265625 -1.09375q0.265625 -0.5 0.734375 -0.765625q0.46875 -0.265625 1.046875 -0.265625q0.59375 0 1.046875 0.265625q0.46875 0.265625 0.734375 0.75q0.265625 0.484375 0.265625 1.109375l-0.015625 0.1875zm-2.03125 -1.828125q-0.609375 0 -1.03125 0.390625q-0.40625 0.390625 -0.453125 1.0l2.984375 0q-0.0625 -0.609375 -0.46875 -1.0q-0.40625 -0.390625 -1.03125 -0.390625zm5.3475647 -0.484375q0.796875 0 1.25 0.46875q0.46875 0.453125 0.46875 1.328125l0 2.4375l-0.5625 0l0 -2.390625q0 -0.65625 -0.328125 -1.0q-0.328125 -0.34375 -0.9375 -0.34375q-0.671875 0 -1.078125 0.40625q-0.390625 0.40625 -0.390625 1.125l0 2.203125l-0.5625 0l0 -4.203125l0.546875 0l0 0.765625q0.21875 -0.375 0.625 -0.578125q0.421875 -0.21875 0.96875 -0.21875zm5.494049 3.984375q-0.171875 0.140625 -0.40625 0.21875q-0.234375 0.078125 -0.484375 0.078125q-0.59375 0 -0.921875 -0.3125q-0.3125 -0.328125 -0.3125 -0.921875l0 -2.546875l-0.75 0l0 -0.46875l0.75 0l0 -0.921875l0.5625 0l0 0.921875l1.28125 0l0 0.46875l-1.28125 0l0 2.515625q0 0.375 0.1875 0.578125q0.1875 0.1875 0.546875 0.1875q0.171875 0 0.328125 -0.046875q0.171875 -0.0625 0.296875 -0.15625l0.203125 0.40625zm1.9979553 1.796875q-0.453125 -0.734375 -0.703125 -1.6875q-0.234375 -0.953125 -0.234375 -2.046875q0 -1.09375 0.234375 -2.0625q0.25 -0.96875 0.703125 -1.6875l0.53125 0q-0.46875 0.8125 -0.6875 1.75q-0.21875 0.921875 -0.21875 2.0q0 1.078125 0.21875 2.015625q0.21875 0.921875 0.6875 1.71875l-0.53125 0zm3.8194733 -5.78125q0.59375 0 1.078125 0.265625q0.484375 0.265625 0.75 0.75q0.28125 0.484375 0.28125 1.109375q0 0.640625 -0.28125 1.125q-0.265625 0.484375 -0.75 0.765625q-0.46875 0.265625 -1.078125 0.265625q-0.5 0 -0.921875 -0.21875q-0.40625 -0.21875 -0.671875 -0.625l0 2.34375l-0.5625 0l0 -5.75l0.546875 0l0 0.828125q0.25 -0.421875 0.671875 -0.640625q0.421875 -0.21875 0.9375 -0.21875zm-0.03125 3.765625q0.4375 0 0.796875 -0.203125q0.359375 -0.203125 0.5625 -0.578125q0.203125 -0.375 0.203125 -0.859375q0 -0.46875 -0.203125 -0.84375q-0.203125 -0.375 -0.5625 -0.578125q-0.359375 -0.21875 -0.796875 -0.21875q-0.453125 0 -0.8125 0.21875q-0.34375 0.203125 -0.546875 0.578125q-0.203125 0.375 -0.203125 0.84375q0 0.484375 0.203125 0.859375q0.203125 0.375 0.546875 0.578125q0.359375 0.203125 0.8125 0.203125zm3.84581 -2.921875q0.1875 -0.421875 0.578125 -0.625q0.40625 -0.21875 0.984375 -0.21875l0 0.546875l-0.125 -0.015625q-0.671875 0 -1.046875 0.421875q-0.375 0.40625 -0.375 1.140625l0 2.140625l-0.5625 0l0 -4.203125l0.546875 0l0 0.8125zm4.275833 3.4375q-0.609375 0 -1.109375 -0.28125q-0.484375 -0.28125 -0.765625 -0.765625q-0.265625 -0.484375 -0.265625 -1.109375q0 -0.609375 0.265625 -1.09375q0.28125 -0.5 0.765625 -0.765625q0.5 -0.265625 1.109375 -0.265625q0.609375 0 1.09375 0.265625q0.484375 0.265625 0.75 0.765625q0.28125 0.484375 0.28125 1.09375q0 0.625 -0.28125 1.109375q-0.265625 0.484375 -0.75 0.765625q-0.484375 0.28125 -1.09375 0.28125zm0 -0.515625q0.4375 0 0.796875 -0.203125q0.359375 -0.203125 0.5625 -0.578125q0.203125 -0.375 0.203125 -0.859375q0 -0.46875 -0.203125 -0.84375q-0.203125 -0.390625 -0.5625 -0.59375q-0.359375 -0.203125 -0.796875 -0.203125q-0.453125 0 -0.8125 0.203125q-0.34375 0.203125 -0.5625 0.59375q-0.203125 0.375 -0.203125 0.84375q0 0.484375 0.203125 0.859375q0.21875 0.375 0.5625 0.578125q0.359375 0.203125 0.8125 0.203125zm5.51593 0.21875q-0.171875 0.140625 -0.40625 0.21875q-0.234375 0.078125 -0.484375 0.078125q-0.59375 0 -0.921875 -0.3125q-0.3125 -0.328125 -0.3125 -0.921875l0 -2.546875l-0.75 0l0 -0.46875l0.75 0l0 -0.921875l0.5625 0l0 0.921875l1.28125 0l0 0.46875l-1.28125 0l0 2.515625q0 0.375 0.1875 0.578125q0.1875 0.1875 0.546875 0.1875q0.171875 0 0.328125 -0.046875q0.171875 -0.0625 0.296875 -0.15625l0.203125 0.40625zm2.5959625 0.296875q-0.609375 0 -1.109375 -0.28125q-0.484375 -0.28125 -0.765625 -0.765625q-0.265625 -0.484375 -0.265625 -1.109375q0 -0.609375 0.265625 -1.09375q0.28125 -0.5 0.765625 -0.765625q0.5 -0.265625 1.109375 -0.265625q0.609375 0 1.09375 0.265625q0.484375 0.265625 0.75 0.765625q0.28125 0.484375 0.28125 1.09375q0 0.625 -0.28125 1.109375q-0.265625 0.484375 -0.75 0.765625q-0.484375 0.28125 -1.09375 0.28125zm0 -0.515625q0.4375 0 0.796875 -0.203125q0.359375 -0.203125 0.5625 -0.578125q0.203125 -0.375 0.203125 -0.859375q0 -0.46875 -0.203125 -0.84375q-0.203125 -0.390625 -0.5625 -0.59375q-0.359375 -0.203125 -0.796875 -0.203125q-0.453125 0 -0.8125 0.203125q-0.34375 0.203125 -0.5625 0.59375q-0.203125 0.375 -0.203125 0.84375q0 0.484375 0.203125 0.859375q0.21875 0.375 0.5625 0.578125q0.359375 0.203125 0.8125 0.203125zm5.031555 0.515625q-0.625 0 -1.125 -0.265625q-0.484375 -0.28125 -0.765625 -0.765625q-0.265625 -0.5 -0.265625 -1.125q0 -0.609375 0.265625 -1.09375q0.28125 -0.5 0.765625 -0.765625q0.5 -0.265625 1.125 -0.265625q0.546875 0 0.96875 0.21875q0.4375 0.203125 0.6875 0.609375l-0.421875 0.28125q-0.21875 -0.3125 -0.546875 -0.46875q-0.3125 -0.15625 -0.6875 -0.15625q-0.453125 0 -0.8125 0.203125q-0.359375 0.203125 -0.578125 0.59375q-0.203125 0.375 -0.203125 0.84375q0 0.5 0.203125 0.875q0.21875 0.359375 0.578125 0.5625q0.359375 0.203125 0.8125 0.203125q0.375 0 0.6875 -0.140625q0.328125 -0.15625 0.546875 -0.46875l0.421875 0.28125q-0.25 0.40625 -0.6875 0.625q-0.421875 0.21875 -0.96875 0.21875zm4.4163055 0q-0.609375 0 -1.109375 -0.28125q-0.484375 -0.28125 -0.765625 -0.765625q-0.265625 -0.484375 -0.265625 -1.109375q0 -0.609375 0.265625 -1.09375q0.28125 -0.5 0.765625 -0.765625q0.5 -0.265625 1.109375 -0.265625q0.609375 0 1.09375 0.265625q0.484375 0.265625 0.75 0.765625q0.28125 0.484375 0.28125 1.09375q0 0.625 -0.28125 1.109375q-0.265625 0.484375 -0.75 0.765625q-0.484375 0.28125 -1.09375 0.28125zm0 -0.515625q0.4375 0 0.796875 -0.203125q0.359375 -0.203125 0.5625 -0.578125q0.203125 -0.375 0.203125 -0.859375q0 -0.46875 -0.203125 -0.84375q-0.203125 -0.390625 -0.5625 -0.59375q-0.359375 -0.203125 -0.796875 -0.203125q-0.453125 0 -0.8125 0.203125q-0.34375 0.203125 -0.5625 0.59375q-0.203125 0.375 -0.203125 0.84375q0 0.484375 0.203125 0.859375q0.21875 0.375 0.5625 0.578125q0.359375 0.203125 0.8125 0.203125zm3.2971802 -5.46875l0.5625 0l0 5.9375l-0.5625 0l0 -5.9375zm1.9176025 1.984375l3.484375 0l0 0.46875l-3.484375 0l0 -0.46875zm0 1.84375l3.484375 0l0 0.46875l-3.484375 0l0 -0.46875zm4.89682 -3.859375q0.1875 0 0.296875 0.125q0.125 0.109375 0.125 0.296875q0 0.09375 -0.03125 0.203125q-0.03125 0.109375 -0.078125 0.25l-0.34375 1.109375l-0.375 0l0.28125 -1.15625q-0.140625 -0.03125 -0.21875 -0.140625q-0.078125 -0.109375 -0.078125 -0.265625q0 -0.1875 0.109375 -0.296875q0.125 -0.125 0.3125 -0.125zm7.949341 1.765625l-1.59375 4.203125l-0.53125 0l-1.328125 -3.453125l-1.328125 3.453125l-0.546875 0l-1.5781097 -4.203125l0.54685974 0l1.3125 3.578125l1.359375 -3.578125l0.484375 0l1.34375 3.578125l1.34375 -3.578125l0.515625 0zm4.3963013 2.28125l-3.515625 0q0.046875 0.65625 0.5 1.0625q0.453125 0.390625 1.15625 0.390625q0.390625 0 0.71875 -0.140625q0.328125 -0.140625 0.5625 -0.40625l0.328125 0.375q-0.28125 0.328125 -0.703125 0.515625q-0.421875 0.171875 -0.921875 0.171875q-0.65625 0 -1.15625 -0.28125q-0.5 -0.28125 -0.78125 -0.765625q-0.265625 -0.484375 -0.265625 -1.109375q0 -0.609375 0.265625 -1.09375q0.265625 -0.5 0.734375 -0.765625q0.46875 -0.265625 1.046875 -0.265625q0.59375 0 1.046875 0.265625q0.46875 0.265625 0.734375 0.75q0.265625 0.484375 0.265625 1.109375l-0.015625 0.1875zm-2.03125 -1.828125q-0.609375 0 -1.03125 0.390625q-0.40625 0.390625 -0.453125 1.0l2.984375 0q-0.0625 -0.609375 -0.46875 -1.0q-0.40625 -0.390625 -1.03125 -0.390625zm5.3631897 -0.484375q0.59375 0 1.078125 0.265625q0.484375 0.265625 0.75 0.75q0.28125 0.484375 0.28125 1.109375q0 0.625 -0.28125 1.125q-0.265625 0.484375 -0.75 0.765625q-0.484375 0.265625 -1.078125 0.265625q-0.515625 0 -0.9375 -0.21875q-0.421875 -0.234375 -0.671875 -0.65625l0 0.828125l-0.546875 0l0 -5.9375l0.5625 0l0 2.53125q0.265625 -0.40625 0.671875 -0.609375q0.421875 -0.21875 0.921875 -0.21875zm-0.03125 3.765625q0.4375 0 0.796875 -0.203125q0.359375 -0.203125 0.5625 -0.578125q0.203125 -0.375 0.203125 -0.859375q0 -0.46875 -0.203125 -0.84375q-0.203125 -0.390625 -0.5625 -0.59375q-0.359375 -0.203125 -0.796875 -0.203125q-0.453125 0 -0.8125 0.203125q-0.34375 0.203125 -0.546875 0.59375q-0.203125 0.375 -0.203125 0.84375q0 0.484375 0.203125 0.859375q0.203125 0.375 0.546875 0.578125q0.359375 0.203125 0.8125 0.203125zm4.4239197 0.515625q-0.515625 0 -0.984375 -0.140625q-0.46875 -0.15625 -0.734375 -0.390625l0.265625 -0.4375q0.265625 0.203125 0.65625 0.34375q0.40625 0.125 0.828125 0.125q0.578125 0 0.859375 -0.171875q0.28125 -0.1875 0.28125 -0.515625q0 -0.234375 -0.15625 -0.359375q-0.15625 -0.140625 -0.390625 -0.203125q-0.234375 -0.078125 -0.609375 -0.140625q-0.515625 -0.09375 -0.828125 -0.1875q-0.3125 -0.109375 -0.53125 -0.34375q-0.21875 -0.234375 -0.21875 -0.671875q0 -0.515625 0.4375 -0.84375q0.4375 -0.34375 1.234375 -0.34375q0.40625 0 0.8125 0.109375q0.40625 0.09375 0.671875 0.28125l-0.25 0.453125q-0.515625 -0.359375 -1.234375 -0.359375q-0.546875 0 -0.828125 0.1875q-0.28125 0.1875 -0.28125 0.5q0 0.25 0.15625 0.390625q0.15625 0.140625 0.390625 0.21875q0.234375 0.0625 0.640625 0.140625q0.5 0.09375 0.796875 0.1875q0.3125 0.09375 0.53125 0.328125q0.21875 0.234375 0.21875 0.640625q0 0.546875 -0.46875 0.875q-0.453125 0.328125 -1.265625 0.328125zm4.505707 0q-0.609375 0 -1.109375 -0.28125q-0.484375 -0.28125 -0.765625 -0.765625q-0.265625 -0.484375 -0.265625 -1.109375q0 -0.609375 0.265625 -1.09375q0.28125 -0.5 0.765625 -0.765625q0.5 -0.265625 1.109375 -0.265625q0.609375 0 1.09375 0.265625q0.484375 0.265625 0.75 0.765625q0.28125 0.484375 0.28125 1.09375q0 0.625 -0.28125 1.109375q-0.265625 0.484375 -0.75 0.765625q-0.484375 0.28125 -1.09375 0.28125zm0 -0.515625q0.4375 0 0.796875 -0.203125q0.359375 -0.203125 0.5625 -0.578125q0.203125 -0.375 0.203125 -0.859375q0 -0.46875 -0.203125 -0.84375q-0.203125 -0.390625 -0.5625 -0.59375q-0.359375 -0.203125 -0.796875 -0.203125q-0.453125 0 -0.8125 0.203125q-0.34375 0.203125 -0.5625 0.59375q-0.203125 0.375 -0.203125 0.84375q0 0.484375 0.203125 0.859375q0.21875 0.375 0.5625 0.578125q0.359375 0.203125 0.8125 0.203125zm5.031555 0.515625q-0.625 0 -1.125 -0.265625q-0.484375 -0.28125 -0.765625 -0.765625q-0.265625 -0.5 -0.265625 -1.125q0 -0.609375 0.265625 -1.09375q0.28125 -0.5 0.765625 -0.765625q0.5 -0.265625 1.125 -0.265625q0.546875 0 0.96875 0.21875q0.4375 0.203125 0.6875 0.609375l-0.421875 0.28125q-0.21875 -0.3125 -0.546875 -0.46875q-0.3125 -0.15625 -0.6875 -0.15625q-0.453125 0 -0.8125 0.203125q-0.359375 0.203125 -0.578125 0.59375q-0.203125 0.375 -0.203125 0.84375q0 0.5 0.203125 0.875q0.21875 0.359375 0.578125 0.5625q0.359375 0.203125 0.8125 0.203125q0.375 0 0.6875 -0.140625q0.328125 -0.15625 0.546875 -0.46875l0.421875 0.28125q-0.25 0.40625 -0.6875 0.625q-0.421875 0.21875 -0.96875 0.21875zm4.2680664 -2.15625l-1.0 0.90625l0 1.203125l-0.5625 0l0 -5.9375l0.5625 0l0 4.03125l2.515625 -2.296875l0.703125 0l-1.796875 1.71875l1.96875 2.484375l-0.703125 0l-1.6875 -2.109375zm6.7337036 0.1875l-3.515625 0q0.046875 0.65625 0.5 1.0625q0.453125 0.390625 1.15625 0.390625q0.390625 0 0.71875 -0.140625q0.328125 -0.140625 0.5625 -0.40625l0.328125 0.375q-0.28125 0.328125 -0.703125 0.515625q-0.421875 0.171875 -0.921875 0.171875q-0.65625 0 -1.15625 -0.28125q-0.5 -0.28125 -0.78125 -0.765625q-0.265625 -0.484375 -0.265625 -1.109375q0 -0.609375 0.265625 -1.09375q0.265625 -0.5 0.734375 -0.765625q0.46875 -0.265625 1.046875 -0.265625q0.59375 0 1.046875 0.265625q0.46875 0.265625 0.734375 0.75q0.265625 0.484375 0.265625 1.109375l-0.015625 0.1875zm-2.03125 -1.828125q-0.609375 0 -1.03125 0.390625q-0.40625 0.390625 -0.453125 1.0l2.984375 0q-0.0625 -0.609375 -0.46875 -1.0q-0.40625 -0.390625 -1.03125 -0.390625zm5.4256897 3.5q-0.171875 0.140625 -0.40625 0.21875q-0.234375 0.078125 -0.484375 0.078125q-0.59375 0 -0.921875 -0.3125q-0.3125 -0.328125 -0.3125 -0.921875l0 -2.546875l-0.75 0l0 -0.46875l0.75 0l0 -0.921875l0.5625 0l0 0.921875l1.28125 0l0 0.46875l-1.28125 0l0 2.515625q0 0.375 0.1875 0.578125q0.1875 0.1875 0.546875 0.1875q0.171875 0 0.328125 -0.046875q0.171875 -0.0625 0.296875 -0.15625l0.203125 0.40625zm1.0917053 -5.71875q0.1875 0 0.296875 0.125q0.125 0.109375 0.125 0.296875q0 0.09375 -0.03125 0.203125q-0.03125 0.109375 -0.078125 0.25l-0.34375 1.109375l-0.375 0l0.28125 -1.15625q-0.140625 -0.03125 -0.21875 -0.140625q-0.078125 -0.109375 -0.078125 -0.265625q0 -0.1875 0.109375 -0.296875q0.125 -0.125 0.3125 -0.125zm1.1491089 7.515625q0.484375 -0.796875 0.703125 -1.71875q0.21875 -0.9375 0.21875 -2.015625q0 -1.09375 -0.21875 -2.015625q-0.21875 -0.921875 -0.703125 -1.734375l0.546875 0q0.453125 0.71875 0.6875 1.6875q0.25 0.96875 0.25 2.0625q0 1.09375 -0.25 2.0625q-0.234375 0.953125 -0.6875 1.671875l-0.546875 0z" fill-rule="nonzero"/><path fill="#ffcc66" d="m183.77953 116.9476l0 0c0 -2.6527557 2.1504822 -4.8032455 4.803253 -4.8032455l115.77934 0c1.2738953 0 2.4956055 0.50605774 3.3963928 1.4068375c0.90078735 0.90078735 1.4068298 2.1225128 1.4068298 3.396408l0 19.212402c0 2.652771 -2.1504822 4.803253 -4.8032227 4.803253l-115.77934 0c-2.652771 0 -4.803253 -2.1504822 -4.803253 -4.803253z" fill-rule="evenodd"/><path stroke="#ffffff" stroke-width="1.0" stroke-linejoin="round" stroke-linecap="butt" d="m183.77953 116.9476l0 0c0 -2.6527557 2.1504822 -4.8032455 4.803253 -4.8032455l115.77934 0c1.2738953 0 2.4956055 0.50605774 3.3963928 1.4068375c0.90078735 0.90078735 1.4068298 2.1225128 1.4068298 3.396408l0 19.212402c0 2.652771 -2.1504822 4.803253 -4.8032227 4.803253l-115.77934 0c-2.652771 0 -4.803253 -2.1504822 -4.803253 -4.803253z" fill-rule="evenodd"/><path fill="#000000" d="m192.80609 130.35631q-1.109375 0 -2.0 -0.484375q-0.890625 -0.5 -1.40625 -1.359375q-0.5 -0.875 -0.5 -1.953125q0 -1.078125 0.5 -1.9375q0.515625 -0.875 1.40625 -1.359375q0.90625 -0.484375 2.015625 -0.484375q0.828125 0 1.53125 0.28125q0.703125 0.265625 1.1875 0.796875l-0.5 0.5q-0.875 -0.875 -2.203125 -0.875q-0.875 0 -1.609375 0.40625q-0.71875 0.390625 -1.140625 1.09375q-0.40625 0.703125 -0.40625 1.578125q0 0.875 0.40625 1.578125q0.421875 0.703125 1.140625 1.109375q0.734375 0.40625 1.609375 0.40625q1.34375 0 2.203125 -0.890625l0.5 0.5q-0.484375 0.53125 -1.203125 0.8125q-0.703125 0.28125 -1.53125 0.28125zm4.2713013 -7.96875l0.75 0l0 7.90625l-0.75 0l0 -7.90625zm2.866562 2.296875l0.75 0l0 5.609375l-0.75 0l0 -5.609375zm0.375 -1.21875q-0.234375 0 -0.390625 -0.15625q-0.15625 -0.171875 -0.15625 -0.390625q0 -0.21875 0.15625 -0.375q0.15625 -0.15625 0.390625 -0.15625q0.234375 0 0.390625 0.15625q0.171875 0.15625 0.171875 0.359375q0 0.234375 -0.171875 0.40625q-0.15625 0.15625 -0.390625 0.15625zm7.366562 4.265625l-4.6875 0q0.0625 0.875 0.671875 1.40625q0.609375 0.53125 1.53125 0.53125q0.515625 0 0.953125 -0.171875q0.4375 -0.1875 0.765625 -0.5625l0.421875 0.5q-0.375 0.4375 -0.9375 0.671875q-0.546875 0.234375 -1.21875 0.234375q-0.875 0 -1.546875 -0.359375q-0.65625 -0.375 -1.03125 -1.015625q-0.375 -0.65625 -0.375 -1.46875q0 -0.828125 0.359375 -1.46875q0.359375 -0.65625 0.984375 -1.015625q0.625 -0.359375 1.40625 -0.359375q0.765625 0 1.390625 0.359375q0.625 0.359375 0.96875 1.0q0.359375 0.640625 0.359375 1.484375l-0.015625 0.234375zm-2.703125 -2.4375q-0.8125 0 -1.359375 0.515625q-0.546875 0.515625 -0.625 1.34375l3.96875 0q-0.078125 -0.828125 -0.625 -1.34375q-0.546875 -0.515625 -1.359375 -0.515625zm7.108322 -0.640625q1.0625 0 1.6875 0.609375q0.625 0.609375 0.625 1.78125l0 3.25l-0.765625 0l0 -3.171875q0 -0.875 -0.4375 -1.328125q-0.4375 -0.46875 -1.25 -0.46875q-0.90625 0 -1.4375 0.546875q-0.515625 0.53125 -0.515625 1.484375l0 2.9375l-0.75 0l0 -5.609375l0.71875 0l0 1.03125q0.3125 -0.5 0.859375 -0.78125q0.546875 -0.28125 1.265625 -0.28125zm7.3081055 5.296875q-0.203125 0.1875 -0.515625 0.296875q-0.3125 0.09375 -0.65625 0.09375q-0.796875 0 -1.21875 -0.421875q-0.421875 -0.421875 -0.421875 -1.203125l0 -3.390625l-1.0 0l0 -0.640625l1.0 0l0 -1.21875l0.75 0l0 1.21875l1.703125 0l0 0.640625l-1.703125 0l0 3.34375q0 0.5 0.25 0.765625q0.25 0.265625 0.71875 0.265625q0.234375 0 0.453125 -0.078125q0.21875 -0.078125 0.375 -0.21875l0.265625 0.546875zm2.670227 2.40625q-0.59375 -0.96875 -0.921875 -2.234375q-0.3125 -1.28125 -0.3125 -2.75q0 -1.453125 0.3125 -2.734375q0.328125 -1.296875 0.921875 -2.25l0.71875 0q-0.625 1.078125 -0.921875 2.3125q-0.28125 1.234375 -0.28125 2.671875q0 1.4375 0.28125 2.671875q0.296875 1.234375 0.921875 2.3125l-0.71875 0zm5.0996857 -7.703125q0.796875 0 1.4375 0.359375q0.640625 0.34375 1.0 1.0q0.359375 0.640625 0.359375 1.484375q0 0.84375 -0.359375 1.5q-0.359375 0.640625 -1.0 1.0q-0.640625 0.34375 -1.4375 0.34375q-0.671875 0 -1.234375 -0.28125q-0.546875 -0.28125 -0.890625 -0.828125l0 3.125l-0.75 0l0 -7.671875l0.71875 0l0 1.109375q0.34375 -0.546875 0.890625 -0.84375q0.5625 -0.296875 1.265625 -0.296875zm-0.046875 5.015625q0.578125 0 1.0625 -0.265625q0.484375 -0.265625 0.75 -0.765625q0.28125 -0.5 0.28125 -1.140625q0 -0.640625 -0.28125 -1.140625q-0.265625 -0.5 -0.75 -0.765625q-0.484375 -0.28125 -1.0625 -0.28125q-0.59375 0 -1.078125 0.28125q-0.46875 0.265625 -0.75 0.765625q-0.265625 0.5 -0.265625 1.140625q0 0.640625 0.265625 1.140625q0.28125 0.5 0.75 0.765625q0.484375 0.265625 1.078125 0.265625zm5.115631 -3.875q0.265625 -0.578125 0.78125 -0.859375q0.53125 -0.28125 1.3125 -0.28125l0 0.734375l-0.171875 -0.015625q-0.890625 0 -1.390625 0.546875q-0.5 0.53125 -0.5 1.515625l0 2.859375l-0.75 0l0 -5.609375l0.71875 0l0 1.109375zm5.6970215 4.546875q-0.8125 0 -1.46875 -0.359375q-0.640625 -0.375 -1.015625 -1.015625q-0.375 -0.65625 -0.375 -1.46875q0 -0.828125 0.375 -1.46875q0.375 -0.65625 1.015625 -1.015625q0.65625 -0.359375 1.46875 -0.359375q0.8125 0 1.453125 0.359375q0.65625 0.359375 1.015625 1.015625q0.375 0.640625 0.375 1.46875q0 0.8125 -0.375 1.46875q-0.359375 0.640625 -1.015625 1.015625q-0.640625 0.359375 -1.453125 0.359375zm0 -0.671875q0.59375 0 1.0625 -0.265625q0.484375 -0.265625 0.75 -0.765625q0.265625 -0.5 0.265625 -1.140625q0 -0.640625 -0.265625 -1.140625q-0.265625 -0.5 -0.75 -0.765625q-0.46875 -0.28125 -1.0625 -0.28125q-0.59375 0 -1.078125 0.28125q-0.46875 0.265625 -0.75 0.765625q-0.265625 0.5 -0.265625 1.140625q0 0.640625 0.265625 1.140625q0.28125 0.5 0.75 0.765625q0.484375 0.265625 1.078125 0.265625zm7.337784 0.28125q-0.203125 0.1875 -0.515625 0.296875q-0.3125 0.09375 -0.65625 0.09375q-0.796875 0 -1.21875 -0.421875q-0.421875 -0.421875 -0.421875 -1.203125l0 -3.390625l-1.0 0l0 -0.640625l1.0 0l0 -1.21875l0.75 0l0 1.21875l1.703125 0l0 0.640625l-1.703125 0l0 3.34375q0 0.5 0.25 0.765625q0.25 0.265625 0.71875 0.265625q0.234375 0 0.453125 -0.078125q0.21875 -0.078125 0.375 -0.21875l0.265625 0.546875zm3.4675598 0.390625q-0.8125 0 -1.46875 -0.359375q-0.640625 -0.375 -1.015625 -1.015625q-0.375 -0.65625 -0.375 -1.46875q0 -0.828125 0.375 -1.46875q0.375 -0.65625 1.015625 -1.015625q0.65625 -0.359375 1.46875 -0.359375q0.81251526 0 1.4531403 0.359375q0.65625 0.359375 1.015625 1.015625q0.375 0.640625 0.375 1.46875q0 0.8125 -0.375 1.46875q-0.359375 0.640625 -1.015625 1.015625q-0.640625 0.359375 -1.4531403 0.359375zm0 -0.671875q0.59376526 0 1.0625153 -0.265625q0.484375 -0.265625 0.75 -0.765625q0.265625 -0.5 0.265625 -1.140625q0 -0.640625 -0.265625 -1.140625q-0.265625 -0.5 -0.75 -0.765625q-0.46875 -0.28125 -1.0625153 -0.28125q-0.59375 0 -1.078125 0.28125q-0.46875 0.265625 -0.75 0.765625q-0.265625 0.5 -0.265625 1.140625q0 0.640625 0.265625 1.140625q0.28125 0.5 0.75 0.765625q0.484375 0.265625 1.078125 0.265625zm6.712799 0.671875q-0.828125 0 -1.484375 -0.359375q-0.65625 -0.359375 -1.03125 -1.015625q-0.375 -0.65625 -0.375 -1.46875q0 -0.828125 0.375 -1.46875q0.375 -0.65625 1.03125 -1.015625q0.65625 -0.359375 1.484375 -0.359375q0.73435974 0 1.2968597 0.28125q0.578125 0.28125 0.90625 0.8125l-0.5625 0.390625q-0.28125 -0.421875 -0.71875 -0.625q-0.42185974 -0.203125 -0.92185974 -0.203125q-0.609375 0 -1.09375 0.28125q-0.484375 0.265625 -0.765625 0.765625q-0.265625 0.5 -0.265625 1.140625q0 0.640625 0.265625 1.140625q0.28125 0.5 0.765625 0.765625q0.484375 0.265625 1.09375 0.265625q0.5 0 0.92185974 -0.1875q0.4375 -0.203125 0.71875 -0.625l0.5625 0.375q-0.328125 0.546875 -0.90625 0.828125q-0.578125 0.28125 -1.2968597 0.28125zm5.8722687 0q-0.8125 0 -1.46875 -0.359375q-0.640625 -0.375 -1.015625 -1.015625q-0.375 -0.65625 -0.375 -1.46875q0 -0.828125 0.375 -1.46875q0.375 -0.65625 1.015625 -1.015625q0.65625 -0.359375 1.46875 -0.359375q0.8125 0 1.453125 0.359375q0.65625 0.359375 1.015625 1.015625q0.375 0.640625 0.375 1.46875q0 0.8125 -0.375 1.46875q-0.359375 0.640625 -1.015625 1.015625q-0.640625 0.359375 -1.453125 0.359375zm0 -0.671875q0.59375 0 1.0625 -0.265625q0.484375 -0.265625 0.75 -0.765625q0.265625 -0.5 0.265625 -1.140625q0 -0.640625 -0.265625 -1.140625q-0.265625 -0.5 -0.75 -0.765625q-0.46875 -0.28125 -1.0625 -0.28125q-0.59375 0 -1.078125 0.28125q-0.46875 0.265625 -0.75 0.765625q-0.265625 0.5 -0.265625 1.140625q0 0.640625 0.265625 1.140625q0.28125 0.5 0.75 0.765625q0.484375 0.265625 1.078125 0.265625zm4.400299 -7.28125l0.75 0l0 7.90625l-0.75 0l0 -7.90625zm2.5540466 2.625l4.625 0l0 0.640625l-4.625 0l0 -0.640625zm0 2.46875l4.625 0l0 0.625l-4.625 0l0 -0.625zm6.518036 -5.140625q0.25 0 0.40625 0.171875q0.15625 0.15625 0.15625 0.390625q0 0.140625 -0.046875 0.28125q-0.03125 0.140625 -0.09375 0.328125l-0.453125 1.46875l-0.515625 0l0.375 -1.53125q-0.1875 -0.046875 -0.296875 -0.1875q-0.09375 -0.15625 -0.09375 -0.359375q0 -0.25 0.15625 -0.40625q0.15625 -0.15625 0.40625 -0.15625zm5.0247803 2.3125q1.0625 0 1.6875 0.609375q0.625 0.609375 0.625 1.78125l0 3.25l-0.765625 0l0 -3.171875q0 -0.875 -0.4375 -1.328125q-0.4375 -0.46875 -1.25 -0.46875q-0.90625 0 -1.4375 0.546875q-0.515625 0.53125 -0.515625 1.484375l0 2.9375l-0.75 0l0 -7.90625l0.75 0l0 3.28125q0.3125 -0.484375 0.84375 -0.75q0.546875 -0.265625 1.25 -0.265625zm7.3081055 5.296875q-0.203125 0.1875 -0.515625 0.296875q-0.3125 0.09375 -0.65625 0.09375q-0.796875 0 -1.21875 -0.421875q-0.421875 -0.421875 -0.421875 -1.203125l0 -3.390625l-1.0 0l0 -0.640625l1.0 0l0 -1.21875l0.75 0l0 1.21875l1.703125 0l0 0.640625l-1.703125 0l0 3.34375q0 0.5 0.25 0.765625q0.25 0.265625 0.71875 0.265625q0.234375 0 0.453125 -0.078125q0.21875 -0.078125 0.375 -0.21875l0.265625 0.546875zm4.1771545 0q-0.203125 0.1875 -0.515625 0.296875q-0.3125 0.09375 -0.65625 0.09375q-0.796875 0 -1.21875 -0.421875q-0.421875 -0.421875 -0.421875 -1.203125l0 -3.390625l-1.0 0l0 -0.640625l1.0 0l0 -1.21875l0.75 0l0 1.21875l1.703125 0l0 0.640625l-1.703125 0l0 3.34375q0 0.5 0.25 0.765625q0.25 0.265625 0.71875 0.265625q0.234375 0 0.453125 -0.078125q0.21875 -0.078125 0.375 -0.21875l0.265625 0.546875zm4.263977 -5.296875q0.796875 0 1.4375 0.359375q0.640625 0.34375 1.0 1.0q0.359375 0.640625 0.359375 1.484375q0 0.84375 -0.359375 1.5q-0.359375 0.640625 -1.0 1.0q-0.640625 0.34375 -1.4375 0.34375q-0.671875 0 -1.234375 -0.28125q-0.546875 -0.28125 -0.890625 -0.828125l0 3.125l-0.75 0l0 -7.671875l0.71875 0l0 1.109375q0.34375 -0.546875 0.890625 -0.84375q0.5625 -0.296875 1.265625 -0.296875zm-0.046875 5.015625q0.578125 0 1.0625 -0.265625q0.484375 -0.265625 0.75 -0.765625q0.28125 -0.5 0.28125 -1.140625q0 -0.640625 -0.28125 -1.140625q-0.265625 -0.5 -0.75 -0.765625q-0.484375 -0.28125 -1.0625 -0.28125q-0.59375 0 -1.078125 0.28125q-0.46875 0.265625 -0.75 0.765625q-0.265625 0.5 -0.265625 1.140625q0 0.640625 0.265625 1.140625q0.28125 0.5 0.75 0.765625q0.484375 0.265625 1.078125 0.265625zm4.442993 -7.328125q0.25 0 0.40625 0.171875q0.15625 0.15625 0.15625 0.390625q0 0.140625 -0.046875 0.28125q-0.03125 0.140625 -0.09375 0.328125l-0.453125 1.46875l-0.515625 0l0.375 -1.53125q-0.1875 -0.046875 -0.296875 -0.1875q-0.09375 -0.15625 -0.09375 -0.359375q0 -0.25 0.15625 -0.40625q0.15625 -0.15625 0.40625 -0.15625zm1.5404053 10.015625q0.640625 -1.078125 0.9375 -2.296875q0.296875 -1.234375 0.296875 -2.6875q0 -1.453125 -0.296875 -2.671875q-0.296875 -1.234375 -0.9375 -2.3125l0.734375 0q0.59375 0.953125 0.90625 2.25q0.328125 1.28125 0.328125 2.734375q0 1.46875 -0.3125 2.75q-0.3125 1.265625 -0.921875 2.234375l-0.734375 0z" fill-rule="nonzero"/><path fill="#32c8cd" d="m354.61417 27.826868l0 0c0 -2.6527596 2.1504822 -4.8032455 4.803253 -4.8032455l115.77933 0c1.2738953 0 2.495636 0.5060539 3.3964233 1.4068375c0.90078735 0.90078354 1.4068298 2.122507 1.4068298 3.396408l0 19.212404c0 2.6527596 -2.1504822 4.8032455 -4.803253 4.8032455l-115.77933 0c-2.652771 0 -4.803253 -2.150486 -4.803253 -4.8032455z" fill-rule="evenodd"/><path stroke="#ffffff" stroke-width="1.0" stroke-linejoin="round" stroke-linecap="butt" d="m354.61417 27.826868l0 0c0 -2.6527596 2.1504822 -4.8032455 4.803253 -4.8032455l115.77933 0c1.2738953 0 2.495636 0.5060539 3.3964233 1.4068375c0.90078735 0.90078354 1.4068298 2.122507 1.4068298 3.396408l0 19.212404c0 2.6527596 -2.1504822 4.8032455 -4.803253 4.8032455l-115.77933 0c-2.652771 0 -4.803253 -2.150486 -4.803253 -4.8032455z" fill-rule="evenodd"/><path fill="#000000" d="m363.2497 34.39182l0 2.9375l3.859375 0l0 0.671875l-3.859375 0l0 3.171875l-0.78125 0l0 -7.453125l5.109375 0l0 0.671875l-4.328125 0zm5.807953 -1.125l0.75 0l0 7.90625l-0.75 0l0 -7.90625zm5.147827 7.953125q-0.8125 0 -1.46875 -0.359375q-0.640625 -0.375 -1.015625 -1.015625q-0.375 -0.65625 -0.375 -1.46875q0 -0.828125 0.375 -1.46875q0.375 -0.65625 1.015625 -1.015625q0.65625 -0.359375 1.46875 -0.359375q0.8125 0 1.453125 0.359375q0.65625 0.359375 1.015625 1.015625q0.375 0.640625 0.375 1.46875q0 0.8125 -0.375 1.46875q-0.359375 0.640625 -1.015625 1.015625q-0.640625 0.359375 -1.453125 0.359375zm0 -0.671875q0.59375 0 1.0625 -0.265625q0.484375 -0.265625 0.75 -0.765625q0.265625 -0.5 0.265625 -1.140625q0 -0.640625 -0.265625 -1.140625q-0.265625 -0.5 -0.75 -0.765625q-0.46875 -0.28125 -1.0625 -0.28125q-0.59375 0 -1.078125 0.28125q-0.46875 0.265625 -0.75 0.765625q-0.265625 0.5 -0.265625 1.140625q0 0.640625 0.265625 1.140625q0.28125 0.5 0.75 0.765625q0.484375 0.265625 1.078125 0.265625zm12.459015 -4.984375l-2.125 5.609375l-0.703125 0l-1.78125 -4.59375l-1.765625 4.59375l-0.71875 0l-2.109375 -5.609375l0.734375 0l1.75 4.765625l1.8125 -4.765625l0.640625 0l1.796875 4.765625l1.78125 -4.765625l0.6875 0zm2.4294434 7.671875q-0.59375 -0.96875 -0.921875 -2.234375q-0.3125 -1.28125 -0.3125 -2.75q0 -1.453125 0.3125 -2.734375q0.328125 -1.296875 0.921875 -2.25l0.71875 0q-0.625 1.078125 -0.921875 2.3125q-0.28125 1.234375 -0.28125 2.671875q0 1.4375 0.28125 2.671875q0.296875 1.234375 0.921875 2.3125l-0.71875 0zm5.099701 -7.703125q0.796875 0 1.4375 0.359375q0.640625 0.34375 1.0 1.0q0.359375 0.640625 0.359375 1.484375q0 0.84375 -0.359375 1.5q-0.359375 0.640625 -1.0 1.0q-0.640625 0.34375 -1.4375 0.34375q-0.671875 0 -1.234375 -0.28125q-0.546875 -0.28125 -0.890625 -0.828125l0 3.125l-0.75 0l0 -7.671875l0.71875 0l0 1.109375q0.34375 -0.546875 0.890625 -0.84375q0.5625 -0.296875 1.265625 -0.296875zm-0.046875 5.015625q0.578125 0 1.0625 -0.265625q0.484375 -0.265625 0.75 -0.765625q0.28125 -0.5 0.28125 -1.140625q0 -0.640625 -0.28125 -1.140625q-0.265625 -0.5 -0.75 -0.765625q-0.484375 -0.28125 -1.0625 -0.28125q-0.59375 0 -1.078125 0.28125q-0.46875 0.265625 -0.75 0.765625q-0.265625 0.5 -0.265625 1.140625q0 0.640625 0.265625 1.140625q0.28125 0.5 0.75 0.765625q0.484375 0.265625 1.078125 0.265625zm5.115631 -3.875q0.265625 -0.578125 0.78125 -0.859375q0.53125 -0.28125 1.3125 -0.28125l0 0.734375l-0.171875 -0.015625q-0.890625 0 -1.390625 0.546875q-0.5 0.53125 -0.5 1.515625l0 2.859375l-0.75 0l0 -5.609375l0.71875 0l0 1.109375zm5.6970215 4.546875q-0.8125 0 -1.46875 -0.359375q-0.640625 -0.375 -1.015625 -1.015625q-0.375 -0.65625 -0.375 -1.46875q0 -0.828125 0.375 -1.46875q0.375 -0.65625 1.015625 -1.015625q0.65625 -0.359375 1.46875 -0.359375q0.8125 0 1.453125 0.359375q0.65625 0.359375 1.015625 1.015625q0.375 0.640625 0.375 1.46875q0 0.8125 -0.375 1.46875q-0.359375 0.640625 -1.015625 1.015625q-0.640625 0.359375 -1.453125 0.359375zm0 -0.671875q0.59375 0 1.0625 -0.265625q0.484375 -0.265625 0.75 -0.765625q0.265625 -0.5 0.265625 -1.140625q0 -0.640625 -0.265625 -1.140625q-0.265625 -0.5 -0.75 -0.765625q-0.46875 -0.28125 -1.0625 -0.28125q-0.59375 0 -1.078125 0.28125q-0.46875 0.265625 -0.75 0.765625q-0.265625 0.5 -0.265625 1.140625q0 0.640625 0.265625 1.140625q0.28125 0.5 0.75 0.765625q0.484375 0.265625 1.078125 0.265625zm7.3377686 0.28125q-0.203125 0.1875 -0.515625 0.296875q-0.3125 0.09375 -0.65625 0.09375q-0.796875 0 -1.21875 -0.421875q-0.421875 -0.421875 -0.421875 -1.203125l0 -3.390625l-1.0 0l0 -0.640625l1.0 0l0 -1.21875l0.75 0l0 1.21875l1.703125 0l0 0.640625l-1.703125 0l0 3.34375q0 0.5 0.25 0.765625q0.25 0.265625 0.71875 0.265625q0.234375 0 0.453125 -0.078125q0.21875 -0.078125 0.375 -0.21875l0.265625 0.546875zm3.4675598 0.390625q-0.8125 0 -1.46875 -0.359375q-0.640625 -0.375 -1.015625 -1.015625q-0.375 -0.65625 -0.375 -1.46875q0 -0.828125 0.375 -1.46875q0.375 -0.65625 1.015625 -1.015625q0.65625 -0.359375 1.46875 -0.359375q0.8125 0 1.453125 0.359375q0.65625 0.359375 1.015625 1.015625q0.375 0.640625 0.375 1.46875q0 0.8125 -0.375 1.46875q-0.359375 0.640625 -1.015625 1.015625q-0.640625 0.359375 -1.453125 0.359375zm0 -0.671875q0.59375 0 1.0625 -0.265625q0.484375 -0.265625 0.75 -0.765625q0.265625 -0.5 0.265625 -1.140625q0 -0.640625 -0.265625 -1.140625q-0.265625 -0.5 -0.75 -0.765625q-0.46875 -0.28125 -1.0625 -0.28125q-0.59375 0 -1.078125 0.28125q-0.46875 0.265625 -0.75 0.765625q-0.265625 0.5 -0.265625 1.140625q0 0.640625 0.265625 1.140625q0.28125 0.5 0.75 0.765625q0.484375 0.265625 1.078125 0.265625zm6.712799 0.671875q-0.828125 0 -1.484375 -0.359375q-0.65625 -0.359375 -1.03125 -1.015625q-0.375 -0.65625 -0.375 -1.46875q0 -0.828125 0.375 -1.46875q0.375 -0.65625 1.03125 -1.015625q0.65625 -0.359375 1.484375 -0.359375q0.734375 0 1.296875 0.28125q0.578125 0.28125 0.90625 0.8125l-0.5625 0.390625q-0.28125 -0.421875 -0.71875 -0.625q-0.421875 -0.203125 -0.921875 -0.203125q-0.609375 0 -1.09375 0.28125q-0.484375 0.265625 -0.765625 0.765625q-0.265625 0.5 -0.265625 1.140625q0 0.640625 0.265625 1.140625q0.28125 0.5 0.765625 0.765625q0.484375 0.265625 1.09375 0.265625q0.5 0 0.921875 -0.1875q0.4375 -0.203125 0.71875 -0.625l0.5625 0.375q-0.328125 0.546875 -0.90625 0.828125q-0.578125 0.28125 -1.296875 0.28125zm5.872284 0q-0.8125 0 -1.46875 -0.359375q-0.640625 -0.375 -1.015625 -1.015625q-0.375 -0.65625 -0.375 -1.46875q0 -0.828125 0.375 -1.46875q0.375 -0.65625 1.015625 -1.015625q0.65625 -0.359375 1.46875 -0.359375q0.8125 0 1.453125 0.359375q0.65625 0.359375 1.015625 1.015625q0.375 0.640625 0.375 1.46875q0 0.8125 -0.375 1.46875q-0.359375 0.640625 -1.015625 1.015625q-0.640625 0.359375 -1.453125 0.359375zm0 -0.671875q0.59375 0 1.0625 -0.265625q0.484375 -0.265625 0.75 -0.765625q0.265625 -0.5 0.265625 -1.140625q0 -0.640625 -0.265625 -1.140625q-0.265625 -0.5 -0.75 -0.765625q-0.46875 -0.28125 -1.0625 -0.28125q-0.59375 0 -1.078125 0.28125q-0.46875 0.265625 -0.75 0.765625q-0.265625 0.5 -0.265625 1.140625q0 0.640625 0.265625 1.140625q0.28125 0.5 0.75 0.765625q0.484375 0.265625 1.078125 0.265625zm4.4002686 -7.28125l0.75 0l0 7.90625l-0.75 0l0 -7.90625zm2.5540771 2.625l4.625 0l0 0.640625l-4.625 0l0 -0.640625zm0 2.46875l4.625 0l0 0.625l-4.625 0l0 -0.625zm6.518036 -5.140625q0.25 0 0.40625 0.171875q0.15625 0.15625 0.15625 0.390625q0 0.140625 -0.046875 0.28125q-0.03125 0.140625 -0.09375 0.328125l-0.453125 1.46875l-0.515625 0l0.375 -1.53125q-0.1875 -0.046875 -0.296875 -0.1875q-0.09375 -0.15625 -0.09375 -0.359375q0 -0.25 0.15625 -0.40625q0.15625 -0.15625 0.40625 -0.15625zm7.0698547 2.34375l0 4.921875q0 1.4375 -0.703125 2.125q-0.703125 0.6875 -2.109375 0.6875q-0.765625 0 -1.46875 -0.234375q-0.703125 -0.234375 -1.140625 -0.640625l0.390625 -0.5625q0.40625 0.359375 0.984375 0.5625q0.578125 0.203125 1.21875 0.203125q1.0625 0 1.5625 -0.5q0.5 -0.5 0.5 -1.546875l0 -0.703125q-0.34375 0.53125 -0.921875 0.8125q-0.5625 0.265625 -1.265625 0.265625q-0.78125 0 -1.4375 -0.34375q-0.640625 -0.34375 -1.015625 -0.96875q-0.359375 -0.625 -0.359375 -1.40625q0 -0.796875 0.359375 -1.40625q0.375 -0.625 1.015625 -0.953125q0.640625 -0.34375 1.4375 -0.34375q0.71875 0 1.296875 0.28125q0.578125 0.28125 0.921875 0.828125l0 -1.078125l0.734375 0zm-2.875 4.71875q0.609375 0 1.09375 -0.25q0.5 -0.265625 0.765625 -0.734375q0.28125 -0.46875 0.28125 -1.0625q0 -0.59375 -0.28125 -1.0625q-0.265625 -0.46875 -0.75 -0.71875q-0.484375 -0.265625 -1.109375 -0.265625q-0.609375 0 -1.09375 0.265625q-0.484375 0.25 -0.765625 0.71875q-0.265625 0.46875 -0.265625 1.0625q0 0.59375 0.265625 1.0625q0.28125 0.46875 0.765625 0.734375q0.484375 0.25 1.09375 0.25zm5.716522 -3.609375q0.265625 -0.578125 0.78125 -0.859375q0.53125 -0.28125 1.3125 -0.28125l0 0.734375l-0.171875 -0.015625q-0.890625 0 -1.390625 0.546875q-0.5 0.53125 -0.5 1.515625l0 2.859375l-0.75 0l0 -5.609375l0.71875 0l0 1.109375zm6.344116 -1.140625q0.796875 0 1.4375 0.359375q0.640625 0.34375 1.0 1.0q0.359375 0.640625 0.359375 1.484375q0 0.84375 -0.359375 1.5q-0.359375 0.640625 -1.0 1.0q-0.640625 0.34375 -1.4375 0.34375q-0.671875 0 -1.234375 -0.28125q-0.546875 -0.28125 -0.890625 -0.828125l0 3.125l-0.75 0l0 -7.671875l0.71875 0l0 1.109375q0.34375 -0.546875 0.890625 -0.84375q0.5625 -0.296875 1.265625 -0.296875zm-0.046875 5.015625q0.578125 0 1.0625 -0.265625q0.484375 -0.265625 0.75 -0.765625q0.28125 -0.5 0.28125 -1.140625q0 -0.640625 -0.28125 -1.140625q-0.265625 -0.5 -0.75 -0.765625q-0.484375 -0.28125 -1.0625 -0.28125q-0.59375 0 -1.078125 0.28125q-0.46875 0.265625 -0.75 0.765625q-0.265625 0.5 -0.265625 1.140625q0 0.640625 0.265625 1.140625q0.28125 0.5 0.75 0.765625q0.484375 0.265625 1.078125 0.265625zm6.709381 0.671875q-0.828125 0 -1.484375 -0.359375q-0.65625 -0.359375 -1.03125 -1.015625q-0.375 -0.65625 -0.375 -1.46875q0 -0.828125 0.375 -1.46875q0.375 -0.65625 1.03125 -1.015625q0.65625 -0.359375 1.484375 -0.359375q0.734375 0 1.296875 0.28125q0.578125 0.28125 0.90625 0.8125l-0.5625 0.390625q-0.28125 -0.421875 -0.71875 -0.625q-0.421875 -0.203125 -0.921875 -0.203125q-0.609375 0 -1.09375 0.28125q-0.484375 0.265625 -0.765625 0.765625q-0.265625 0.5 -0.265625 1.140625q0 0.640625 0.265625 1.140625q0.28125 0.5 0.765625 0.765625q0.484375 0.265625 1.09375 0.265625q0.5 0 0.921875 -0.1875q0.4375 -0.203125 0.71875 -0.625l0.5625 0.375q-0.328125 0.546875 -0.90625 0.828125q-0.578125 0.28125 -1.296875 0.28125zm3.999817 -8.0q0.25 0 0.40625 0.171875q0.15625 0.15625 0.15625 0.390625q0 0.140625 -0.046875 0.28125q-0.03125 0.140625 -0.09375 0.328125l-0.453125 1.46875l-0.515625 0l0.375 -1.53125q-0.1875 -0.046875 -0.296875 -0.1875q-0.09375 -0.15625 -0.09375 -0.359375q0 -0.25 0.15625 -0.40625q0.15625 -0.15625 0.40625 -0.15625zm1.5404053 10.015625q0.640625 -1.078125 0.9375 -2.296875q0.296875 -1.234375 0.296875 -2.6875q0 -1.453125 -0.296875 -2.671875q-0.296875 -1.234375 -0.9375 -2.3125l0.734375 0q0.59375 0.953125 0.90625 2.25q0.328125 1.28125 0.328125 2.734375q0 1.46875 -0.3125 2.75q-0.3125 1.265625 -0.921875 2.234375l-0.734375 0z" fill-rule="nonzero"/><path fill="#32c8cd" d="m354.61417 73.05259l0 0c0 -2.6527557 2.1504822 -4.8032455 4.803253 -4.8032455l115.77933 0c1.2738953 0 2.495636 0.50605774 3.3964233 1.4068375c0.90078735 0.90078735 1.4068298 2.1225052 1.4068298 3.396408l0 19.21241c0 2.6527557 -2.1504822 4.8032455 -4.803253 4.8032455l-115.77933 0c-2.652771 0 -4.803253 -2.1504898 -4.803253 -4.8032455z" fill-rule="evenodd"/><path stroke="#ffffff" stroke-width="1.0" stroke-linejoin="round" stroke-linecap="butt" d="m354.61417 73.05259l0 0c0 -2.6527557 2.1504822 -4.8032455 4.803253 -4.8032455l115.77933 0c1.2738953 0 2.495636 0.50605774 3.3964233 1.4068375c0.90078735 0.90078735 1.4068298 2.1225052 1.4068298 3.396408l0 19.21241c0 2.6527557 -2.1504822 4.8032455 -4.803253 4.8032455l-115.77933 0c-2.652771 0 -4.803253 -2.1504898 -4.803253 -4.8032455z" fill-rule="evenodd"/><path fill="#000000" d="m364.2798 80.24504l0 2.203125l2.90625 0l0 0.515625l-2.90625 0l0 2.375l-0.59375 0l0 -5.59375l3.84375 0l0 0.5l-3.25 0zm4.3608093 -0.84375l0.5625 0l0 5.9375l-0.5625 0l0 -5.9375zm3.8707275 5.984375q-0.609375 0 -1.109375 -0.28125q-0.484375 -0.28125 -0.765625 -0.765625q-0.265625 -0.484375 -0.265625 -1.109375q0 -0.609375 0.265625 -1.09375q0.28125 -0.5 0.765625 -0.765625q0.5 -0.265625 1.109375 -0.265625q0.609375 0 1.09375 0.265625q0.484375 0.265625 0.75 0.765625q0.28125 0.484375 0.28125 1.09375q0 0.625 -0.28125 1.109375q-0.265625 0.484375 -0.75 0.765625q-0.484375 0.28125 -1.09375 0.28125zm0 -0.515625q0.4375 0 0.796875 -0.203125q0.359375 -0.203125 0.5625 -0.578125q0.203125 -0.375 0.203125 -0.859375q0 -0.46875 -0.203125 -0.84375q-0.203125 -0.390625 -0.5625 -0.59375q-0.359375 -0.203125 -0.796875 -0.203125q-0.453125 0 -0.8125 0.203125q-0.34375 0.203125 -0.5625 0.59375q-0.203125 0.375 -0.203125 0.84375q0 0.484375 0.203125 0.859375q0.21875 0.375 0.5625 0.578125q0.359375 0.203125 0.8125 0.203125zm9.34906 -3.734375l-1.59375 4.203125l-0.53125 0l-1.328125 -3.453125l-1.328125 3.453125l-0.546875 0l-1.578125 -4.203125l0.546875 0l1.3125 3.578125l1.359375 -3.578125l0.484375 0l1.34375 3.578125l1.34375 -3.578125l0.515625 0zm1.8287659 5.75q-0.453125 -0.734375 -0.703125 -1.6875q-0.234375 -0.953125 -0.234375 -2.046875q0 -1.09375 0.234375 -2.0625q0.25 -0.96875 0.703125 -1.6875l0.53125 0q-0.46875 0.8125 -0.6875 1.75q-0.21875 0.921875 -0.21875 2.0q0 1.078125 0.21875 2.015625q0.21875 0.921875 0.6875 1.71875l-0.53125 0zm3.8194885 -5.78125q0.59375 0 1.078125 0.265625q0.484375 0.265625 0.75 0.75q0.28125 0.484375 0.28125 1.109375q0 0.640625 -0.28125 1.125q-0.265625 0.484375 -0.75 0.765625q-0.46875 0.265625 -1.078125 0.265625q-0.5 0 -0.921875 -0.21875q-0.40625 -0.21875 -0.671875 -0.625l0 2.34375l-0.5625 0l0 -5.75l0.546875 0l0 0.828125q0.25 -0.421875 0.671875 -0.640625q0.421875 -0.21875 0.9375 -0.21875zm-0.03125 3.765625q0.4375 0 0.796875 -0.203125q0.359375 -0.203125 0.5625 -0.578125q0.203125 -0.375 0.203125 -0.859375q0 -0.46875 -0.203125 -0.84375q-0.203125 -0.375 -0.5625 -0.578125q-0.359375 -0.21875 -0.796875 -0.21875q-0.453125 0 -0.8125 0.21875q-0.34375 0.203125 -0.546875 0.578125q-0.203125 0.375 -0.203125 0.84375q0 0.484375 0.203125 0.859375q0.203125 0.375 0.546875 0.578125q0.359375 0.203125 0.8125 0.203125zm3.8457947 -2.921875q0.1875 -0.421875 0.578125 -0.625q0.40625 -0.21875 0.984375 -0.21875l0 0.546875l-0.125 -0.015625q-0.671875 0 -1.046875 0.421875q-0.375 0.40625 -0.375 1.140625l0 2.140625l-0.5625 0l0 -4.203125l0.546875 0l0 0.8125zm4.2758484 3.4375q-0.609375 0 -1.109375 -0.28125q-0.484375 -0.28125 -0.765625 -0.765625q-0.265625 -0.484375 -0.265625 -1.109375q0 -0.609375 0.265625 -1.09375q0.28125 -0.5 0.765625 -0.765625q0.5 -0.265625 1.109375 -0.265625q0.609375 0 1.09375 0.265625q0.484375 0.265625 0.75 0.765625q0.28125 0.484375 0.28125 1.09375q0 0.625 -0.28125 1.109375q-0.265625 0.484375 -0.75 0.765625q-0.484375 0.28125 -1.09375 0.28125zm0 -0.515625q0.4375 0 0.796875 -0.203125q0.359375 -0.203125 0.5625 -0.578125q0.203125 -0.375 0.203125 -0.859375q0 -0.46875 -0.203125 -0.84375q-0.203125 -0.390625 -0.5625 -0.59375q-0.359375 -0.203125 -0.796875 -0.203125q-0.453125 0 -0.8125 0.203125q-0.34375 0.203125 -0.5625 0.59375q-0.203125 0.375 -0.203125 0.84375q0 0.484375 0.203125 0.859375q0.21875 0.375 0.5625 0.578125q0.359375 0.203125 0.8125 0.203125zm5.51593 0.21875q-0.171875 0.140625 -0.40625 0.21875q-0.234375 0.078125 -0.484375 0.078125q-0.59375 0 -0.921875 -0.3125q-0.3125 -0.328125 -0.3125 -0.921875l0 -2.546875l-0.75 0l0 -0.46875l0.75 0l0 -0.921875l0.5625 0l0 0.921875l1.28125 0l0 0.46875l-1.28125 0l0 2.515625q0 0.375 0.1875 0.578125q0.1875 0.1875 0.546875 0.1875q0.171875 0 0.328125 -0.046875q0.171875 -0.0625 0.296875 -0.15625l0.203125 0.40625zm2.5959473 0.296875q-0.609375 0 -1.109375 -0.28125q-0.484375 -0.28125 -0.765625 -0.765625q-0.265625 -0.484375 -0.265625 -1.109375q0 -0.609375 0.265625 -1.09375q0.28125 -0.5 0.765625 -0.765625q0.5 -0.265625 1.109375 -0.265625q0.609375 0 1.09375 0.265625q0.484375 0.265625 0.75 0.765625q0.28125 0.484375 0.28125 1.09375q0 0.625 -0.28125 1.109375q-0.265625 0.484375 -0.75 0.765625q-0.484375 0.28125 -1.09375 0.28125zm0 -0.515625q0.4375 0 0.796875 -0.203125q0.359375 -0.203125 0.5625 -0.578125q0.203125 -0.375 0.203125 -0.859375q0 -0.46875 -0.203125 -0.84375q-0.203125 -0.390625 -0.5625 -0.59375q-0.359375 -0.203125 -0.796875 -0.203125q-0.453125 0 -0.8125 0.203125q-0.34375 0.203125 -0.5625 0.59375q-0.203125 0.375 -0.203125 0.84375q0 0.484375 0.203125 0.859375q0.21875 0.375 0.5625 0.578125q0.359375 0.203125 0.8125 0.203125zm5.031555 0.515625q-0.625 0 -1.125 -0.265625q-0.484375 -0.28125 -0.765625 -0.765625q-0.265625 -0.5 -0.265625 -1.125q0 -0.609375 0.265625 -1.09375q0.28125 -0.5 0.765625 -0.765625q0.5 -0.265625 1.125 -0.265625q0.546875 0 0.96875 0.21875q0.4375 0.203125 0.6875 0.609375l-0.421875 0.28125q-0.21875 -0.3125 -0.546875 -0.46875q-0.3125 -0.15625 -0.6875 -0.15625q-0.453125 0 -0.8125 0.203125q-0.359375 0.203125 -0.578125 0.59375q-0.203125 0.375 -0.203125 0.84375q0 0.5 0.203125 0.875q0.21875 0.359375 0.578125 0.5625q0.359375 0.203125 0.8125 0.203125q0.375 0 0.6875 -0.140625q0.328125 -0.15625 0.546875 -0.46875l0.421875 0.28125q-0.25 0.40625 -0.6875 0.625q-0.421875 0.21875 -0.96875 0.21875zm4.416321 0q-0.609375 0 -1.109375 -0.28125q-0.484375 -0.28125 -0.765625 -0.765625q-0.265625 -0.484375 -0.265625 -1.109375q0 -0.609375 0.265625 -1.09375q0.28125 -0.5 0.765625 -0.765625q0.5 -0.265625 1.109375 -0.265625q0.609375 0 1.09375 0.265625q0.484375 0.265625 0.75 0.765625q0.28125 0.484375 0.28125 1.09375q0 0.625 -0.28125 1.109375q-0.265625 0.484375 -0.75 0.765625q-0.484375 0.28125 -1.09375 0.28125zm0 -0.515625q0.4375 0 0.796875 -0.203125q0.359375 -0.203125 0.5625 -0.578125q0.203125 -0.375 0.203125 -0.859375q0 -0.46875 -0.203125 -0.84375q-0.203125 -0.390625 -0.5625 -0.59375q-0.359375 -0.203125 -0.796875 -0.203125q-0.453125 0 -0.8125 0.203125q-0.34375 0.203125 -0.5625 0.59375q-0.203125 0.375 -0.203125 0.84375q0 0.484375 0.203125 0.859375q0.21875 0.375 0.5625 0.578125q0.359375 0.203125 0.8125 0.203125zm3.2971802 -5.46875l0.5625 0l0 5.9375l-0.5625 0l0 -5.9375zm1.9176025 1.984375l3.484375 0l0 0.46875l-3.484375 0l0 -0.46875zm0 1.84375l3.484375 0l0 0.46875l-3.484375 0l0 -0.46875zm4.89682 -3.859375q0.1875 0 0.296875 0.125q0.125 0.109375 0.125 0.296875q0 0.09375 -0.03125 0.203125q-0.03125 0.109375 -0.078125 0.25l-0.34375 1.109375l-0.375 0l0.28125 -1.15625q-0.140625 -0.03125 -0.21875 -0.140625q-0.078125 -0.109375 -0.078125 -0.265625q0 -0.1875 0.109375 -0.296875q0.125 -0.125 0.3125 -0.125zm7.949341 1.765625l-1.59375 4.203125l-0.53125 0l-1.328125 -3.453125l-1.328125 3.453125l-0.546875 0l-1.578125 -4.203125l0.546875 0l1.3125 3.578125l1.359375 -3.578125l0.484375 0l1.34375 3.578125l1.34375 -3.578125l0.515625 0zm4.3963013 2.28125l-3.515625 0q0.046875 0.65625 0.5 1.0625q0.453125 0.390625 1.15625 0.390625q0.390625 0 0.71875 -0.140625q0.328125 -0.140625 0.5625 -0.40625l0.328125 0.375q-0.28125 0.328125 -0.703125 0.515625q-0.421875 0.171875 -0.921875 0.171875q-0.65625 0 -1.15625 -0.28125q-0.5 -0.28125 -0.78125 -0.765625q-0.265625 -0.484375 -0.265625 -1.109375q0 -0.609375 0.265625 -1.09375q0.265625 -0.5 0.734375 -0.765625q0.46875 -0.265625 1.046875 -0.265625q0.59375 0 1.046875 0.265625q0.46875 0.265625 0.734375 0.75q0.265625 0.484375 0.265625 1.109375l-0.015625 0.1875zm-2.03125 -1.828125q-0.609375 0 -1.03125 0.390625q-0.40625 0.390625 -0.453125 1.0l2.984375 0q-0.0625 -0.609375 -0.46875 -1.0q-0.40625 -0.390625 -1.03125 -0.390625zm5.3631897 -0.484375q0.59375 0 1.078125 0.265625q0.484375 0.265625 0.75 0.75q0.28125 0.484375 0.28125 1.109375q0 0.625 -0.28125 1.125q-0.265625 0.484375 -0.75 0.765625q-0.484375 0.265625 -1.078125 0.265625q-0.515625 0 -0.9375 -0.21875q-0.421875 -0.234375 -0.671875 -0.65625l0 0.828125l-0.546875 0l0 -5.9375l0.5625 0l0 2.53125q0.265625 -0.40625 0.671875 -0.609375q0.421875 -0.21875 0.921875 -0.21875zm-0.03125 3.765625q0.4375 0 0.796875 -0.203125q0.359375 -0.203125 0.5625 -0.578125q0.203125 -0.375 0.203125 -0.859375q0 -0.46875 -0.203125 -0.84375q-0.203125 -0.390625 -0.5625 -0.59375q-0.359375 -0.203125 -0.796875 -0.203125q-0.453125 0 -0.8125 0.203125q-0.34375 0.203125 -0.546875 0.59375q-0.203125 0.375 -0.203125 0.84375q0 0.484375 0.203125 0.859375q0.203125 0.375 0.546875 0.578125q0.359375 0.203125 0.8125 0.203125zm4.4239197 0.515625q-0.515625 0 -0.984375 -0.140625q-0.46875 -0.15625 -0.734375 -0.390625l0.265625 -0.4375q0.265625 0.203125 0.65625 0.34375q0.40625 0.125 0.828125 0.125q0.578125 0 0.859375 -0.171875q0.28125 -0.1875 0.28125 -0.515625q0 -0.234375 -0.15625 -0.359375q-0.15625 -0.140625 -0.390625 -0.203125q-0.234375 -0.078125 -0.609375 -0.140625q-0.515625 -0.09375 -0.828125 -0.1875q-0.3125 -0.109375 -0.53125 -0.34375q-0.21875 -0.234375 -0.21875 -0.671875q0 -0.515625 0.4375 -0.84375q0.4375 -0.34375 1.234375 -0.34375q0.40625 0 0.8125 0.109375q0.40625 0.09375 0.671875 0.28125l-0.25 0.453125q-0.515625 -0.359375 -1.234375 -0.359375q-0.546875 0 -0.828125 0.1875q-0.28125 0.1875 -0.28125 0.5q0 0.25 0.15625 0.390625q0.15625 0.140625 0.390625 0.21875q0.234375 0.0625 0.640625 0.140625q0.5 0.09375 0.796875 0.1875q0.3125 0.09375 0.53125 0.328125q0.21875 0.234375 0.21875 0.640625q0 0.546875 -0.46875 0.875q-0.453125 0.328125 -1.265625 0.328125zm4.505707 0q-0.609375 0 -1.109375 -0.28125q-0.484375 -0.28125 -0.765625 -0.765625q-0.265625 -0.484375 -0.265625 -1.109375q0 -0.609375 0.265625 -1.09375q0.28125 -0.5 0.765625 -0.765625q0.5 -0.265625 1.109375 -0.265625q0.609375 0 1.09375 0.265625q0.484375 0.265625 0.75 0.765625q0.28125 0.484375 0.28125 1.09375q0 0.625 -0.28125 1.109375q-0.265625 0.484375 -0.75 0.765625q-0.484375 0.28125 -1.09375 0.28125zm0 -0.515625q0.4375 0 0.796875 -0.203125q0.359375 -0.203125 0.5625 -0.578125q0.203125 -0.375 0.203125 -0.859375q0 -0.46875 -0.203125 -0.84375q-0.203125 -0.390625 -0.5625 -0.59375q-0.359375 -0.203125 -0.796875 -0.203125q-0.453125 0 -0.8125 0.203125q-0.34375 0.203125 -0.5625 0.59375q-0.203125 0.375 -0.203125 0.84375q0 0.484375 0.203125 0.859375q0.21875 0.375 0.5625 0.578125q0.359375 0.203125 0.8125 0.203125zm5.031555 0.515625q-0.625 0 -1.125 -0.265625q-0.484375 -0.28125 -0.765625 -0.765625q-0.265625 -0.5 -0.265625 -1.125q0 -0.609375 0.265625 -1.09375q0.28125 -0.5 0.765625 -0.765625q0.5 -0.265625 1.125 -0.265625q0.546875 0 0.96875 0.21875q0.4375 0.203125 0.6875 0.609375l-0.421875 0.28125q-0.21875 -0.3125 -0.546875 -0.46875q-0.3125 -0.15625 -0.6875 -0.15625q-0.453125 0 -0.8125 0.203125q-0.359375 0.203125 -0.578125 0.59375q-0.203125 0.375 -0.203125 0.84375q0 0.5 0.203125 0.875q0.21875 0.359375 0.578125 0.5625q0.359375 0.203125 0.8125 0.203125q0.375 0 0.6875 -0.140625q0.328125 -0.15625 0.546875 -0.46875l0.421875 0.28125q-0.25 0.40625 -0.6875 0.625q-0.421875 0.21875 -0.96875 0.21875zm4.2680664 -2.15625l-1.0 0.90625l0 1.203125l-0.5625 0l0 -5.9375l0.5625 0l0 4.03125l2.515625 -2.296875l0.703125 0l-1.796875 1.71875l1.96875 2.484375l-0.703125 0l-1.6875 -2.109375zm6.7337036 0.1875l-3.515625 0q0.046875 0.65625 0.5 1.0625q0.453125 0.390625 1.15625 0.390625q0.390625 0 0.71875 -0.140625q0.328125 -0.140625 0.5625 -0.40625l0.328125 0.375q-0.28125 0.328125 -0.703125 0.515625q-0.421875 0.171875 -0.921875 0.171875q-0.65625 0 -1.15625 -0.28125q-0.5 -0.28125 -0.78125 -0.765625q-0.265625 -0.484375 -0.265625 -1.109375q0 -0.609375 0.265625 -1.09375q0.265625 -0.5 0.734375 -0.765625q0.46875 -0.265625 1.046875 -0.265625q0.59375 0 1.046875 0.265625q0.46875 0.265625 0.734375 0.75q0.265625 0.484375 0.265625 1.109375l-0.015625 0.1875zm-2.03125 -1.828125q-0.609375 0 -1.03125 0.390625q-0.40625 0.390625 -0.453125 1.0l2.984375 0q-0.0625 -0.609375 -0.46875 -1.0q-0.40625 -0.390625 -1.03125 -0.390625zm5.4256897 3.5q-0.171875 0.140625 -0.40625 0.21875q-0.234375 0.078125 -0.484375 0.078125q-0.59375 0 -0.921875 -0.3125q-0.3125 -0.328125 -0.3125 -0.921875l0 -2.546875l-0.75 0l0 -0.46875l0.75 0l0 -0.921875l0.5625 0l0 0.921875l1.28125 0l0 0.46875l-1.28125 0l0 2.515625q0 0.375 0.1875 0.578125q0.1875 0.1875 0.546875 0.1875q0.171875 0 0.328125 -0.046875q0.171875 -0.0625 0.296875 -0.15625l0.203125 0.40625zm1.0917053 -5.71875q0.1875 0 0.296875 0.125q0.125 0.109375 0.125 0.296875q0 0.09375 -0.03125 0.203125q-0.03125 0.109375 -0.078125 0.25l-0.34375 1.109375l-0.375 0l0.28125 -1.15625q-0.140625 -0.03125 -0.21875 -0.140625q-0.078125 -0.109375 -0.078125 -0.265625q0 -0.1875 0.109375 -0.296875q0.125 -0.125 0.3125 -0.125zm1.1491089 7.515625q0.484375 -0.796875 0.703125 -1.71875q0.21875 -0.9375 0.21875 -2.015625q0 -1.09375 -0.21875 -2.015625q-0.21875 -0.921875 -0.703125 -1.734375l0.546875 0q0.453125 0.71875 0.6875 1.6875q0.25 0.96875 0.25 2.0625q0 1.09375 -0.25 2.0625q-0.234375 0.953125 -0.6875 1.671875l-0.546875 0z" fill-rule="nonzero"/><path fill="#32c8cd" d="m354.61417 116.9476l0 0c0 -2.6527557 2.1504822 -4.8032455 4.803253 -4.8032455l115.77933 0c1.2738953 0 2.495636 0.50605774 3.3964233 1.4068375c0.90078735 0.90078735 1.4068298 2.1225128 1.4068298 3.396408l0 19.212402c0 2.652771 -2.1504822 4.803253 -4.803253 4.803253l-115.77933 0c-2.652771 0 -4.803253 -2.1504822 -4.803253 -4.803253z" fill-rule="evenodd"/><path stroke="#ffffff" stroke-width="1.0" stroke-linejoin="round" stroke-linecap="butt" d="m354.61417 116.9476l0 0c0 -2.6527557 2.1504822 -4.8032455 4.803253 -4.8032455l115.77933 0c1.2738953 0 2.495636 0.50605774 3.3964233 1.4068375c0.90078735 0.90078735 1.4068298 2.1225128 1.4068298 3.396408l0 19.212402c0 2.652771 -2.1504822 4.803253 -4.803253 4.803253l-115.77933 0c-2.652771 0 -4.803253 -2.1504822 -4.803253 -4.803253z" fill-rule="evenodd"/><path fill="#000000" d="m364.12354 123.51256l0 2.9375l3.859375 0l0 0.671875l-3.859375 0l0 3.171875l-0.78125 0l0 -7.453125l5.109375 0l0 0.671875l-4.328125 0zm5.807953 -1.125l0.75 0l0 7.90625l-0.75 0l0 -7.90625zm5.147827 7.953125q-0.8125 0 -1.46875 -0.359375q-0.640625 -0.375 -1.015625 -1.015625q-0.375 -0.65625 -0.375 -1.46875q0 -0.828125 0.375 -1.46875q0.375 -0.65625 1.015625 -1.015625q0.65625 -0.359375 1.46875 -0.359375q0.8125 0 1.453125 0.359375q0.65625 0.359375 1.015625 1.015625q0.375 0.640625 0.375 1.46875q0 0.8125 -0.375 1.46875q-0.359375 0.640625 -1.015625 1.015625q-0.640625 0.359375 -1.453125 0.359375zm0 -0.671875q0.59375 0 1.0625 -0.265625q0.484375 -0.265625 0.75 -0.765625q0.265625 -0.5 0.265625 -1.140625q0 -0.640625 -0.265625 -1.140625q-0.265625 -0.5 -0.75 -0.765625q-0.46875 -0.28125 -1.0625 -0.28125q-0.59375 0 -1.078125 0.28125q-0.46875 0.265625 -0.75 0.765625q-0.265625 0.5 -0.265625 1.140625q0 0.640625 0.265625 1.140625q0.28125 0.5 0.75 0.765625q0.484375 0.265625 1.078125 0.265625zm12.459015 -4.984375l-2.125 5.609375l-0.703125 0l-1.78125 -4.59375l-1.765625 4.59375l-0.71875 0l-2.109375 -5.609375l0.734375 0l1.75 4.765625l1.8125 -4.765625l0.640625 0l1.796875 4.765625l1.78125 -4.765625l0.6875 0zm2.4294434 7.671875q-0.59375 -0.96875 -0.921875 -2.234375q-0.3125 -1.28125 -0.3125 -2.75q0 -1.453125 0.3125 -2.734375q0.328125 -1.296875 0.921875 -2.25l0.71875 0q-0.625 1.078125 -0.921875 2.3125q-0.28125 1.234375 -0.28125 2.671875q0 1.4375 0.28125 2.671875q0.296875 1.234375 0.921875 2.3125l-0.71875 0zm5.099701 -7.703125q0.796875 0 1.4375 0.359375q0.640625 0.34375 1.0 1.0q0.359375 0.640625 0.359375 1.484375q0 0.84375 -0.359375 1.5q-0.359375 0.640625 -1.0 1.0q-0.640625 0.34375 -1.4375 0.34375q-0.671875 0 -1.234375 -0.28125q-0.546875 -0.28125 -0.890625 -0.828125l0 3.125l-0.75 0l0 -7.671875l0.71875 0l0 1.109375q0.34375 -0.546875 0.890625 -0.84375q0.5625 -0.296875 1.265625 -0.296875zm-0.046875 5.015625q0.578125 0 1.0625 -0.265625q0.484375 -0.265625 0.75 -0.765625q0.28125 -0.5 0.28125 -1.140625q0 -0.640625 -0.28125 -1.140625q-0.265625 -0.5 -0.75 -0.765625q-0.484375 -0.28125 -1.0625 -0.28125q-0.59375 0 -1.078125 0.28125q-0.46875 0.265625 -0.75 0.765625q-0.265625 0.5 -0.265625 1.140625q0 0.640625 0.265625 1.140625q0.28125 0.5 0.75 0.765625q0.484375 0.265625 1.078125 0.265625zm5.115631 -3.875q0.265625 -0.578125 0.78125 -0.859375q0.53125 -0.28125 1.3125 -0.28125l0 0.734375l-0.171875 -0.015625q-0.890625 0 -1.390625 0.546875q-0.5 0.53125 -0.5 1.515625l0 2.859375l-0.75 0l0 -5.609375l0.71875 0l0 1.109375zm5.6970215 4.546875q-0.8125 0 -1.46875 -0.359375q-0.640625 -0.375 -1.015625 -1.015625q-0.375 -0.65625 -0.375 -1.46875q0 -0.828125 0.375 -1.46875q0.375 -0.65625 1.015625 -1.015625q0.65625 -0.359375 1.46875 -0.359375q0.8125 0 1.453125 0.359375q0.65625 0.359375 1.015625 1.015625q0.375 0.640625 0.375 1.46875q0 0.8125 -0.375 1.46875q-0.359375 0.640625 -1.015625 1.015625q-0.640625 0.359375 -1.453125 0.359375zm0 -0.671875q0.59375 0 1.0625 -0.265625q0.484375 -0.265625 0.75 -0.765625q0.265625 -0.5 0.265625 -1.140625q0 -0.640625 -0.265625 -1.140625q-0.265625 -0.5 -0.75 -0.765625q-0.46875 -0.28125 -1.0625 -0.28125q-0.59375 0 -1.078125 0.28125q-0.46875 0.265625 -0.75 0.765625q-0.265625 0.5 -0.265625 1.140625q0 0.640625 0.265625 1.140625q0.28125 0.5 0.75 0.765625q0.484375 0.265625 1.078125 0.265625zm7.3377686 0.28125q-0.203125 0.1875 -0.515625 0.296875q-0.3125 0.09375 -0.65625 0.09375q-0.796875 0 -1.21875 -0.421875q-0.421875 -0.421875 -0.421875 -1.203125l0 -3.390625l-1.0 0l0 -0.640625l1.0 0l0 -1.21875l0.75 0l0 1.21875l1.703125 0l0 0.640625l-1.703125 0l0 3.34375q0 0.5 0.25 0.765625q0.25 0.265625 0.71875 0.265625q0.234375 0 0.453125 -0.078125q0.21875 -0.078125 0.375 -0.21875l0.265625 0.546875zm3.4675598 0.390625q-0.8125 0 -1.46875 -0.359375q-0.640625 -0.375 -1.015625 -1.015625q-0.375 -0.65625 -0.375 -1.46875q0 -0.828125 0.375 -1.46875q0.375 -0.65625 1.015625 -1.015625q0.65625 -0.359375 1.46875 -0.359375q0.8125 0 1.453125 0.359375q0.65625 0.359375 1.015625 1.015625q0.375 0.640625 0.375 1.46875q0 0.8125 -0.375 1.46875q-0.359375 0.640625 -1.015625 1.015625q-0.640625 0.359375 -1.453125 0.359375zm0 -0.671875q0.59375 0 1.0625 -0.265625q0.484375 -0.265625 0.75 -0.765625q0.265625 -0.5 0.265625 -1.140625q0 -0.640625 -0.265625 -1.140625q-0.265625 -0.5 -0.75 -0.765625q-0.46875 -0.28125 -1.0625 -0.28125q-0.59375 0 -1.078125 0.28125q-0.46875 0.265625 -0.75 0.765625q-0.265625 0.5 -0.265625 1.140625q0 0.640625 0.265625 1.140625q0.28125 0.5 0.75 0.765625q0.484375 0.265625 1.078125 0.265625zm6.712799 0.671875q-0.828125 0 -1.484375 -0.359375q-0.65625 -0.359375 -1.03125 -1.015625q-0.375 -0.65625 -0.375 -1.46875q0 -0.828125 0.375 -1.46875q0.375 -0.65625 1.03125 -1.015625q0.65625 -0.359375 1.484375 -0.359375q0.734375 0 1.296875 0.28125q0.578125 0.28125 0.90625 0.8125l-0.5625 0.390625q-0.28125 -0.421875 -0.71875 -0.625q-0.421875 -0.203125 -0.921875 -0.203125q-0.609375 0 -1.09375 0.28125q-0.484375 0.265625 -0.765625 0.765625q-0.265625 0.5 -0.265625 1.140625q0 0.640625 0.265625 1.140625q0.28125 0.5 0.765625 0.765625q0.484375 0.265625 1.09375 0.265625q0.5 0 0.921875 -0.1875q0.4375 -0.203125 0.71875 -0.625l0.5625 0.375q-0.328125 0.546875 -0.90625 0.828125q-0.578125 0.28125 -1.296875 0.28125zm5.872284 0q-0.8125 0 -1.46875 -0.359375q-0.640625 -0.375 -1.015625 -1.015625q-0.375 -0.65625 -0.375 -1.46875q0 -0.828125 0.375 -1.46875q0.375 -0.65625 1.015625 -1.015625q0.65625 -0.359375 1.46875 -0.359375q0.8125 0 1.453125 0.359375q0.65625 0.359375 1.015625 1.015625q0.375 0.640625 0.375 1.46875q0 0.8125 -0.375 1.46875q-0.359375 0.640625 -1.015625 1.015625q-0.640625 0.359375 -1.453125 0.359375zm0 -0.671875q0.59375 0 1.0625 -0.265625q0.484375 -0.265625 0.75 -0.765625q0.265625 -0.5 0.265625 -1.140625q0 -0.640625 -0.265625 -1.140625q-0.265625 -0.5 -0.75 -0.765625q-0.46875 -0.28125 -1.0625 -0.28125q-0.59375 0 -1.078125 0.28125q-0.46875 0.265625 -0.75 0.765625q-0.265625 0.5 -0.265625 1.140625q0 0.640625 0.265625 1.140625q0.28125 0.5 0.75 0.765625q0.484375 0.265625 1.078125 0.265625zm4.4002686 -7.28125l0.75 0l0 7.90625l-0.75 0l0 -7.90625zm2.5540771 2.625l4.625 0l0 0.640625l-4.625 0l0 -0.640625zm0 2.46875l4.625 0l0 0.625l-4.625 0l0 -0.625zm6.518036 -5.140625q0.25 0 0.40625 0.171875q0.15625 0.15625 0.15625 0.390625q0 0.140625 -0.046875 0.28125q-0.03125 0.140625 -0.09375 0.328125l-0.453125 1.46875l-0.515625 0l0.375 -1.53125q-0.1875 -0.046875 -0.296875 -0.1875q-0.09375 -0.15625 -0.09375 -0.359375q0 -0.25 0.15625 -0.40625q0.15625 -0.15625 0.40625 -0.15625zm5.0247803 2.3125q1.0625 0 1.6875 0.609375q0.625 0.609375 0.625 1.78125l0 3.25l-0.765625 0l0 -3.171875q0 -0.875 -0.4375 -1.328125q-0.4375 -0.46875 -1.25 -0.46875q-0.90625 0 -1.4375 0.546875q-0.515625 0.53125 -0.515625 1.484375l0 2.9375l-0.75 0l0 -7.90625l0.75 0l0 3.28125q0.3125 -0.484375 0.84375 -0.75q0.546875 -0.265625 1.25 -0.265625zm7.3081055 5.296875q-0.203125 0.1875 -0.515625 0.296875q-0.3125 0.09375 -0.65625 0.09375q-0.796875 0 -1.21875 -0.421875q-0.421875 -0.421875 -0.421875 -1.203125l0 -3.390625l-1.0 0l0 -0.640625l1.0 0l0 -1.21875l0.75 0l0 1.21875l1.703125 0l0 0.640625l-1.703125 0l0 3.34375q0 0.5 0.25 0.765625q0.25 0.265625 0.71875 0.265625q0.234375 0 0.453125 -0.078125q0.21875 -0.078125 0.375 -0.21875l0.265625 0.546875zm4.177124 0q-0.203125 0.1875 -0.515625 0.296875q-0.3125 0.09375 -0.65625 0.09375q-0.796875 0 -1.21875 -0.421875q-0.421875 -0.421875 -0.421875 -1.203125l0 -3.390625l-1.0 0l0 -0.640625l1.0 0l0 -1.21875l0.75 0l0 1.21875l1.703125 0l0 0.640625l-1.703125 0l0 3.34375q0 0.5 0.25 0.765625q0.25 0.265625 0.71875 0.265625q0.234375 0 0.453125 -0.078125q0.21875 -0.078125 0.375 -0.21875l0.265625 0.546875zm4.263977 -5.296875q0.796875 0 1.4375 0.359375q0.640625 0.34375 1.0 1.0q0.359375 0.640625 0.359375 1.484375q0 0.84375 -0.359375 1.5q-0.359375 0.640625 -1.0 1.0q-0.640625 0.34375 -1.4375 0.34375q-0.671875 0 -1.234375 -0.28125q-0.546875 -0.28125 -0.890625 -0.828125l0 3.125l-0.75 0l0 -7.671875l0.71875 0l0 1.109375q0.34375 -0.546875 0.890625 -0.84375q0.5625 -0.296875 1.265625 -0.296875zm-0.046875 5.015625q0.578125 0 1.0625 -0.265625q0.484375 -0.265625 0.75 -0.765625q0.28125 -0.5 0.28125 -1.140625q0 -0.640625 -0.28125 -1.140625q-0.265625 -0.5 -0.75 -0.765625q-0.484375 -0.28125 -1.0625 -0.28125q-0.59375 0 -1.078125 0.28125q-0.46875 0.265625 -0.75 0.765625q-0.265625 0.5 -0.265625 1.140625q0 0.640625 0.265625 1.140625q0.28125 0.5 0.75 0.765625q0.484375 0.265625 1.078125 0.265625zm4.4430237 -7.328125q0.25 0 0.40625 0.171875q0.15625 0.15625 0.15625 0.390625q0 0.140625 -0.046875 0.28125q-0.03125 0.140625 -0.09375 0.328125l-0.453125 1.46875l-0.515625 0l0.375 -1.53125q-0.1875 -0.046875 -0.296875 -0.1875q-0.09375 -0.15625 -0.09375 -0.359375q0 -0.25 0.15625 -0.40625q0.15625 -0.15625 0.40625 -0.15625zm1.5404053 10.015625q0.640625 -1.078125 0.9375 -2.296875q0.296875 -1.234375 0.296875 -2.6875q0 -1.453125 -0.296875 -2.671875q-0.296875 -1.234375 -0.9375 -2.3125l0.734375 0q0.59375 0.953125 0.90625 2.25q0.328125 1.28125 0.328125 2.734375q0 1.46875 -0.3125 2.75q-0.3125 1.265625 -0.921875 2.234375l-0.734375 0z" fill-rule="nonzero"/><path fill="#000000" fill-opacity="0.0" d="m309.16534 37.43307l45.448822 0" fill-rule="evenodd"/><path stroke="#000000" stroke-width="1.0" stroke-linejoin="round" stroke-linecap="butt" d="m312.59244 37.43307l38.594666 0" fill-rule="evenodd"/><path fill="#000000" stroke="#000000" stroke-width="1.0" stroke-linecap="butt" d="m312.59244 37.43307l1.1245728 -1.1245842l-3.0897522 1.1245842l3.0897522 1.1245842z" fill-rule="evenodd"/><path fill="#000000" stroke="#000000" stroke-width="1.0" stroke-linecap="butt" d="m351.18707 37.43307l-1.1245728 1.1245842l3.0897827 -1.1245842l-3.0897827 -1.1245842z" fill-rule="evenodd"/><path fill="#000000" fill-opacity="0.0" d="m309.16534 83.32546l45.448822 -0.6614227" fill-rule="evenodd"/><path stroke="#000000" stroke-width="1.0" stroke-linejoin="round" stroke-linecap="butt" d="m312.59207 83.27559l38.595398 -0.561676" fill-rule="evenodd"/><path fill="#000000" stroke="#000000" stroke-width="1.0" stroke-linecap="butt" d="m312.59207 83.27559l1.1080933 -1.140831l-3.073059 1.169426l3.1058044 1.0795059z" fill-rule="evenodd"/><path fill="#000000" stroke="#000000" stroke-width="1.0" stroke-linecap="butt" d="m351.18744 82.71391l-1.1080933 1.1408234l3.0730896 -1.1694183l-3.1058044 -1.0795059z" fill-rule="evenodd"/><path fill="#000000" fill-opacity="0.0" d="m309.16534 126.5538l45.448822 0" fill-rule="evenodd"/><path stroke="#000000" stroke-width="1.0" stroke-linejoin="round" stroke-linecap="butt" d="m312.59244 126.5538l38.594666 0" fill-rule="evenodd"/><path fill="#000000" stroke="#000000" stroke-width="1.0" stroke-linecap="butt" d="m312.59244 126.5538l1.1245728 -1.1245804l-3.0897522 1.1245804l3.0897522 1.124588z" fill-rule="evenodd"/><path fill="#000000" stroke="#000000" stroke-width="1.0" stroke-linecap="butt" d="m351.18707 126.5538l-1.1245728 1.124588l3.0897827 -1.124588l-3.0897827 -1.1245804z" fill-rule="evenodd"/></g></svg>