<?xml version="1.0" encoding="UTF-8"?>
<svg width="600px" height="600px" viewBox="0 0 600 600" version="1.1" xmlns="http://www.w3.org/2000/svg" xmlns:xlink="http://www.w3.org/1999/xlink">
    <title>Now_Yellow</title>
    <g id="Now_Yellow" stroke="none" stroke-width="1" fill="none" fill-rule="evenodd">
        <g id="编组-2备份-3" transform="translate(82.000000, 60.000000)" fill="#FBCB67">
            <path d="M24.0530695,0.125986108 C37.2076731,0.125986108 47.8937333,10.5173911 48.1061391,23.4121591 L48.1019736,456.914918 C47.7824556,469.716458 37.1392225,480 24.0530695,480 C10.898466,480 0.212405744,469.608595 0,456.713827 L0.00416544778,23.2110678 C0.323683496,10.4095281 10.9669166,0.125986108 24.0530695,0.125986108 Z" id="形状" fill-rule="nonzero"></path>
            <path d="M411.940511,0.61997208 C425.095115,0.61997208 435.781175,11.0113771 435.996803,23.9061451 L435.996803,456.627184 C435.996803,469.511053 425.599758,479.74296 412.694666,479.952062 C398.873868,479.306735 388.000249,467.913553 388.000249,454.077697 L388.000249,21.9573791 L388.000249,21.9573791 C389.194217,9.98033318 399.455558,0.61997208 411.940511,0.61997208 Z" id="路径" fill-rule="nonzero"></path>
            <path d="M108.327258,69.1546886 L344.251064,308.665267 C346.462453,310.910277 347.702011,313.935055 347.702011,317.086294 L347.702011,407.383132 C347.702011,414.010549 342.329428,419.383132 335.702011,419.383132 C332.383093,419.383132 329.212387,418.008573 326.943609,415.586204 L91.2224528,163.907248 C89.1470959,161.691394 87.9887699,158.771262 87.9808952,155.735302 L87.7782455,77.6068411 C87.7610554,70.9794464 93.119685,65.5929461 99.7470797,65.575756 C102.971844,65.5673916 106.064265,66.8572909 108.327258,69.1546886 Z" id="路径" fill-rule="nonzero"></path>
            <path d="M294.790636,479.873988 L101.501306,478.311882 C93.92346,478.311882 87.7632895,472.420771 87.7002349,465.115303 L87.702472,258.238612 C87.6408416,250.891166 93.7690349,244.886717 101.390175,244.82644 C105.356945,244.796374 109.145675,246.412706 111.789597,249.263858 L305.078467,457.702655 C310.158091,463.180419 309.669922,471.590992 303.98811,476.488195 C301.458348,478.668618 298.183973,479.873988 294.790636,479.873988 Z" id="路径-11备份"></path>
            <path d="M136.847144,0 L333.71245,0 C341.33384,0 347.512196,5.95647666 347.512196,13.304163 L347.512196,222.446734 C347.512196,229.79442 341.33384,235.750897 333.71245,235.750897 C329.820234,235.750897 326.109007,234.166247 323.493341,231.387459 L126.628034,22.244888 C121.506273,16.8037145 121.929517,8.38987303 127.573375,3.45204698 C130.112456,1.23059855 133.418404,0 136.847144,0 Z" id="路径-11备份-2"></path>
        </g>
    </g>
</svg>