<svg xmlns:xlink="http://www.w3.org/1999/xlink" version="1.1" viewBox="0.0 0.0 679.3753280839895 154.3753280839895"
     fill="none" stroke="none" stroke-linecap="square" stroke-miterlimit="10" xmlns="http://www.w3.org/2000/svg">
    <clipPath id="p.0">
        <path d="m0 0l679.3753 0l0 154.37534l-679.3753 0l0 -154.37534z" clip-rule="nonzero"/>
    </clipPath>
    <g clip-path="url(#p.0)">
        <path fill="#000000" fill-opacity="0.0" d="m0 0l679.3753 0l0 154.37534l-679.3753 0z" fill-rule="evenodd"/>
        <path fill="#000000" fill-opacity="0.0" d="m0.99996275 60.4236l680.7244 0l0 25.165352l-680.7244 0z"
              fill-rule="evenodd"/>
        <path fill="#000000"
              d="m15.030877 75.46565l0 0.265625q0 1.53125 0.390625 2.84375q0.390625 1.296875 1.109374 2.25q0.71875 0.96875 1.75 1.515625q1.03125 0.53125 2.3125 0.53125q1.21875 0 2.15625 -0.453125q0.9375 -0.453125 1.625 -1.28125l0.140625 1.46875l2.828125 0l0 -20.0l-3.109375 0l0 7.234375q-0.6875 -0.75 -1.5625 -1.15625q-0.875 -0.421875 -2.046875 -0.421875q-1.296875 0 -2.34375 0.53125q-1.03125 0.515625 -1.75 1.46875q-0.71874905 0.953125 -1.109374 2.28125q-0.390625 1.3125 -0.390625 2.921875zm3.124999 0.265625l0 -0.265625q0 -0.953125 0.171875 -1.796875q0.1875 -0.84375 0.59375 -1.46875q0.375 -0.640625 0.984375 -1.0q0.625 -0.375 1.5 -0.375q1.03125 0 1.71875 0.46875q0.6875 0.453125 1.109375 1.234375l0 6.0625q-0.421875 0.78125 -1.109375 1.25q-0.6875 0.46875 -1.75 0.46875q-0.859375 0 -1.46875 -0.359375q-0.609375 -0.359375 -1.0 -1.0q-0.390625 -0.609375 -0.578125 -1.4375q-0.171875 -0.84375 -0.171875 -1.78125zm12.715103 -0.296875l0 0.28125q0 1.546875 0.4375 2.84375q0.453125 1.296875 1.296875 2.265625q0.84375 0.96875 2.0625 1.515625q1.21875 0.53125 2.765625 0.53125q1.546875 0 2.75 -0.53125q1.21875 -0.546875 2.0625 -1.515625q0.828125 -0.96875 1.265625 -2.265625q0.453125 -1.296875 0.453125 -2.84375l0 -0.28125q0 -1.53125 -0.453125 -2.84375q-0.4375 -1.3125 -1.265625 -2.265625q-0.84375 -0.96875 -2.0625 -1.515625q-1.21875 -0.546875 -2.765625 -0.546875q-1.546875 0 -2.765625 0.546875q-1.203125 0.546875 -2.046875 1.515625q-0.84375 0.953125 -1.296875 2.265625q-0.4375 1.3125 -0.4375 2.84375zm3.125 0.28125l0 -0.28125q0 -0.921875 0.1875 -1.765625q0.203125 -0.84375 0.640625 -1.484375q0.421875 -0.640625 1.0625 -1.015625q0.640625 -0.375 1.53125 -0.375q0.890625 0 1.53125 0.375q0.65625 0.375 1.078125 1.015625q0.40625 0.640625 0.609375 1.484375q0.21875 0.84375 0.21875 1.765625l0 0.28125q0 0.9375 -0.203125 1.796875q-0.203125 0.84375 -0.625 1.46875q-0.421875 0.640625 -1.078125 1.015625q-0.640625 0.375 -1.515625 0.375q-0.890625 0 -1.546875 -0.375q-0.640625 -0.375 -1.0625 -1.015625q-0.4375 -0.625 -0.640625 -1.46875q-0.1875 -0.859375 -0.1875 -1.796875zm19.574478 4.65625q-0.96875 0 -1.625 -0.390625q-0.640625 -0.390625 -1.015625 -1.046875q-0.390625 -0.625 -0.5625 -1.453125q-0.15625 -0.828125 -0.15625 -1.6875l0 -0.453125q0 -0.84375 0.15625 -1.65625q0.171875 -0.828125 0.5625 -1.46875q0.390625 -0.640625 1.03125 -1.03125q0.640625 -0.390625 1.609375 -0.390625q0.640625 0 1.1875 0.21875q0.5625 0.21875 0.96875 0.59375q0.390625 0.375 0.59375 0.890625q0.21875 0.5 0.21875 1.078125l2.9375 0q0.015625 -1.171875 -0.421875 -2.140625q-0.4375 -0.984375 -1.21875 -1.6875q-0.78125 -0.703125 -1.875 -1.09375q-1.078125 -0.390625 -2.359375 -0.390625q-1.609375 0 -2.828125 0.5625q-1.21875 0.5625 -2.03125 1.53125q-0.828125 0.96875 -1.234375 2.265625q-0.40625 1.28125 -0.40625 2.71875l0 0.453125q0 1.46875 0.40625 2.75q0.421875 1.28125 1.234375 2.234375q0.8125 0.96875 2.03125 1.53125q1.21875 0.5625 2.84375 0.5625q1.171875 0 2.234375 -0.375q1.0625 -0.390625 1.875 -1.0625q0.8125 -0.65625 1.28125 -1.546875q0.484375 -0.90625 0.46875 -1.9375l-2.9375 0q0 0.53125 -0.234375 0.984375q-0.234375 0.4375 -0.640625 0.75q-0.421875 0.328125 -0.96875 0.515625q-0.53125 0.171875 -1.125 0.171875zm13.746353 0.359375q0 0.90625 0.59375 1.53125q0.59375 0.609375 1.65625 0.609375q1.0625 0 1.65625 -0.609375q0.609375 -0.625 0.609375 -1.53125q0 -0.90625 -0.59375 -1.53125q-0.59375 -0.640625 -1.671875 -0.640625q-1.09375 0 -1.671875 0.640625q-0.578125 0.640625 -0.578125 1.53125zm18.246353 -0.359375q-0.96875 0 -1.625 -0.390625q-0.640625 -0.390625 -1.015625 -1.046875q-0.390625 -0.625 -0.5625 -1.453125q-0.15625 -0.828125 -0.15625 -1.6875l0 -0.453125q0 -0.84375 0.15625 -1.65625q0.171875 -0.828125 0.5625 -1.46875q0.390625 -0.640625 1.03125 -1.03125q0.640625 -0.390625 1.609375 -0.390625q0.640625 0 1.1875 0.21875q0.5625 0.21875 0.96875 0.59375q0.390625 0.375 0.59375 0.890625q0.21875 0.5 0.21875 1.078125l2.9375 0q0.015625 -1.171875 -0.421875 -2.140625q-0.4375 -0.984375 -1.21875 -1.6875q-0.78125 -0.703125 -1.875 -1.09375q-1.078125 -0.390625 -2.359375 -0.390625q-1.609375 0 -2.828125 0.5625q-1.21875 0.5625 -2.03125 1.53125q-0.828125 0.96875 -1.234375 2.265625q-0.40625 1.28125 -0.40625 2.71875l0 0.453125q0 1.46875 0.40625 2.75q0.421875 1.28125 1.234375 2.234375q0.8125 0.96875 2.03125 1.53125q1.21875 0.5625 2.84375 0.5625q1.171875 0 2.234375 -0.375q1.0625 -0.390625 1.875 -1.0625q0.8125 -0.65625 1.28125 -1.546875q0.484375 -0.90625 0.46875 -1.9375l-2.9375 0q0 0.53125 -0.234375 0.984375q-0.234375 0.4375 -0.640625 0.75q-0.421875 0.328125 -0.96875 0.515625q-0.53125 0.171875 -1.125 0.171875zm9.293228 -4.9375l0 0.28125q0 1.546875 0.4375 2.84375q0.453125 1.296875 1.296875 2.265625q0.84375 0.96875 2.0625 1.515625q1.21875 0.53125 2.765625 0.53125q1.546875 0 2.75 -0.53125q1.21875 -0.546875 2.0625 -1.515625q0.828125 -0.96875 1.265625 -2.265625q0.453125 -1.296875 0.453125 -2.84375l0 -0.28125q0 -1.53125 -0.453125 -2.84375q-0.4375 -1.3125 -1.265625 -2.265625q-0.84375 -0.96875 -2.0625 -1.515625q-1.21875 -0.546875 -2.765625 -0.546875q-1.546875 0 -2.765625 0.546875q-1.203125 0.546875 -2.046875 1.515625q-0.84375 0.953125 -1.296875 2.265625q-0.4375 1.3125 -0.4375 2.84375zm3.125 0.28125l0 -0.28125q0 -0.921875 0.1875 -1.765625q0.203125 -0.84375 0.640625 -1.484375q0.421875 -0.640625 1.0625 -1.015625q0.640625 -0.375 1.53125 -0.375q0.890625 0 1.53125 0.375q0.65625 0.375 1.078125 1.015625q0.40625 0.640625 0.609375 1.484375q0.21875 0.84375 0.21875 1.765625l0 0.28125q0 0.9375 -0.203125 1.796875q-0.203125 0.84375 -0.625 1.46875q-0.421875 0.640625 -1.078125 1.015625q-0.640625 0.375 -1.515625 0.375q-0.890625 0 -1.546875 -0.375q-0.640625 -0.375 -1.0625 -1.015625q-0.4375 -0.625 -0.640625 -1.46875q-0.1875 -0.859375 -0.1875 -1.796875zm13.449478 6.890625l3.109375 0l0 -10.046875q0.21875 -0.359375 0.484375 -0.65625q0.28125 -0.296875 0.59375 -0.5q0.390625 -0.28125 0.890625 -0.421875q0.5 -0.15625 1.0625 -0.15625q0.6875 0 1.21875 0.15625q0.546875 0.140625 0.921875 0.5q0.375 0.34375 0.5625 0.9375q0.203125 0.578125 0.203125 1.453125l0 8.734375l3.109375 0l0 -8.78125q0 -1.484375 -0.359375 -2.53125q-0.34375 -1.046875 -0.984375 -1.734375q-0.625 -0.671875 -1.53125 -0.984375q-0.890625 -0.3125 -1.984375 -0.3125q-0.8125 0 -1.5625 0.234375q-0.734375 0.234375 -1.359375 0.671875q-0.390625 0.265625 -0.734375 0.609375q-0.34375 0.34375 -0.625 0.75l-0.203125 -2.0l-2.8125 0l0 14.078125zm22.24636 -17.515625l-3.125 0l0 3.4375l-3.4062576 0l0 2.328125l3.4062576 0l0 6.921875q0 1.359375 0.359375 2.328125q0.359375 0.953125 1.0 1.5625q0.625 0.625 1.515625 0.921875q0.90625 0.28125 1.96875 0.28125q0.578125 0 1.171875 -0.0625q0.59375 -0.046875 1.140625 -0.15625q0.546875 -0.09375 1.015625 -0.234375q0.484375 -0.15625 0.828125 -0.375l-0.34375 -2.140625q-0.234375 0.046875 -0.578125 0.125q-0.34375 0.0625 -0.734375 0.125q-0.40625 0.0625 -0.84375 0.109375q-0.421875 0.03125 -0.828125 0.03125q-0.5625 0 -1.03125 -0.125q-0.46875 -0.140625 -0.796875 -0.453125q-0.34375 -0.296875 -0.53125 -0.828125q-0.1875 -0.53125 -0.1875 -1.3125l0 -6.71875l5.296875 0l0 -2.328125l-5.296875 0l0 -3.4375zm16.324478 17.78125q2.046875 0 3.5 -0.8125q1.453125 -0.8125 2.15625 -1.828125l-1.65625 -1.609375q-0.65625 0.828125 -1.65625 1.28125q-1.0 0.453125 -2.171875 0.453125q-0.84375 0 -1.546875 -0.28125q-0.703125 -0.296875 -1.234375 -0.8125q-0.515625 -0.5 -0.8125 -1.125q-0.296875 -0.625 -0.453125 -1.546875l0 -0.0625l9.765625 0l0 -1.34375q0 -1.5 -0.40625 -2.78125q-0.40625 -1.28125 -1.1875 -2.203125q-0.796875 -0.90625 -1.96875 -1.421875q-1.171875 -0.515625 -2.703125 -0.515625q-1.359375 0 -2.5625 0.515625q-1.203125 0.515625 -2.109375 1.46875q-0.921875 0.9375 -1.4375 2.28125q-0.515625 1.34375 -0.515625 3.0l0 0.53125q0 1.4375 0.5 2.6875q0.5 1.25 1.421875 2.15625q0.921875 0.921875 2.21875 1.453125q1.296875 0.515625 2.859375 0.515625zm-0.375 -12.078125q0.78125 0 1.359375 0.265625q0.59375 0.265625 0.984375 0.703125q0.40625 0.453125 0.625 1.0625q0.234375 0.609375 0.234375 1.21875l0 0.203125l-6.625 0q0.140625 -0.796875 0.4375 -1.4375q0.296875 -0.640625 0.734375 -1.09375q0.453125 -0.453125 1.015625 -0.6875q0.5625 -0.234375 1.234375 -0.234375zm9.793228 11.8125l3.109375 0l0 -10.046875q0.21875 -0.359375 0.484375 -0.65625q0.28125 -0.296875 0.59375 -0.5q0.390625 -0.28125 0.890625 -0.421875q0.5 -0.15625 1.0625 -0.15625q0.6875 0 1.21875 0.15625q0.546875 0.140625 0.921875 0.5q0.375 0.34375 0.5625 0.9375q0.203125 0.578125 0.203125 1.453125l0 8.734375l3.109375 0l0 -8.78125q0 -1.484375 -0.359375 -2.53125q-0.34375 -1.046875 -0.984375 -1.734375q-0.625 -0.671875 -1.53125 -0.984375q-0.890625 -0.3125 -1.984375 -0.3125q-0.8125 0 -1.5625 0.234375q-0.734375 0.234375 -1.359375 0.671875q-0.390625 0.265625 -0.734375 0.609375q-0.34375 0.34375 -0.625 0.75l-0.203125 -2.0l-2.8125 0l0 14.078125zm22.246353 -17.515625l-3.125 0l0 3.4375l-3.40625 0l0 2.328125l3.40625 0l0 6.921875q0 1.359375 0.359375 2.328125q0.359375 0.953125 1.0 1.5625q0.625 0.625 1.515625 0.921875q0.90625 0.28125 1.96875 0.28125q0.578125 0 1.171875 -0.0625q0.59375 -0.046875 1.140625 -0.15625q0.546875 -0.09375 1.015625 -0.234375q0.484375 -0.15625 0.828125 -0.375l-0.34375 -2.140625q-0.234375 0.046875 -0.578125 0.125q-0.34375 0.0625 -0.734375 0.125q-0.40625 0.0625 -0.84375 0.109375q-0.421875 0.03125 -0.828125 0.03125q-0.5625 0 -1.03125 -0.125q-0.46875 -0.140625 -0.796875 -0.453125q-0.34375 -0.296875 -0.53125 -0.828125q-0.1875 -0.53125 -0.1875 -1.3125l0 -6.71875l5.296875 0l0 -2.328125l-5.296875 0l0 -3.4375zm37.88333 7.84375l0 -2.609375l-12.015625 0l0 2.609375l12.015625 0zm0 5.515625l0 -2.578125l-12.015625 0l0 2.578125l12.015625 0zm19.273956 -3.015625l0 0.28125q0 1.546875 0.4375 2.84375q0.453125 1.296875 1.296875 2.265625q0.84375 0.96875 2.0625 1.515625q1.21875 0.53125 2.765625 0.53125q1.546875 0 2.75 -0.53125q1.21875 -0.546875 2.0625 -1.515625q0.828125 -0.96875 1.265625 -2.265625q0.453125 -1.296875 0.453125 -2.84375l0 -0.28125q0 -1.53125 -0.453125 -2.84375q-0.4375 -1.3125 -1.265625 -2.265625q-0.84375 -0.96875 -2.0625 -1.515625q-1.21875 -0.546875 -2.765625 -0.546875q-1.546875 0 -2.765625 0.546875q-1.203125 0.546875 -2.046875 1.515625q-0.84375 0.953125 -1.296875 2.265625q-0.4375 1.3125 -0.4375 2.84375zm3.125 0.28125l0 -0.28125q0 -0.921875 0.1875 -1.765625q0.203125 -0.84375 0.640625 -1.484375q0.421875 -0.640625 1.0625 -1.015625q0.640625 -0.375 1.53125 -0.375q0.890625 0 1.53125 0.375q0.65625 0.375 1.078125 1.015625q0.40625 0.640625 0.609375 1.484375q0.21875 0.84375 0.21875 1.765625l0 0.28125q0 0.9375 -0.203125 1.796875q-0.203125 0.84375 -0.625 1.46875q-0.421875 0.640625 -1.078125 1.015625q-0.640625 0.375 -1.515625 0.375q-0.890625 0 -1.546875 -0.375q-0.640625 -0.375 -1.0625 -1.015625q-0.4375 -0.625 -0.640625 -1.46875q-0.1875 -0.859375 -0.1875 -1.796875zm13.449478 6.890625l3.1093597 0l0 -10.046875q0.21875 -0.359375 0.484375 -0.65625q0.28125 -0.296875 0.59375 -0.5q0.390625 -0.28125 0.890625 -0.421875q0.5 -0.15625 1.0625 -0.15625q0.6875 0 1.21875 0.15625q0.546875 0.140625 0.921875 0.5q0.375 0.34375 0.5625 0.9375q0.203125 0.578125 0.203125 1.453125l0 8.734375l3.109375 0l0 -8.78125q0 -1.484375 -0.359375 -2.53125q-0.34375 -1.046875 -0.984375 -1.734375q-0.625 -0.671875 -1.53125 -0.984375q-0.890625 -0.3125 -1.984375 -0.3125q-0.8125 0 -1.5625 0.234375q-0.734375 0.234375 -1.359375 0.671875q-0.390625 0.265625 -0.734375 0.609375q-0.34375 0.34375 -0.625 0.75l-0.203125 -2.0l-2.8124847 0l0 14.078125zm22.574478 0.265625q2.046875 0 3.5 -0.8125q1.453125 -0.8125 2.15625 -1.828125l-1.65625 -1.609375q-0.65625 0.828125 -1.65625 1.28125q-1.0 0.453125 -2.171875 0.453125q-0.84375 0 -1.546875 -0.28125q-0.703125 -0.296875 -1.234375 -0.8125q-0.515625 -0.5 -0.8125 -1.125q-0.296875 -0.625 -0.453125 -1.546875l0 -0.0625l9.765625 0l0 -1.34375q0 -1.5 -0.40625 -2.78125q-0.40625 -1.28125 -1.1875 -2.203125q-0.796875 -0.90625 -1.96875 -1.421875q-1.171875 -0.515625 -2.703125 -0.515625q-1.359375 0 -2.5625 0.515625q-1.203125 0.515625 -2.109375 1.46875q-0.921875 0.9375 -1.4375 2.28125q-0.515625 1.34375 -0.515625 3.0l0 0.53125q0 1.4375 0.5 2.6875q0.5 1.25 1.421875 2.15625q0.921875 0.921875 2.21875 1.453125q1.296875 0.515625 2.859375 0.515625zm-0.375 -12.078125q0.78125 0 1.359375 0.265625q0.59375 0.265625 0.984375 0.703125q0.40625 0.453125 0.625 1.0625q0.234375 0.609375 0.234375 1.21875l0 0.203125l-6.625 0q0.140625 -0.796875 0.4375 -1.4375q0.296875 -0.640625 0.734375 -1.09375q0.453125 -0.453125 1.015625 -0.6875q0.5625 -0.234375 1.234375 -0.234375zm9.215088 4.640625l0 0.28125q0 1.546875 0.4375 2.84375q0.453125 1.296875 1.296875 2.265625q0.84375 0.96875 2.0625 1.515625q1.21875 0.53125 2.765625 0.53125q1.546875 0 2.75 -0.53125q1.21875 -0.546875 2.0625 -1.515625q0.828125 -0.96875 1.265625 -2.265625q0.453125 -1.296875 0.453125 -2.84375l0 -0.28125q0 -1.53125 -0.453125 -2.84375q-0.4375 -1.3125 -1.265625 -2.265625q-0.84375 -0.96875 -2.0625 -1.515625q-1.21875 -0.546875 -2.765625 -0.546875q-1.546875 0 -2.765625 0.546875q-1.203125 0.546875 -2.046875 1.515625q-0.84375 0.953125 -1.296875 2.265625q-0.4375 1.3125 -0.4375 2.84375zm3.125 0.28125l0 -0.28125q0 -0.921875 0.1875 -1.765625q0.203125 -0.84375 0.640625 -1.484375q0.421875 -0.640625 1.0625 -1.015625q0.640625 -0.375 1.53125 -0.375q0.890625 0 1.53125 0.375q0.65625 0.375 1.078125 1.015625q0.40625 0.640625 0.609375 1.484375q0.21875 0.84375 0.21875 1.765625l0 0.28125q0 0.9375 -0.203125 1.796875q-0.203125 0.84375 -0.625 1.46875q-0.421875 0.640625 -1.078125 1.015625q-0.640625 0.375 -1.515625 0.375q-0.890625 0 -1.546875 -0.375q-0.640625 -0.375 -1.0625 -1.015625q-0.4375 -0.625 -0.640625 -1.46875q-0.1875 -0.859375 -0.1875 -1.796875zm16.996338 6.890625l3.125 0l0 -11.75l5.21875 0l0 -2.328125l-5.21875 0l0 -0.859375q0 -0.75 0.1875 -1.296875q0.1875 -0.5625 0.5625 -0.953125q0.40625 -0.390625 1.03125 -0.59375q0.640625 -0.21875 1.5 -0.21875q0.84375 0 1.5 0.109375q0.65625 0.09375 1.171875 0.234375l0.25 -2.484375q-0.390625 -0.078125 -0.765625 -0.140625q-0.375 -0.078125 -0.75 -0.125q-0.4375 -0.0625 -0.90625 -0.109375q-0.453125 -0.046875 -0.9375 -0.046875q-1.359375 0 -2.46875 0.359375q-1.09375 0.359375 -1.875 1.0625q-0.78125 0.71875 -1.203125 1.765625q-0.421875 1.046875 -0.421875 2.4375l0 0.859375l-3.78125 0l0 2.328125l3.78125 0l0 11.75zm14.996338 -7.703125l0 0.21875q0 1.859375 0.28125 3.484375q0.28125 1.625 0.765625 3.0q0.484375 1.390625 1.125 2.53125q0.640625 1.140625 1.359375 2.015625q0.71875 0.890625 1.453125 1.5q0.75 0.625 1.4375 0.96875l0.625 -1.75q-0.515625 -0.40625 -1.046875 -1.0q-0.515625 -0.59375 -1.0 -1.375q-0.453125 -0.765625 -0.859375 -1.78125q-0.40625 -1.0 -0.71875 -2.171875q-0.25 -0.96875 -0.4375 -2.359375q-0.1875 -1.40625 -0.1875 -3.03125l0 -0.28125q0 -1.65625 0.1875 -3.09375q0.203125 -1.4375 0.515625 -2.609375q0.359375 -1.265625 0.84375 -2.328125q0.484375 -1.078125 1.046875 -1.875q0.40625 -0.5625 0.8125 -1.0q0.421875 -0.4375 0.84375 -0.75l-0.625 -1.8125q-0.6875 0.34375 -1.4375 0.96875q-0.734375 0.609375 -1.4375 1.484375q-0.71875 0.890625 -1.359375 2.046875q-0.640625 1.140625 -1.140625 2.5q-0.484375 1.390625 -0.765625 3.03125q-0.28125 1.625 -0.28125 3.46875zm342.6574 0.21875l0 -0.21875q0 -1.859375 -0.296875 -3.453125q-0.296875 -1.59375 -0.78125 -2.984375q-0.484375 -1.390625 -1.140625 -2.53125q-0.640625 -1.140625 -1.390625 -2.046875q-0.71875 -0.890625 -1.484375 -1.515625q-0.75 -0.625 -1.453125 -0.96875l-0.609375 1.75q0.40625 0.3125 0.828125 0.78125q0.421875 0.453125 0.8125 1.03125q0.5625 0.828125 1.0625 1.953125q0.515625 1.109375 0.890625 2.515625q0.265625 1.078125 0.453125 2.453125q0.1875 1.359375 0.1875 2.984375l0 0.28125q0 1.5625 -0.171875 2.921875q-0.15625 1.359375 -0.453125 2.5q-0.296875 1.234375 -0.734375 2.25q-0.421875 1.03125 -0.921875 1.84375q-0.46875 0.71875 -0.96875 1.28125q-0.484375 0.5625 -0.984375 0.921875l0.609375 1.75q0.703125 -0.34375 1.453125 -0.96875q0.765625 -0.625 1.484375 -1.53125q0.734375 -0.890625 1.375 -2.03125q0.65625 -1.140625 1.15625 -2.53125q0.5 -1.390625 0.78125 -3.0q0.296875 -1.609375 0.296875 -3.4375z"
              fill-rule="nonzero"/>
        <path fill="#f3f3f3"
              d="m343.38123 18.977219l0 0c0 -6.5452566 5.3059998 -11.851234 11.851227 -11.851234l272.48654 0c3.1431274 0 6.1575317 1.2486086 8.380066 3.4711466c2.2225342 2.222537 3.4711304 5.236945 3.4711304 8.380088l0 113.17943c0 6.5452423 -5.305969 11.851227 -11.851196 11.851227l-272.48654 0c-6.545227 0 -11.851227 -5.3059845 -11.851227 -11.851227z"
              fill-rule="evenodd"/>
        <path stroke="#000000" stroke-width="1.0" stroke-linejoin="round" stroke-linecap="butt"
              stroke-dasharray="1.0,3.0"
              d="m343.38123 18.977219l0 0c0 -6.5452566 5.3059998 -11.851234 11.851227 -11.851234l272.48654 0c3.1431274 0 6.1575317 1.2486086 8.380066 3.4711466c2.2225342 2.222537 3.4711304 5.236945 3.4711304 8.380088l0 113.17943c0 6.5452423 -5.305969 11.851227 -11.851196 11.851227l-272.48654 0c-6.545227 0 -11.851227 -5.3059845 -11.851227 -11.851227z"
              fill-rule="evenodd"/>
        <path fill="#32c8cd"
              d="m455.30905 18.657654l0 0c0 -3.0296535 2.4560242 -5.485674 5.4856873 -5.485674l67.26489 0c1.454834 0 2.8501587 0.57795334 3.8789062 1.6067171c1.0288086 1.0287628 1.6067505 2.4240656 1.6067505 3.8789568l0 21.94204c0 3.0296516 -2.4560547 5.485672 -5.4856567 5.485672l-67.26489 0c-3.029663 0 -5.4856873 -2.4560204 -5.4856873 -5.485672z"
              fill-rule="evenodd"/>
        <path stroke="#ffffff" stroke-width="1.0" stroke-linejoin="round" stroke-linecap="butt"
              d="m455.30905 18.657654l0 0c0 -3.0296535 2.4560242 -5.485674 5.4856873 -5.485674l67.26489 0c1.454834 0 2.8501587 0.57795334 3.8789062 1.6067171c1.0288086 1.0287628 1.6067505 2.4240656 1.6067505 3.8789568l0 21.94204c0 3.0296516 -2.4560547 5.485672 -5.4856567 5.485672l-67.26489 0c-3.029663 0 -5.4856873 -2.4560204 -5.4856873 -5.485672z"
              fill-rule="evenodd"/>
        <path fill="#ffffff"
              d="m481.25995 29.146173q0 -0.703125 0.578125 -0.703125q0.578125 0 0.578125 0.703125q0 0.703125 -0.578125 0.703125q-0.578125 0 -0.578125 -0.703125zm5.688263 0.078125q0.671875 0 1.171875 -0.109375l0 0.5625q-0.515625 0.171875 -1.1875 0.171875q-1.03125 0 -1.53125 -0.546875q-0.484375 -0.546875 -0.484375 -1.734375l0 -5.015625l-1.15625 0l0 -0.421875l1.15625 -0.328125l0.359375 -1.75l0.359375 0l0 1.875l2.296875 0l0 0.625l-2.296875 0l0 4.921875q0 0.890625 0.3125 1.328125q0.328125 0.421875 1.0 0.421875zm5.9873962 0.625q-1.6875 0 -2.640625 -1.046875q-0.9375 -1.046875 -0.9375 -2.921875q0 -1.859375 0.90625 -2.96875q0.921875 -1.125 2.46875 -1.125q1.375 0 2.171875 0.953125q0.796875 0.953125 0.796875 2.609375l0 0.5625l-5.609375 0q0.015625 1.609375 0.75 2.453125q0.734375 0.84375 2.09375 0.84375q0.671875 0 1.171875 -0.09375q0.515625 -0.09375 1.28125 -0.40625l0 0.65625q-0.65625 0.28125 -1.21875 0.375q-0.5625 0.109375 -1.234375 0.109375zm-0.203125 -7.4375q-1.125 0 -1.8125 0.75q-0.671875 0.734375 -0.78125 2.125l4.8125 0q0 -1.359375 -0.59375 -2.109375q-0.578125 -0.765625 -1.625 -0.765625zm7.028137 3.296875l-2.71875 -3.78125l0.8125 0l2.328125 3.28125l2.296875 -3.28125l0.78125 0l-2.671875 3.78125l2.859375 4.0l-0.828125 0l-2.4375 -3.46875l-2.46875 3.46875l-0.78125 0l2.828125 -4.0zm7.4401245 3.515625q0.671875 0 1.171875 -0.109375l0 0.5625q-0.515625 0.171875 -1.1875 0.171875q-1.03125 0 -1.53125 -0.546875q-0.484375 -0.546875 -0.484375 -1.734375l0 -5.015625l-1.15625 0l0 -0.421875l1.15625 -0.328125l0.359375 -1.75l0.359375 0l0 1.875l2.296875 0l0 0.625l-2.296875 0l0 4.921875q0 0.890625 0.3125 1.328125q0.328125 0.421875 1.0 0.421875z"
              fill-rule="nonzero"/>
        <path fill="#ffffff"
              d="m490.71036 38.1368q0 -0.109375 0.046875 -0.15625q0.046875 -0.0625 0.125 -0.0625q0.0625 0 0.109375 0.0625q0.046875 0.046875 0.046875 0.171875l0 0.5625q0 0.109375 -0.046875 0.171875q-0.046875 0.046875 -0.109375 0.046875q-0.078125 0 -0.125 -0.046875q-0.03125 -0.046875 -0.046875 -0.140625q-0.015625 -0.234375 -0.234375 -0.390625q-0.328125 -0.21875 -0.859375 -0.21875q-0.546875 0 -0.84375 0.21875q-0.234375 0.171875 -0.234375 0.375q0 0.234375 0.265625 0.390625q0.1875 0.109375 0.71875 0.171875q0.6875 0.078125 0.953125 0.171875q0.375 0.140625 0.5625 0.390625q0.1875 0.234375 0.1875 0.515625q0 0.40625 -0.40625 0.734375q-0.40625 0.328125 -1.1875 0.328125q-0.765625 0 -1.265625 -0.390625q0 0.125 -0.015625 0.171875q-0.015625 0.03125 -0.0625 0.0625q-0.03125 0.03125 -0.09375 0.03125q-0.0625 0 -0.109375 -0.046875q-0.046875 -0.0625 -0.046875 -0.171875l0 -0.671875q0 -0.125 0.046875 -0.171875q0.046875 -0.046875 0.109375 -0.046875q0.078125 0 0.125 0.046875q0.046875 0.046875 0.046875 0.125q0 0.1875 0.09375 0.296875q0.140625 0.1875 0.4375 0.3125q0.296875 0.125 0.734375 0.125q0.640625 0 0.953125 -0.234375q0.3125 -0.234375 0.3125 -0.5q0 -0.3125 -0.328125 -0.5q-0.3125 -0.171875 -0.921875 -0.234375q-0.609375 -0.0625 -0.875 -0.15625q-0.265625 -0.109375 -0.421875 -0.3125q-0.140625 -0.203125 -0.140625 -0.4375q0 -0.421875 0.40625 -0.671875q0.421875 -0.25 0.984375 -0.25q0.6875 0 1.109375 0.328125zm3.0507812 -0.21875l1.78125 0q0.109375 0 0.15625 0.046875q0.0625 0.046875 0.0625 0.125q0 0.078125 -0.0625 0.125q-0.046875 0.046875 -0.15625 0.046875l-1.78125 0l0 2.171875q0 0.296875 0.21875 0.484375q0.234375 0.1875 0.671875 0.1875q0.328125 0 0.71875 -0.09375q0.390625 -0.109375 0.609375 -0.234375q0.078125 -0.046875 0.125 -0.046875q0.0625 0 0.109375 0.046875q0.046875 0.046875 0.046875 0.125q0 0.046875 -0.046875 0.109375q-0.125 0.125 -0.609375 0.28125q-0.484375 0.140625 -0.921875 0.140625q-0.578125 0 -0.921875 -0.265625q-0.34375 -0.265625 -0.34375 -0.734375l0 -2.171875l-0.59375 0q-0.125 0 -0.171875 -0.046875q-0.046875 -0.046875 -0.046875 -0.125q0 -0.078125 0.046875 -0.125q0.046875 -0.046875 0.171875 -0.046875l0.59375 0l0 -0.96875q0 -0.109375 0.046875 -0.15625q0.046875 -0.0625 0.125 -0.0625q0.078125 0 0.125 0.0625q0.046875 0.046875 0.046875 0.15625l0 0.96875zm5.0820312 0l0 0.828125q0.640625 -0.578125 0.953125 -0.734375q0.3125 -0.171875 0.59375 -0.171875q0.28125 0 0.53125 0.203125q0.265625 0.1875 0.265625 0.296875q0 0.078125 -0.0625 0.125q-0.046875 0.046875 -0.109375 0.046875q-0.046875 0 -0.078125 -0.015625q-0.015625 -0.015625 -0.09375 -0.09375q-0.140625 -0.125 -0.25 -0.171875q-0.09375 -0.0625 -0.1875 -0.0625q-0.21875 0 -0.53125 0.171875q-0.296875 0.171875 -1.03125 0.84375l0 1.796875l1.453125 0q0.109375 0 0.15625 0.046875q0.0625 0.046875 0.0625 0.109375q0 0.078125 -0.0625 0.125q-0.046875 0.046875 -0.15625 0.046875l-2.578125 0q-0.125 0 -0.171875 -0.046875q-0.046875 -0.046875 -0.046875 -0.109375q0 -0.078125 0.046875 -0.109375q0.046875 -0.046875 0.171875 -0.046875l0.796875 0l0 -2.734375l-0.609375 0q-0.125 0 -0.171875 -0.046875q-0.046875 -0.046875 -0.046875 -0.125q0 -0.078125 0.046875 -0.125q0.046875 -0.046875 0.171875 -0.046875l0.9375 0z"
              fill-rule="nonzero"/>
        <path fill="#32c8cd"
              d="m371.44815 63.741642l0 0c0 -3.0296516 2.4560242 -5.485672 5.4856873 -5.485672l67.26486 0c1.454895 0 2.8501892 0.57795334 3.8789673 1.6067162c1.0287476 1.0287628 1.60672 2.4240646 1.60672 3.8789558l0 21.942036c0 3.0296555 -2.4560242 5.4856796 -5.4856873 5.4856796l-67.26486 0c-3.029663 0 -5.4856873 -2.4560242 -5.4856873 -5.4856796z"
              fill-rule="evenodd"/>
        <path stroke="#ffffff" stroke-width="1.0" stroke-linejoin="round" stroke-linecap="butt"
              d="m371.44815 63.741642l0 0c0 -3.0296516 2.4560242 -5.485672 5.4856873 -5.485672l67.26486 0c1.454895 0 2.8501892 0.57795334 3.8789673 1.6067162c1.0287476 1.0287628 1.60672 2.4240646 1.60672 3.8789558l0 21.942036c0 3.0296555 -2.4560242 5.4856796 -5.4856873 5.4856796l-67.26486 0c-3.029663 0 -5.4856873 -2.4560242 -5.4856873 -5.4856796z"
              fill-rule="evenodd"/>
        <path fill="#ffffff"
              d="m401.149 74.23016q0 -0.703125 0.578125 -0.703125q0.578125 0 0.578125 0.703125q0 0.703125 -0.578125 0.703125q-0.578125 0 -0.578125 -0.703125zm4.250763 -7.21875l0 5.046875q0 1.171875 0.484375 1.703125q0.5 0.53125 1.53125 0.53125q1.390625 0 2.046875 -0.703125q0.65625 -0.703125 0.65625 -2.28125l0 -4.296875l0.703125 0l0 7.78125l-0.609375 0l-0.125 -1.078125l-0.046875 0q-0.75 1.21875 -2.6875 1.21875q-2.65625 0 -2.65625 -2.84375l0 -5.078125l0.703125 0zm11.082397 -0.140625q0.5 0 1.0625 0.09375l-0.140625 0.671875q-0.484375 -0.109375 -1.0 -0.109375q-1.0 0 -1.640625 0.84375q-0.625 0.84375 -0.625 2.125l0 4.296875l-0.71875 0l0 -7.78125l0.609375 0l0.0625 1.40625l0.0625 0q0.46875 -0.859375 1.015625 -1.203125q0.546875 -0.34375 1.3125 -0.34375zm3.3598938 7.921875l-0.71875 0l0 -7.78125l0.71875 0l0 7.78125zm-0.8125 -9.9375q0 -0.6875 0.453125 -0.6875q0.21875 0 0.34375 0.1875q0.125 0.171875 0.125 0.5q0 0.3125 -0.125 0.5q-0.125 0.1875 -0.34375 0.1875q-0.453125 0 -0.453125 -0.6875z"
              fill-rule="nonzero"/>
        <path fill="#ffffff"
              d="m406.8495 83.22079q0 -0.109375 0.046875 -0.15625q0.046875 -0.0625 0.125 -0.0625q0.0625 0 0.109375 0.0625q0.046875 0.046875 0.046875 0.171875l0 0.5625q0 0.109375 -0.046875 0.171875q-0.046875 0.046875 -0.109375 0.046875q-0.078125 0 -0.125 -0.046875q-0.03125 -0.046875 -0.046875 -0.140625q-0.015625 -0.234375 -0.234375 -0.390625q-0.328125 -0.21875 -0.859375 -0.21875q-0.546875 0 -0.84375 0.21875q-0.234375 0.171875 -0.234375 0.375q0 0.234375 0.265625 0.390625q0.1875 0.109375 0.71875 0.171875q0.6875 0.078125 0.953125 0.171875q0.375 0.140625 0.5625 0.390625q0.1875 0.234375 0.1875 0.515625q0 0.40625 -0.40625 0.734375q-0.40625 0.328125 -1.1875 0.328125q-0.765625 0 -1.265625 -0.390625q0 0.125 -0.015625 0.171875q-0.015625 0.03125 -0.0625 0.0625q-0.03125 0.03125 -0.09375 0.03125q-0.0625 0 -0.109375 -0.046875q-0.046875 -0.0625 -0.046875 -0.171875l0 -0.671875q0 -0.125 0.046875 -0.171875q0.046875 -0.046875 0.109375 -0.046875q0.078125 0 0.125 0.046875q0.046875 0.046875 0.046875 0.125q0 0.1875 0.09375 0.296875q0.140625 0.1875 0.4375 0.3125q0.296875 0.125 0.734375 0.125q0.640625 0 0.953125 -0.234375q0.3125 -0.234375 0.3125 -0.5q0 -0.3125 -0.328125 -0.5q-0.3125 -0.171875 -0.921875 -0.234375q-0.609375 -0.0625 -0.875 -0.15625q-0.265625 -0.109375 -0.421875 -0.3125q-0.140625 -0.203125 -0.140625 -0.4375q0 -0.421875 0.40625 -0.671875q0.421875 -0.25 0.984375 -0.25q0.6875 0 1.109375 0.328125zm3.0507812 -0.21875l1.78125 0q0.109375 0 0.15625 0.046875q0.0625 0.046875 0.0625 0.125q0 0.078125 -0.0625 0.125q-0.046875 0.046875 -0.15625 0.046875l-1.78125 0l0 2.171875q0 0.296875 0.21875 0.484375q0.234375 0.1875 0.671875 0.1875q0.328125 0 0.71875 -0.09375q0.390625 -0.109375 0.609375 -0.234375q0.078125 -0.046875 0.125 -0.046875q0.0625 0 0.109375 0.046875q0.046875 0.046875 0.046875 0.125q0 0.046875 -0.046875 0.109375q-0.125 0.125 -0.609375 0.28125q-0.484375 0.140625 -0.921875 0.140625q-0.578125 0 -0.921875 -0.265625q-0.34375 -0.265625 -0.34375 -0.734375l0 -2.171875l-0.59375 0q-0.125 0 -0.171875 -0.046875q-0.046875 -0.046875 -0.046875 -0.125q0 -0.078125 0.046875 -0.125q0.046875 -0.046875 0.171875 -0.046875l0.59375 0l0 -0.96875q0 -0.109375 0.046875 -0.15625q0.046875 -0.0625 0.125 -0.0625q0.078125 0 0.125 0.0625q0.046875 0.046875 0.046875 0.15625l0 0.96875zm5.0820312 0l0 0.828125q0.640625 -0.578125 0.953125 -0.734375q0.3125 -0.171875 0.59375 -0.171875q0.28125 0 0.53125 0.203125q0.265625 0.1875 0.265625 0.296875q0 0.078125 -0.0625 0.125q-0.046875 0.046875 -0.109375 0.046875q-0.046875 0 -0.078125 -0.015625q-0.015625 -0.015625 -0.09375 -0.09375q-0.140625 -0.125 -0.25 -0.171875q-0.09375 -0.0625 -0.1875 -0.0625q-0.21875 0 -0.53125 0.171875q-0.296875 0.171875 -1.03125 0.84375l0 1.796875l1.453125 0q0.109375 0 0.15625 0.046875q0.0625 0.046875 0.0625 0.109375q0 0.078125 -0.0625 0.125q-0.046875 0.046875 -0.15625 0.046875l-2.578125 0q-0.125 0 -0.171875 -0.046875q-0.046875 -0.046875 -0.046875 -0.109375q0 -0.078125 0.046875 -0.109375q0.046875 -0.046875 0.171875 -0.046875l0.796875 0l0 -2.734375l-0.609375 0q-0.125 0 -0.171875 -0.046875q-0.046875 -0.046875 -0.046875 -0.125q0 -0.078125 0.046875 -0.125q0.046875 -0.046875 0.171875 -0.046875l0.9375 0z"
              fill-rule="nonzero"/>
        <path fill="#32c8cd"
              d="m455.30905 110.534294l0 0c0 -3.0296555 2.4560242 -5.485672 5.4856873 -5.485672l67.26489 0c1.454834 0 2.8501587 0.5779495 3.8789062 1.6067123c1.0288086 1.0287628 1.6067505 2.4240723 1.6067505 3.8789597l0 21.94204c0 3.0296478 -2.4560547 5.485672 -5.4856567 5.485672l-67.26489 0c-3.029663 0 -5.4856873 -2.4560242 -5.4856873 -5.485672z"
              fill-rule="evenodd"/>
        <path stroke="#ffffff" stroke-width="1.0" stroke-linejoin="round" stroke-linecap="butt"
              d="m455.30905 110.534294l0 0c0 -3.0296555 2.4560242 -5.485672 5.4856873 -5.485672l67.26489 0c1.454834 0 2.8501587 0.5779495 3.8789062 1.6067123c1.0288086 1.0287628 1.6067505 2.4240723 1.6067505 3.8789597l0 21.94204c0 3.0296478 -2.4560547 5.485672 -5.4856567 5.485672l-67.26489 0c-3.029663 0 -5.4856873 -2.4560242 -5.4856873 -5.485672z"
              fill-rule="evenodd"/>
        <path fill="#ffffff"
              d="m473.88528 121.02281q0 -0.703125 0.578125 -0.703125q0.578125 0 0.578125 0.703125q0 0.703125 -0.578125 0.703125q-0.578125 0 -0.578125 -0.703125zm6.9226685 -7.359375q1.625 0 2.453125 1.03125q0.828125 1.015625 0.828125 2.984375q0 1.953125 -0.875 3.0q-0.859375 1.046875 -2.4375 1.046875q-0.828125 0 -1.5 -0.34375q-0.671875 -0.34375 -1.046875 -0.96875l-0.0625 0l-0.203125 1.171875l-0.453125 0l0 -11.140625l0.71875 0l0 2.796875q0 0.640625 -0.03125 1.171875l-0.03125 0.609375l0.0625 0q0.4375 -0.703125 1.0625 -1.03125q0.625 -0.328125 1.515625 -0.328125zm-0.015625 0.640625q-1.375 0 -1.96875 0.796875q-0.59375 0.78125 -0.59375 2.578125l0 0.125q0 1.765625 0.609375 2.53125q0.625 0.765625 1.9375 0.765625q1.265625 0 1.90625 -0.890625q0.65625 -0.890625 0.65625 -2.546875q0 -3.359375 -2.546875 -3.359375zm6.0673523 -0.5l0 5.046875q0 1.171875 0.484375 1.703125q0.5 0.53125 1.53125 0.53125q1.390625 0 2.046875 -0.703125q0.65625 -0.703125 0.65625 -2.28125l0 -4.296875l0.703125 0l0 7.78125l-0.609375 0l-0.125 -1.078125l-0.046875 0q-0.75 1.21875 -2.6875 1.21875q-2.65625 0 -2.65625 -2.84375l0 -5.078125l0.703125 0zm10.910522 0.625l-1.828125 0l0 7.15625l-0.703125 0l0 -7.15625l-1.453125 0l0 -0.421875l1.453125 -0.265625l0 -0.59375q0 -1.4375 0.515625 -2.109375q0.53125 -0.671875 1.734375 -0.671875q0.640625 0 1.28125 0.203125l-0.15625 0.609375q-0.578125 -0.171875 -1.140625 -0.171875q-0.828125 0 -1.1875 0.484375q-0.34375 0.484375 -0.34375 1.59375l0 0.71875l1.828125 0l0 0.625zm4.390625 0l-1.828125 0l0 7.15625l-0.703125 0l0 -7.15625l-1.453125 0l0 -0.421875l1.453125 -0.265625l0 -0.59375q0 -1.4375 0.515625 -2.109375q0.53125 -0.671875 1.734375 -0.671875q0.640625 0 1.28125 0.203125l-0.15625 0.609375q-0.578125 -0.171875 -1.140625 -0.171875q-0.828125 0 -1.1875 0.484375q-0.34375 0.484375 -0.34375 1.59375l0 0.71875l1.828125 0l0 0.625zm4.6545715 7.296875q-1.6875 0 -2.640625 -1.046875q-0.9375 -1.046875 -0.9375 -2.921875q0 -1.859375 0.90625 -2.96875q0.921875 -1.125 2.46875 -1.125q1.375 0 2.171875 0.953125q0.796875 0.953125 0.796875 2.609375l0 0.5625l-5.609375 0q0.015625 1.609375 0.75 2.453125q0.734375 0.84375 2.09375 0.84375q0.671875 0 1.171875 -0.09375q0.515625 -0.09375 1.28125 -0.40625l0 0.65625q-0.65625 0.28125 -1.21875 0.375q-0.5625 0.109375 -1.234375 0.109375zm-0.203125 -7.4375q-1.125 0 -1.8125 0.75q-0.671875 0.734375 -0.78125 2.125l4.8125 0q0 -1.359375 -0.59375 -2.109375q-0.578125 -0.765625 -1.625 -0.765625zm8.168732 -0.625q0.5 0 1.0625 0.09375l-0.140625 0.671875q-0.484375 -0.109375 -1.0 -0.109375q-1.0 0 -1.640625 0.84375q-0.625 0.84375 -0.625 2.125l0 4.296875l-0.7187195 0l0 -7.78125l0.6093445 0l0.0625 1.40625l0.0625 0q0.46875 -0.859375 1.015625 -1.203125q0.546875 -0.34375 1.3125 -0.34375z"
              fill-rule="nonzero"/>
        <path fill="#ffffff"
              d="m483.59708 128.27907l0 2.171875q0.59375 -0.765625 1.421875 -0.765625q0.71875 0 1.234375 0.53125q0.515625 0.515625 0.515625 1.265625q0 0.765625 -0.515625 1.296875q-0.515625 0.53125 -1.234375 0.53125q-0.859375 0 -1.421875 -0.765625l0 0.640625l-0.78125 0q-0.109375 0 -0.171875 -0.046875q-0.046875 -0.046875 -0.046875 -0.125q0 -0.0625 0.046875 -0.109375q0.0625 -0.046875 0.171875 -0.046875l0.453125 0l0 -4.25l-0.453125 0q-0.109375 0 -0.171875 -0.046875q-0.046875 -0.046875 -0.046875 -0.109375q0 -0.078125 0.046875 -0.125q0.0625 -0.046875 0.171875 -0.046875l0.78125 0zm2.84375 3.21875q0 -0.625 -0.4375 -1.046875q-0.421875 -0.4375 -0.984375 -0.4375q-0.578125 0 -1.0 0.4375q-0.421875 0.421875 -0.421875 1.046875q0 0.625 0.421875 1.0625q0.421875 0.421875 1.0 0.421875q0.5625 0 0.984375 -0.421875q0.4375 -0.4375 0.4375 -1.0625zm3.2070312 1.6875l-1.515625 -3.046875l-0.109375 0q-0.109375 0 -0.171875 -0.046875q-0.046875 -0.046875 -0.046875 -0.125q0 -0.046875 0.03125 -0.078125q0.03125 -0.046875 0.0625 -0.0625q0.046875 -0.03125 0.125 -0.03125l0.90625 0q0.109375 0 0.15625 0.046875q0.0625 0.046875 0.0625 0.125q0 0.078125 -0.0625 0.125q-0.046875 0.046875 -0.15625 0.046875l-0.4375 0l1.328125 2.6875l1.328125 -2.6875l-0.4375 0q-0.125 0 -0.171875 -0.046875q-0.046875 -0.046875 -0.046875 -0.125q0 -0.078125 0.046875 -0.125q0.046875 -0.046875 0.171875 -0.046875l0.890625 0q0.125 0 0.171875 0.046875q0.046875 0.046875 0.046875 0.125q0 0.046875 -0.03125 0.09375q-0.03125 0.046875 -0.078125 0.0625q-0.03125 0.015625 -0.203125 0.015625l-2.078125 4.234375l0.5 0q0.125 0 0.171875 0.03125q0.046875 0.046875 0.046875 0.125q0 0.078125 -0.046875 0.125q-0.046875 0.046875 -0.171875 0.046875l-1.890625 0q-0.109375 0 -0.171875 -0.046875q-0.046875 -0.046875 -0.046875 -0.125q0 -0.078125 0.046875 -0.125q0.0625 -0.03125 0.171875 -0.03125l1.03125 0l0.578125 -1.1875zm4.1132812 -3.390625l1.78125 0q0.109375 0 0.15625 0.046875q0.0625 0.046875 0.0625 0.125q0 0.078125 -0.0625 0.125q-0.046875 0.046875 -0.15625 0.046875l-1.78125 0l0 2.171875q0 0.296875 0.21875 0.484375q0.234375 0.1875 0.671875 0.1875q0.328125 0 0.71875 -0.09375q0.390625 -0.109375 0.609375 -0.234375q0.078125 -0.046875 0.125 -0.046875q0.0625 0 0.109375 0.046875q0.046875 0.046875 0.046875 0.125q0 0.046875 -0.046875 0.109375q-0.125 0.125 -0.609375 0.28125q-0.484375 0.140625 -0.921875 0.140625q-0.578125 0 -0.921875 -0.265625q-0.34375 -0.265625 -0.34375 -0.734375l0 -2.171875l-0.59375 0q-0.125 0 -0.171875 -0.046875q-0.046875 -0.046875 -0.046875 -0.125q0 -0.078125 0.046875 -0.125q0.046875 -0.046875 0.171875 -0.046875l0.59375 0l0 -0.96875q0 -0.109375 0.046875 -0.15625q0.046875 -0.0625 0.125 -0.0625q0.078125 0 0.125 0.0625q0.046875 0.046875 0.046875 0.15625l0 0.96875zm7.2382812 1.78125l-3.34375 0q0.09375 0.625 0.53125 1.015625q0.453125 0.390625 1.109375 0.390625q0.375 0 0.765625 -0.109375q0.40625 -0.125 0.671875 -0.328125q0.0625 -0.0625 0.125 -0.0625q0.0625 0 0.109375 0.046875q0.046875 0.046875 0.046875 0.125q0 0.0625 -0.0625 0.125q-0.1875 0.1875 -0.671875 0.359375q-0.46875 0.171875 -0.984375 0.171875q-0.84375 0 -1.40625 -0.546875q-0.5625 -0.5625 -0.5625 -1.34375q0 -0.71875 0.53125 -1.21875q0.53125 -0.515625 1.3125 -0.515625q0.796875 0 1.3125 0.53125q0.53125 0.515625 0.515625 1.359375zm-0.328125 -0.34375q-0.09375 -0.53125 -0.515625 -0.875q-0.40625 -0.34375 -0.984375 -0.34375q-0.578125 0 -1.0 0.34375q-0.40625 0.328125 -0.5 0.875l3.0 0zm4.4414062 -1.21875q0 -0.109375 0.046875 -0.15625q0.046875 -0.0625 0.125 -0.0625q0.0625 0 0.109375 0.0625q0.046875 0.046875 0.046875 0.171875l0 0.5625q0 0.109375 -0.046875 0.171875q-0.046875 0.046875 -0.109375 0.046875q-0.078125 0 -0.125 -0.046875q-0.03125 -0.046875 -0.046875 -0.140625q-0.015625 -0.234375 -0.234375 -0.390625q-0.328125 -0.21875 -0.859375 -0.21875q-0.546875 0 -0.84375 0.21875q-0.234375 0.171875 -0.234375 0.375q0 0.234375 0.265625 0.390625q0.1875 0.109375 0.71875 0.171875q0.6875 0.078125 0.953125 0.171875q0.375 0.140625 0.5625 0.390625q0.1875 0.234375 0.1875 0.515625q0 0.40625 -0.40625 0.734375q-0.40625 0.328125 -1.1875 0.328125q-0.765625 0 -1.265625 -0.390625q0 0.125 -0.015625 0.171875q-0.015625 0.03125 -0.0625 0.0625q-0.03125 0.03125 -0.09375 0.03125q-0.0625 0 -0.109375 -0.046875q-0.046875 -0.0625 -0.046875 -0.171875l0 -0.671875q0 -0.125 0.046875 -0.171875q0.046875 -0.046875 0.109375 -0.046875q0.078125 0 0.125 0.046875q0.046875 0.046875 0.046875 0.125q0 0.1875 0.09375 0.296875q0.140625 0.1875 0.4375 0.3125q0.296875 0.125 0.734375 0.125q0.640625 0 0.953125 -0.234375q0.3125 -0.234375 0.3125 -0.5q0 -0.3125 -0.328125 -0.5q-0.3125 -0.171875 -0.921875 -0.234375q-0.609375 -0.0625 -0.875 -0.15625q-0.265625 -0.109375 -0.421875 -0.3125q-0.140625 -0.203125 -0.140625 -0.4375q0 -0.421875 0.40625 -0.671875q0.421875 -0.25 0.984375 -0.25q0.6875 0 1.109375 0.328125z"
              fill-rule="nonzero"/>
        <path fill="#32c8cd"
              d="m542.4639 63.741642l0 0c0 -3.0296516 2.4559937 -5.485672 5.4856567 -5.485672l58.067993 0c1.454895 0 2.8502197 0.57795334 3.8789673 1.6067162c1.0288086 1.0287628 1.6067505 2.4240646 1.6067505 3.8789558l0 21.942036c0 3.0296555 -2.4560547 5.4856796 -5.485718 5.4856796l-58.067993 0c-3.029663 0 -5.4856567 -2.4560242 -5.4856567 -5.4856796z"
              fill-rule="evenodd"/>
        <path stroke="#ffffff" stroke-width="1.0" stroke-linejoin="round" stroke-linecap="butt"
              d="m542.4639 63.741642l0 0c0 -3.0296516 2.4559937 -5.485672 5.4856567 -5.485672l58.067993 0c1.454895 0 2.8502197 0.57795334 3.8789673 1.6067162c1.0288086 1.0287628 1.6067505 2.4240646 1.6067505 3.8789558l0 21.942036c0 3.0296555 -2.4560547 5.4856796 -5.485718 5.4856796l-58.067993 0c-3.029663 0 -5.4856567 -2.4560242 -5.4856567 -5.4856796z"
              fill-rule="evenodd"/>
        <path fill="#ffffff"
              d="m561.72314 74.23016q0 -0.703125 0.578125 -0.703125q0.578125 0 0.578125 0.703125q0 0.703125 -0.578125 0.703125q-0.578125 0 -0.578125 -0.703125zm6.9226074 -7.359375q1.625 0 2.453125 1.03125q0.828125 1.015625 0.828125 2.984375q0 1.953125 -0.875 3.0q-0.859375 1.046875 -2.4375 1.046875q-0.828125 0 -1.5 -0.34375q-0.671875 -0.34375 -1.046875 -0.96875l-0.0625 0l-0.203125 1.171875l-0.453125 0l0 -11.140625l0.71875 0l0 2.796875q0 0.640625 -0.03125 1.171875l-0.03125 0.609375l0.0625 0q0.4375 -0.703125 1.0625 -1.03125q0.625 -0.328125 1.515625 -0.328125zm-0.015625 0.640625q-1.375 0 -1.96875 0.796875q-0.59375 0.78125 -0.59375 2.578125l0 0.125q0 1.765625 0.609375 2.53125q0.625 0.765625 1.9375 0.765625q1.265625 0 1.90625 -0.890625q0.65625 -0.890625 0.65625 -2.546875q0 -3.359375 -2.546875 -3.359375zm6.161133 7.28125l-0.71875 0l0 -11.140625l0.71875 0l0 11.140625zm9.032166 -3.90625q0 1.90625 -0.921875 2.984375q-0.921875 1.0625 -2.546875 1.0625q-1.03125 0 -1.8125 -0.484375q-0.765625 -0.5 -1.1875 -1.421875q-0.40625 -0.921875 -0.40625 -2.140625q0 -1.890625 0.921875 -2.953125q0.921875 -1.0625 2.53125 -1.0625q1.59375 0 2.5 1.078125q0.921875 1.0625 0.921875 2.9375zm-6.140625 0q0 1.609375 0.703125 2.515625q0.703125 0.890625 2.0 0.890625q1.28125 0 1.984375 -0.890625q0.703125 -0.90625 0.703125 -2.515625q0 -1.609375 -0.71875 -2.484375q-0.703125 -0.890625 -1.984375 -0.890625q-1.296875 0 -2.0 0.890625q-0.6875 0.875 -0.6875 2.484375zm11.5876465 -4.015625q1.625 0 2.453125 1.03125q0.828125 1.015625 0.828125 2.984375q0 1.953125 -0.875 3.0q-0.859375 1.046875 -2.4375 1.046875q-0.828125 0 -1.5 -0.34375q-0.671875 -0.34375 -1.046875 -0.96875l-0.0625 0l-0.203125 1.171875l-0.453125 0l0 -11.140625l0.71875 0l0 2.796875q0 0.640625 -0.03125 1.171875l-0.03125 0.609375l0.0625 0q0.4375 -0.703125 1.0625 -1.03125q0.625 -0.328125 1.515625 -0.328125zm-0.015625 0.640625q-1.375 0 -1.96875 0.796875q-0.59375 0.78125 -0.59375 2.578125l0 0.125q0 1.765625 0.609375 2.53125q0.625 0.765625 1.9375 0.765625q1.265625 0 1.90625 -0.890625q0.65625 -0.890625 0.65625 -2.546875q0 -3.359375 -2.546875 -3.359375z"
              fill-rule="nonzero"/>
        <path fill="#ffffff"
              d="m561.5246 83.00204l0 0.5q0.34375 -0.34375 0.609375 -0.46875q0.28125 -0.140625 0.640625 -0.140625q0.375 0 0.671875 0.15625q0.21875 0.125 0.390625 0.390625q0.1875 0.265625 0.1875 0.5625l0 2.0625l0.28125 0q0.109375 0 0.15625 0.046875q0.0625 0.046875 0.0625 0.109375q0 0.078125 -0.0625 0.125q-0.046875 0.046875 -0.15625 0.046875l-0.875 0q-0.125 0 -0.1875 -0.046875q-0.046875 -0.046875 -0.046875 -0.125q0 -0.0625 0.046875 -0.109375q0.0625 -0.046875 0.1875 -0.046875l0.265625 0l0 -2.015625q0 -0.34375 -0.25 -0.578125q-0.25 -0.25 -0.6875 -0.25q-0.3125 0 -0.5625 0.140625q-0.234375 0.125 -0.671875 0.640625l0 2.0625l0.375 0q0.109375 0 0.15625 0.046875q0.0625 0.046875 0.0625 0.109375q0 0.078125 -0.0625 0.125q-0.046875 0.046875 -0.15625 0.046875l-1.078125 0q-0.109375 0 -0.171875 -0.046875q-0.046875 -0.046875 -0.046875 -0.125q0 -0.0625 0.046875 -0.109375q0.0625 -0.046875 0.171875 -0.046875l0.375 0l0 -2.71875l-0.28125 0q-0.109375 0 -0.171875 -0.046875q-0.046875 -0.046875 -0.046875 -0.125q0 -0.078125 0.046875 -0.125q0.0625 -0.046875 0.171875 -0.046875l0.609375 0zm7.4726562 -1.515625l0 4.578125l0.4375 0q0.109375 0 0.15625 0.046875q0.0625 0.046875 0.0625 0.109375q0 0.078125 -0.0625 0.125q-0.046875 0.046875 -0.15625 0.046875l-0.78125 0l0 -0.65625q-0.5625 0.78125 -1.4375 0.78125q-0.453125 0 -0.859375 -0.234375q-0.40625 -0.234375 -0.640625 -0.671875q-0.234375 -0.4375 -0.234375 -0.90625q0 -0.46875 0.234375 -0.90625q0.234375 -0.4375 0.640625 -0.671875q0.40625 -0.234375 0.859375 -0.234375q0.859375 0 1.4375 0.78125l0 -1.859375l-0.4375 0q-0.109375 0 -0.171875 -0.046875q-0.046875 -0.046875 -0.046875 -0.109375q0 -0.078125 0.046875 -0.125q0.0625 -0.046875 0.171875 -0.046875l0.78125 0zm-0.34375 3.21875q0 -0.625 -0.421875 -1.046875q-0.421875 -0.4375 -1.0 -0.4375q-0.578125 0 -1.0 0.4375q-0.421875 0.421875 -0.421875 1.046875q0 0.625 0.421875 1.0625q0.421875 0.421875 1.0 0.421875q0.578125 0 1.0 -0.421875q0.421875 -0.4375 0.421875 -1.0625zm4.4726562 1.6875l0 -0.46875q-0.71875 0.59375 -1.53125 0.59375q-0.578125 0 -0.921875 -0.296875q-0.328125 -0.296875 -0.328125 -0.734375q0 -0.46875 0.4375 -0.828125q0.4375 -0.359375 1.28125 -0.359375q0.21875 0 0.484375 0.03125q0.265625 0.03125 0.578125 0.09375l0 -0.53125q0 -0.265625 -0.25 -0.46875q-0.25 -0.203125 -0.75 -0.203125q-0.375 0 -1.078125 0.21875q-0.125 0.046875 -0.15625 0.046875q-0.0625 0 -0.109375 -0.046875q-0.046875 -0.046875 -0.046875 -0.125q0 -0.0625 0.046875 -0.09375q0.046875 -0.0625 0.4375 -0.171875q0.609375 -0.15625 0.921875 -0.15625q0.625 0 0.96875 0.3125q0.34375 0.296875 0.34375 0.6875l0 2.171875l0.4375 0q0.125 0 0.171875 0.046875q0.0625 0.046875 0.0625 0.109375q0 0.078125 -0.0625 0.125q-0.046875 0.046875 -0.171875 0.046875l-0.765625 0zm0 -1.640625q-0.234375 -0.0625 -0.5 -0.09375q-0.25 -0.03125 -0.53125 -0.03125q-0.71875 0 -1.109375 0.3125q-0.3125 0.234375 -0.3125 0.546875q0 0.296875 0.234375 0.5q0.234375 0.203125 0.671875 0.203125q0.4375 0 0.796875 -0.171875q0.359375 -0.171875 0.75 -0.53125l0 -0.734375zm3.4726562 -1.75l0 0.828125q0.640625 -0.578125 0.953125 -0.734375q0.3125 -0.171875 0.59375 -0.171875q0.28125 0 0.53125 0.203125q0.265625 0.1875 0.265625 0.296875q0 0.078125 -0.0625 0.125q-0.046875 0.046875 -0.109375 0.046875q-0.046875 0 -0.078125 -0.015625q-0.015625 -0.015625 -0.09375 -0.09375q-0.140625 -0.125 -0.25 -0.171875q-0.09375 -0.0625 -0.1875 -0.0625q-0.21875 0 -0.53125 0.171875q-0.296875 0.171875 -1.03125 0.84375l0 1.796875l1.453125 0q0.109375 0 0.15625 0.046875q0.0625 0.046875 0.0625 0.109375q0 0.078125 -0.0625 0.125q-0.046875 0.046875 -0.15625 0.046875l-2.578125 0q-0.125 0 -0.171875 -0.046875q-0.046875 -0.046875 -0.046875 -0.109375q0 -0.078125 0.046875 -0.109375q0.046875 -0.046875 0.171875 -0.046875l0.796875 0l0 -2.734375l-0.609375 0q-0.125 0 -0.171875 -0.046875q-0.046875 -0.046875 -0.046875 -0.125q0 -0.078125 0.046875 -0.125q0.046875 -0.046875 0.171875 -0.046875l0.9375 0zm4.8007812 0l0 0.828125q0.640625 -0.578125 0.953125 -0.734375q0.3125 -0.171875 0.59375 -0.171875q0.28125 0 0.53125 0.203125q0.265625 0.1875 0.265625 0.296875q0 0.078125 -0.0625 0.125q-0.046875 0.046875 -0.109375 0.046875q-0.046875 0 -0.078125 -0.015625q-0.015625 -0.015625 -0.09375 -0.09375q-0.140625 -0.125 -0.25 -0.171875q-0.09375 -0.0625 -0.1875 -0.0625q-0.21875 0 -0.53125 0.171875q-0.296875 0.171875 -1.03125 0.84375l0 1.796875l1.453125 0q0.109375 0 0.15625 0.046875q0.0625 0.046875 0.0625 0.109375q0 0.078125 -0.0625 0.125q-0.046875 0.046875 -0.15625 0.046875l-2.578125 0q-0.125 0 -0.171875 -0.046875q-0.046875 -0.046875 -0.046875 -0.109375q0 -0.078125 0.046875 -0.109375q0.046875 -0.046875 0.171875 -0.046875l0.796875 0l0 -2.734375l-0.609375 0q-0.125 0 -0.171875 -0.046875q-0.046875 -0.046875 -0.046875 -0.125q0 -0.078125 0.046875 -0.125q0.046875 -0.046875 0.171875 -0.046875l0.9375 0zm6.1289062 3.390625l0 -0.46875q-0.71875 0.59375 -1.53125 0.59375q-0.578125 0 -0.921875 -0.296875q-0.328125 -0.296875 -0.328125 -0.734375q0 -0.46875 0.4375 -0.828125q0.4375 -0.359375 1.28125 -0.359375q0.21875 0 0.484375 0.03125q0.265625 0.03125 0.578125 0.09375l0 -0.53125q0 -0.265625 -0.25 -0.46875q-0.25 -0.203125 -0.75 -0.203125q-0.375 0 -1.078125 0.21875q-0.125 0.046875 -0.15625 0.046875q-0.0625 0 -0.109375 -0.046875q-0.046875 -0.046875 -0.046875 -0.125q0 -0.0625 0.046875 -0.09375q0.046875 -0.0625 0.4375 -0.171875q0.609375 -0.15625 0.921875 -0.15625q0.625 0 0.96875 0.3125q0.34375 0.296875 0.34375 0.6875l0 2.171875l0.4375 0q0.125 0 0.171875 0.046875q0.0625 0.046875 0.0625 0.109375q0 0.078125 -0.0625 0.125q-0.046875 0.046875 -0.171875 0.046875l-0.765625 0zm0 -1.640625q-0.234375 -0.0625 -0.5 -0.09375q-0.25 -0.03125 -0.53125 -0.03125q-0.71875 0 -1.109375 0.3125q-0.3125 0.234375 -0.3125 0.546875q0 0.296875 0.234375 0.5q0.234375 0.203125 0.671875 0.203125q0.4375 0 0.796875 -0.171875q0.359375 -0.171875 0.75 -0.53125l0 -0.734375zm3.8789062 1.640625l-1.515625 -3.046875l-0.109375 0q-0.109375 0 -0.171875 -0.046875q-0.046875 -0.046875 -0.046875 -0.125q0 -0.046875 0.03125 -0.078125q0.03125 -0.046875 0.0625 -0.0625q0.046875 -0.03125 0.125 -0.03125l0.90625 0q0.109375 0 0.15625 0.046875q0.0625 0.046875 0.0625 0.125q0 0.078125 -0.0625 0.125q-0.046875 0.046875 -0.15625 0.046875l-0.4375 0l1.328125 2.6875l1.328125 -2.6875l-0.4375 0q-0.125 0 -0.171875 -0.046875q-0.046875 -0.046875 -0.046875 -0.125q0 -0.078125 0.046875 -0.125q0.046875 -0.046875 0.171875 -0.046875l0.890625 0q0.125 0 0.171875 0.046875q0.046875 0.046875 0.046875 0.125q0 0.046875 -0.03125 0.09375q-0.03125 0.046875 -0.078125 0.0625q-0.03125 0.015625 -0.203125 0.015625l-2.078125 4.234375l0.5 0q0.125 0 0.171875 0.03125q0.046875 0.046875 0.046875 0.125q0 0.078125 -0.046875 0.125q-0.046875 0.046875 -0.171875 0.046875l-1.890625 0q-0.109375 0 -0.171875 -0.046875q-0.046875 -0.046875 -0.046875 -0.125q0 -0.078125 0.046875 -0.125q0.0625 -0.03125 0.171875 -0.03125l1.03125 0l0.578125 -1.1875z"
              fill-rule="nonzero"/>
        <path fill="#000000" fill-opacity="0.0"
              d="m533.5453 121.50531c21.716553 0 43.433044 -15.165352 43.433044 -30.330704" fill-rule="evenodd"/>
        <path stroke="#000000" stroke-width="1.0" stroke-linejoin="round" stroke-linecap="butt"
              d="m536.9701 121.38105l0.13446045 -0.00932312c0.16918945 -0.012611389 0.33825684 -0.02609253 0.5072632 -0.04043579c1.3519897 -0.11477661 2.6986694 -0.2850952 4.034729 -0.5072403c2.6721802 -0.44429016 5.30188 -1.095932 7.8468018 -1.9252853c5.0898438 -1.6587143 9.840332 -4.0282974 13.91217 -6.8718033c4.0718384 -2.8434982 7.465027 -6.160927 9.840271 -9.7153015c1.1876221 -1.7771912 2.1207886 -3.6136246 2.757019 -5.4796677c0.15905762 -0.4665146 0.29956055 -0.9348755 0.4208374 -1.4046326c0.060668945 -0.23487854 0.11645508 -0.47009277 0.16741943 -0.70560455l0.028564453 -0.13889313"
              fill-rule="evenodd"/>
        <path fill="#000000" stroke="#000000" stroke-width="1.0" stroke-linecap="butt"
              d="m536.9701 121.38104l1.0830688 -1.1646194l-3.046936 1.235878l3.128479 1.0118103z" fill-rule="evenodd"/>
        <path fill="#000000" stroke="#000000" stroke-width="1.0" stroke-linecap="butt"
              d="m576.6196 94.58286l1.0007324 1.2361145l-0.79504395 -3.190506l-1.4417725 2.9550934z"
              fill-rule="evenodd"/>
        <path fill="#000000" fill-opacity="0.0"
              d="m410.56628 91.16936c0 15.165352 22.37793 30.330704 44.75589 30.330704" fill-rule="evenodd"/>
        <path stroke="#000000" stroke-width="1.0" stroke-linejoin="round" stroke-linecap="butt"
              d="m410.93567 94.57648l0.029663086 0.1400299c0.052520752 0.23551178 0.11004639 0.470726 0.17254639 0.70560455c0.12496948 0.46975708 0.2697754 0.938118 0.4336548 1.4046326c0.6555786 1.8660431 1.617157 3.7024765 2.8409424 5.4796677c2.4476013 3.5543747 5.944153 6.8717957 10.140015 9.7153015c4.195862 2.8435059 9.091034 5.213089 14.335876 6.8718033c2.622406 0.82935333 5.3322754 1.4809875 8.085785 1.9252853c1.37677 0.22214508 2.7644348 0.39246368 4.1576233 0.5072403c0.17416382 0.014343262 0.34838867 0.027824402 0.52267456 0.04043579l0.24264526 0.016311646"
              fill-rule="evenodd"/>
        <path fill="#000000" stroke="#000000" stroke-width="1.0" stroke-linecap="butt"
              d="m410.93567 94.57648l1.2392273 0.99681854l-1.4510498 -2.950554l-0.78500366 3.192978z"
              fill-rule="evenodd"/>
        <path fill="#000000" stroke="#000000" stroke-width="1.0" stroke-linecap="butt"
              d="m451.8971 121.3828l-1.1624146 1.0854416l3.1264648 -1.0182037l-3.0494995 -1.2296448z"
              fill-rule="evenodd"/>
        <path fill="#000000" fill-opacity="0.0"
              d="m410.56628 58.25597c0 -14.3149605 22.37793 -28.629921 44.75589 -28.629921" fill-rule="evenodd"/>
        <path stroke="#000000" stroke-width="1.0" stroke-linejoin="round" stroke-linecap="butt"
              d="m410.97873 54.853786l0.069122314 -0.27931213c0.028808594 -0.11100769 0.058776855 -0.2219429 0.090026855 -0.3327942c0.12496948 -0.44340897 0.2697754 -0.8855095 0.4336548 -1.3258629c0.6555786 -1.7614136 1.617157 -3.4948654 2.8409424 -5.1723976c2.4476013 -3.355072 5.944153 -6.4864693 10.140015 -9.170525c4.195862 -2.6840515 9.091034 -4.920765 14.335876 -6.4864616c2.622406 -0.78285027 5.3322754 -1.3979473 8.085785 -1.8173294c1.37677 -0.209692 2.7644348 -0.3704567 4.1576233 -0.4787979c0.17416382 -0.013542175 0.34838867 -0.02626419 0.52267456 -0.03816414l0.24246216 -0.015388489"
              fill-rule="evenodd"/>
        <path fill="#000000" stroke="#000000" stroke-width="1.0" stroke-linecap="butt"
              d="m410.9787 54.85379l-0.9810486 -1.251751l0.7445679 3.202652l1.4882507 -2.9319725z" fill-rule="evenodd"/>
        <path fill="#000000" stroke="#000000" stroke-width="1.0" stroke-linecap="butt"
              d="m451.89688 29.736753l-1.087677 1.1603241l3.0518494 -1.2238045l-3.1245117 -1.0241871z"
              fill-rule="evenodd"/>
        <path fill="#000000" fill-opacity="0.0"
              d="m541.5453 129.50531c21.716553 0 43.433044 -15.165352 43.433044 -30.330704" fill-rule="evenodd"/>
        <path stroke="#ff6666" stroke-width="1.0" stroke-linejoin="round" stroke-linecap="butt"
              d="m541.5453 129.50531c10.858276 0 21.716553 -3.791336 29.86023 -9.478348c4.0718384 -2.8434982 7.465027 -6.160927 9.840271 -9.7153015c1.1876221 -1.7771912 2.1207886 -3.6136246 2.757019 -5.4796677c0.15905762 -0.4665146 0.29956055 -0.9348755 0.4208374 -1.4046326c0.060668945 -0.23487854 0.11645508 -0.47009277 0.16741943 -0.70560455l0.028564453 -0.13889313"
              fill-rule="evenodd"/>
        <path fill="#ff6666" stroke="#ff6666" stroke-width="1.0" stroke-linecap="butt"
              d="m584.6196 102.58286l1.0007324 1.2361145l-0.79504395 -3.190506l-1.4417725 2.9550934z"
              fill-rule="evenodd"/>
        <path fill="#000000" fill-opacity="0.0"
              d="m449.6844 74.71266c23.194977 0 34.791565 0.01574707 46.389984 0.03149414c11.598419 0.01574707 23.1987 0.03150177 46.39743 0.03150177"
              fill-rule="evenodd"/>
        <path stroke="#ff6666" stroke-width="1.0" stroke-linejoin="round" stroke-linecap="butt"
              d="m453.11148 74.71326l11.975708 0.0021133423c4.530182 0.0017166138 8.516724 0.004180908 12.1409 0.007133484c7.248291 0.0059051514 13.047058 0.0137786865 18.846252 0.021652222c5.799225 0.007873535 11.598877 0.01574707 18.848633 0.021652222c3.624817 0.0029525757 7.6122437 0.00541687 12.143311 0.007133484l11.978394 0.0021133423"
              fill-rule="evenodd"/>
        <path fill="#ff6666" stroke="#ff6666" stroke-width="1.0" stroke-linecap="butt"
              d="m453.11148 74.713264l1.1247559 -1.1243896l-3.0899658 1.1240387l3.0895996 1.1251297z"
              fill-rule="evenodd"/>
        <path fill="#ff6666" stroke="#ff6666" stroke-width="1.0" stroke-linecap="butt"
              d="m539.0447 74.77505l-1.1247559 1.1243896l3.0899658 -1.1240387l-3.0895996 -1.1251297z"
              fill-rule="evenodd"/>
        <path fill="#000000" fill-opacity="0.0" d="m13.276619 135.69963l47.842518 0" fill-rule="evenodd"/>
        <path stroke="#000000" stroke-width="1.0" stroke-linejoin="round" stroke-linecap="butt"
              d="m13.276618 135.69963l44.415432 0" fill-rule="evenodd"/>
        <path fill="#000000" stroke="#000000" stroke-width="1.0" stroke-linecap="butt"
              d="m57.692055 135.69963l-1.1245842 1.124588l3.0897675 -1.124588l-3.0897675 -1.124588z"
              fill-rule="evenodd"/>
        <path fill="#000000" fill-opacity="0.0" d="m56.416622 117.91084l161.25984 0l0 21.291336l-161.25984 0z"
              fill-rule="evenodd"/>
        <path fill="#000000"
              d="m68.61974 137.26022q-1.203125 0 -1.890625 -0.765625q-0.6875 -0.765625 -0.6875 -2.140625q0 -1.40625 0.703125 -2.1875q0.71875 -0.78125 1.953125 -0.78125q0.734375 0 1.40625 0.25l-0.140625 0.46875q-0.734375 -0.25 -1.28125 -0.25q-1.03125 0 -1.578125 0.640625q-0.53125 0.640625 -0.53125 1.859375q0 1.140625 0.53125 1.796875q0.546875 0.640625 1.5 0.640625q0.78125 0 1.4375 -0.28125l0 0.484375q-0.546875 0.265625 -1.421875 0.265625zm7.4846344 -2.9375q0 1.375 -0.671875 2.15625q-0.671875 0.78125 -1.859375 0.78125q-0.734375 0 -1.3125 -0.359375q-0.5625 -0.359375 -0.859375 -1.03125q-0.296875 -0.671875 -0.296875 -1.546875q0 -1.390625 0.671875 -2.15625q0.671875 -0.78125 1.828125 -0.78125q1.171875 0 1.828125 0.78125q0.671875 0.78125 0.671875 2.15625zm-4.46875 0q0 1.15625 0.515625 1.8125q0.515625 0.65625 1.453125 0.65625q0.9375 0 1.4375 -0.65625q0.515625 -0.65625 0.515625 -1.8125q0 -1.171875 -0.515625 -1.8125q-0.515625 -0.65625 -1.453125 -0.65625q-0.9375 0 -1.453125 0.640625q-0.5 0.640625 -0.5 1.828125zm9.9782715 2.828125l0 -3.671875q0 -0.84375 -0.359375 -1.234375q-0.359375 -0.390625 -1.109375 -0.390625q-1.015625 0 -1.484375 0.515625q-0.46875 0.515625 -0.46875 1.65625l0 3.125l-0.515625 0l0 -5.65625l0.4375 0l0.09375 0.78125l0.03125 0q0.546875 -0.890625 1.953125 -0.890625q1.9375 0 1.9375 2.0625l0 3.703125l-0.515625 0zm3.5823975 0l-2.1875 -5.65625l0.53125 0l1.46875 3.84375q0.28125 0.734375 0.4375 1.296875l0.03125 0q0.203125 -0.71875 0.421875 -1.3125l1.46875 -3.828125l0.53125 0l-2.1875 5.65625l-0.515625 0zm5.9379272 0.109375q-1.234375 0 -1.921875 -0.765625q-0.6875 -0.765625 -0.6875 -2.125q0 -1.359375 0.65625 -2.171875q0.671875 -0.8125 1.796875 -0.8125q1.0 0 1.578125 0.703125q0.578125 0.6875 0.578125 1.890625l0 0.421875l-4.078125 0q0.015625 1.15625 0.546875 1.78125q0.53125 0.609375 1.53125 0.609375q0.484375 0 0.84375 -0.0625q0.375 -0.078125 0.9375 -0.296875l0 0.46875q-0.484375 0.203125 -0.890625 0.28125q-0.40625 0.078125 -0.890625 0.078125zm-0.15625 -5.421875q-0.8125 0 -1.3125 0.546875q-0.484375 0.53125 -0.578125 1.546875l3.5 0q0 -0.984375 -0.4375 -1.53125q-0.421875 -0.5625 -1.171875 -0.5625zm5.9421997 -0.453125q0.359375 0 0.765625 0.078125l-0.09375 0.484375q-0.359375 -0.078125 -0.734375 -0.078125q-0.71875 0 -1.1875 0.609375q-0.453125 0.609375 -0.453125 1.546875l0 3.125l-0.515625 0l0 -5.65625l0.4375 0l0.046875 1.015625l0.03125 0q0.359375 -0.625 0.75 -0.875q0.390625 -0.25 0.953125 -0.25zm5.428238 4.296875q0 0.75 -0.578125 1.171875q-0.578125 0.40625 -1.640625 0.40625q-1.125 0 -1.796875 -0.359375l0 -0.546875q0.859375 0.421875 1.796875 0.421875q0.84375 0 1.265625 -0.28125q0.4375 -0.28125 0.4375 -0.734375q0 -0.4375 -0.34375 -0.71875q-0.34375 -0.296875 -1.125 -0.578125q-0.859375 -0.296875 -1.203125 -0.515625q-0.34375 -0.234375 -0.515625 -0.5q-0.171875 -0.28125 -0.171875 -0.6875q0 -0.640625 0.53125 -1.0q0.53125 -0.375 1.5 -0.375q0.90625 0 1.734375 0.34375l-0.203125 0.46875q-0.828125 -0.34375 -1.53125 -0.34375q-0.703125 0 -1.109375 0.234375q-0.40625 0.21875 -0.40625 0.625q0 0.453125 0.3125 0.71875q0.328125 0.265625 1.234375 0.59375q0.765625 0.265625 1.109375 0.484375q0.359375 0.21875 0.53125 0.5q0.171875 0.28125 0.171875 0.671875zm1.9795227 1.46875l-0.515625 0l0 -5.65625l0.515625 0l0 5.65625zm-0.59375 -7.234375q0 -0.5 0.328125 -0.5q0.15625 0 0.25 0.140625q0.09375 0.125 0.09375 0.359375q0 0.234375 -0.09375 0.375q-0.09375 0.140625 -0.25 0.140625q-0.328125 0 -0.328125 -0.515625zm7.1591034 4.40625q0 1.375 -0.671875 2.15625q-0.671875 0.78125 -1.859375 0.78125q-0.734375 0 -1.3125 -0.359375q-0.5625 -0.359375 -0.859375 -1.03125q-0.296875 -0.671875 -0.296875 -1.546875q0 -1.390625 0.671875 -2.15625q0.671875 -0.78125 1.828125 -0.78125q1.171875 0 1.828125 0.78125q0.671875 0.78125 0.671875 2.15625zm-4.46875 0q0 1.15625 0.515625 1.8125q0.515625 0.65625 1.453125 0.65625q0.9375 0 1.4375 -0.65625q0.515625 -0.65625 0.515625 -1.8125q0 -1.171875 -0.515625 -1.8125q-0.515625 -0.65625 -1.453125 -0.65625q-0.9375 0 -1.453125 0.640625q-0.5 0.640625 -0.5 1.828125zm9.9782715 2.828125l0 -3.671875q0 -0.84375 -0.359375 -1.234375q-0.359375 -0.390625 -1.109375 -0.390625q-1.015625 0 -1.484375 0.515625q-0.46875 0.515625 -0.46875 1.65625l0 3.125l-0.515625 0l0 -5.65625l0.4375 0l0.09375 0.78125l0.03125 0q0.546875 -0.890625 1.953125 -0.890625q1.9375 0 1.9375 2.0625l0 3.703125l-0.515625 0z"
              fill-rule="nonzero"/>
        <path fill="#000000"
              d="m66.88537 149.95085l-0.515625 0l0 -5.65625l0.515625 0l0 5.65625zm-0.59375 -7.234375q0 -0.5 0.328125 -0.5q0.15625 0 0.25 0.140625q0.09375 0.125 0.09375 0.359375q0 0.234375 -0.09375 0.375q-0.09375 0.140625 -0.25 0.140625q-0.328125 0 -0.328125 -0.515625zm9.549728 7.234375l0 -3.703125q0 -0.828125 -0.328125 -1.203125q-0.3125 -0.390625 -0.984375 -0.390625q-0.875 0 -1.296875 0.484375q-0.40625 0.46875 -0.40625 1.5l0 3.3125l-0.53125 0l0 -3.859375q0 -1.4375 -1.3125 -1.4375q-0.875 0 -1.28125 0.515625q-0.40625 0.515625 -0.40625 1.65625l0 3.125l-0.515625 0l0 -5.65625l0.421875 0l0.109375 0.78125l0.03125 0q0.234375 -0.421875 0.65625 -0.65625q0.4375 -0.234375 0.953125 -0.234375q1.34375 0 1.71875 1.0l0.03125 0q0.265625 -0.484375 0.734375 -0.734375q0.46875 -0.265625 1.0625 -0.265625q0.921875 0 1.375 0.5q0.46875 0.484375 0.46875 1.5625l0 3.703125l-0.5 0zm5.7668457 0l-0.125 -0.890625l-0.046875 0q-0.421875 0.546875 -0.875 0.78125q-0.453125 0.21875 -1.0625 0.21875q-0.828125 0 -1.296875 -0.421875q-0.453125 -0.4375 -0.453125 -1.1875q0 -0.828125 0.6875 -1.28125q0.6875 -0.46875 1.984375 -0.484375l1.078125 -0.03125l0 -0.375q0 -0.8125 -0.328125 -1.21875q-0.328125 -0.421875 -1.046875 -0.421875q-0.78125 0 -1.625 0.4375l-0.203125 -0.4375q0.9375 -0.4375 1.84375 -0.4375q0.9375 0 1.390625 0.484375q0.46875 0.484375 0.46875 1.5l0 3.765625l-0.390625 0zm-2.078125 -0.359375q0.90625 0 1.421875 -0.515625q0.53125 -0.53125 0.53125 -1.453125l0 -0.546875l-0.984375 0.046875q-1.1875 0.046875 -1.703125 0.359375q-0.5 0.3125 -0.5 0.984375q0 0.53125 0.3125 0.828125q0.328125 0.296875 0.921875 0.296875zm8.708023 -5.296875l0 0.359375l-1.171875 0.078125q0.46875 0.578125 0.46875 1.28125q0 0.8125 -0.546875 1.328125q-0.546875 0.5 -1.453125 0.5q-0.390625 0 -0.546875 -0.03125q-0.296875 0.15625 -0.46875 0.375q-0.15625 0.21875 -0.15625 0.46875q0 0.265625 0.203125 0.390625q0.203125 0.125 0.6875 0.125l0.984375 0q0.921875 0 1.40625 0.375q0.5 0.375 0.5 1.09375q0 0.90625 -0.734375 1.390625q-0.71875 0.484375 -2.0625 0.484375q-1.0625 0 -1.65625 -0.421875q-0.578125 -0.40625 -0.578125 -1.140625q0 -0.578125 0.359375 -0.96875q0.359375 -0.375 0.984375 -0.515625q-0.25 -0.109375 -0.40625 -0.3125q-0.15625 -0.203125 -0.15625 -0.46875q0 -0.5625 0.71875 -1.0q-0.484375 -0.203125 -0.765625 -0.625q-0.28125 -0.4375 -0.28125 -1.0q0 -0.84375 0.53125 -1.359375q0.546875 -0.515625 1.46875 -0.515625q0.546875 0 0.859375 0.109375l1.8125 0zm-4.578125 6.609375q0 1.171875 1.734375 1.171875q2.21875 0 2.21875 -1.421875q0 -0.515625 -0.34375 -0.734375q-0.34375 -0.234375 -1.125 -0.234375l-0.921875 0q-1.5625 0 -1.5625 1.21875zm0.4375 -4.84375q0 0.65625 0.390625 1.015625q0.40625 0.359375 1.0625 0.359375q0.703125 0 1.078125 -0.359375q0.390625 -0.359375 0.390625 -1.03125q0 -0.734375 -0.390625 -1.09375q-0.390625 -0.359375 -1.078125 -0.359375q-0.6875 0 -1.078125 0.390625q-0.375 0.390625 -0.375 1.078125zm7.5883026 4.0q-1.234375 0 -1.921875 -0.765625q-0.6875 -0.765625 -0.6875 -2.125q0 -1.359375 0.65625 -2.171875q0.671875 -0.8125 1.796875 -0.8125q1.0 0 1.578125 0.703125q0.578125 0.6875 0.578125 1.890625l0 0.421875l-4.078125 0q0.015625 1.15625 0.546875 1.78125q0.53125 0.609375 1.53125 0.609375q0.484375 0 0.84375 -0.0625q0.375 -0.078125 0.9375 -0.296875l0 0.46875q-0.484375 0.203125 -0.890625 0.28125q-0.40625 0.078125 -0.890625 0.078125zm-0.15625 -5.421875q-0.8125 0 -1.3125 0.546875q-0.484375 0.53125 -0.578125 1.546875l3.5 0q0 -0.984375 -0.4375 -1.53125q-0.421875 -0.5625 -1.171875 -0.5625zm3.2546997 2.640625l0 -0.421875l2.46875 0l0 0.421875l-2.46875 0zm7.39769 1.203125q0 0.75 -0.578125 1.171875q-0.578125 0.40625 -1.640625 0.40625q-1.125 0 -1.796875 -0.359375l0 -0.546875q0.859375 0.421875 1.796875 0.421875q0.84375 0 1.265625 -0.28125q0.4375 -0.28125 0.4375 -0.734375q0 -0.4375 -0.34375 -0.71875q-0.34375 -0.296875 -1.125 -0.578125q-0.859375 -0.296875 -1.203125 -0.515625q-0.34375 -0.234375 -0.515625 -0.5q-0.171875 -0.28125 -0.171875 -0.6875q0 -0.640625 0.53125 -1.0q0.53125 -0.375 1.5 -0.375q0.90625 0 1.734375 0.34375l-0.203125 0.46875q-0.828125 -0.34375 -1.53125 -0.34375q-0.703125 0 -1.109375 0.234375q-0.40625 0.21875 -0.40625 0.625q0 0.453125 0.3125 0.71875q0.328125 0.265625 1.234375 0.59375q0.765625 0.265625 1.109375 0.484375q0.359375 0.21875 0.53125 0.5q0.171875 0.28125 0.171875 0.671875zm3.8701477 1.578125q-1.296875 0 -1.890625 -0.984375l-0.046875 0l0.015625 0.4375q0.03125 0.390625 0.03125 0.84375l0 2.15625l-0.515625 0l0 -8.21875l0.4375 0l0.09375 0.8125l0.03125 0q0.578125 -0.921875 1.859375 -0.921875q1.140625 0 1.734375 0.75q0.609375 0.75 0.609375 2.1875q0 1.390625 -0.640625 2.171875q-0.625 0.765625 -1.71875 0.765625zm0 -0.46875q0.859375 0 1.328125 -0.640625q0.484375 -0.640625 0.484375 -1.796875q0 -2.5 -1.796875 -2.5q-0.984375 0 -1.453125 0.546875q-0.453125 0.546875 -0.453125 1.765625l0 0.171875q0 1.328125 0.4375 1.890625q0.453125 0.5625 1.453125 0.5625zm6.217758 0.46875q-1.234375 0 -1.921875 -0.765625q-0.6875 -0.765625 -0.6875 -2.125q0 -1.359375 0.65625 -2.171875q0.671875 -0.8125 1.796875 -0.8125q1.0 0 1.578125 0.703125q0.578125 0.6875 0.578125 1.890625l0 0.421875l-4.078125 0q0.015625 1.15625 0.546875 1.78125q0.53125 0.609375 1.53125 0.609375q0.484375 0 0.84375 -0.0625q0.375 -0.078125 0.9375 -0.296875l0 0.46875q-0.484375 0.203125 -0.890625 0.28125q-0.40625 0.078125 -0.890625 0.078125zm-0.15625 -5.421875q-0.8125 0 -1.3125 0.546875q-0.484375 0.53125 -0.578125 1.546875l3.5 0q0 -0.984375 -0.4375 -1.53125q-0.421875 -0.5625 -1.171875 -0.5625zm5.9734497 5.421875q-1.203125 0 -1.890625 -0.765625q-0.6875 -0.765625 -0.6875 -2.140625q0 -1.40625 0.703125 -2.1875q0.71875 -0.78125 1.953125 -0.78125q0.734375 0 1.40625 0.25l-0.140625 0.46875q-0.734375 -0.25 -1.28125 -0.25q-1.03125 0 -1.578125 0.640625q-0.53125 0.640625 -0.53125 1.859375q0 1.140625 0.53125 1.796875q0.546875 0.640625 1.5 0.640625q0.78125 0 1.4375 -0.28125l0 0.484375q-0.546875 0.265625 -1.421875 0.265625zm3.3283844 -0.109375l-0.515625 0l0 -5.65625l0.515625 0l0 5.65625zm-0.59375 -7.234375q0 -0.5 0.328125 -0.5q0.15625 0 0.25 0.140625q0.09375 0.125 0.09375 0.359375q0 0.234375 -0.09375 0.375q-0.09375 0.140625 -0.25 0.140625q-0.328125 0 -0.328125 -0.515625zm4.5809784 2.03125l-1.328125 0l0 5.203125l-0.515625 0l0 -5.203125l-1.046875 0l0 -0.3125l1.046875 -0.1875l0 -0.4375q0 -1.046875 0.375 -1.53125q0.390625 -0.484375 1.25 -0.484375q0.46875 0 0.9375 0.140625l-0.109375 0.453125q-0.421875 -0.140625 -0.828125 -0.140625q-0.609375 0 -0.859375 0.359375q-0.25 0.359375 -0.25 1.15625l0 0.53125l1.328125 0l0 0.453125zm1.609375 5.203125l-0.515625 0l0 -5.65625l0.515625 0l0 5.65625zm-0.59375 -7.234375q0 -0.5 0.328125 -0.5q0.15625 0 0.25 0.140625q0.09375 0.125 0.09375 0.359375q0 0.234375 -0.09375 0.375q-0.09375 0.140625 -0.25 0.140625q-0.328125 0 -0.328125 -0.515625zm4.7445297 7.34375q-1.203125 0 -1.890625 -0.765625q-0.6875 -0.765625 -0.6875 -2.140625q0 -1.40625 0.703125 -2.1875q0.71875 -0.78125 1.953125 -0.78125q0.734375 0 1.40625 0.25l-0.140625 0.46875q-0.734375 -0.25 -1.28125 -0.25q-1.03125 0 -1.578125 0.640625q-0.53125 0.640625 -0.53125 1.859375q0 1.140625 0.53125 1.796875q0.546875 0.640625 1.5 0.640625q0.78125 0 1.4375 -0.28125l0 0.484375q-0.546875 0.265625 -1.421875 0.265625zm7.830887 0q-1.203125 0 -1.890625 -0.765625q-0.6875 -0.765625 -0.6875 -2.140625q0 -1.40625 0.703125 -2.1875q0.71875 -0.78125 1.953125 -0.78125q0.734375 0 1.40625 0.25l-0.140625 0.46875q-0.734375 -0.25 -1.28125 -0.25q-1.03125 0 -1.578125 0.640625q-0.53125 0.640625 -0.53125 1.859375q0 1.140625 0.53125 1.796875q0.546875 0.640625 1.5 0.640625q0.78125 0 1.4375 -0.28125l0 0.484375q-0.546875 0.265625 -1.421875 0.265625zm7.4846344 -2.9375q0 1.375 -0.671875 2.15625q-0.671875 0.78125 -1.859375 0.78125q-0.734375 0 -1.3125 -0.359375q-0.5625 -0.359375 -0.859375 -1.03125q-0.296875 -0.671875 -0.296875 -1.546875q0 -1.390625 0.671875 -2.15625q0.671875 -0.78125 1.828125 -0.78125q1.171875 0 1.828125 0.78125q0.671875 0.78125 0.671875 2.15625zm-4.46875 0q0 1.15625 0.515625 1.8125q0.515625 0.65625 1.453125 0.65625q0.9375 0 1.4375 -0.65625q0.515625 -0.65625 0.515625 -1.8125q0 -1.171875 -0.515625 -1.8125q-0.515625 -0.65625 -1.453125 -0.65625q-0.9375 0 -1.453125 0.640625q-0.5 0.640625 -0.5 1.828125zm9.9782715 2.828125l0 -3.671875q0 -0.84375 -0.359375 -1.234375q-0.359375 -0.390625 -1.109375 -0.390625q-1.015625 0 -1.484375 0.515625q-0.46875 0.515625 -0.46875 1.65625l0 3.125l-0.515625 0l0 -5.65625l0.4375 0l0.09375 0.78125l0.03125 0q0.546875 -0.890625 1.953125 -0.890625q1.9375 0 1.9375 2.0625l0 3.703125l-0.515625 0zm3.5823975 0l-2.1875 -5.65625l0.53125 0l1.46875 3.84375q0.28125 0.734375 0.4375 1.296875l0.03125 0q0.203125 -0.71875 0.421875 -1.3125l1.46875 -3.828125l0.53125 0l-2.1875 5.65625l-0.515625 0zm5.9379272 0.109375q-1.234375 0 -1.921875 -0.765625q-0.6875 -0.765625 -0.6875 -2.125q0 -1.359375 0.65625 -2.171875q0.671875 -0.8125 1.796875 -0.8125q1.0 0 1.578125 0.703125q0.578125 0.6875 0.578125 1.890625l0 0.421875l-4.078125 0q0.015625 1.15625 0.546875 1.78125q0.53125 0.609375 1.53125 0.609375q0.484375 0 0.84375 -0.0625q0.375 -0.078125 0.9375 -0.296875l0 0.46875q-0.484375 0.203125 -0.890625 0.28125q-0.40625 0.078125 -0.890625 0.078125zm-0.15625 -5.421875q-0.8125 0 -1.3125 0.546875q-0.484375 0.53125 -0.578125 1.546875l3.5 0q0 -0.984375 -0.4375 -1.53125q-0.421875 -0.5625 -1.171875 -0.5625zm5.9421997 -0.453125q0.359375 0 0.765625 0.078125l-0.09375 0.484375q-0.359375 -0.078125 -0.734375 -0.078125q-0.71875 0 -1.1875 0.609375q-0.453125 0.609375 -0.453125 1.546875l0 3.125l-0.515625 0l0 -5.65625l0.4375 0l0.046875 1.015625l0.03125 0q0.359375 -0.625 0.75 -0.875q0.390625 -0.25 0.953125 -0.25zm5.428238 4.296875q0 0.75 -0.578125 1.171875q-0.578125 0.40625 -1.640625 0.40625q-1.125 0 -1.796875 -0.359375l0 -0.546875q0.859375 0.421875 1.796875 0.421875q0.84375 0 1.265625 -0.28125q0.4375 -0.28125 0.4375 -0.734375q0 -0.4375 -0.34375 -0.71875q-0.34375 -0.296875 -1.125 -0.578125q-0.859375 -0.296875 -1.203125 -0.515625q-0.34375 -0.234375 -0.515625 -0.5q-0.171875 -0.28125 -0.171875 -0.6875q0 -0.640625 0.53125 -1.0q0.53125 -0.375 1.5 -0.375q0.90625 0 1.734375 0.34375l-0.203125 0.46875q-0.828125 -0.34375 -1.53125 -0.34375q-0.703125 0 -1.109375 0.234375q-0.40625 0.21875 -0.40625 0.625q0 0.453125 0.3125 0.71875q0.328125 0.265625 1.234375 0.59375q0.765625 0.265625 1.109375 0.484375q0.359375 0.21875 0.53125 0.5q0.171875 0.28125 0.171875 0.671875zm1.9795227 1.46875l-0.515625 0l0 -5.65625l0.515625 0l0 5.65625zm-0.59375 -7.234375q0 -0.5 0.328125 -0.5q0.15625 0 0.25 0.140625q0.09375 0.125 0.09375 0.359375q0 0.234375 -0.09375 0.375q-0.09375 0.140625 -0.25 0.140625q-0.328125 0 -0.328125 -0.515625zm7.1591034 4.40625q0 1.375 -0.671875 2.15625q-0.671875 0.78125 -1.859375 0.78125q-0.734375 0 -1.3125 -0.359375q-0.5625 -0.359375 -0.859375 -1.03125q-0.296875 -0.671875 -0.296875 -1.546875q0 -1.390625 0.671875 -2.15625q0.671875 -0.78125 1.828125 -0.78125q1.171875 0 1.828125 0.78125q0.671875 0.78125 0.671875 2.15625zm-4.46875 0q0 1.15625 0.515625 1.8125q0.515625 0.65625 1.453125 0.65625q0.9375 0 1.4375 -0.65625q0.515625 -0.65625 0.515625 -1.8125q0 -1.171875 -0.515625 -1.8125q-0.515625 -0.65625 -1.453125 -0.65625q-0.9375 0 -1.453125 0.640625q-0.5 0.640625 -0.5 1.828125zm9.9782715 2.828125l0 -3.671875q0 -0.84375 -0.359375 -1.234375q-0.359375 -0.390625 -1.109375 -0.390625q-1.015625 0 -1.484375 0.515625q-0.46875 0.515625 -0.46875 1.65625l0 3.125l-0.515625 0l0 -5.65625l0.4375 0l0.09375 0.78125l0.03125 0q0.546875 -0.890625 1.953125 -0.890625q1.9375 0 1.9375 2.0625l0 3.703125l-0.515625 0z"
              fill-rule="nonzero"/>
        <path fill="#000000" fill-opacity="0.0" d="m12.723381 147.54956l47.84252 0" fill-rule="evenodd"/>
        <path stroke="#ff6666" stroke-width="1.0" stroke-linejoin="round" stroke-linecap="butt"
              d="m12.723382 147.54956l44.41543 0" fill-rule="evenodd"/>
        <path fill="#ff6666" stroke="#ff6666" stroke-width="1.0" stroke-linecap="butt"
              d="m57.138813 147.54956l-1.1245842 1.124588l3.0897675 -1.124588l-3.0897675 -1.124588z"
              fill-rule="evenodd"/>
    </g>
</svg>