<svg version="1.1" viewBox="0.0 0.0 452.4671916010499 333.2808398950131" fill="none" stroke="none" stroke-linecap="square" stroke-miterlimit="10" xmlns:xlink="http://www.w3.org/1999/xlink" xmlns="http://www.w3.org/2000/svg"><clipPath id="p.0"><path d="m0 0l452.4672 0l0 333.28085l-452.4672 0l0 -333.28085z" clip-rule="nonzero"/></clipPath><g clip-path="url(#p.0)"><path fill="#000000" fill-opacity="0.0" d="m0 0l452.4672 0l0 333.28085l-452.4672 0z" fill-rule="evenodd"/><path fill="#ffcc66" d="m180.46457 177.70079l267.1181 0l0 150.29921l-267.1181 0z" fill-rule="evenodd"/><path stroke="#ffffff" stroke-width="1.0" stroke-linejoin="round" stroke-linecap="butt" d="m180.46457 177.70079l267.1181 0l0 150.29921l-267.1181 0z" fill-rule="evenodd"/><path fill="#000000" d="m200.74582 195.38641q-0.53125 -1.140625 -1.5625 -1.765625q-1.03125 -0.625 -2.390625 -0.625q-1.359375 0 -2.453125 0.625q-1.09375 0.625 -1.71875 1.796875q-0.625 1.15625 -0.625 2.6875q0 1.53125 0.625 2.6875q0.625 1.15625 1.71875 1.78125q1.09375 0.625 2.453125 0.625q1.90625 0 3.140625 -1.125q1.234375 -1.140625 1.4375 -3.09375l-5.1875 0l0 -1.375l7.0 0l0 1.3125q-0.15625 1.59375 -1.015625 2.9375q-0.859375 1.328125 -2.265625 2.109375q-1.390625 0.765625 -3.109375 0.765625q-1.8125 0 -3.3125 -0.84375q-1.484375 -0.84375 -2.359375 -2.359375q-0.859375 -1.515625 -0.859375 -3.421875q0 -1.890625 0.859375 -3.40625q0.875 -1.53125 2.359375 -2.375q1.5 -0.859375 3.3125 -0.859375q2.078125 0 3.671875 1.03125q1.59375 1.03125 2.328125 2.890625l-2.046875 0zm9.123947 9.40625q-1.4375 0 -2.609375 -0.65625q-1.15625 -0.65625 -1.828125 -1.859375q-0.65625 -1.203125 -0.65625 -2.78125q0 -1.578125 0.6875 -2.78125q0.6875 -1.203125 1.859375 -1.84375q1.171875 -0.640625 2.625 -0.640625q1.453125 0 2.625 0.640625q1.1875 0.640625 1.859375 1.84375q0.6875 1.1875 0.6875 2.78125q0 1.578125 -0.703125 2.78125q-0.703125 1.203125 -1.90625 1.859375q-1.1875 0.65625 -2.640625 0.65625zm0 -1.5q0.921875 0 1.71875 -0.421875q0.796875 -0.4375 1.296875 -1.296875q0.5 -0.859375 0.5 -2.078125q0 -1.234375 -0.484375 -2.09375q-0.484375 -0.859375 -1.28125 -1.28125q-0.78125 -0.421875 -1.6875 -0.421875q-0.9375 0 -1.71875 0.421875q-0.765625 0.421875 -1.234375 1.28125q-0.46875 0.859375 -0.46875 2.09375q0 1.25 0.453125 2.109375q0.46875 0.84375 1.234375 1.265625q0.765625 0.421875 1.671875 0.421875zm11.940002 1.5q-1.4375 0 -2.609375 -0.65625q-1.15625 -0.65625 -1.828125 -1.859375q-0.65625 -1.203125 -0.65625 -2.78125q0 -1.578125 0.6875 -2.78125q0.6875 -1.203125 1.859375 -1.84375q1.171875 -0.640625 2.625 -0.640625q1.453125 0 2.625 0.640625q1.1875 0.640625 1.859375 1.84375q0.6875 1.1875 0.6875 2.78125q0 1.578125 -0.703125 2.78125q-0.703125 1.203125 -1.90625 1.859375q-1.1875 0.65625 -2.640625 0.65625zm0 -1.5q0.921875 0 1.71875 -0.421875q0.796875 -0.4375 1.296875 -1.296875q0.5 -0.859375 0.5 -2.078125q0 -1.234375 -0.484375 -2.09375q-0.484375 -0.859375 -1.28125 -1.28125q-0.78125 -0.421875 -1.6875 -0.421875q-0.9375 0 -1.71875 0.421875q-0.765625 0.421875 -1.234375 1.28125q-0.46875 0.859375 -0.46875 2.09375q0 1.25 0.453125 2.109375q0.46875 0.84375 1.234375 1.265625q0.765625 0.421875 1.671875 0.421875zm11.705627 -9.0625q1.328125 0 2.3125 0.578125q1.0 0.578125 1.484375 1.453125l0 -1.859375l1.71875 0l0 10.4375q0 1.40625 -0.59375 2.5q-0.59375 1.09375 -1.703125 1.703125q-1.109375 0.609375 -2.59375 0.609375q-2.015625 0 -3.359375 -0.953125q-1.34375 -0.9375 -1.578125 -2.578125l1.671875 0q0.28125 0.921875 1.15625 1.484375q0.890625 0.578125 2.109375 0.578125q1.40625 0 2.28125 -0.875q0.890625 -0.875 0.890625 -2.46875l0 -2.140625q-0.5 0.890625 -1.484375 1.5q-0.984375 0.59375 -2.3125 0.59375q-1.359375 0 -2.46875 -0.671875q-1.109375 -0.671875 -1.75 -1.875q-0.640625 -1.21875 -0.640625 -2.78125q0 -1.5625 0.640625 -2.734375q0.640625 -1.1875 1.75 -1.84375q1.109375 -0.65625 2.46875 -0.65625zm3.796875 5.265625q0 -1.15625 -0.46875 -2.015625q-0.453125 -0.859375 -1.25 -1.3125q-0.796875 -0.46875 -1.75 -0.46875q-0.953125 0 -1.734375 0.453125q-0.78125 0.453125 -1.25 1.3125q-0.46875 0.84375 -0.46875 2.0q0 1.1875 0.46875 2.0625q0.46875 0.859375 1.25 1.3125q0.78125 0.453125 1.734375 0.453125q0.953125 0 1.75 -0.453125q0.796875 -0.453125 1.25 -1.3125q0.46875 -0.875 0.46875 -2.03125zm6.2991333 -8.6875l0 13.8125l-1.703125 0l0 -13.8125l1.703125 0zm12.214432 8.3125q0 0.484375 -0.0625 1.015625l-8.171875 0q0.09375 1.515625 1.03125 2.375q0.953125 0.84375 2.296875 0.84375q1.09375 0 1.828125 -0.515625q0.75 -0.515625 1.046875 -1.375l1.828125 0q-0.40625 1.484375 -1.640625 2.40625q-1.234375 0.921875 -3.0625 0.921875q-1.453125 0 -2.609375 -0.65625q-1.140625 -0.65625 -1.796875 -1.859375q-0.65625 -1.203125 -0.65625 -2.78125q0 -1.59375 0.640625 -2.78125q0.640625 -1.203125 1.78125 -1.84375q1.140625 -0.640625 2.640625 -0.640625q1.453125 0 2.5625 0.640625q1.125 0.625 1.734375 1.734375q0.609375 1.109375 0.609375 2.515625zm-1.75 -0.359375q0 -0.96875 -0.4375 -1.671875q-0.421875 -0.703125 -1.171875 -1.0625q-0.734375 -0.359375 -1.625 -0.359375q-1.28125 0 -2.1875 0.828125q-0.90625 0.8125 -1.03125 2.265625l6.453125 0zm8.329346 -0.65625q0 -1.890625 0.859375 -3.40625q0.859375 -1.53125 2.34375 -2.390625q1.484375 -0.859375 3.296875 -0.859375q2.125 0 3.703125 1.03125q1.59375 1.015625 2.328125 2.90625l-2.046875 0q-0.53125 -1.171875 -1.546875 -1.796875q-1.015625 -0.640625 -2.4375 -0.640625q-1.359375 0 -2.453125 0.640625q-1.078125 0.625 -1.703125 1.796875q-0.609375 1.15625 -0.609375 2.71875q0 1.546875 0.609375 2.71875q0.625 1.171875 1.703125 1.8125q1.09375 0.625 2.453125 0.625q1.421875 0 2.4375 -0.625q1.015625 -0.625 1.546875 -1.796875l2.046875 0q-0.734375 1.859375 -2.328125 2.875q-1.578125 1.015625 -3.703125 1.015625q-1.8125 0 -3.296875 -0.84375q-1.484375 -0.84375 -2.34375 -2.359375q-0.859375 -1.515625 -0.859375 -3.421875zm19.496368 6.6875q-1.4375 0 -2.609375 -0.65625q-1.15625 -0.65625 -1.828125 -1.859375q-0.65625 -1.203125 -0.65625 -2.78125q0 -1.578125 0.6875 -2.78125q0.6875 -1.203125 1.859375 -1.84375q1.171875 -0.640625 2.625 -0.640625q1.453125 0 2.625 0.640625q1.1875 0.640625 1.859375 1.84375q0.6875 1.1875 0.6875 2.78125q0 1.578125 -0.703125 2.78125q-0.703125 1.203125 -1.90625 1.859375q-1.1875 0.65625 -2.640625 0.65625zm0 -1.5q0.921875 0 1.71875 -0.421875q0.796875 -0.4375 1.296875 -1.296875q0.5 -0.859375 0.5 -2.078125q0 -1.234375 -0.484375 -2.09375q-0.484375 -0.859375 -1.28125 -1.28125q-0.78125 -0.421875 -1.6875 -0.421875q-0.9375 0 -1.71875 0.421875q-0.765625 0.421875 -1.234375 1.28125q-0.46875 0.859375 -0.46875 2.09375q0 1.25 0.453125 2.109375q0.46875 0.84375 1.234375 1.265625q0.765625 0.421875 1.671875 0.421875zm9.190002 -12.484375l0 13.8125l-1.703125 0l0 -13.8125l1.703125 0zm2.245697 8.65625q0 -1.5625 0.640625 -2.734375q0.640625 -1.1875 1.75 -1.84375q1.109375 -0.65625 2.46875 -0.65625q1.34375 0 2.328125 0.578125q0.984375 0.578125 1.46875 1.453125l0 -1.859375l1.71875 0l0 10.21875l-1.71875 0l0 -1.90625q-0.5 0.90625 -1.5 1.5q-1.0 0.578125 -2.3125 0.578125q-1.375 0 -2.46875 -0.671875q-1.09375 -0.671875 -1.734375 -1.875q-0.640625 -1.21875 -0.640625 -2.78125zm8.65625 0.03125q0 -1.15625 -0.46875 -2.015625q-0.453125 -0.859375 -1.25 -1.3125q-0.796875 -0.46875 -1.75 -0.46875q-0.953125 0 -1.734375 0.453125q-0.78125 0.453125 -1.25 1.3125q-0.46875 0.84375 -0.46875 2.0q0 1.1875 0.46875 2.0625q0.46875 0.859375 1.25 1.3125q0.78125 0.453125 1.734375 0.453125q0.953125 0 1.75 -0.453125q0.796875 -0.453125 1.25 -1.3125q0.46875 -0.875 0.46875 -2.03125zm6.2991333 -3.203125q0.515625 -0.90625 1.515625 -1.484375q1.015625 -0.578125 2.296875 -0.578125q1.390625 0 2.484375 0.65625q1.109375 0.65625 1.734375 1.84375q0.640625 1.171875 0.640625 2.734375q0 1.5625 -0.640625 2.78125q-0.625 1.203125 -1.734375 1.875q-1.109375 0.671875 -2.484375 0.671875q-1.3125 0 -2.3125 -0.578125q-1.0 -0.578125 -1.5 -1.484375l0 1.890625l-1.703125 0l0 -13.8125l1.703125 0l0 5.484375zm6.9375 3.171875q0 -1.15625 -0.46875 -2.0q-0.46875 -0.859375 -1.265625 -1.3125q-0.78125 -0.453125 -1.734375 -0.453125q-0.9375 0 -1.734375 0.46875q-0.796875 0.453125 -1.265625 1.328125q-0.46875 0.859375 -0.46875 2.0q0 1.15625 0.46875 2.03125q0.46875 0.859375 1.265625 1.3125q0.796875 0.453125 1.734375 0.453125q0.953125 0 1.734375 -0.453125q0.796875 -0.453125 1.265625 -1.3125q0.46875 -0.875 0.46875 -2.0625z" fill-rule="nonzero"/><path fill="#ffcc66" d="m9.611548 9.333333l437.98425 0l0 150.29922l-437.98425 0z" fill-rule="evenodd"/><path stroke="#ffffff" stroke-width="1.0" stroke-linejoin="round" stroke-linecap="butt" d="m9.611548 9.333333l437.98425 0l0 150.29922l-437.98425 0z" fill-rule="evenodd"/><path fill="#000000" d="m29.8928 27.018957q-0.53125 -1.140625 -1.5625 -1.765625q-1.03125 -0.625 -2.390625 -0.625q-1.359375 0 -2.453125 0.625q-1.09375 0.625 -1.71875 1.796875q-0.625 1.15625 -0.625 2.6875q0 1.53125 0.625 2.687498q0.625 1.15625 1.71875 1.78125q1.09375 0.625 2.453125 0.625q1.90625 0 3.140625 -1.125q1.234375 -1.140625 1.4375 -3.093748l-5.1875 0l0 -1.375l7.0 0l0 1.3125q-0.15625 1.5937481 -1.015625 2.937498q-0.859375 1.328125 -2.265625 2.109375q-1.390625 0.765625 -3.109375 0.765625q-1.8125 0 -3.3125 -0.84375q-1.484375 -0.84375 -2.359375 -2.359375q-0.859375 -1.5156231 -0.859375 -3.421873q0 -1.890625 0.859375 -3.40625q0.875 -1.53125 2.359375 -2.375q1.5 -0.859375 3.3125 -0.859375q2.078125 0 3.671875 1.03125q1.59375 1.03125 2.328125 2.890625l-2.046875 0zm9.123947 9.406248q-1.4375 0 -2.609375 -0.65625q-1.15625 -0.65625 -1.828125 -1.859375q-0.65625 -1.203125 -0.65625 -2.781248q0 -1.578125 0.6875 -2.78125q0.6875 -1.203125 1.859375 -1.84375q1.171875 -0.640625 2.625 -0.640625q1.453125 0 2.625 0.640625q1.1875 0.640625 1.859375 1.84375q0.6875 1.1875 0.6875 2.78125q0 1.5781231 -0.703125 2.781248q-0.703125 1.203125 -1.90625 1.859375q-1.1875 0.65625 -2.640625 0.65625zm0 -1.5q0.921875 0 1.71875 -0.421875q0.796875 -0.4375 1.296875 -1.296875q0.5 -0.859375 0.5 -2.078123q0 -1.234375 -0.484375 -2.09375q-0.484375 -0.859375 -1.28125 -1.28125q-0.78125 -0.421875 -1.6875 -0.421875q-0.9375 0 -1.71875 0.421875q-0.765625 0.421875 -1.234375 1.28125q-0.46875 0.859375 -0.46875 2.09375q0 1.2499981 0.453125 2.109373q0.46875 0.84375 1.234375 1.265625q0.765625 0.421875 1.671875 0.421875zm11.940002 1.5q-1.4375 0 -2.609375 -0.65625q-1.15625 -0.65625 -1.828125 -1.859375q-0.65625 -1.203125 -0.65625 -2.781248q0 -1.578125 0.6875 -2.78125q0.6875 -1.203125 1.859375 -1.84375q1.171875 -0.640625 2.625 -0.640625q1.453125 0 2.625 0.640625q1.1875 0.640625 1.859375 1.84375q0.6875 1.1875 0.6875 2.78125q0 1.5781231 -0.703125 2.781248q-0.703125 1.203125 -1.90625 1.859375q-1.1875 0.65625 -2.640625 0.65625zm0 -1.5q0.921875 0 1.71875 -0.421875q0.796875 -0.4375 1.296875 -1.296875q0.5 -0.859375 0.5 -2.078123q0 -1.234375 -0.484375 -2.09375q-0.484375 -0.859375 -1.28125 -1.28125q-0.78125 -0.421875 -1.6875 -0.421875q-0.9375 0 -1.71875 0.421875q-0.765625 0.421875 -1.234375 1.28125q-0.46875 0.859375 -0.46875 2.09375q0 1.2499981 0.453125 2.109373q0.46875 0.84375 1.234375 1.265625q0.765625 0.421875 1.671875 0.421875zm11.705627 -9.062498q1.328125 0 2.3125 0.578125q1.0 0.578125 1.484375 1.453125l0 -1.859375l1.71875 0l0 10.437498q0 1.40625 -0.59375 2.5q-0.59375 1.09375 -1.703125 1.703125q-1.109375 0.609375 -2.59375 0.609375q-2.015625 0 -3.359375 -0.953125q-1.34375 -0.9375 -1.578125 -2.578125l1.671875 0q0.28125 0.921875 1.15625 1.484375q0.890625 0.578125 2.109375 0.578125q1.40625 0 2.28125 -0.875q0.890625 -0.875 0.890625 -2.46875l0 -2.140625q-0.5 0.890625 -1.484375 1.5q-0.984375 0.59375 -2.3125 0.59375q-1.359375 0 -2.46875 -0.671875q-1.109375 -0.671875 -1.75 -1.875q-0.640625 -1.21875 -0.640625 -2.781248q0 -1.5625 0.640625 -2.734375q0.640625 -1.1875 1.75 -1.84375q1.109375 -0.65625 2.46875 -0.65625zm3.796875 5.265625q0 -1.15625 -0.46875 -2.015625q-0.453125 -0.859375 -1.25 -1.3125q-0.796875 -0.46875 -1.75 -0.46875q-0.953125 0 -1.734375 0.453125q-0.78125 0.453125 -1.25 1.3125q-0.46875 0.84375 -0.46875 2.0q0 1.1874981 0.46875 2.062498q0.46875 0.859375 1.25 1.3125q0.78125 0.453125 1.734375 0.453125q0.953125 0 1.75 -0.453125q0.796875 -0.453125 1.25 -1.3125q0.46875 -0.875 0.46875 -2.031248zm6.2991333 -8.6875l0 13.812498l-1.703125 0l0 -13.812498l1.703125 0zm12.214432 8.3125q0 0.484375 -0.0625 1.015625l-8.171875 0q0.09375 1.5156231 1.03125 2.374998q0.953125 0.84375 2.296875 0.84375q1.09375 0 1.828125 -0.515625q0.75 -0.515625 1.046875 -1.375l1.828125 0q-0.40625 1.484375 -1.640625 2.40625q-1.234375 0.921875 -3.0625 0.921875q-1.453125 0 -2.609375 -0.65625q-1.140625 -0.65625 -1.796875 -1.859375q-0.65625 -1.203125 -0.65625 -2.781248q0 -1.59375 0.640625 -2.78125q0.640625 -1.203125 1.78125 -1.84375q1.140625 -0.640625 2.640625 -0.640625q1.453125 0 2.5625 0.640625q1.125 0.625 1.734375 1.734375q0.609375 1.109375 0.609375 2.515625zm-1.75 -0.359375q0 -0.96875 -0.4375 -1.671875q-0.421875 -0.703125 -1.171875 -1.0625q-0.734375 -0.359375 -1.625 -0.359375q-1.28125 0 -2.1875 0.828125q-0.90625 0.8125 -1.03125 2.265625l6.453125 0zm8.329346 -0.65625q0 -1.890625 0.859375 -3.40625q0.859375 -1.53125 2.34375 -2.390625q1.484375 -0.859375 3.296875 -0.859375q2.125 0 3.703125 1.03125q1.59375 1.015625 2.328125 2.90625l-2.046875 0q-0.53125 -1.171875 -1.546875 -1.796875q-1.015625 -0.640625 -2.4375 -0.640625q-1.359375 0 -2.453125 0.640625q-1.078125 0.625 -1.703125 1.796875q-0.609375 1.15625 -0.609375 2.71875q0 1.546875 0.609375 2.718748q0.625 1.171875 1.703125 1.8125q1.09375 0.625 2.453125 0.625q1.421875 0 2.4375 -0.625q1.015625 -0.625 1.546875 -1.796875l2.046875 0q-0.734375 1.859375 -2.328125 2.875q-1.578125 1.015625 -3.703125 1.015625q-1.8125 0 -3.296875 -0.84375q-1.484375 -0.84375 -2.34375 -2.359375q-0.859375 -1.5156231 -0.859375 -3.421873zm19.496384 6.687498q-1.4375 0 -2.609375 -0.65625q-1.15625 -0.65625 -1.828125 -1.859375q-0.65625 -1.203125 -0.65625 -2.781248q0 -1.578125 0.6875 -2.78125q0.6875 -1.203125 1.859375 -1.84375q1.171875 -0.640625 2.625 -0.640625q1.453125 0 2.625 0.640625q1.1875 0.640625 1.859375 1.84375q0.6875 1.1875 0.6875 2.78125q0 1.5781231 -0.703125 2.781248q-0.703125 1.203125 -1.90625 1.859375q-1.1875 0.65625 -2.640625 0.65625zm0 -1.5q0.921875 0 1.71875 -0.421875q0.796875 -0.4375 1.296875 -1.296875q0.5 -0.859375 0.5 -2.078123q0 -1.234375 -0.484375 -2.09375q-0.484375 -0.859375 -1.28125 -1.28125q-0.78125 -0.421875 -1.6875 -0.421875q-0.9375 0 -1.71875 0.421875q-0.765625 0.421875 -1.234375 1.28125q-0.46875 0.859375 -0.46875 2.09375q0 1.2499981 0.453125 2.109373q0.46875 0.84375 1.234375 1.265625q0.765625 0.421875 1.671875 0.421875zm9.190002 -12.484373l0 13.812498l-1.703125 0l0 -13.812498l1.703125 0zm2.2456818 8.65625q0 -1.5625 0.640625 -2.734375q0.640625 -1.1875 1.75 -1.84375q1.109375 -0.65625 2.46875 -0.65625q1.3437424 0 2.3281174 0.578125q0.984375 0.578125 1.46875 1.453125l0 -1.859375l1.71875 0l0 10.218748l-1.71875 0l0 -1.90625q-0.5 0.90625 -1.5 1.5q-1.0 0.578125 -2.3124924 0.578125q-1.375 0 -2.46875 -0.671875q-1.09375 -0.671875 -1.734375 -1.875q-0.640625 -1.21875 -0.640625 -2.781248zm8.656242 0.03125q0 -1.15625 -0.46875 -2.015625q-0.453125 -0.859375 -1.25 -1.3125q-0.796875 -0.46875 -1.7499924 -0.46875q-0.953125 0 -1.734375 0.453125q-0.78125 0.453125 -1.25 1.3125q-0.46875 0.84375 -0.46875 2.0q0 1.1874981 0.46875 2.062498q0.46875 0.859375 1.25 1.3125q0.78125 0.453125 1.734375 0.453125q0.9531174 0 1.7499924 -0.453125q0.796875 -0.453125 1.25 -1.3125q0.46875 -0.875 0.46875 -2.031248zm6.2991333 -3.203125q0.515625 -0.90625 1.515625 -1.484375q1.015625 -0.578125 2.296875 -0.578125q1.390625 0 2.484375 0.65625q1.109375 0.65625 1.734375 1.84375q0.640625 1.171875 0.640625 2.734375q0 1.5624981 -0.640625 2.781248q-0.625 1.203125 -1.734375 1.875q-1.109375 0.671875 -2.484375 0.671875q-1.3125 0 -2.3125 -0.578125q-1.0 -0.578125 -1.5 -1.484375l0 1.890625l-1.703125 0l0 -13.812498l1.703125 0l0 5.484375zm6.9375 3.171875q0 -1.15625 -0.46875 -2.0q-0.46875 -0.859375 -1.265625 -1.3125q-0.78125 -0.453125 -1.734375 -0.453125q-0.9375 0 -1.734375 0.46875q-0.796875 0.453125 -1.265625 1.328125q-0.46875 0.859375 -0.46875 2.0q0 1.1562481 0.46875 2.031248q0.46875 0.859375 1.265625 1.3125q0.796875 0.453125 1.734375 0.453125q0.953125 0 1.734375 -0.453125q0.796875 -0.453125 1.265625 -1.3125q0.46875 -0.875 0.46875 -2.062498z" fill-rule="nonzero"/><path fill="#32c8cd" d="m187.57217 54.16798l117.66928 0l0 87.1181l-117.66928 0z" fill-rule="evenodd"/><path stroke="#ffffff" stroke-width="1.0" stroke-linejoin="round" stroke-linecap="butt" d="m187.57217 54.16798l117.66928 0l0 87.1181l-117.66928 0z" fill-rule="evenodd"/><path fill="#ffffff" d="m211.771 91.64703l0 9.609375q0 1.59375 -1.0 2.5625q-0.984375 0.953125 -2.59375 0.953125q-1.640625 0 -2.640625 -0.96875q-0.984375 -0.984375 -0.984375 -2.6875l1.703125 0q0.015625 0.953125 0.484375 1.5625q0.484375 0.59375 1.4375 0.59375q0.9375 0 1.40625 -0.5625q0.46875 -0.578125 0.46875 -1.453125l0 -9.609375l1.71875 0zm4.2159424 1.109375q-0.484375 0 -0.828125 -0.328125q-0.328125 -0.34375 -0.328125 -0.828125q0 -0.484375 0.328125 -0.8125q0.34375 -0.34375 0.828125 -0.34375q0.46875 0 0.796875 0.34375q0.328125 0.328125 0.328125 0.8125q0 0.484375 -0.328125 0.828125q-0.328125 0.328125 -0.796875 0.328125zm0.828125 1.671875l0 10.21875l-1.703125 0l0 -10.21875l1.703125 0zm7.870682 -0.1875q1.859375 0 3.015625 1.125q1.15625 1.125 1.15625 3.25l0 6.03125l-1.671875 0l0 -5.78125q0 -1.53125 -0.765625 -2.34375q-0.765625 -0.8125 -2.09375 -0.8125q-1.34375 0 -2.140625 0.84375q-0.78125 0.84375 -0.78125 2.4375l0 5.65625l-1.703125 0l0 -10.21875l1.703125 0l0 1.453125q0.5 -0.78125 1.359375 -1.203125q0.875 -0.4375 1.921875 -0.4375zm6.3150024 5.25q0 -1.5625 0.640625 -2.734375q0.640625 -1.1875 1.75 -1.84375q1.109375 -0.65625 2.46875 -0.65625q1.34375 0 2.328125 0.578125q0.984375 0.578125 1.46875 1.453125l0 -1.859375l1.71875 0l0 10.21875l-1.71875 0l0 -1.90625q-0.5 0.90625 -1.5 1.5q-1.0 0.578125 -2.3125 0.578125q-1.375 0 -2.46875 -0.671875q-1.09375 -0.671875 -1.734375 -1.875q-0.640625 -1.21875 -0.640625 -2.78125zm8.65625 0.03125q0 -1.15625 -0.46875 -2.015625q-0.453125 -0.859375 -1.25 -1.3125q-0.796875 -0.46875 -1.75 -0.46875q-0.953125 0 -1.734375 0.453125q-0.78125 0.453125 -1.25 1.3125q-0.46875 0.84375 -0.46875 2.0q0 1.1875 0.46875 2.0625q0.46875 0.859375 1.25 1.3125q0.78125 0.453125 1.734375 0.453125q0.953125 0 1.75 -0.453125q0.796875 -0.453125 1.25 -1.3125q0.46875 -0.875 0.46875 -2.03125zm16.920975 -7.875l0 1.375l-5.640625 0l0 4.390625l4.5781097 0l0 1.375l-4.5781097 0l0 5.859375l-1.703125 0l0 -13.0l7.34375 0zm3.7621155 -0.8125l0 13.8125l-1.703125 0l0 -13.8125l1.703125 0zm7.339447 13.984375q-1.4375 0 -2.609375 -0.65625q-1.15625 -0.65625 -1.828125 -1.859375q-0.65625 -1.203125 -0.65625 -2.78125q0 -1.578125 0.6875 -2.78125q0.6875 -1.203125 1.859375 -1.84375q1.171875 -0.640625 2.625 -0.640625q1.453125 0 2.625 0.640625q1.1875 0.640625 1.859375 1.84375q0.6875 1.1875 0.6875 2.78125q0 1.578125 -0.703125 2.78125q-0.703125 1.203125 -1.90625 1.859375q-1.1875 0.65625 -2.640625 0.65625zm0 -1.5q0.921875 0 1.71875 -0.421875q0.796875 -0.4375 1.296875 -1.296875q0.5 -0.859375 0.5 -2.078125q0 -1.234375 -0.484375 -2.09375q-0.484375 -0.859375 -1.28125 -1.28125q-0.78125 -0.421875 -1.6875 -0.421875q-0.9375 0 -1.71875 0.421875q-0.765625 0.421875 -1.234375 1.28125q-0.46875 0.859375 -0.46875 2.09375q0 1.25 0.453125 2.109375q0.46875 0.84375 1.234375 1.265625q0.765625 0.421875 1.671875 0.421875zm21.111877 -8.890625l-3.203125 10.21875l-1.75 0l-2.453125 -8.109375l-2.46875 8.109375l-1.75 0l-3.21875 -10.21875l1.734375 0l2.359375 8.578125l2.53125 -8.578125l1.734375 0l2.484375 8.59375l2.3125 -8.59375l1.6875 0z" fill-rule="nonzero"/><path fill="#32c8cd" d="m24.17323 54.16798l117.66928 0l0 87.1181l-117.66928 0z" fill-rule="evenodd"/><path stroke="#ffffff" stroke-width="1.0" stroke-linejoin="round" stroke-linecap="butt" d="m24.17323 54.16798l117.66928 0l0 87.1181l-117.66928 0z" fill-rule="evenodd"/><path fill="#ffffff" d="m42.04757 91.64703l0 9.609375q0 1.59375 -1.0 2.5625q-0.984375 0.953125 -2.59375 0.953125q-1.640625 0 -2.640625 -0.96875q-0.984375 -0.984375 -0.984375 -2.6875l1.703125 0q0.015625 0.953125 0.484375 1.5625q0.484375 0.59375 1.4375 0.59375q0.9375 0 1.40625 -0.5625q0.46875 -0.578125 0.46875 -1.453125l0 -9.609375l1.71875 0zm4.2159424 1.109375q-0.484375 0 -0.828125 -0.328125q-0.328125 -0.34375 -0.328125 -0.828125q0 -0.484375 0.328125 -0.8125q0.34375 -0.34375 0.828125 -0.34375q0.46875 0 0.796875 0.34375q0.328125 0.328125 0.328125 0.8125q0 0.484375 -0.328125 0.828125q-0.328125 0.328125 -0.796875 0.328125zm0.828125 1.671875l0 10.21875l-1.703125 0l0 -10.21875l1.703125 0zm7.870682 -0.1875q1.859375 0 3.015625 1.125q1.15625 1.125 1.15625 3.25l0 6.03125l-1.671875 0l0 -5.78125q0 -1.53125 -0.765625 -2.34375q-0.765625 -0.8125 -2.09375 -0.8125q-1.34375 0 -2.140625 0.84375q-0.78125 0.84375 -0.78125 2.4375l0 5.65625l-1.703125 0l0 -10.21875l1.703125 0l0 1.453125q0.5 -0.78125 1.359375 -1.203125q0.875 -0.4375 1.921875 -0.4375zm6.3150024 5.25q0 -1.5625 0.640625 -2.734375q0.640625 -1.1875 1.75 -1.84375q1.109375 -0.65625 2.46875 -0.65625q1.34375 0 2.328125 0.578125q0.984375 0.578125 1.46875 1.453125l0 -1.859375l1.71875 0l0 10.21875l-1.71875 0l0 -1.90625q-0.5 0.90625 -1.5 1.5q-1.0 0.578125 -2.3125 0.578125q-1.375 0 -2.46875 -0.671875q-1.09375 -0.671875 -1.734375 -1.875q-0.640625 -1.21875 -0.640625 -2.78125zm8.65625 0.03125q0 -1.15625 -0.46875 -2.015625q-0.453125 -0.859375 -1.25 -1.3125q-0.796875 -0.46875 -1.75 -0.46875q-0.953125 0 -1.734375 0.453125q-0.78125 0.453125 -1.25 1.3125q-0.46875 0.84375 -0.46875 2.0q0 1.1875 0.46875 2.0625q0.46875 0.859375 1.25 1.3125q0.78125 0.453125 1.734375 0.453125q0.953125 0 1.75 -0.453125q0.796875 -0.453125 1.25 -1.3125q0.46875 -0.875 0.46875 -2.03125zm8.9366 -1.390625q0 -1.890625 0.859375 -3.40625q0.859375 -1.53125 2.34375 -2.390625q1.484375 -0.859375 3.296875 -0.859375q2.125 0 3.703125 1.03125q1.59375 1.015625 2.328125 2.90625l-2.046875 0q-0.53125 -1.171875 -1.546875 -1.796875q-1.015625 -0.640625 -2.4375 -0.640625q-1.359375 0 -2.453125 0.640625q-1.078125 0.625 -1.703125 1.796875q-0.609375 1.15625 -0.609375 2.71875q0 1.546875 0.609375 2.71875q0.625 1.171875 1.703125 1.8125q1.09375 0.625 2.453125 0.625q1.421875 0 2.4375 -0.625q1.015625 -0.625 1.546875 -1.796875l2.046875 0q-0.734375 1.859375 -2.328125 2.875q-1.578125 1.015625 -3.703125 1.015625q-1.8125 0 -3.296875 -0.84375q-1.484375 -0.84375 -2.34375 -2.359375q-0.859375 -1.515625 -0.859375 -3.421875zm16.746384 -7.296875l0 13.8125l-1.703125 0l0 -13.8125l1.703125 0zm3.7613068 1.921875q-0.484375 0 -0.828125 -0.328125q-0.328125 -0.34375 -0.328125 -0.828125q0 -0.484375 0.328125 -0.8125q0.34375 -0.34375 0.828125 -0.34375q0.46875 0 0.796875 0.34375q0.328125 0.328125 0.328125 0.8125q0 0.484375 -0.328125 0.828125q-0.328125 0.328125 -0.796875 0.328125zm0.828125 1.671875l0 10.21875l-1.703125 0l0 -10.21875l1.703125 0zm12.214432 4.71875q0 0.484375 -0.0625 1.015625l-8.171875 0q0.09375 1.515625 1.03125 2.375q0.953125 0.84375 2.296875 0.84375q1.09375 0 1.828125 -0.515625q0.75 -0.515625 1.046875 -1.375l1.828125 0q-0.40625 1.484375 -1.640625 2.40625q-1.234375 0.921875 -3.0625 0.921875q-1.453125 0 -2.609375 -0.65625q-1.140625 -0.65625 -1.796875 -1.859375q-0.65625 -1.203125 -0.65625 -2.78125q0 -1.59375 0.640625 -2.78125q0.640625 -1.203125 1.78125 -1.84375q1.140625 -0.640625 2.640625 -0.640625q1.453125 0 2.5625 0.640625q1.125 0.625 1.734375 1.734375q0.609375 1.109375 0.609375 2.515625zm-1.75 -0.359375q0 -0.96875 -0.4375 -1.671875q-0.421875 -0.703125 -1.171875 -1.0625q-0.734375 -0.359375 -1.625 -0.359375q-1.28125 0 -2.1875 0.828125q-0.90625 0.8125 -1.03125 2.265625l6.453125 0zm8.973129 -4.546875q1.859375 0 3.015625 1.125q1.15625 1.125 1.15625 3.25l0 6.03125l-1.671875 0l0 -5.78125q0 -1.53125 -0.765625 -2.34375q-0.765625 -0.8125 -2.09375 -0.8125q-1.34375 0 -2.140625 0.84375q-0.78125 0.84375 -0.78125 2.4375l0 5.65625l-1.703125 0l0 -10.21875l1.703125 0l0 1.453125q0.5 -0.78125 1.359375 -1.203125q0.875 -0.4375 1.921875 -0.4375zm9.018135 1.578125l0 6.03125q0 0.75 0.3125 1.0625q0.328125 0.296875 1.109375 0.296875l1.25 0l0 1.4375l-1.53125 0q-1.40625 0 -2.1250076 -0.65625q-0.703125 -0.65625 -0.703125 -2.140625l0 -6.03125l-1.328125 0l0 -1.390625l1.328125 0l0 -2.578125l1.6875076 0l0 2.578125l2.671875 0l0 1.390625l-2.671875 0z" fill-rule="nonzero"/><path fill="#e69138" d="m362.1706 103.97642l26.223083 0l0 8.742744l-26.223083 0z" fill-rule="evenodd"/><path fill="#b7732c" d="m388.39368 103.97642l12.233612 -12.233635l0 8.742744l-12.233612 12.233635z" fill-rule="evenodd"/><path fill="#eba75f" d="m362.1706 103.97642l12.233643 -12.233635l26.223053 0l-12.233612 12.233635z" fill-rule="evenodd"/><path fill="#000000" fill-opacity="0.0" d="m362.1706 103.97642l12.233643 -12.233635l26.223053 0l0 8.742744l-12.233612 12.233635l-26.223083 0zm0 0l26.223083 0l12.233612 -12.233635m-12.233612 12.233635l0 8.742744" fill-rule="evenodd"/><path stroke="#000000" stroke-width="1.0" stroke-linejoin="round" stroke-linecap="butt" d="m362.1706 103.97642l12.233643 -12.233635l26.223053 0l0 8.742744l-12.233612 12.233635l-26.223083 0zm0 0l26.223083 0l12.233612 -12.233635m-12.233612 12.233635l0 8.742744" fill-rule="evenodd"/><path fill="#000000" fill-opacity="0.0" d="m329.4147 60.015747l103.968506 0l0 18.362206l-103.968506 0z" fill-rule="evenodd"/><path fill="#000000" d="m344.07095 72.17638l0 0.890625l-3.640625 0l0 2.8125l2.953125 0l0 0.890625l-2.953125 0l0 3.765625l-1.09375 0l0 -8.359375l4.734375 0zm2.4074097 2.84375q0.28125 -0.5625 0.8125 -0.875q0.546875 -0.3125 1.3125 -0.3125l0 1.140625l-0.28125 0q-1.84375 0 -1.84375 1.984375l0 3.578125l-1.09375 0l0 -6.578125l1.09375 0l0 1.0625zm9.382294 1.96875q0 0.3125 -0.03125 0.671875l-5.265625 0q0.0625 0.96875 0.671875 1.515625q0.609375 0.546875 1.46875 0.546875q0.703125 0 1.171875 -0.328125q0.484375 -0.328125 0.671875 -0.890625l1.1875 0q-0.265625 0.953125 -1.0625 1.546875q-0.796875 0.59375 -1.96875 0.59375q-0.9375 0 -1.671875 -0.421875q-0.734375 -0.421875 -1.15625 -1.1875q-0.421875 -0.78125 -0.421875 -1.796875q0 -1.015625 0.40625 -1.78125q0.40625 -0.78125 1.140625 -1.1875q0.75 -0.421875 1.703125 -0.421875q0.9375 0 1.65625 0.40625q0.71875 0.40625 1.109375 1.125q0.390625 0.71875 0.390625 1.609375zm-1.125 -0.21875q0 -0.625 -0.28125 -1.078125q-0.265625 -0.453125 -0.75 -0.6875q-0.46875 -0.234375 -1.046875 -0.234375q-0.828125 0 -1.40625 0.53125q-0.578125 0.53125 -0.671875 1.46875l4.15625 0zm8.565033 0.21875q0 0.3125 -0.03125 0.671875l-5.265625 0q0.0625 0.96875 0.671875 1.515625q0.609375 0.546875 1.46875 0.546875q0.703125 0 1.171875 -0.328125q0.484375 -0.328125 0.671875 -0.890625l1.1875 0q-0.265625 0.953125 -1.0625 1.546875q-0.796875 0.59375 -1.96875 0.59375q-0.9375 0 -1.671875 -0.421875q-0.734375 -0.421875 -1.15625 -1.1875q-0.421875 -0.78125 -0.421875 -1.796875q0 -1.015625 0.40625 -1.78125q0.40625 -0.78125 1.140625 -1.1875q0.75 -0.421875 1.703125 -0.421875q0.9375 0 1.65625 0.40625q0.71875 0.40625 1.109375 1.125q0.390625 0.71875 0.390625 1.609375zm-1.125 -0.21875q0 -0.625 -0.28125 -1.078125q-0.265625 -0.453125 -0.75 -0.6875q-0.46875 -0.234375 -1.046875 -0.234375q-0.828125 0 -1.40625 0.53125q-0.578125 0.53125 -0.671875 1.46875l4.15625 0zm12.1128235 -2.171875q-0.359375 -0.734375 -1.015625 -1.125q-0.65625 -0.40625 -1.53125 -0.40625q-0.875 0 -1.578125 0.40625q-0.703125 0.390625 -1.109375 1.140625q-0.40625 0.75 -0.40625 1.734375q0 0.984375 0.40625 1.734375q0.40625 0.734375 1.109375 1.140625q0.703125 0.40625 1.578125 0.40625q1.21875 0 2.015625 -0.734375q0.796875 -0.734375 0.921875 -1.984375l-3.34375 0l0 -0.890625l4.5 0l0 0.84375q-0.09375 1.03125 -0.640625 1.890625q-0.546875 0.859375 -1.453125 1.359375q-0.90625 0.5 -2.0 0.5q-1.171875 0 -2.140625 -0.546875q-0.953125 -0.546875 -1.515625 -1.515625q-0.546875 -0.984375 -0.546875 -2.203125q0 -1.21875 0.546875 -2.203125q0.5625 -0.984375 1.515625 -1.515625q0.96875 -0.546875 2.140625 -0.546875q1.328125 0 2.34375 0.65625q1.03125 0.65625 1.5 1.859375l-1.296875 0zm8.58606 0.015625q0 1.046875 -0.71875 1.75q-0.703125 0.6875 -2.171875 0.6875l-1.609375 0l0 3.484375l-1.09375 0l0 -8.359375l2.703125 0q1.421875 0 2.15625 0.6875q0.734375 0.671875 0.734375 1.75zm-2.890625 1.53125q0.90625 0 1.34375 -0.390625q0.4375 -0.40625 0.4375 -1.140625q0 -1.546875 -1.78125 -1.546875l-1.609375 0l0 3.078125l1.609375 0zm5.307434 -3.96875l0 5.28125q0 1.125 0.546875 1.671875q0.546875 0.53125 1.53125 0.53125q0.953125 0 1.5 -0.53125q0.546875 -0.546875 0.546875 -1.671875l0 -5.28125l1.09375 0l0 5.28125q0 1.03125 -0.421875 1.75q-0.421875 0.71875 -1.140625 1.0625q-0.703125 0.34375 -1.59375 0.34375q-0.890625 0 -1.609375 -0.34375q-0.703125 -0.34375 -1.125 -1.0625q-0.40625 -0.71875 -0.40625 -1.75l0 -5.28125l1.078125 0zm11.115662 -2.9375l-3.28125 13.34375l-1.078125 0l3.265625 -13.34375l1.09375 0zm6.790161 2.9375l0 0.890625l-2.28125 0l0 7.46875l-1.09375 0l0 -7.46875l-2.296875 0l0 -0.890625l5.671875 0zm6.9295654 2.4375q0 1.046875 -0.71875 1.75q-0.703125 0.6875 -2.171875 0.6875l-1.609375 0l0 3.484375l-1.09375 0l0 -8.359375l2.703125 0q1.421875 0 2.15625 0.6875q0.734375 0.671875 0.734375 1.75zm-2.890625 1.53125q0.90625 0 1.34375 -0.390625q0.4375 -0.40625 0.4375 -1.140625q0 -1.546875 -1.78125 -1.546875l-1.609375 0l0 3.078125l1.609375 0zm5.3074036 -3.96875l0 5.28125q0 1.125 0.546875 1.671875q0.546875 0.53125 1.53125 0.53125q0.953125 0 1.5 -0.53125q0.546875 -0.546875 0.546875 -1.671875l0 -5.28125l1.09375 0l0 5.28125q0 1.03125 -0.421875 1.75q-0.421875 0.71875 -1.140625 1.0625q-0.703125 0.34375 -1.59375 0.34375q-0.890625 0 -1.609375 -0.34375q-0.703125 -0.34375 -1.125 -1.0625q-0.40625 -0.71875 -0.40625 -1.75l0 -5.28125l1.078125 0z" fill-rule="nonzero"/><path fill="#000000" fill-opacity="0.0" d="m141.84251 97.727036l45.732285 0" fill-rule="evenodd"/><path stroke="#000000" stroke-width="1.0" stroke-linejoin="round" stroke-linecap="butt" d="m141.84251 97.727036l42.305206 0" fill-rule="evenodd"/><path fill="#000000" stroke="#000000" stroke-width="1.0" stroke-linecap="butt" d="m184.14772 97.727036l-1.124588 1.1245804l3.0897675 -1.1245804l-3.0897675 -1.124588z" fill-rule="evenodd"/><path fill="#000000" fill-opacity="0.0" d="m187.86351 108.07087l-46.015747 -0.47244263" fill-rule="evenodd"/><path stroke="#000000" stroke-width="1.0" stroke-linejoin="round" stroke-linecap="butt" d="m187.86351 108.07087l-42.588837 -0.43725586" fill-rule="evenodd"/><path fill="#000000" stroke="#000000" stroke-width="1.0" stroke-linecap="butt" d="m145.27467 107.633606l1.1360779 -1.1129761l-3.1011505 1.092804l3.0780487 1.1562424z" fill-rule="evenodd"/><path fill="#000000" fill-opacity="0.0" d="m305.24146 97.06036l56.566956 0" fill-rule="evenodd"/><path stroke="#000000" stroke-width="1.0" stroke-linejoin="round" stroke-linecap="butt" d="m305.24146 97.06036l53.139862 0" fill-rule="evenodd"/><path fill="#000000" stroke="#000000" stroke-width="1.0" stroke-linecap="butt" d="m358.38132 97.06036l-1.1246033 1.124588l3.0897827 -1.124588l-3.0897827 -1.1245804z" fill-rule="evenodd"/><path fill="#ff6666" d="m9.611548 177.70079l162.5197 0l0 150.29921l-162.5197 0z" fill-rule="evenodd"/><path stroke="#ffffff" stroke-width="1.0" stroke-linejoin="round" stroke-linecap="butt" d="m9.611548 177.70079l162.5197 0l0 150.29921l-162.5197 0z" fill-rule="evenodd"/><path fill="#000000" d="m21.752174 203.24579l4.546875 0l0 1.375l-6.25 0l0 -13.0l1.703125 0l0 11.625zm10.809509 1.546875q-1.4375 0 -2.609375 -0.65625q-1.15625 -0.65625 -1.828125 -1.859375q-0.65625 -1.203125 -0.65625 -2.78125q0 -1.578125 0.6875 -2.78125q0.6875 -1.203125 1.859375 -1.84375q1.171875 -0.640625 2.625 -0.640625q1.453125 0 2.625 0.640625q1.1875 0.640625 1.859375 1.84375q0.6875 1.1875 0.6875 2.78125q0 1.578125 -0.703125 2.78125q-0.703125 1.203125 -1.90625 1.859375q-1.1875 0.65625 -2.640625 0.65625zm0 -1.5q0.921875 0 1.71875 -0.421875q0.796875 -0.4375 1.296875 -1.296875q0.5 -0.859375 0.5 -2.078125q0 -1.234375 -0.484375 -2.09375q-0.484375 -0.859375 -1.28125 -1.28125q-0.78125 -0.421875 -1.6875 -0.421875q-0.9375 0 -1.71875 0.421875q-0.765625 0.421875 -1.234375 1.28125q-0.46875 0.859375 -0.46875 2.09375q0 1.25 0.453125 2.109375q0.46875 0.84375 1.234375 1.265625q0.765625 0.421875 1.671875 0.421875zm6.8462524 -3.796875q0 -1.59375 0.640625 -2.765625q0.640625 -1.1875 1.765625 -1.84375q1.125 -0.65625 2.578125 -0.65625q1.890625 0 3.109375 0.921875q1.21875 0.90625 1.609375 2.53125l-1.828125 0q-0.265625 -0.9375 -1.015625 -1.46875q-0.75 -0.546875 -1.875 -0.546875q-1.453125 0 -2.359375 1.0q-0.890625 1.0 -0.890625 2.828125q0 1.84375 0.890625 2.859375q0.90625 1.0 2.359375 1.0q1.125 0 1.859375 -0.515625q0.75 -0.53125 1.03125 -1.5l1.828125 0q-0.40625 1.5625 -1.640625 2.515625q-1.234375 0.9375 -3.078125 0.9375q-1.453125 0 -2.578125 -0.65625q-1.125 -0.65625 -1.765625 -1.84375q-0.640625 -1.203125 -0.640625 -2.796875zm11.324341 -0.03125q0 -1.5625 0.640625 -2.734375q0.640625 -1.1875 1.75 -1.84375q1.109375 -0.65625 2.46875 -0.65625q1.34375 0 2.328125 0.578125q0.984375 0.578125 1.46875 1.453125l0 -1.859375l1.71875 0l0 10.21875l-1.71875 0l0 -1.90625q-0.5 0.90625 -1.5 1.5q-1.0 0.578125 -2.3125 0.578125q-1.375 0 -2.46875 -0.671875q-1.09375 -0.671875 -1.734375 -1.875q-0.640625 -1.21875 -0.640625 -2.78125zm8.65625 0.03125q0 -1.15625 -0.46875 -2.015625q-0.453125 -0.859375 -1.25 -1.3125q-0.796875 -0.46875 -1.75 -0.46875q-0.953125 0 -1.734375 0.453125q-0.78125 0.453125 -1.25 1.3125q-0.46875 0.84375 -0.46875 2.0q0 1.1875 0.46875 2.0625q0.46875 0.859375 1.25 1.3125q0.78125 0.453125 1.734375 0.453125q0.953125 0 1.75 -0.453125q0.796875 -0.453125 1.25 -1.3125q0.46875 -0.875 0.46875 -2.03125zm6.2991333 -8.6875l0 13.8125l-1.703125 0l0 -13.8125l1.703125 0zm9.570648 0l0 13.8125l-1.703125 0l0 -13.8125l1.703125 0zm2.2456818 8.65625q0 -1.5625 0.640625 -2.734375q0.640625 -1.1875 1.75 -1.84375q1.109375 -0.65625 2.46875 -0.65625q1.34375 0 2.328125 0.578125q0.984375 0.578125 1.46875 1.453125l0 -1.859375l1.71875 0l0 10.21875l-1.71875 0l0 -1.90625q-0.5 0.90625 -1.5 1.5q-1.0 0.578125 -2.3125 0.578125q-1.375 0 -2.46875 -0.671875q-1.09375 -0.671875 -1.734375 -1.875q-0.640625 -1.21875 -0.640625 -2.78125zm8.65625 0.03125q0 -1.15625 -0.46875 -2.015625q-0.453125 -0.859375 -1.25 -1.3125q-0.796875 -0.46875 -1.75 -0.46875q-0.953125 0 -1.734375 0.453125q-0.78125 0.453125 -1.25 1.3125q-0.46875 0.84375 -0.46875 2.0q0 1.1875 0.46875 2.0625q0.46875 0.859375 1.25 1.3125q0.78125 0.453125 1.734375 0.453125q0.953125 0 1.75 -0.453125q0.796875 -0.453125 1.25 -1.3125q0.46875 -0.875 0.46875 -2.03125zm6.2991333 -3.21875q0.5 -0.875 1.5 -1.453125q1.0 -0.59375 2.3125 -0.59375q1.375 0 2.484375 0.65625q1.109375 0.65625 1.734375 1.84375q0.640625 1.171875 0.640625 2.734375q0 1.5625 -0.640625 2.78125q-0.625 1.203125 -1.734375 1.875q-1.109375 0.671875 -2.484375 0.671875q-1.296875 0 -2.296875 -0.578125q-1.0 -0.59375 -1.515625 -1.484375l0 6.734375l-1.703125 0l0 -15.0625l1.703125 0l0 1.875zm6.9375 3.1875q0 -1.15625 -0.46875 -2.0q-0.46875 -0.859375 -1.265625 -1.3125q-0.78125 -0.453125 -1.734375 -0.453125q-0.9375 0 -1.734375 0.46875q-0.796875 0.453125 -1.265625 1.328125q-0.46875 0.859375 -0.46875 2.0q0 1.15625 0.46875 2.03125q0.46875 0.859375 1.265625 1.3125q0.796875 0.453125 1.734375 0.453125q0.953125 0 1.734375 -0.453125q0.796875 -0.453125 1.265625 -1.3125q0.46875 -0.875 0.46875 -2.0625zm6.0335083 -3.671875l0 6.03125q0 0.75 0.3125 1.0625q0.328125 0.296875 1.109375 0.296875l1.25 0l0 1.4375l-1.53125 0q-1.40625 0 -2.125 -0.65625q-0.703125 -0.65625 -0.703125 -2.140625l0 -6.03125l-1.328125 0l0 -1.390625l1.328125 0l0 -2.578125l1.6875 0l0 2.578125l2.671875 0l0 1.390625l-2.671875 0zm9.181503 9.0q-1.4375 0 -2.609375 -0.65625q-1.15625 -0.65625 -1.828125 -1.859375q-0.65625 -1.203125 -0.65625 -2.78125q0 -1.578125 0.6875 -2.78125q0.6875 -1.203125 1.859375 -1.84375q1.171875 -0.640625 2.625 -0.640625q1.453125 0 2.625 0.640625q1.1875 0.640625 1.859375 1.84375q0.6875 1.1875 0.6875 2.78125q0 1.578125 -0.703125 2.78125q-0.703125 1.203125 -1.90625 1.859375q-1.1875 0.65625 -2.640625 0.65625zm0 -1.5q0.921875 0 1.71875 -0.421875q0.796875 -0.4375 1.296875 -1.296875q0.5 -0.859375 0.5 -2.078125q0 -1.234375 -0.484375 -2.09375q-0.484375 -0.859375 -1.28125 -1.28125q-0.78125 -0.421875 -1.6875 -0.421875q-0.9375 0 -1.71875 0.421875q-0.765625 0.421875 -1.234375 1.28125q-0.46875 0.859375 -0.46875 2.09375q0 1.25 0.453125 2.109375q0.46875 0.84375 1.234375 1.265625q0.765625 0.421875 1.671875 0.421875zm9.190002 -7.015625q0.5 -0.875 1.5 -1.453125q1.0 -0.59375 2.3125 -0.59375q1.3749924 0 2.4843674 0.65625q1.109375 0.65625 1.734375 1.84375q0.640625 1.171875 0.640625 2.734375q0 1.5625 -0.640625 2.78125q-0.625 1.203125 -1.734375 1.875q-1.109375 0.671875 -2.4843674 0.671875q-1.296875 0 -2.296875 -0.578125q-1.0 -0.59375 -1.515625 -1.484375l0 6.734375l-1.703125 0l0 -15.0625l1.703125 0l0 1.875zm6.9374924 3.1875q0 -1.15625 -0.46875 -2.0q-0.46875 -0.859375 -1.265625 -1.3125q-0.78125 -0.453125 -1.7343674 -0.453125q-0.9375 0 -1.734375 0.46875q-0.796875 0.453125 -1.265625 1.328125q-0.46875 0.859375 -0.46875 2.0q0 1.15625 0.46875 2.03125q0.46875 0.859375 1.265625 1.3125q0.796875 0.453125 1.734375 0.453125q0.9531174 0 1.7343674 -0.453125q0.796875 -0.453125 1.265625 -1.3125q0.46875 -0.875 0.46875 -2.0625z" fill-rule="nonzero"/><path fill="#000000" fill-opacity="0.0" d="m362.1706 107.4042l-56.91336 -0.47244263" fill-rule="evenodd"/><path stroke="#000000" stroke-width="1.0" stroke-linejoin="round" stroke-linecap="butt" d="m362.1706 107.4042l-53.48642 -0.443985" fill-rule="evenodd"/><path fill="#000000" stroke="#000000" stroke-width="1.0" stroke-linecap="butt" d="m308.68417 106.960205l1.1338806 -1.1152115l-3.098999 1.0988998l3.0803528 1.1501923z" fill-rule="evenodd"/><path fill="#32c8cd" d="m31.165354 222.99738l117.66929 0l0 87.1181l-117.66929 0z" fill-rule="evenodd"/><path stroke="#ffffff" stroke-width="1.0" stroke-linejoin="round" stroke-linecap="butt" d="m31.165354 222.99738l117.66929 0l0 87.1181l-117.66929 0z" fill-rule="evenodd"/><path fill="#ffffff" d="m51.059677 242.26018l0 8.25q0 1.375 -0.84375 2.203125q-0.84375 0.8125 -2.234375 0.8125q-1.40625 0 -2.265625 -0.828125q-0.84375 -0.84375 -0.84375 -2.3125l1.453125 0q0.015625 0.828125 0.421875 1.34375q0.40625 0.5 1.234375 0.5q0.8125 0 1.203125 -0.484375q0.40625 -0.484375 0.40625 -1.234375l0 -8.25l1.46875 0zm3.620636 0.96875q-0.421875 0 -0.71875 -0.28125q-0.28125 -0.296875 -0.28125 -0.71875q0 -0.40625 0.28125 -0.6875q0.296875 -0.296875 0.71875 -0.296875q0.40625 0 0.671875 0.296875q0.28125 0.28125 0.28125 0.6875q0 0.421875 -0.28125 0.71875q-0.265625 0.28125 -0.671875 0.28125zm0.703125 1.421875l0 8.765625l-1.453125 0l0 -8.765625l1.453125 0zm6.7485046 -0.15625q1.609375 0 2.59375 0.96875q1.0 0.96875 1.0 2.78125l0 5.171875l-1.453125 0l0 -4.953125q0 -1.3125 -0.65625 -2.0q-0.640625 -0.703125 -1.78125 -0.703125q-1.15625 0 -1.84375 0.71875q-0.671875 0.71875 -0.671875 2.09375l0 4.84375l-1.453125 0l0 -8.765625l1.453125 0l0 1.25q0.4375 -0.671875 1.171875 -1.03125q0.75 -0.375 1.640625 -0.375zm5.4275208 4.5q0 -1.34375 0.546875 -2.359375q0.546875 -1.015625 1.5 -1.5625q0.953125 -0.5625 2.109375 -0.5625q1.15625 0 2.0 0.5q0.859375 0.484375 1.265625 1.234375l0 -1.59375l1.46875 0l0 8.765625l-1.46875 0l0 -1.625q-0.421875 0.765625 -1.28125 1.265625q-0.859375 0.5 -2.0 0.5q-1.171875 0 -2.109375 -0.578125q-0.9375 -0.578125 -1.484375 -1.609375q-0.546875 -1.046875 -0.546875 -2.375zm7.421875 0.015625q0 -0.984375 -0.40625 -1.71875q-0.390625 -0.734375 -1.078125 -1.125q-0.671875 -0.390625 -1.484375 -0.390625q-0.828125 0 -1.5 0.390625q-0.671875 0.375 -1.078125 1.109375q-0.390625 0.734375 -0.390625 1.71875q0 1.015625 0.390625 1.765625q0.40625 0.734375 1.078125 1.125q0.671875 0.390625 1.5 0.390625q0.8125 0 1.484375 -0.390625q0.6875 -0.390625 1.078125 -1.125q0.40625 -0.75 0.40625 -1.75zm7.666153 -1.171875q0 -1.640625 0.734375 -2.9375q0.734375 -1.3125 2.0 -2.046875q1.28125 -0.734375 2.828125 -0.734375q1.828125 0 3.1875 0.890625q1.359375 0.875 1.984375 2.484375l-1.734375 0q-0.46875 -1.0 -1.34375 -1.546875q-0.875 -0.546875 -2.09375 -0.546875q-1.15625 0 -2.09375 0.546875q-0.921875 0.546875 -1.453125 1.546875q-0.53125 1.0 -0.53125 2.34375q0 1.328125 0.53125 2.328125q0.53125 1.0 1.453125 1.546875q0.9375 0.53125 2.09375 0.53125q1.21875 0 2.09375 -0.53125q0.875 -0.53125 1.34375 -1.546875l1.734375 0q-0.625 1.609375 -1.984375 2.484375q-1.359375 0.859375 -3.1875 0.859375q-1.546875 0 -2.828125 -0.71875q-1.265625 -0.734375 -2.0 -2.03125q-0.734375 -1.296875 -0.734375 -2.921875zm14.352013 -6.265625l0 11.84375l-1.453125 0l0 -11.84375l1.453125 0zm3.2328796 1.65625q-0.421875 0 -0.71875 -0.28125q-0.28125 -0.296875 -0.28125 -0.71875q0 -0.40625 0.28125 -0.6875q0.296875 -0.296875 0.71875 -0.296875q0.40625 0 0.671875 0.296875q0.28125 0.28125 0.28125 0.6875q0 0.421875 -0.28125 0.71875q-0.265625 0.28125 -0.671875 0.28125zm0.703125 1.421875l0 8.765625l-1.453125 0l0 -8.765625l1.453125 0zm10.48288 4.046875q0 0.421875 -0.046875 0.875l-7.015625 0q0.078125 1.296875 0.890625 2.03125q0.8125 0.71875 1.96875 0.71875q0.9375 0 1.5625 -0.4375q0.640625 -0.4375 0.890625 -1.171875l1.578125 0q-0.359375 1.265625 -1.421875 2.0625q-1.046875 0.78125 -2.609375 0.78125q-1.25 0 -2.234375 -0.546875q-0.984375 -0.5625 -1.546875 -1.59375q-0.5625 -1.046875 -0.5625 -2.40625q0 -1.359375 0.546875 -2.375q0.546875 -1.03125 1.53125 -1.578125q0.984375 -0.546875 2.265625 -0.546875q1.234375 0 2.1875 0.546875q0.96875 0.53125 1.484375 1.484375q0.53125 0.953125 0.53125 2.15625zm-1.5 -0.3125q0 -0.828125 -0.375 -1.421875q-0.375 -0.609375 -1.0 -0.921875q-0.625 -0.3125 -1.40625 -0.3125q-1.09375 0 -1.875 0.71875q-0.78125 0.703125 -0.890625 1.9375l5.546875 0zm7.6856384 -3.890625q1.609375 0 2.59375 0.96875q1.0 0.96875 1.0 2.78125l0 5.171875l-1.453125 0l0 -4.953125q0 -1.3125 -0.65625 -2.0q-0.640625 -0.703125 -1.78125 -0.703125q-1.15625 0 -1.84375 0.71875q-0.671875 0.71875 -0.671875 2.09375l0 4.84375l-1.453125 0l0 -8.765625l1.453125 0l0 1.25q0.4375 -0.671875 1.171875 -1.03125q0.75 -0.375 1.640625 -0.375zm7.7556458 1.359375l0 5.15625q0 0.640625 0.265625 0.90625q0.265625 0.265625 0.9375 0.265625l1.078125 0l0 1.234375l-1.3125 0q-1.21875 0 -1.828125 -0.5625q-0.609375 -0.5625 -0.609375 -1.84375l0 -5.15625l-1.125 0l0 -1.203125l1.125 0l0 -2.203125l1.46875 0l0 2.203125l2.28125 0l0 1.203125l-2.28125 0zm9.480263 -7.515625l-4.390625 17.79689l-1.4375 0l4.375 -17.79689l1.453125 0z" fill-rule="nonzero"/><path fill="#ffffff" d="m51.18766 261.2602l0 8.25q0 1.375 -0.84375 2.203125q-0.84375 0.8125 -2.234375 0.8125q-1.40625 0 -2.265625 -0.828125q-0.84375 -0.84375 -0.84375 -2.3125l1.453125 0q0.015625 0.828125 0.421875 1.34375q0.40625 0.5 1.234375 0.5q0.8125 0 1.203125 -0.484375q0.40625 -0.484375 0.40625 -1.234375l0 -8.25l1.46875 0zm2.323761 6.734375q0 -1.34375 0.546875 -2.359375q0.546875 -1.015625 1.5 -1.5625q0.953125 -0.5625 2.109375 -0.5625q1.15625 0 2.0 0.5q0.859375 0.484375 1.265625 1.234375l0 -1.59375l1.46875 0l0 8.765625l-1.46875 0l0 -1.625q-0.421875 0.765625 -1.28125 1.265625q-0.859375 0.5 -2.0 0.5q-1.171875 0 -2.109375 -0.578125q-0.9375 -0.578125 -1.484375 -1.609375q-0.546875 -1.046875 -0.546875 -2.375zm7.421875 0.015625q0 -0.984375 -0.40625 -1.71875q-0.390625 -0.734375 -1.078125 -1.125q-0.671875 -0.390625 -1.484375 -0.390625q-0.828125 0 -1.5 0.390625q-0.671875 0.375 -1.078125 1.109375q-0.390625 0.734375 -0.390625 1.71875q0 1.015625 0.390625 1.765625q0.40625 0.734375 1.078125 1.125q0.671875 0.390625 1.5 0.390625q0.8125 0 1.484375 -0.390625q0.6875 -0.390625 1.078125 -1.125q0.40625 -0.75 0.40625 -1.75zm7.20665 3.0625l2.71875 -7.421875l1.546875 0l-3.4375 8.765625l-1.703125 0l-3.4375 -8.765625l1.578125 0l2.734375 7.421875zm5.163513 -3.078125q0 -1.34375 0.546875 -2.359375q0.546875 -1.015625 1.5 -1.5625q0.953125 -0.5625 2.109375 -0.5625q1.15625 0 2.0 0.5q0.859375 0.484375 1.265625 1.234375l0 -1.59375l1.46875 0l0 8.765625l-1.46875 0l0 -1.625q-0.421875 0.765625 -1.28125 1.265625q-0.859375 0.5 -2.0 0.5q-1.171875 0 -2.109375 -0.578125q-0.9375 -0.578125 -1.484375 -1.609375q-0.546875 -1.046875 -0.546875 -2.375zm7.421875 0.015625q0 -0.984375 -0.40625 -1.71875q-0.390625 -0.734375 -1.078125 -1.125q-0.671875 -0.390625 -1.484375 -0.390625q-0.828125 0 -1.5 0.390625q-0.671875 0.375 -1.078125 1.109375q-0.390625 0.734375 -0.390625 1.71875q0 1.015625 0.390625 1.765625q0.40625 0.734375 1.078125 1.125q0.671875 0.390625 1.5 0.390625q0.8125 0 1.484375 -0.390625q0.6875 -0.390625 1.078125 -1.125q0.40625 -0.75 0.40625 -1.75zm7.0504 4.546875q-1.015625 0 -1.8125 -0.34375q-0.796875 -0.34375 -1.265625 -0.953125q-0.46875 -0.625 -0.515625 -1.421875l1.5 0q0.0625 0.65625 0.609375 1.078125q0.5625 0.40625 1.453125 0.40625q0.84375 0 1.3125 -0.359375q0.484375 -0.375 0.484375 -0.9375q0 -0.5625 -0.515625 -0.84375q-0.5 -0.28125 -1.578125 -0.5625q-0.96875 -0.25 -1.59375 -0.515625q-0.609375 -0.265625 -1.0625 -0.78125q-0.4375 -0.515625 -0.4375 -1.375q0 -0.671875 0.40625 -1.21875q0.40625 -0.5625 1.140625 -0.890625q0.734375 -0.328125 1.671875 -0.328125q1.453125 0 2.34375 0.734375q0.90625 0.734375 0.96875 2.015625l-1.453125 0q-0.046875 -0.6875 -0.5625 -1.109375q-0.5 -0.421875 -1.34375 -0.421875q-0.78125 0 -1.25 0.34375q-0.453125 0.328125 -0.453125 0.875q0 0.4375 0.265625 0.71875q0.28125 0.28125 0.703125 0.453125q0.4375 0.15625 1.1875 0.375q0.9375 0.25 1.53125 0.5q0.59375 0.25 1.015625 0.75q0.421875 0.484375 0.4375 1.28125q0 0.734375 -0.40625 1.3125q-0.390625 0.5625 -1.125 0.890625q-0.71875 0.328125 -1.65625 0.328125zm4.6957703 -4.546875q0 -1.359375 0.546875 -2.375q0.546875 -1.015625 1.515625 -1.5625q0.96875 -0.5625 2.203125 -0.5625q1.625 0 2.671875 0.78125q1.046875 0.78125 1.390625 2.171875l-1.578125 0q-0.21875 -0.796875 -0.875 -1.265625q-0.640625 -0.46875 -1.609375 -0.46875q-1.234375 0 -2.015625 0.859375q-0.765625 0.859375 -0.765625 2.421875q0 1.59375 0.765625 2.453125q0.78125 0.859375 2.015625 0.859375q0.96875 0 1.609375 -0.4375q0.640625 -0.453125 0.875 -1.28125l1.578125 0q-0.359375 1.34375 -1.421875 2.15625q-1.046875 0.796875 -2.640625 0.796875q-1.234375 0 -2.203125 -0.546875q-0.96875 -0.5625 -1.515625 -1.59375q-0.546875 -1.03125 -0.546875 -2.40625zm11.712021 -2.9375q0.390625 -0.75 1.09375 -1.15625q0.71875 -0.421875 1.734375 -0.421875l0 1.5l-0.375 0q-2.453125 0 -2.453125 2.65625l0 4.765625l-1.453125 0l0 -8.765625l1.453125 0l0 1.421875zm5.2648926 -2.84375q-0.421875 0 -0.71875 -0.28125q-0.28125 -0.296875 -0.28125 -0.71875q0 -0.40625 0.28125 -0.6875q0.296875 -0.296875 0.71875 -0.296875q0.40625 0 0.671875 0.296875q0.28125 0.28125 0.28125 0.6875q0 0.421875 -0.28125 0.71875q-0.265625 0.28125 -0.671875 0.28125zm0.703125 1.421875l0 8.765625l-1.453125 0l0 -8.765625l1.453125 0zm3.9360046 1.609375q0.4375 -0.75 1.28125 -1.25q0.859375 -0.5 2.0 -0.5q1.171875 0 2.125 0.5625q0.953125 0.546875 1.484375 1.5625q0.546875 1.015625 0.546875 2.359375q0 1.328125 -0.546875 2.375q-0.53125 1.03125 -1.484375 1.609375q-0.953125 0.578125 -2.125 0.578125q-1.125 0 -1.984375 -0.5q-0.84375 -0.5 -1.296875 -1.25l0 5.765625l-1.453125 0l0 -12.921875l1.453125 0l0 1.609375zm5.953125 2.734375q0 -0.984375 -0.40625 -1.71875q-0.390625 -0.734375 -1.078125 -1.109375q-0.671875 -0.390625 -1.5 -0.390625q-0.796875 0 -1.484375 0.390625q-0.671875 0.390625 -1.078125 1.140625q-0.40625 0.734375 -0.40625 1.703125q0 1.0 0.40625 1.75q0.40625 0.734375 1.078125 1.125q0.6875 0.390625 1.484375 0.390625q0.828125 0 1.5 -0.390625q0.6875 -0.390625 1.078125 -1.125q0.40625 -0.75 0.40625 -1.765625zm5.191025 -3.140625l0 5.15625q0 0.640625 0.265625 0.90625q0.265625 0.265625 0.9375 0.265625l1.078125 0l0 1.234375l-1.3125 0q-1.21875 0 -1.828125 -0.5625q-0.609375 -0.5625 -0.609375 -1.84375l0 -5.15625l-1.125 0l0 -1.203125l1.125 0l0 -2.203125l1.46875 0l0 2.203125l2.28125 0l0 1.203125l-2.28125 0zm9.480263 -7.515625l-4.390625 17.796875l-1.4375 0l4.375 -17.796875l1.453125 0z" fill-rule="nonzero"/><path fill="#ffffff" d="m74.43947 285.8383q0 -1.640625 0.734375 -2.9375q0.734375 -1.3125 2.0 -2.046875q1.28125 -0.734375 2.828125 -0.734375q1.828125 0 3.1875 0.890625q1.359375 0.875 1.984375 2.484375l-1.734375 0q-0.46875 -1.0 -1.34375 -1.546875q-0.875 -0.546875 -2.09375 -0.546875q-1.15625 0 -2.09375 0.546875q-0.921875 0.546875 -1.453125 1.546875q-0.53125 1.0 -0.53125 2.34375q0 1.328125 0.53125 2.328125q0.53125 1.0 1.453125 1.546875q0.9375 0.53125 2.09375 0.53125q1.21875 0 2.09375 -0.53125q0.875 -0.53125 1.34375 -1.546875l1.734375 0q-0.625 1.609375 -1.984375 2.484375q-1.359375 0.859375 -3.1875 0.859375q-1.546875 0 -2.828125 -0.71875q-1.265625 -0.734375 -2.0 -2.03125q-0.734375 -1.296875 -0.734375 -2.921875zm20.680145 -3.1875l0 8.765625l-1.46875 0l0 -1.296875q-0.40625 0.671875 -1.15625 1.046875q-0.75 0.375 -1.640625 0.375q-1.015625 0 -1.84375 -0.421875q-0.8125 -0.421875 -1.28125 -1.265625q-0.46875 -0.859375 -0.46875 -2.0625l0 -5.140625l1.4375 0l0 4.9375q0 1.296875 0.65625 2.0q0.65625 0.6875 1.796875 0.6875q1.15625 0 1.828125 -0.71875q0.671875 -0.71875 0.671875 -2.09375l0 -4.8125l1.46875 0zm3.9118881 1.421875q0.390625 -0.75 1.09375 -1.15625q0.71875 -0.421875 1.734375 -0.421875l0 1.5l-0.375 0q-2.453125 0 -2.453125 2.65625l0 4.765625l-1.453125 0l0 -8.765625l1.453125 0l0 1.421875zm5.9680176 -4.5l0 11.84375l-1.453125 0l0 -11.84375l1.453125 0z" fill-rule="nonzero"/><path fill="#32c8cd" d="m204.50394 225.29134l117.66928 0l0 87.11812l-117.66928 0z" fill-rule="evenodd"/><path stroke="#ffffff" stroke-width="1.0" stroke-linejoin="round" stroke-linecap="butt" d="m204.50394 225.29134l117.66928 0l0 87.11812l-117.66928 0z" fill-rule="evenodd"/><path fill="#ffffff" d="m228.70274 262.7704l0 9.609375q0 1.59375 -1.0 2.5625q-0.984375 0.953125 -2.59375 0.953125q-1.640625 0 -2.640625 -0.96875q-0.984375 -0.984375 -0.984375 -2.6875l1.703125 0q0.015625 0.953125 0.484375 1.5625q0.484375 0.59375 1.4375 0.59375q0.9375 0 1.40625 -0.5625q0.46875 -0.578125 0.46875 -1.453125l0 -9.609375l1.71875 0zm4.2159424 1.109375q-0.484375 0 -0.828125 -0.328125q-0.328125 -0.34375 -0.328125 -0.828125q0 -0.484375 0.328125 -0.8125q0.34375 -0.34375 0.828125 -0.34375q0.46875 0 0.796875 0.34375q0.328125 0.328125 0.328125 0.8125q0 0.484375 -0.328125 0.828125q-0.328125 0.328125 -0.796875 0.328125zm0.828125 1.671875l0 10.21875l-1.703125 0l0 -10.21875l1.703125 0zm7.870682 -0.1875q1.859375 0 3.015625 1.125q1.15625 1.125 1.15625 3.25l0 6.03125l-1.671875 0l0 -5.78125q0 -1.53125 -0.765625 -2.34375q-0.765625 -0.8125 -2.09375 -0.8125q-1.34375 0 -2.140625 0.84375q-0.78125 0.84375 -0.78125 2.4375l0 5.65625l-1.703125 0l0 -10.21875l1.703125 0l0 1.453125q0.5 -0.78125 1.359375 -1.203125q0.875 -0.4375 1.921875 -0.4375zm6.3150024 5.25q0 -1.5625 0.640625 -2.734375q0.640625 -1.1875 1.75 -1.84375q1.109375 -0.65625 2.46875 -0.65625q1.34375 0 2.328125 0.578125q0.984375 0.578125 1.46875 1.453125l0 -1.859375l1.71875 0l0 10.21875l-1.71875 0l0 -1.90625q-0.5 0.90625 -1.5 1.5q-1.0 0.578125 -2.3125 0.578125q-1.375 0 -2.46875 -0.671875q-1.09375 -0.671875 -1.734375 -1.875q-0.640625 -1.21875 -0.640625 -2.78125zm8.65625 0.03125q0 -1.15625 -0.46875 -2.015625q-0.453125 -0.859375 -1.25 -1.3125q-0.796875 -0.46875 -1.75 -0.46875q-0.953125 0 -1.734375 0.453125q-0.78125 0.453125 -1.25 1.3125q-0.46875 0.84375 -0.46875 2.0q0 1.1875 0.46875 2.0625q0.46875 0.859375 1.25 1.3125q0.78125 0.453125 1.734375 0.453125q0.953125 0 1.75 -0.453125q0.796875 -0.453125 1.25 -1.3125q0.46875 -0.875 0.46875 -2.03125zm16.92099 -7.875l0 1.375l-5.640625 0l0 4.390625l4.578125 0l0 1.375l-4.578125 0l0 5.859375l-1.703125 0l0 -13.0l7.34375 0zm3.7621155 -0.8125l0 13.8125l-1.703125 0l0 -13.8125l1.703125 0zm7.339447 13.984375q-1.4375 0 -2.609375 -0.65625q-1.15625 -0.65625 -1.828125 -1.859375q-0.65625 -1.203125 -0.65625 -2.78125q0 -1.578125 0.6875 -2.78125q0.6875 -1.203125 1.859375 -1.84375q1.171875 -0.640625 2.625 -0.640625q1.453125 0 2.625 0.640625q1.1875 0.640625 1.859375 1.84375q0.6875 1.1875 0.6875 2.78125q0 1.578125 -0.703125 2.78125q-0.703125 1.203125 -1.90625 1.859375q-1.1875 0.65625 -2.640625 0.65625zm0 -1.5q0.921875 0 1.71875 -0.421875q0.796875 -0.4375 1.296875 -1.296875q0.5 -0.859375 0.5 -2.078125q0 -1.234375 -0.484375 -2.09375q-0.484375 -0.859375 -1.28125 -1.28125q-0.78125 -0.421875 -1.6875 -0.421875q-0.9375 0 -1.71875 0.421875q-0.765625 0.421875 -1.234375 1.28125q-0.46875 0.859375 -0.46875 2.09375q0 1.25 0.453125 2.109375q0.46875 0.84375 1.234375 1.265625q0.765625 0.421875 1.671875 0.421875zm21.111877 -8.890625l-3.203125 10.21875l-1.75 0l-2.453125 -8.109375l-2.46875 8.109375l-1.75 0l-3.21875 -10.21875l1.734375 0l2.359375 8.578125l2.53125 -8.578125l1.734375 0l2.484375 8.59375l2.3125 -8.59375l1.6875 0z" fill-rule="nonzero"/><path fill="#e69138" d="m379.10236 267.09976l26.223053 0l0 8.742767l-26.223053 0z" fill-rule="evenodd"/><path fill="#b7732c" d="m405.3254 267.09976l12.233643 -12.233627l0 8.742752l-12.233643 12.233643z" fill-rule="evenodd"/><path fill="#eba75f" d="m379.10236 267.09976l12.233643 -12.233627l26.223053 0l-12.233643 12.233627z" fill-rule="evenodd"/><path fill="#000000" fill-opacity="0.0" d="m379.10236 267.09976l12.233643 -12.233627l26.223053 0l0 8.742752l-12.233643 12.233643l-26.223053 0zm0 0l26.223053 0l12.233643 -12.233627m-12.233643 12.233627l0 8.742767" fill-rule="evenodd"/><path stroke="#000000" stroke-width="1.0" stroke-linejoin="round" stroke-linecap="butt" d="m379.10236 267.09976l12.233643 -12.233627l26.223053 0l0 8.742752l-12.233643 12.233643l-26.223053 0zm0 0l26.223053 0l12.233643 -12.233627m-12.233643 12.233627l0 8.742767" fill-rule="evenodd"/><path fill="#000000" fill-opacity="0.0" d="m346.34647 223.13911l103.968506 0l0 18.362198l-103.968506 0z" fill-rule="evenodd"/><path fill="#000000" d="m361.00272 235.29973l0 0.890625l-3.640625 0l0 2.8125l2.953125 0l0 0.890625l-2.953125 0l0 3.765625l-1.09375 0l0 -8.359375l4.734375 0zm2.4074097 2.84375q0.28125 -0.5625 0.8125 -0.875q0.546875 -0.3125 1.3125 -0.3125l0 1.140625l-0.28125 0q-1.84375 0 -1.84375 1.984375l0 3.578125l-1.09375 0l0 -6.578125l1.09375 0l0 1.0625zm9.382294 1.96875q0 0.3125 -0.03125 0.671875l-5.265625 0q0.0625 0.96875 0.671875 1.515625q0.609375 0.546875 1.46875 0.546875q0.703125 0 1.171875 -0.328125q0.484375 -0.328125 0.671875 -0.890625l1.1875 0q-0.265625 0.953125 -1.0625 1.546875q-0.796875 0.59375 -1.96875 0.59375q-0.9375 0 -1.671875 -0.421875q-0.734375 -0.421875 -1.15625 -1.1875q-0.421875 -0.78125 -0.421875 -1.796875q0 -1.015625 0.40625 -1.78125q0.40625 -0.78125 1.140625 -1.1875q0.75 -0.421875 1.703125 -0.421875q0.9375 0 1.65625 0.40625q0.71875 0.40625 1.109375 1.125q0.390625 0.71875 0.390625 1.609375zm-1.125 -0.21875q0 -0.625 -0.28125 -1.078125q-0.265625 -0.453125 -0.75 -0.6875q-0.46875 -0.234375 -1.046875 -0.234375q-0.828125 0 -1.40625 0.53125q-0.578125 0.53125 -0.671875 1.46875l4.15625 0zm8.565033 0.21875q0 0.3125 -0.03125 0.671875l-5.265625 0q0.0625 0.96875 0.671875 1.515625q0.609375 0.546875 1.46875 0.546875q0.703125 0 1.171875 -0.328125q0.484375 -0.328125 0.671875 -0.890625l1.1875 0q-0.265625 0.953125 -1.0625 1.546875q-0.796875 0.59375 -1.96875 0.59375q-0.9375 0 -1.671875 -0.421875q-0.734375 -0.421875 -1.15625 -1.1875q-0.421875 -0.78125 -0.421875 -1.796875q0 -1.015625 0.40625 -1.78125q0.40625 -0.78125 1.140625 -1.1875q0.75 -0.421875 1.703125 -0.421875q0.9375 0 1.65625 0.40625q0.71875 0.40625 1.109375 1.125q0.390625 0.71875 0.390625 1.609375zm-1.125 -0.21875q0 -0.625 -0.28125 -1.078125q-0.265625 -0.453125 -0.75 -0.6875q-0.46875 -0.234375 -1.046875 -0.234375q-0.828125 0 -1.40625 0.53125q-0.578125 0.53125 -0.671875 1.46875l4.15625 0zm12.1128235 -2.171875q-0.359375 -0.734375 -1.015625 -1.125q-0.65625 -0.40625 -1.53125 -0.40625q-0.875 0 -1.578125 0.40625q-0.703125 0.390625 -1.109375 1.140625q-0.40625 0.75 -0.40625 1.734375q0 0.984375 0.40625 1.734375q0.40625 0.734375 1.109375 1.140625q0.703125 0.40625 1.578125 0.40625q1.21875 0 2.015625 -0.734375q0.796875 -0.734375 0.921875 -1.984375l-3.34375 0l0 -0.890625l4.5 0l0 0.84375q-0.09375 1.03125 -0.640625 1.890625q-0.546875 0.859375 -1.453125 1.359375q-0.90625 0.5 -2.0 0.5q-1.171875 0 -2.140625 -0.546875q-0.953125 -0.546875 -1.515625 -1.515625q-0.546875 -0.984375 -0.546875 -2.203125q0 -1.21875 0.546875 -2.203125q0.5625 -0.984375 1.515625 -1.515625q0.96875 -0.546875 2.140625 -0.546875q1.328125 0 2.34375 0.65625q1.03125 0.65625 1.5 1.859375l-1.296875 0zm8.58606 0.015625q0 1.046875 -0.71875 1.75q-0.703125 0.6875 -2.171875 0.6875l-1.609375 0l0 3.484375l-1.09375 0l0 -8.359375l2.703125 0q1.421875 0 2.15625 0.6875q0.734375 0.671875 0.734375 1.75zm-2.890625 1.53125q0.90625 0 1.34375 -0.390625q0.4375 -0.40625 0.4375 -1.140625q0 -1.546875 -1.78125 -1.546875l-1.609375 0l0 3.078125l1.609375 0zm5.307434 -3.96875l0 5.28125q0 1.125 0.546875 1.671875q0.546875 0.53125 1.53125 0.53125q0.953125 0 1.5 -0.53125q0.546875 -0.546875 0.546875 -1.671875l0 -5.28125l1.09375 0l0 5.28125q0 1.03125 -0.421875 1.75q-0.421875 0.71875 -1.140625 1.0625q-0.703125 0.34375 -1.59375 0.34375q-0.890625 0 -1.609375 -0.34375q-0.703125 -0.34375 -1.125 -1.0625q-0.40625 -0.71875 -0.40625 -1.75l0 -5.28125l1.078125 0zm11.115662 -2.9375l-3.28125 13.34375l-1.078125 0l3.265625 -13.34375l1.09375 0zm6.790161 2.9375l0 0.890625l-2.28125 0l0 7.46875l-1.09375 0l0 -7.46875l-2.296875 0l0 -0.890625l5.671875 0zm6.9295654 2.4375q0 1.046875 -0.71875 1.75q-0.703125 0.6875 -2.171875 0.6875l-1.609375 0l0 3.484375l-1.09375 0l0 -8.359375l2.703125 0q1.421875 0 2.15625 0.6875q0.734375 0.671875 0.734375 1.75zm-2.890625 1.53125q0.90625 0 1.34375 -0.390625q0.4375 -0.40625 0.4375 -1.140625q0 -1.546875 -1.78125 -1.546875l-1.609375 0l0 3.078125l1.609375 0zm5.3074036 -3.96875l0 5.28125q0 1.125 0.546875 1.671875q0.546875 0.53125 1.53125 0.53125q0.953125 0 1.5 -0.53125q0.546875 -0.546875 0.546875 -1.671875l0 -5.28125l1.09375 0l0 5.28125q0 1.03125 -0.421875 1.75q-0.421875 0.71875 -1.140625 1.0625q-0.703125 0.34375 -1.59375 0.34375q-0.890625 0 -1.609375 -0.34375q-0.703125 -0.34375 -1.125 -1.0625q-0.40625 -0.71875 -0.40625 -1.75l0 -5.28125l1.078125 0z" fill-rule="nonzero"/><path fill="#000000" fill-opacity="0.0" d="m322.17322 260.18372l56.566925 0" fill-rule="evenodd"/><path stroke="#000000" stroke-width="1.0" stroke-linejoin="round" stroke-linecap="butt" d="m322.17322 260.18372l53.139862 0" fill-rule="evenodd"/><path fill="#000000" stroke="#000000" stroke-width="1.0" stroke-linecap="butt" d="m375.31308 260.18372l-1.1246033 1.1246033l3.0897827 -1.1246033l-3.0897827 -1.1245728z" fill-rule="evenodd"/><path fill="#000000" fill-opacity="0.0" d="m379.10236 270.52756l-56.91339 -0.47244263" fill-rule="evenodd"/><path stroke="#000000" stroke-width="1.0" stroke-linejoin="round" stroke-linecap="butt" d="m379.10236 270.52756l-53.48642 -0.44400024" fill-rule="evenodd"/><path fill="#000000" stroke="#000000" stroke-width="1.0" stroke-linecap="butt" d="m325.61594 270.08356l1.1338806 -1.1152039l-3.098999 1.0989075l3.0803223 1.150177z" fill-rule="evenodd"/><path fill="#000000" fill-opacity="0.0" d="m148.83464 257.8399l56.53543 0" fill-rule="evenodd"/><path stroke="#000000" stroke-width="1.0" stroke-linejoin="round" stroke-linecap="butt" d="m148.83464 257.8399l53.108353 0" fill-rule="evenodd"/><path fill="#000000" stroke="#000000" stroke-width="1.0" stroke-linecap="butt" d="m201.943 257.8399l-1.124588 1.1245728l3.0897675 -1.1245728l-3.0897675 -1.1246033z" fill-rule="evenodd"/><path fill="#000000" fill-opacity="0.0" d="m205.74803 268.18372l-56.91339 -0.47244263" fill-rule="evenodd"/><path stroke="#000000" stroke-width="1.0" stroke-linejoin="round" stroke-linecap="butt" d="m205.74803 268.18372l-53.48642 -0.44400024" fill-rule="evenodd"/><path fill="#000000" stroke="#000000" stroke-width="1.0" stroke-linecap="butt" d="m152.26161 267.73975l1.1338806 -1.1152344l-3.098999 1.0989075l3.0803375 1.1502075z" fill-rule="evenodd"/></g></svg>