<?xml version="1.0" encoding="UTF-8"?>
<svg width="1408px" height="420px" viewBox="0 0 1408 420" version="1.1" xmlns="http://www.w3.org/2000/svg" xmlns:xlink="http://www.w3.org/1999/xlink">
    <!-- Generator: Sketch 64 (93537) - https://sketch.com -->
    <title>Product logo_Core_vertical_dark</title>
    <desc>Created with Sketch.</desc>
    <g id="页面-1" stroke="none" stroke-width="1" fill="none" fill-rule="evenodd">
        <g id="Product-logo_Core_vertical_dark" fill="#000000" fill-rule="nonzero">
            <g id="编组-14备份-2" transform="translate(532.000000, 35.000000)" stroke="#000000" stroke-width="10.0355872">
                <g id="编组-8" transform="translate(0.868327, 0.142349)">
                    <g id="编组-4" transform="translate(0.095499, 0.000000)">
                        <path d="M89.5784293,50.1392996 C96.3678462,50.1392996 102.214288,47.6875657 107.117756,42.784098 C112.021224,37.8806303 114.472958,32.034188 114.472958,25.2447711 C114.472958,18.4553543 112.021224,12.608912 107.117756,7.70544423 C102.214288,2.8019765 96.3678462,0.35024264 89.5784293,0.35024264 C82.7890125,0.35024264 76.9425702,2.8019765 72.0391024,7.70544423 C67.1356347,12.608912 64.6839008,18.4553543 64.6839008,25.2447711 C64.6839008,32.034188 67.1356347,37.8806303 72.0391024,42.784098 C76.9425702,47.6875657 82.7890125,50.1392996 89.5784293,50.1392996 Z M19.4211218,378.294448 C37.0233137,378.294448 52.4880965,374.459684 65.8154703,366.790158 C79.1428441,359.120631 89.6412943,348.622181 97.3108207,335.294808 C104.980347,321.967434 108.81511,306.628381 108.81511,289.277649 L108.81511,289.277649 L108.81511,102.945875 C108.81511,97.1622978 107.054891,92.51029 103.534453,88.9898516 C100.014014,85.4694132 95.3620066,83.709194 89.5784293,83.709194 C84.0463119,83.709194 79.457169,85.4694132 75.8110007,88.9898516 C72.1648324,92.51029 70.3417482,97.1622978 70.3417482,102.945875 L70.3417482,102.945875 L70.3417482,289.277649 C70.3417482,299.084584 68.1414742,307.75995 63.7409263,315.303747 C59.3403783,322.847543 53.3682061,328.819716 45.8244096,333.220263 C38.2806131,337.620811 29.4795171,339.821085 19.4211218,339.821085 C13.8890044,339.821085 9.36272646,341.581305 5.84228809,345.101743 C2.32184972,348.622181 0.56163054,353.274189 0.56163054,359.057766 C0.56163054,364.589884 2.32184972,369.179027 5.84228809,372.825195 C9.36272646,376.471363 13.8890044,378.294448 19.4211218,378.294448 Z M243.848936,50.1392996 C250.638353,50.1392996 256.484796,47.6875657 261.388263,42.784098 C266.291731,37.8806303 268.743465,32.034188 268.743465,25.2447711 C268.743465,18.4553543 266.291731,12.608912 261.388263,7.70544423 C256.484796,2.8019765 250.638353,0.35024264 243.848936,0.35024264 C237.05952,0.35024264 231.213077,2.8019765 226.30961,7.70544423 C221.406142,12.608912 218.954408,18.4553543 218.954408,25.2447711 C218.954408,32.034188 221.406142,37.8806303 226.30961,42.784098 C231.213077,47.6875657 237.05952,50.1392996 243.848936,50.1392996 Z M243.848936,290.032028 C249.632514,290.032028 254.284522,288.208944 257.80496,284.562776 C261.325398,280.916608 263.085618,276.327465 263.085618,270.795347 L263.085618,270.795347 L263.085618,102.945875 C263.085618,97.1622978 261.325398,92.51029 257.80496,88.9898516 C254.284522,85.4694132 249.632514,83.709194 243.848936,83.709194 C238.316819,83.709194 233.727676,85.4694132 230.081508,88.9898516 C226.43534,92.51029 224.612255,97.1622978 224.612255,102.945875 L224.612255,102.945875 L224.612255,270.795347 C224.612255,276.327465 226.43534,280.916608 230.081508,284.562776 C233.727676,288.208944 238.316819,290.032028 243.848936,290.032028 Z M549.372564,290.409218 C554.904681,290.409218 559.493824,288.586134 563.139992,284.939966 C566.78616,281.293798 568.609245,276.704655 568.609245,271.172537 L568.609245,271.172537 L568.609245,178.38384 C568.609245,157.51267 564.648751,139.910478 556.727765,125.577265 C548.806779,111.244051 537.994004,100.368411 524.28944,92.9503448 C510.584876,85.5322782 495.057229,81.8232449 477.706497,81.8232449 C461.110144,81.8232449 446.148281,85.4694132 432.820908,92.7617498 C426.157221,96.4079181 420.200765,100.698452 414.95154,105.633353 L413.581467,106.957829 L413.584226,102.945875 C413.584226,97.6071884 412.084395,93.2326791 409.084731,89.8223475 L408.303569,88.9898516 C404.78313,85.4694132 400.131123,83.709194 394.347545,83.709194 C388.815428,83.709194 384.226285,85.4694132 380.580117,88.9898516 C376.933948,92.51029 375.110864,97.1622978 375.110864,102.945875 L375.110864,102.945875 L375.110864,271.172537 C375.110864,276.704655 376.933948,281.293798 380.580117,284.939966 C384.226285,288.586134 388.815428,290.409218 394.347545,290.409218 C400.131123,290.409218 404.78313,288.586134 408.303569,284.939966 C411.824007,281.293798 413.584226,276.704655 413.584226,271.172537 L413.584226,271.172537 L413.581467,164.807972 L413.617754,162.958453 C413.90833,155.018467 416.087649,147.881198 420.155711,141.546644 L421.128023,140.099073 C426.157221,132.932466 432.946637,127.211754 441.496273,122.936936 C450.04591,118.662118 459.601385,116.524709 470.1627,116.524709 C481.729855,116.524709 491.976845,118.724983 500.903671,123.125531 C509.830497,127.526079 516.934239,134.252631 522.214896,143.305186 C527.495554,152.357742 530.135882,164.050627 530.135882,178.38384 L530.135882,178.38384 L530.135882,271.172537 C530.135882,276.704655 531.958967,281.293798 535.605135,284.939966 C539.251303,288.586134 543.840446,290.409218 549.372564,290.409218 Z M758.712785,291.540788 C777.069357,291.540788 793.539979,286.951645 808.124652,277.773359 C816.458751,272.528624 823.787011,266.216468 830.109431,258.83689 L831.508478,257.160463 L831.510421,271.172537 C831.510421,276.279107 833.063819,280.582196 836.170613,284.081803 L836.979674,284.939966 C840.625842,288.586134 845.214985,290.409218 850.747103,290.409218 C856.27922,290.409218 860.868363,288.586134 864.514531,284.939966 C868.160699,281.293798 869.983784,276.704655 869.983784,271.172537 L869.983784,271.172537 L869.983784,187.059206 C869.983784,167.193875 865.394641,149.340224 856.216355,133.498251 C847.038069,117.656278 834.65367,105.146149 819.063157,95.9678634 C803.472644,86.7895776 785.870453,82.2004347 766.256582,82.2004347 C746.642711,82.2004347 728.977654,86.7895776 713.261411,95.9678634 C697.545168,105.146149 685.097904,117.656278 675.919618,133.498251 C666.741333,149.340224 662.15219,167.193875 662.15219,187.059206 C662.15219,206.924537 666.364143,224.715324 674.788049,240.431566 C683.211955,256.147809 694.716245,268.595073 709.300918,277.773359 C723.885591,286.951645 740.356214,291.540788 758.712785,291.540788 Z M766.256582,257.593703 C753.683587,257.593703 742.305028,254.51332 732.120902,248.352553 C721.936777,242.191786 713.890061,233.76788 707.980754,223.080834 C702.071446,212.393789 699.116793,200.38658 699.116793,187.059206 C699.116793,173.480372 702.071446,161.347433 707.980754,150.660388 C713.890061,139.973343 721.936777,131.549437 732.120902,125.38867 C742.305028,119.227903 753.683587,116.147519 766.256582,116.147519 C779.081036,116.147519 790.52246,119.227903 800.580856,125.38867 C810.639251,131.549437 818.560237,139.973343 824.343815,150.660388 C830.127392,161.347433 833.019181,173.480372 833.019181,187.059206 C833.019181,200.38658 830.127392,212.393789 824.343815,223.080834 C818.560237,233.76788 810.639251,242.191786 800.580856,248.352553 C790.52246,254.51332 779.081036,257.593703 766.256582,257.593703 Z" id="jina"></path>
                    </g>
                </g>
            </g>
            <g id="Product-logo/Core/Dark/Product-logo_Core_Dark备份">
                <path d="M253.860573,156.954377 L255.821828,156.978105 C295.238461,158.455783 317.422365,174.469194 335.087253,197.869031 C327.000366,278.998329 256.159752,338.259677 175.707761,334.971975 C134.774903,332.513052 99.0193106,314.104932 73.4781398,286.342584 C117.15129,226.130023 187.842433,158.254532 251.90801,156.972743 L253.860573,156.954377 Z" id="路径" fill-opacity="0.802939248"></path>
                <path d="M39.5582172,227.48298 L39.5883593,227.441177 C54.845168,204.978093 79.2848361,182.659842 112.024423,191.64225 C174.284304,209.973694 232.726627,247.526129 268.359454,246.465565 C302.271458,245.456219 315.965826,235.372634 330.824529,221.540288 C312.717554,290.23882 248.104147,337.930482 175.707761,334.971975 C110.137203,331.033013 57.8520266,286.166813 39.5582172,227.48298 Z" id="路径" fill-opacity="0.802939248"></path>
                <path d="M348.099471,310.923399 L409.359965,365.982405 C422.05317,377.390734 423.080432,396.886069 411.655991,409.556308 C400.373508,422.06911 381.128285,423.213448 368.437473,412.215972 L368.011372,411.839929 L303.311988,353.689535 C320.301989,341.744786 335.408493,327.31237 348.099471,310.923399 Z M0.563447611,172.591899 C6.05992071,71.7694585 94.0034902,-5.22222339 194.772164,0.277182463 C295.540837,7.60972374 374.323618,93.7670824 366.994987,194.589523 C359.666357,295.411963 273.554945,372.403645 172.786271,366.904239 C72.0175978,361.404833 -4.93302548,273.41434 0.563447611,172.591899 Z M192.536325,31.6937103 C110.076363,28.3239515 36.0306829,92.3493629 32.6649699,174.908446 C29.2992569,257.46753 91.5649428,329.917337 175.707761,334.971975 C258.167724,338.341734 330.530548,276.001201 335.579117,191.757239 C338.911172,110.023747 277.917894,38.1983551 195.054003,31.8655107 L192.536325,31.6937103 Z" id="形状"></path>
            </g>
        </g>
    </g>
</svg>
