<svg version="1.1" viewBox="0.0 0.0 651.0 160.0" fill="none" stroke="none" stroke-linecap="square" stroke-miterlimit="10" xmlns:xlink="http://www.w3.org/1999/xlink" xmlns="http://www.w3.org/2000/svg"><clipPath id="p.0"><path d="m0 0l651.0 0l0 160.0l-651.0 0l0 -160.0z" clip-rule="nonzero"/></clipPath><g clip-path="url(#p.0)"><path fill="#000000" fill-opacity="0.0" d="m0 0l651.0 0l0 160.0l-651.0 0z" fill-rule="evenodd"/><path fill="#000000" fill-opacity="0.0" d="m1.0 43.75853l680.7244 0l0 25.165352l-680.7244 0z" fill-rule="evenodd"/><path fill="#000000" d="m2.59375 58.800583l0 0.265625q0 1.53125 0.390625 2.84375q0.390625 1.296875 1.109375 2.25q0.71875 0.96875 1.75 1.515625q1.03125 0.53125 2.3125 0.53125q1.21875 0 2.15625 -0.453125q0.9375 -0.453125 1.625 -1.28125l0.140625 1.46875l2.828125 0l0 -20.0l-3.109375 0l0 7.234375q-0.6875 -0.75 -1.5625 -1.15625q-0.875 -0.421875 -2.046875 -0.421875q-1.296875 0 -2.34375 0.53125q-1.03125 0.515625 -1.75 1.46875q-0.71875 0.953125 -1.109375 2.28125q-0.390625 1.3125 -0.390625 2.921875zm3.125 0.265625l0 -0.265625q0 -0.953125 0.171875 -1.796875q0.1875 -0.84375 0.59375 -1.46875q0.375 -0.640625 0.984375 -1.0q0.625 -0.375 1.5 -0.375q1.03125 0 1.71875 0.46875q0.6875 0.453125 1.109375 1.234375l0 6.0625q-0.421875 0.78125 -1.109375 1.25q-0.6875 0.46875 -1.75 0.46875q-0.859375 0 -1.46875 -0.359375q-0.609375 -0.359375 -1.0 -1.0q-0.390625 -0.609375 -0.578125 -1.4375q-0.171875 -0.84375 -0.171875 -1.78125zm12.715103 -0.296875l0 0.28125q0 1.546875 0.4375 2.84375q0.453125 1.296875 1.296875 2.265625q0.84375 0.96875 2.0625 1.515625q1.21875 0.53125 2.765625 0.53125q1.546875 0 2.75 -0.53125q1.21875 -0.546875 2.0625 -1.515625q0.828125 -0.96875 1.265625 -2.265625q0.453125 -1.296875 0.453125 -2.84375l0 -0.28125q0 -1.53125 -0.453125 -2.84375q-0.4375 -1.3125 -1.265625 -2.265625q-0.84375 -0.96875 -2.0625 -1.515625q-1.21875 -0.546875 -2.765625 -0.546875q-1.546875 0 -2.765625 0.546875q-1.203125 0.546875 -2.046875 1.515625q-0.84375 0.953125 -1.296875 2.265625q-0.4375 1.3125 -0.4375 2.84375zm3.125 0.28125l0 -0.28125q0 -0.921875 0.1875 -1.765625q0.203125 -0.84375 0.640625 -1.484375q0.421875 -0.640625 1.0625 -1.015625q0.640625 -0.375 1.53125 -0.375q0.890625 0 1.53125 0.375q0.65625 0.375 1.078125 1.015625q0.40625 0.640625 0.609375 1.484375q0.21875 0.84375 0.21875 1.765625l0 0.28125q0 0.9375 -0.203125 1.796875q-0.203125 0.84375 -0.625 1.46875q-0.421875 0.640625 -1.078125 1.015625q-0.640625 0.375 -1.515625 0.375q-0.890625 0 -1.546875 -0.375q-0.640625 -0.375 -1.0625 -1.015625q-0.4375 -0.625 -0.640625 -1.46875q-0.1875 -0.859375 -0.1875 -1.796875zm19.574478 4.65625q-0.96875 0 -1.625 -0.390625q-0.640625 -0.390625 -1.015625 -1.046875q-0.390625 -0.625 -0.5625 -1.453125q-0.15625 -0.828125 -0.15625 -1.6875l0 -0.453125q0 -0.84375 0.15625 -1.65625q0.171875 -0.828125 0.5625 -1.46875q0.390625 -0.640625 1.03125 -1.03125q0.640625 -0.390625 1.609375 -0.390625q0.640625 0 1.1875 0.21875q0.5625 0.21875 0.96875 0.59375q0.390625 0.375 0.59375 0.890625q0.21875 0.5 0.21875 1.078125l2.9375 0q0.015625 -1.171875 -0.421875 -2.140625q-0.4375 -0.984375 -1.21875 -1.6875q-0.78125 -0.703125 -1.875 -1.09375q-1.078125 -0.390625 -2.359375 -0.390625q-1.609375 0 -2.828125 0.5625q-1.21875 0.5625 -2.03125 1.53125q-0.828125 0.96875 -1.234375 2.265625q-0.40625 1.28125 -0.40625 2.71875l0 0.453125q0 1.46875 0.40625 2.75q0.421875 1.28125 1.234375 2.234375q0.8125 0.96875 2.03125 1.53125q1.21875 0.5625 2.84375 0.5625q1.171875 0 2.234375 -0.375q1.0625 -0.390625 1.875 -1.0625q0.8125 -0.65625 1.28125 -1.546875q0.484375 -0.90625 0.46875 -1.9375l-2.9375 0q0 0.53125 -0.234375 0.984375q-0.234375 0.4375 -0.640625 0.75q-0.421875 0.328125 -0.96875 0.515625q-0.53125 0.171875 -1.125 0.171875z" fill-rule="nonzero"/><path fill="#32c8cd" d="m54.879684 64.06621q0 0.90625 0.59375 1.53125q0.59375 0.609375 1.65625 0.609375q1.0625 0 1.65625 -0.609375q0.609375 -0.625 0.609375 -1.53125q0 -0.90625 -0.59375 -1.53125q-0.59375 -0.640625 -1.671875 -0.640625q-1.09375 0 -1.671875 0.640625q-0.578125 0.640625 -0.578125 1.53125zm18.246353 -0.359375q-0.96875 0 -1.625 -0.390625q-0.640625 -0.390625 -1.015625 -1.046875q-0.390625 -0.625 -0.5625 -1.453125q-0.15625 -0.828125 -0.15625 -1.6875l0 -0.453125q0 -0.84375 0.15625 -1.65625q0.171875 -0.828125 0.5625 -1.46875q0.390625 -0.640625 1.03125 -1.03125q0.640625 -0.390625 1.609375 -0.390625q0.640625 0 1.1875 0.21875q0.5625 0.21875 0.96875 0.59375q0.390625 0.375 0.59375 0.890625q0.21875 0.5 0.21875 1.078125l2.9375 0q0.015625 -1.171875 -0.421875 -2.140625q-0.4375 -0.984375 -1.21875 -1.6875q-0.78125 -0.703125 -1.875 -1.09375q-1.078125 -0.390625 -2.359375 -0.390625q-1.609375 0 -2.828125 0.5625q-1.21875 0.5625 -2.03125 1.53125q-0.828125 0.96875 -1.234375 2.265625q-0.40625 1.28125 -0.40625 2.71875l0 0.453125q0 1.46875 0.40625 2.75q0.421875 1.28125 1.234375 2.234375q0.8125 0.96875 2.03125 1.53125q1.21875 0.5625 2.84375 0.5625q1.171875 0 2.234375 -0.375q1.0625 -0.390625 1.875 -1.0625q0.8125 -0.65625 1.28125 -1.546875q0.484375 -0.90625 0.46875 -1.9375l-2.9375 0q0 0.53125 -0.234375 0.984375q-0.234375 0.4375 -0.640625 0.75q-0.421875 0.328125 -0.96875 0.515625q-0.53125 0.171875 -1.125 0.171875zm9.293228 -4.9375l0 0.28125q0 1.546875 0.4375 2.84375q0.453125 1.296875 1.296875 2.265625q0.84375 0.96875 2.0625 1.515625q1.21875 0.53125 2.765625 0.53125q1.546875 0 2.75 -0.53125q1.21875 -0.546875 2.0625 -1.515625q0.828125 -0.96875 1.265625 -2.265625q0.453125 -1.296875 0.453125 -2.84375l0 -0.28125q0 -1.53125 -0.453125 -2.84375q-0.4375 -1.3125 -1.265625 -2.265625q-0.84375 -0.96875 -2.0625 -1.515625q-1.21875 -0.546875 -2.765625 -0.546875q-1.546875 0 -2.765625 0.546875q-1.203125 0.546875 -2.046875 1.515625q-0.84375 0.953125 -1.296875 2.265625q-0.4375 1.3125 -0.4375 2.84375zm3.125 0.28125l0 -0.28125q0 -0.921875 0.1875 -1.765625q0.203125 -0.84375 0.640625 -1.484375q0.421875 -0.640625 1.0625 -1.015625q0.640625 -0.375 1.53125 -0.375q0.890625 0 1.53125 0.375q0.65625 0.375 1.078125 1.015625q0.40625 0.640625 0.609375 1.484375q0.21875 0.84375 0.21875 1.765625l0 0.28125q0 0.9375 -0.203125 1.796875q-0.203125 0.84375 -0.625 1.46875q-0.421875 0.640625 -1.078125 1.015625q-0.640625 0.375 -1.515625 0.375q-0.890625 0 -1.546875 -0.375q-0.640625 -0.375 -1.0625 -1.015625q-0.4375 -0.625 -0.640625 -1.46875q-0.1875 -0.859375 -0.1875 -1.796875zm13.449478 6.890625l3.109375 0l0 -10.046875q0.21875 -0.359375 0.484375 -0.65625q0.28125 -0.296875 0.59375 -0.5q0.390625 -0.28125 0.890625 -0.421875q0.5 -0.15625 1.0625 -0.15625q0.6875 0 1.21875 0.15625q0.546875 0.140625 0.921875 0.5q0.375 0.34375 0.5625 0.9375q0.203125 0.578125 0.203125 1.453125l0 8.734375l3.109375 0l0 -8.78125q0 -1.484375 -0.359375 -2.53125q-0.34375 -1.046875 -0.984375 -1.734375q-0.625 -0.671875 -1.53125 -0.984375q-0.890625 -0.3125 -1.984375 -0.3125q-0.8125 0 -1.5625 0.234375q-0.734375 0.234375 -1.359375 0.671875q-0.390625 0.265625 -0.734375 0.609375q-0.34375 0.34375 -0.625 0.75l-0.203125 -2.0l-2.8125 0l0 14.078125zm22.246353 -17.515625l-3.125 0l0 3.4375l-3.40625 0l0 2.328125l3.40625 0l0 6.921875q0 1.359375 0.359375 2.328125q0.359375 0.953125 1.0 1.5625q0.625 0.625 1.515625 0.921875q0.90625 0.28125 1.96875 0.28125q0.578125 0 1.171875 -0.0625q0.59375 -0.046875 1.140625 -0.15625q0.546875 -0.09375 1.015625 -0.234375q0.484375 -0.15625 0.828125 -0.375l-0.34375 -2.140625q-0.234375 0.046875 -0.578125 0.125q-0.34375 0.0625 -0.734375 0.125q-0.40625 0.0625 -0.84375 0.109375q-0.421875 0.03125 -0.828125 0.03125q-0.5625 0 -1.03125 -0.125q-0.46875 -0.140625 -0.796875 -0.453125q-0.34375 -0.296875 -0.53125 -0.828125q-0.1875 -0.53125 -0.1875 -1.3125l0 -6.71875l5.296875 0l0 -2.328125l-5.296875 0l0 -3.4375zm16.324478 17.78125q2.046875 0 3.5 -0.8125q1.453125 -0.8125 2.15625 -1.828125l-1.65625 -1.609375q-0.65625 0.828125 -1.65625 1.28125q-1.0 0.453125 -2.171875 0.453125q-0.84375 0 -1.546875 -0.28125q-0.703125 -0.296875 -1.234375 -0.8125q-0.515625 -0.5 -0.8125 -1.125q-0.296875 -0.625 -0.453125 -1.546875l0 -0.0625l9.765625 0l0 -1.34375q0 -1.5 -0.40625 -2.78125q-0.40625 -1.28125 -1.1875 -2.203125q-0.796875 -0.90625 -1.96875 -1.421875q-1.171875 -0.515625 -2.703125 -0.515625q-1.359375 0 -2.5625 0.515625q-1.203125 0.515625 -2.109375 1.46875q-0.921875 0.9375 -1.4375 2.28125q-0.515625 1.34375 -0.515625 3.0l0 0.53125q0 1.4375 0.5 2.6875q0.5 1.25 1.421875 2.15625q0.921875 0.921875 2.21875 1.453125q1.296875 0.515625 2.859375 0.515625zm-0.375 -12.078125q0.78125 0 1.359375 0.265625q0.59375 0.265625 0.984375 0.703125q0.40625 0.453125 0.625 1.0625q0.234375 0.609375 0.234375 1.21875l0 0.203125l-6.625 0q0.140625 -0.796875 0.4375 -1.4375q0.296875 -0.640625 0.734375 -1.09375q0.453125 -0.453125 1.015625 -0.6875q0.5625 -0.234375 1.234375 -0.234375zm9.793228 11.8125l3.109375 0l0 -10.046875q0.21875 -0.359375 0.484375 -0.65625q0.28125 -0.296875 0.59375 -0.5q0.390625 -0.28125 0.890625 -0.421875q0.5 -0.15625 1.0625 -0.15625q0.6875 0 1.21875 0.15625q0.546875 0.140625 0.921875 0.5q0.375 0.34375 0.5625 0.9375q0.203125 0.578125 0.203125 1.453125l0 8.734375l3.109375 0l0 -8.78125q0 -1.484375 -0.359375 -2.53125q-0.34375 -1.046875 -0.984375 -1.734375q-0.625 -0.671875 -1.53125 -0.984375q-0.890625 -0.3125 -1.984375 -0.3125q-0.8125 0 -1.5625 0.234375q-0.734375 0.234375 -1.359375 0.671875q-0.390625 0.265625 -0.734375 0.609375q-0.34375 0.34375 -0.625 0.75l-0.203125 -2.0l-2.8125 0l0 14.078125zm22.246353 -17.515625l-3.125 0l0 3.4375l-3.40625 0l0 2.328125l3.40625 0l0 6.921875q0 1.359375 0.359375 2.328125q0.359375 0.953125 1.0 1.5625q0.625 0.625 1.515625 0.921875q0.90625 0.28125 1.96875 0.28125q0.578125 0 1.171875 -0.0625q0.59375 -0.046875 1.140625 -0.15625q0.546875 -0.09375 1.015625 -0.234375q0.484375 -0.15625 0.828125 -0.375l-0.34375 -2.140625q-0.234375 0.046875 -0.578125 0.125q-0.34375 0.0625 -0.734375 0.125q-0.40625 0.0625 -0.84375 0.109375q-0.421875 0.03125 -0.828125 0.03125q-0.5625 0 -1.03125 -0.125q-0.46875 -0.140625 -0.796875 -0.453125q-0.34375 -0.296875 -0.53125 -0.828125q-0.1875 -0.53125 -0.1875 -1.3125l0 -6.71875l5.296875 0l0 -2.328125l-5.296875 0l0 -3.4375z" fill-rule="nonzero"/><path fill="#000000" d="m207.11249 56.269333l0 -2.609375l-12.015625 0l0 2.609375l12.015625 0zm0 5.515625l0 -2.578125l-12.015625 0l0 2.578125l12.015625 0zm19.273956 -3.015625l0 0.28125q0 1.546875 0.4375 2.84375q0.453125 1.296875 1.296875 2.265625q0.84375 0.96875 2.0625 1.515625q1.21875 0.53125 2.765625 0.53125q1.546875 0 2.75 -0.53125q1.21875 -0.546875 2.0625 -1.515625q0.828125 -0.96875 1.265625 -2.265625q0.453125 -1.296875 0.453125 -2.84375l0 -0.28125q0 -1.53125 -0.453125 -2.84375q-0.4375 -1.3125 -1.265625 -2.265625q-0.84375 -0.96875 -2.0625 -1.515625q-1.21875 -0.546875 -2.765625 -0.546875q-1.546875 0 -2.765625 0.546875q-1.203125 0.546875 -2.046875 1.515625q-0.84375 0.953125 -1.296875 2.265625q-0.4375 1.3125 -0.4375 2.84375zm3.125 0.28125l0 -0.28125q0 -0.921875 0.1875 -1.765625q0.203125 -0.84375 0.640625 -1.484375q0.421875 -0.640625 1.0625 -1.015625q0.640625 -0.375 1.53125 -0.375q0.890625 0 1.53125 0.375q0.65625 0.375 1.078125 1.015625q0.40625 0.640625 0.609375 1.484375q0.21875 0.84375 0.21875 1.765625l0 0.28125q0 0.9375 -0.203125 1.796875q-0.203125 0.84375 -0.625 1.46875q-0.421875 0.640625 -1.078125 1.015625q-0.640625 0.375 -1.515625 0.375q-0.890625 0 -1.546875 -0.375q-0.640625 -0.375 -1.0625 -1.015625q-0.4375 -0.625 -0.640625 -1.46875q-0.1875 -0.859375 -0.1875 -1.796875zm13.449478 6.890625l3.109375 0l0 -10.046875q0.21875 -0.359375 0.484375 -0.65625q0.28125 -0.296875 0.59375 -0.5q0.390625 -0.28125 0.890625 -0.421875q0.5 -0.15625 1.0625 -0.15625q0.6875 0 1.21875 0.15625q0.546875 0.140625 0.921875 0.5q0.375 0.34375 0.5625 0.9375q0.203125 0.578125 0.203125 1.453125l0 8.734375l3.109375 0l0 -8.78125q0 -1.484375 -0.359375 -2.53125q-0.34375 -1.046875 -0.984375 -1.734375q-0.625 -0.671875 -1.53125 -0.984375q-0.890625 -0.3125 -1.984375 -0.3125q-0.8125 0 -1.5625 0.234375q-0.734375 0.234375 -1.359375 0.671875q-0.390625 0.265625 -0.734375 0.609375q-0.34375 0.34375 -0.625 0.75l-0.203125 -2.0l-2.8125 0l0 14.078125zm22.574478 0.265625q2.046875 0 3.5 -0.8125q1.453125 -0.8125 2.15625 -1.828125l-1.65625 -1.609375q-0.65625 0.828125 -1.65625 1.28125q-1.0 0.453125 -2.171875 0.453125q-0.84375 0 -1.546875 -0.28125q-0.703125 -0.296875 -1.234375 -0.8125q-0.515625 -0.5 -0.8125 -1.125q-0.296875 -0.625 -0.453125 -1.546875l0 -0.0625l9.765625 0l0 -1.34375q0 -1.5 -0.40625 -2.78125q-0.40625 -1.28125 -1.1875 -2.203125q-0.796875 -0.90625 -1.96875 -1.421875q-1.171875 -0.515625 -2.703125 -0.515625q-1.359375 0 -2.5625 0.515625q-1.203125 0.515625 -2.109375 1.46875q-0.921875 0.9375 -1.4375 2.28125q-0.515625 1.34375 -0.515625 3.0l0 0.53125q0 1.4375 0.5 2.6875q0.5 1.25 1.421875 2.15625q0.921875 0.921875 2.21875 1.453125q1.296875 0.515625 2.859375 0.515625zm-0.375 -12.078125q0.78125 0 1.359375 0.265625q0.59375 0.265625 0.984375 0.703125q0.40625 0.453125 0.625 1.0625q0.234375 0.609375 0.234375 1.21875l0 0.203125l-6.625 0q0.140625 -0.796875 0.4375 -1.4375q0.296875 -0.640625 0.734375 -1.09375q0.453125 -0.453125 1.015625 -0.6875q0.5625 -0.234375 1.234375 -0.234375zm9.215088 4.640625l0 0.28125q0 1.546875 0.4375 2.84375q0.453125 1.296875 1.296875 2.265625q0.84375 0.96875 2.0625 1.515625q1.21875 0.53125 2.765625 0.53125q1.546875 0 2.75 -0.53125q1.21875 -0.546875 2.0625 -1.515625q0.828125 -0.96875 1.265625 -2.265625q0.453125 -1.296875 0.453125 -2.84375l0 -0.28125q0 -1.53125 -0.453125 -2.84375q-0.4375 -1.3125 -1.265625 -2.265625q-0.84375 -0.96875 -2.0625 -1.515625q-1.21875 -0.546875 -2.765625 -0.546875q-1.546875 0 -2.765625 0.546875q-1.203125 0.546875 -2.046875 1.515625q-0.84375 0.953125 -1.296875 2.265625q-0.4375 1.3125 -0.4375 2.84375zm3.125 0.28125l0 -0.28125q0 -0.921875 0.1875 -1.765625q0.203125 -0.84375 0.640625 -1.484375q0.421875 -0.640625 1.0625 -1.015625q0.640625 -0.375 1.53125 -0.375q0.890625 0 1.53125 0.375q0.65625 0.375 1.078125 1.015625q0.40625 0.640625 0.609375 1.484375q0.21875 0.84375 0.21875 1.765625l0 0.28125q0 0.9375 -0.203125 1.796875q-0.203125 0.84375 -0.625 1.46875q-0.421875 0.640625 -1.078125 1.015625q-0.640625 0.375 -1.515625 0.375q-0.890625 0 -1.546875 -0.375q-0.640625 -0.375 -1.0625 -1.015625q-0.4375 -0.625 -0.640625 -1.46875q-0.1875 -0.859375 -0.1875 -1.796875zm16.996368 6.890625l3.125 0l0 -11.75l5.21875 0l0 -2.328125l-5.21875 0l0 -0.859375q0 -0.75 0.1875 -1.296875q0.1875 -0.5625 0.5625 -0.953125q0.40625 -0.390625 1.03125 -0.59375q0.640625 -0.21875 1.5 -0.21875q0.84375 0 1.5 0.109375q0.65625 0.09375 1.171875 0.234375l0.25 -2.484375q-0.390625 -0.078125 -0.765625 -0.140625q-0.375 -0.078125 -0.75 -0.125q-0.4375 -0.0625 -0.90625 -0.109375q-0.453125 -0.046875 -0.9375 -0.046875q-1.359375 0 -2.46875 0.359375q-1.09375 0.359375 -1.875 1.0625q-0.78125 0.71875 -1.203125 1.765625q-0.421875 1.046875 -0.421875 2.4375l0 0.859375l-3.78125 0l0 2.328125l3.78125 0l0 11.75zm14.996368 -7.703125l0 0.21875q0 1.859375 0.28125 3.484375q0.28125 1.625 0.765625 3.0q0.484375 1.390625 1.125 2.53125q0.640625 1.140625 1.359375 2.015625q0.71875 0.890625 1.453125 1.5q0.75 0.625 1.4375 0.96875l0.625 -1.75q-0.515625 -0.40625 -1.046875 -1.0q-0.515625 -0.59375 -1.0 -1.375q-0.453125 -0.765625 -0.859375 -1.78125q-0.40625 -1.0 -0.71875 -2.171875q-0.25 -0.96875 -0.4375 -2.359375q-0.1875 -1.40625 -0.1875 -3.03125l0 -0.28125q0 -1.65625 0.1875 -3.09375q0.203125 -1.4375 0.515625 -2.609375q0.359375 -1.265625 0.84375 -2.328125q0.484375 -1.078125 1.046875 -1.875q0.40625 -0.5625 0.8125 -1.0q0.421875 -0.4375 0.84375 -0.75l-0.625 -1.8125q-0.6875 0.34375 -1.4375 0.96875q-0.734375 0.609375 -1.4375 1.484375q-0.71875 0.890625 -1.359375 2.046875q-0.640625 1.140625 -1.140625 2.5q-0.484375 1.390625 -0.765625 3.03125q-0.28125 1.625 -0.28125 3.46875zm326.66125 0.21875l0 -0.21875q0 -1.859375 -0.296875 -3.453125q-0.296875 -1.59375 -0.78125 -2.984375q-0.484375 -1.390625 -1.140625 -2.53125q-0.640625 -1.140625 -1.390625 -2.046875q-0.71875 -0.890625 -1.484375 -1.515625q-0.75 -0.625 -1.453125 -0.96875l-0.609375 1.75q0.40625 0.3125 0.828125 0.78125q0.421875 0.453125 0.8125 1.03125q0.5625 0.828125 1.0625 1.953125q0.515625 1.109375 0.890625 2.515625q0.265625 1.078125 0.453125 2.453125q0.1875 1.359375 0.1875 2.984375l0 0.28125q0 1.5625 -0.171875 2.921875q-0.15625 1.359375 -0.453125 2.5q-0.296875 1.234375 -0.734375 2.25q-0.421875 1.03125 -0.921875 1.84375q-0.46875 0.71875 -0.96875 1.28125q-0.484375 0.5625 -0.984375 0.921875l0.609375 1.75q0.703125 -0.34375 1.453125 -0.96875q0.765625 -0.625 1.484375 -1.53125q0.734375 -0.890625 1.375 -2.03125q0.65625 -1.140625 1.15625 -2.53125q0.5 -1.390625 0.78125 -3.0q0.296875 -1.609375 0.296875 -3.4375z" fill-rule="nonzero"/><path fill="#32c8cd" d="m340.24133 47.25629l0 0c0 -3.0296555 2.4560242 -5.485676 5.4856567 -5.485676l67.26489 0c1.454895 0 2.8501892 0.57795334 3.8789368 1.60672c1.0287781 1.0287628 1.60672 2.4240646 1.60672 3.8789558l0 21.942036c0 3.0296555 -2.4560242 5.4856796 -5.4856567 5.4856796l-67.26489 0c-3.0296326 0 -5.4856567 -2.4560242 -5.4856567 -5.4856796z" fill-rule="evenodd"/><path stroke="#ffffff" stroke-width="1.0" stroke-linejoin="round" stroke-linecap="butt" d="m340.24133 47.25629l0 0c0 -3.0296555 2.4560242 -5.485676 5.4856567 -5.485676l67.26489 0c1.454895 0 2.8501892 0.57795334 3.8789368 1.60672c1.0287781 1.0287628 1.60672 2.4240646 1.60672 3.8789558l0 21.942036c0 3.0296555 -2.4560242 5.4856796 -5.4856567 5.4856796l-67.26489 0c-3.0296326 0 -5.4856567 -2.4560242 -5.4856567 -5.4856796z" fill-rule="evenodd"/><path fill="#ffffff" d="m362.88712 57.572933q0 0.40625 -0.296875 0.6875q-0.28125 0.28125 -0.796875 0.28125q-0.515625 0 -0.8125 -0.28125q-0.296875 -0.28125 -0.296875 -0.6875q0 -0.421875 0.296875 -0.6875q0.296875 -0.28125 0.8125 -0.28125q0.515625 0 0.796875 0.28125q0.296875 0.265625 0.296875 0.6875zm7.310791 -4.296875l0 2.9375q0 0.46875 0.203125 0.625q0.296875 0.234375 1.0625 0.234375q1.125 0 2.078125 -0.46875q0.375 -0.1875 0.578125 -0.1875q0.28125 0 0.484375 0.21875q0.21875 0.203125 0.21875 0.515625q0 0.28125 -0.21875 0.484375q-0.359375 0.34375 -1.390625 0.625q-1.03125 0.28125 -1.75 0.28125q-1.359375 0 -2.046875 -0.578125q-0.6875 -0.59375 -0.6875 -1.453125l0 -3.234375l-0.515625 0q-0.53125 0 -0.765625 -0.203125q-0.21875 -0.203125 -0.21875 -0.53125q0 -0.328125 0.21875 -0.53125q0.234375 -0.203125 0.765625 -0.203125l0.515625 0l0 -1.328125q0 -0.515625 0.203125 -0.734375q0.21875 -0.234375 0.546875 -0.234375q0.3125 0 0.515625 0.234375q0.203125 0.21875 0.203125 0.734375l0 1.328125l2.71875 0q0.53125 0 0.75 0.203125q0.234375 0.203125 0.234375 0.53125q0 0.328125 -0.234375 0.53125q-0.21875 0.203125 -0.75 0.203125l-2.71875 0zm12.842072 2.53125l-6.015625 0q0.234375 0.5625 0.8125 0.921875q0.578125 0.34375 1.578125 0.34375q0.8125 0 2.171875 -0.34375q0.546875 -0.140625 0.765625 -0.140625q0.296875 0 0.5 0.203125q0.203125 0.203125 0.203125 0.515625q0 0.296875 -0.21875 0.484375q-0.296875 0.265625 -1.40625 0.515625q-1.09375 0.234375 -2.125 0.234375q-1.765625 0 -2.828125 -0.984375q-1.046875 -1.0 -1.046875 -2.453125q0 -1.546875 1.140625 -2.515625q1.140625 -0.96875 2.640625 -0.96875q0.890625 0 1.640625 0.3125q0.75 0.3125 1.109375 0.671875q0.515625 0.53125 0.84375 1.3125q0.234375 0.546875 0.234375 1.265625l0 0.625zm-1.625 -1.46875q-0.328125 -0.625 -0.875 -0.9375q-0.546875 -0.3125 -1.296875 -0.3125q-0.75 0 -1.296875 0.3125q-0.53125 0.3125 -0.875 0.9375l4.34375 0zm7.842041 0.59375l2.21875 1.90625q0.40625 0.015625 0.59375 0.234375q0.203125 0.203125 0.203125 0.5q0 0.328125 -0.21875 0.53125q-0.21875 0.203125 -0.75 0.203125l-1.671875 0q-0.53125 0 -0.765625 -0.203125q-0.21875 -0.203125 -0.21875 -0.546875q0 -0.25 0.15625 -0.4375q0.171875 -0.203125 0.453125 -0.28125l-1.09375 -0.9375l-1.125 0.9375q0.34375 0.09375 0.484375 0.28125q0.15625 0.171875 0.15625 0.4375q0 0.34375 -0.234375 0.546875q-0.21875 0.203125 -0.75 0.203125l-1.65625 0q-0.515625 0 -0.75 -0.203125q-0.21875 -0.203125 -0.21875 -0.53125q0 -0.296875 0.1875 -0.5q0.203125 -0.21875 0.609375 -0.234375l2.171875 -1.921875l-1.921875 -1.640625q-0.375 -0.03125 -0.578125 -0.234375q-0.1875 -0.203125 -0.1875 -0.5q0 -0.328125 0.21875 -0.53125q0.21875 -0.203125 0.75 -0.203125l1.375 0q0.53125 0 0.75 0.203125q0.234375 0.203125 0.234375 0.515625q0 0.421875 -0.40625 0.6875l0.890625 0.75l0.875 -0.765625q-0.390625 -0.265625 -0.390625 -0.640625q0 -0.34375 0.21875 -0.546875q0.234375 -0.203125 0.765625 -0.203125l1.359375 0q0.515625 0 0.734375 0.203125q0.234375 0.203125 0.234375 0.53125q0 0.296875 -0.203125 0.5q-0.1875 0.203125 -0.578125 0.234375l-1.921875 1.65625zm7.3264465 -1.65625l0 2.9375q0 0.46875 0.203125 0.625q0.296875 0.234375 1.0625 0.234375q1.125 0 2.078125 -0.46875q0.375 -0.1875 0.578125 -0.1875q0.28125 0 0.484375 0.21875q0.21875 0.203125 0.21875 0.515625q0 0.28125 -0.21875 0.484375q-0.359375 0.34375 -1.390625 0.625q-1.03125 0.28125 -1.75 0.28125q-1.359375 0 -2.046875 -0.578125q-0.6875 -0.59375 -0.6875 -1.453125l0 -3.234375l-0.515625 0q-0.53125 0 -0.765625 -0.203125q-0.21875 -0.203125 -0.21875 -0.53125q0 -0.328125 0.21875 -0.53125q0.234375 -0.203125 0.765625 -0.203125l0.515625 0l0 -1.328125q0 -0.515625 0.203125 -0.734375q0.21875 -0.234375 0.546875 -0.234375q0.3125 0 0.515625 0.234375q0.203125 0.21875 0.203125 0.734375l0 1.328125l2.71875 0q0.53125 0 0.75 0.203125q0.234375 0.203125 0.234375 0.53125q0 0.328125 -0.234375 0.53125q-0.21875 0.203125 -0.75 0.203125l-2.71875 0z" fill-rule="nonzero"/><path fill="#ffffff" d="m375.4239 67.297935q-0.1875 -0.125 -0.40625 -0.1875q-0.21875 -0.0625 -0.453125 -0.0625q-0.46875 0 -0.734375 0.15625q-0.125 0.0625 -0.125 0.140625q0 0.09375 0.171875 0.1875q0.125 0.0625 0.546875 0.109375q0.796875 0.109375 1.109375 0.21875q0.421875 0.15625 0.640625 0.4375q0.21875 0.28125 0.21875 0.59375q0 0.4375 -0.375 0.71875q-0.546875 0.421875 -1.40625 0.421875q-0.359375 0 -0.65625 -0.0625q-0.28125 -0.046875 -0.53125 -0.171875q-0.0625 0.046875 -0.125 0.078125q-0.0625 0.03125 -0.140625 0.03125q-0.1875 0 -0.296875 -0.125q-0.109375 -0.125 -0.109375 -0.421875l0 -0.265625q0 -0.28125 0.109375 -0.40625q0.109375 -0.125 0.296875 -0.125q0.140625 0 0.234375 0.078125q0.09375 0.078125 0.15625 0.28125q0.1875 0.15625 0.4375 0.234375q0.265625 0.078125 0.59375 0.078125q0.546875 0 0.859375 -0.171875q0.140625 -0.09375 0.140625 -0.1875q0 -0.15625 -0.203125 -0.25q-0.203125 -0.109375 -0.859375 -0.171875q-0.96875 -0.109375 -1.28125 -0.390625q-0.328125 -0.28125 -0.328125 -0.703125q0 -0.4375 0.359375 -0.71875q0.5 -0.390625 1.296875 -0.390625q0.265625 0 0.515625 0.0625q0.265625 0.046875 0.5 0.15625q0.078125 -0.0625 0.140625 -0.078125q0.0625 -0.03125 0.125 -0.03125q0.15625 0 0.265625 0.125q0.109375 0.125 0.109375 0.40625l0 0.203125q0 0.25 -0.0625 0.34375q-0.125 0.1875 -0.34375 0.1875q-0.140625 0 -0.25 -0.09375q-0.109375 -0.09375 -0.140625 -0.234375zm3.7382812 -0.140625l0 1.609375q0 0.25 0.109375 0.34375q0.15625 0.125 0.578125 0.125q0.625 0 1.140625 -0.265625q0.203125 -0.09375 0.3125 -0.09375q0.15625 0 0.265625 0.125q0.125 0.109375 0.125 0.265625q0 0.15625 -0.125 0.28125q-0.203125 0.171875 -0.765625 0.328125q-0.5625 0.15625 -0.953125 0.15625q-0.734375 0 -1.109375 -0.3125q-0.375 -0.328125 -0.375 -0.796875l0 -1.765625l-0.296875 0q-0.28125 0 -0.40625 -0.109375q-0.125 -0.109375 -0.125 -0.296875q0 -0.171875 0.125 -0.28125q0.125 -0.109375 0.40625 -0.109375l0.296875 0l0 -0.71875q0 -0.296875 0.109375 -0.421875q0.109375 -0.125 0.296875 -0.125q0.171875 0 0.28125 0.125q0.109375 0.125 0.109375 0.421875l0 0.71875l1.484375 0q0.28125 0 0.40625 0.109375q0.125 0.109375 0.125 0.296875q0 0.171875 -0.125 0.28125q-0.125 0.109375 -0.40625 0.109375l-1.484375 0zm4.8320312 -0.796875l0 0.5q0.5 -0.359375 0.796875 -0.484375q0.296875 -0.125 0.546875 -0.125q0.390625 0 0.75 0.296875q0.25 0.1875 0.25 0.390625q0 0.171875 -0.125 0.296875q-0.109375 0.109375 -0.28125 0.109375q-0.140625 0 -0.3125 -0.140625q-0.15625 -0.15625 -0.28125 -0.15625q-0.171875 0 -0.515625 0.21875q-0.328125 0.203125 -0.828125 0.625l0 1.21875l1.140625 0q0.296875 0 0.40625 0.109375q0.125 0.109375 0.125 0.28125q0 0.1875 -0.125 0.296875q-0.109375 0.109375 -0.40625 0.109375l-2.421875 0q-0.28125 0 -0.40625 -0.109375q-0.125 -0.109375 -0.125 -0.296875q0 -0.171875 0.125 -0.28125q0.125 -0.109375 0.40625 -0.109375l0.484375 0l0 -1.953125l-0.296875 0q-0.28125 0 -0.40625 -0.109375q-0.125 -0.109375 -0.125 -0.296875q0 -0.171875 0.125 -0.28125q0.125 -0.109375 0.40625 -0.109375l1.09375 0z" fill-rule="nonzero"/><path fill="#32c8cd" d="m446.47754 47.25629l0 0c0 -3.0296555 2.4560242 -5.485676 5.4856873 -5.485676l67.26486 0c1.454895 0 2.8502197 0.57795334 3.8789673 1.60672c1.0287476 1.0287628 1.6066895 2.4240646 1.6066895 3.8789558l0 21.942036c0 3.0296555 -2.4559937 5.4856796 -5.4856567 5.4856796l-67.26486 0c-3.029663 0 -5.4856873 -2.4560242 -5.4856873 -5.4856796z" fill-rule="evenodd"/><path stroke="#ffffff" stroke-width="1.0" stroke-linejoin="round" stroke-linecap="butt" d="m446.47754 47.25629l0 0c0 -3.0296555 2.4560242 -5.485676 5.4856873 -5.485676l67.26486 0c1.454895 0 2.8502197 0.57795334 3.8789673 1.60672c1.0287476 1.0287628 1.6066895 2.4240646 1.6066895 3.8789558l0 21.942036c0 3.0296555 -2.4559937 5.4856796 -5.4856567 5.4856796l-67.26486 0c-3.029663 0 -5.4856873 -2.4560242 -5.4856873 -5.4856796z" fill-rule="evenodd"/><path fill="#ffffff" d="m460.32816 57.572933q0 0.40625 -0.296875 0.6875q-0.28125 0.28125 -0.796875 0.28125q-0.515625 0 -0.8125 -0.28125q-0.296875 -0.28125 -0.296875 -0.6875q0 -0.421875 0.296875 -0.6875q0.296875 -0.28125 0.8125 -0.28125q0.515625 0 0.796875 0.28125q0.296875 0.265625 0.296875 0.6875zm5.826416 -8.546875l0 3.296875q0.53125 -0.359375 1.078125 -0.53125q0.5625 -0.171875 1.140625 -0.171875q1.515625 0 2.578125 1.046875q1.0625 1.046875 1.0625 2.546875q0 1.421875 -1.015625 2.375q-1.0 0.953125 -2.65625 0.953125q-0.59375 0 -1.140625 -0.15625q-0.53125 -0.140625 -1.046875 -0.4375l0 0.359375l-1.71875 0q-0.53125 0 -0.765625 -0.203125q-0.21875 -0.203125 -0.21875 -0.53125q0 -0.328125 0.234375 -0.53125q0.234375 -0.203125 0.75 -0.203125l0.25 0l0 -6.34375l-0.25 0q-0.53125 0 -0.765625 -0.203125q-0.21875 -0.203125 -0.21875 -0.53125q0 -0.328125 0.21875 -0.53125q0.234375 -0.203125 0.765625 -0.203125l1.71875 0zm4.390625 6.21875q0 -0.90625 -0.640625 -1.53125q-0.640625 -0.625 -1.5625 -0.625q-0.90625 0 -1.546875 0.625q-0.640625 0.625 -0.640625 1.515625q0 0.8125 0.5625 1.328125q0.578125 0.515625 1.625 0.515625q1.046875 0 1.625 -0.515625q0.578125 -0.515625 0.578125 -1.3125zm9.373322 -3.4375l0 5.03125q0.46875 0 0.6875 0.21875q0.21875 0.203125 0.21875 0.515625q0 0.328125 -0.234375 0.53125q-0.21875 0.203125 -0.75 0.203125l-1.390625 0l0 -0.34375q-0.625 0.296875 -1.203125 0.4375q-0.578125 0.140625 -1.09375 0.140625q-0.71875 0 -1.25 -0.296875q-0.53125 -0.3125 -0.828125 -0.84375q-0.21875 -0.390625 -0.21875 -0.96875l0 -3.15625l-0.265625 0q-0.515625 0 -0.75 -0.203125q-0.21875 -0.203125 -0.21875 -0.53125q0 -0.328125 0.21875 -0.53125q0.234375 -0.203125 0.75 -0.203125l1.71875 0l0 4.375q0 0.453125 0.21875 0.671875q0.234375 0.21875 0.703125 0.21875q0.4375 0 0.953125 -0.171875q0.515625 -0.171875 1.265625 -0.640625l0 -2.984375l-0.53125 0q-0.53125 0 -0.765625 -0.203125q-0.21875 -0.203125 -0.21875 -0.53125q0 -0.328125 0.21875 -0.53125q0.234375 -0.203125 0.765625 -0.203125l2.0 0zm5.670166 1.46875l0 3.5625l2.078125 0q0.53125 0 0.75 0.203125q0.234375 0.203125 0.234375 0.53125q0 0.328125 -0.234375 0.53125q-0.21875 0.203125 -0.75 0.203125l-4.421875 0q-0.53125 0 -0.765625 -0.203125q-0.21875 -0.203125 -0.21875 -0.53125q0 -0.328125 0.21875 -0.53125q0.234375 -0.203125 0.765625 -0.203125l0.875 0l0 -3.5625l-0.703125 0q-0.53125 0 -0.765625 -0.203125q-0.21875 -0.203125 -0.21875 -0.53125q0 -0.328125 0.21875 -0.53125q0.234375 -0.203125 0.765625 -0.203125l0.703125 0l0 -0.5625q0 -0.953125 0.71875 -1.578125q0.71875 -0.640625 2.078125 -0.640625q0.609375 0 1.40625 0.109375q0.796875 0.109375 1.015625 0.3125q0.234375 0.203125 0.234375 0.515625q0 0.328125 -0.203125 0.546875q-0.1875 0.21875 -0.484375 0.21875q-0.140625 0 -0.40625 -0.0625q-0.90625 -0.171875 -1.609375 -0.171875q-0.734375 0 -1.015625 0.21875q-0.265625 0.21875 -0.265625 0.53125l0 0.5625l2.25 0q0.53125 0 0.75 0.203125q0.234375 0.203125 0.234375 0.53125q0 0.328125 -0.234375 0.53125q-0.21875 0.203125 -0.75 0.203125l-2.25 0zm8.795197 0l0 3.5625l2.078125 0q0.53125 0 0.75 0.203125q0.234375 0.203125 0.234375 0.53125q0 0.328125 -0.234375 0.53125q-0.21875 0.203125 -0.75 0.203125l-4.421875 0q-0.53125 0 -0.765625 -0.203125q-0.21875 -0.203125 -0.21875 -0.53125q0 -0.328125 0.21875 -0.53125q0.234375 -0.203125 0.765625 -0.203125l0.875 0l0 -3.5625l-0.703125 0q-0.53125 0 -0.765625 -0.203125q-0.21875 -0.203125 -0.21875 -0.53125q0 -0.328125 0.21875 -0.53125q0.234375 -0.203125 0.765625 -0.203125l0.703125 0l0 -0.5625q0 -0.953125 0.71875 -1.578125q0.71875 -0.640625 2.078125 -0.640625q0.609375 0 1.40625 0.109375q0.796875 0.109375 1.015625 0.3125q0.234375 0.203125 0.234375 0.515625q0 0.328125 -0.203125 0.546875q-0.1875 0.21875 -0.484375 0.21875q-0.140625 0 -0.40625 -0.0625q-0.90625 -0.171875 -1.609375 -0.171875q-0.734375 0 -1.015625 0.21875q-0.265625 0.21875 -0.265625 0.53125l0 0.5625l2.25 0q0.53125 0 0.75 0.203125q0.234375 0.203125 0.234375 0.53125q0 0.328125 -0.234375 0.53125q-0.21875 0.203125 -0.75 0.203125l-2.25 0zm12.482666 2.53125l-6.015625 0q0.234375 0.5625 0.8125 0.921875q0.578125 0.34375 1.578125 0.34375q0.8125 0 2.171875 -0.34375q0.546875 -0.140625 0.765625 -0.140625q0.296875 0 0.5 0.203125q0.203125 0.203125 0.203125 0.515625q0 0.296875 -0.21875 0.484375q-0.296875 0.265625 -1.40625 0.515625q-1.09375 0.234375 -2.125 0.234375q-1.765625 0 -2.828125 -0.984375q-1.046875 -1.0 -1.046875 -2.453125q0 -1.546875 1.140625 -2.515625q1.140625 -0.96875 2.640625 -0.96875q0.890625 0 1.640625 0.3125q0.75 0.3125 1.109375 0.671875q0.515625 0.53125 0.84375 1.3125q0.234375 0.546875 0.234375 1.265625l0 0.625zm-1.625 -1.46875q-0.328125 -0.625 -0.875 -0.9375q-0.546875 -0.3125 -1.296875 -0.3125q-0.75 0 -1.296875 0.3125q-0.53125 0.3125 -0.875 0.9375l4.34375 0zm6.4358215 -2.53125l0 0.921875q0.921875 -0.671875 1.453125 -0.890625q0.53125 -0.21875 1.0 -0.21875q0.71875 0 1.390625 0.53125q0.453125 0.359375 0.453125 0.71875q0 0.328125 -0.21875 0.546875q-0.21875 0.203125 -0.515625 0.203125q-0.28125 0 -0.578125 -0.265625q-0.296875 -0.265625 -0.53125 -0.265625q-0.3125 0 -0.921875 0.390625q-0.609375 0.375 -1.53125 1.15625l0 2.203125l2.09375 0q0.53125 0 0.75 0.203125q0.21875 0.203125 0.21875 0.53125q0 0.328125 -0.21875 0.53125q-0.21875 0.203125 -0.75 0.203125l-4.4375 0q-0.53125 0 -0.765625 -0.203125q-0.21875 -0.203125 -0.21875 -0.53125q0 -0.328125 0.21875 -0.53125q0.234375 -0.203125 0.765625 -0.203125l0.875 0l0 -3.5625l-0.53125 0q-0.53125 0 -0.765625 -0.203125q-0.21875 -0.203125 -0.21875 -0.53125q0 -0.328125 0.21875 -0.53125q0.234375 -0.203125 0.765625 -0.203125l2.0 0z" fill-rule="nonzero"/><path fill="#ffffff" d="m474.98434 64.84481l0 1.796875q0.296875 -0.203125 0.59375 -0.296875q0.3125 -0.09375 0.609375 -0.09375q0.84375 0 1.421875 0.578125q0.578125 0.578125 0.578125 1.390625q0 0.765625 -0.5625 1.296875q-0.546875 0.515625 -1.453125 0.515625q-0.3125 0 -0.609375 -0.078125q-0.296875 -0.078125 -0.578125 -0.25l0 0.203125l-0.9375 0q-0.28125 0 -0.40625 -0.109375q-0.125 -0.109375 -0.125 -0.296875q0 -0.171875 0.125 -0.28125q0.125 -0.109375 0.40625 -0.109375l0.140625 0l0 -3.46875l-0.140625 0q-0.28125 0 -0.40625 -0.109375q-0.125 -0.109375 -0.125 -0.296875q0 -0.171875 0.125 -0.28125q0.125 -0.109375 0.40625 -0.109375l0.9375 0zm2.390625 3.390625q0 -0.5 -0.34375 -0.84375q-0.34375 -0.34375 -0.84375 -0.34375q-0.5 0 -0.859375 0.34375q-0.34375 0.34375 -0.34375 0.828125q0 0.453125 0.3125 0.734375q0.3125 0.28125 0.890625 0.28125q0.5625 0 0.875 -0.28125q0.3125 -0.28125 0.3125 -0.71875zm2.9726562 1.640625l-1.390625 -2.71875q-0.1875 -0.015625 -0.296875 -0.125q-0.09375 -0.109375 -0.09375 -0.265625q0 -0.1875 0.125 -0.296875q0.125 -0.109375 0.40625 -0.109375l0.734375 0q0.28125 0 0.40625 0.109375q0.125 0.109375 0.125 0.296875q0 0.171875 -0.125 0.28125q-0.125 0.109375 -0.390625 0.109375l0.953125 1.84375l0.9375 -1.84375q-0.265625 0 -0.390625 -0.109375q-0.109375 -0.109375 -0.109375 -0.296875q0 -0.171875 0.109375 -0.28125q0.125 -0.109375 0.421875 -0.109375l0.75 0q0.28125 0 0.40625 0.109375q0.125 0.109375 0.125 0.296875q0 0.15625 -0.109375 0.265625q-0.09375 0.109375 -0.3125 0.125l-1.828125 3.625q0.296875 0 0.390625 0.0625q0.1875 0.109375 0.1875 0.34375q0 0.171875 -0.125 0.28125q-0.125 0.109375 -0.40625 0.109375l-1.75 0q-0.28125 0 -0.40625 -0.109375q-0.125 -0.109375 -0.125 -0.28125q0 -0.1875 0.125 -0.296875q0.125 -0.109375 0.40625 -0.109375l0.796875 0l0.453125 -0.90625zm5.0507812 -2.71875l0 1.609375q0 0.25 0.109375 0.34375q0.15625 0.125 0.578125 0.125q0.625 0 1.140625 -0.265625q0.203125 -0.09375 0.3125 -0.09375q0.15625 0 0.265625 0.125q0.125 0.109375 0.125 0.265625q0 0.15625 -0.125 0.28125q-0.203125 0.171875 -0.765625 0.328125q-0.5625 0.15625 -0.953125 0.15625q-0.734375 0 -1.109375 -0.3125q-0.375 -0.328125 -0.375 -0.796875l0 -1.765625l-0.296875 0q-0.28125 0 -0.40625 -0.109375q-0.125 -0.109375 -0.125 -0.296875q0 -0.171875 0.125 -0.28125q0.125 -0.109375 0.40625 -0.109375l0.296875 0l0 -0.71875q0 -0.296875 0.109375 -0.421875q0.109375 -0.125 0.296875 -0.125q0.171875 0 0.28125 0.125q0.109375 0.125 0.109375 0.421875l0 0.71875l1.484375 0q0.28125 0 0.40625 0.109375q0.125 0.109375 0.125 0.296875q0 0.171875 -0.125 0.28125q-0.125 0.109375 -0.40625 0.109375l-1.484375 0zm7.0039062 1.375l-3.28125 0q0.125 0.3125 0.4375 0.515625q0.328125 0.1875 0.875 0.1875q0.4375 0 1.171875 -0.1875q0.3125 -0.078125 0.421875 -0.078125q0.171875 0 0.28125 0.109375q0.109375 0.109375 0.109375 0.28125q0 0.15625 -0.125 0.265625q-0.15625 0.140625 -0.765625 0.28125q-0.59375 0.125 -1.15625 0.125q-0.96875 0 -1.546875 -0.53125q-0.5625 -0.546875 -0.5625 -1.34375q0 -0.84375 0.609375 -1.375q0.625 -0.53125 1.4375 -0.53125q0.5 0 0.90625 0.171875q0.40625 0.171875 0.609375 0.375q0.28125 0.28125 0.453125 0.71875q0.125 0.296875 0.125 0.6875l0 0.328125zm-0.875 -0.796875q-0.1875 -0.34375 -0.484375 -0.515625q-0.296875 -0.171875 -0.703125 -0.171875q-0.40625 0 -0.703125 0.171875q-0.296875 0.171875 -0.484375 0.515625l2.375 0zm4.5351562 -0.4375q-0.1875 -0.125 -0.40625 -0.1875q-0.21875 -0.0625 -0.453125 -0.0625q-0.46875 0 -0.734375 0.15625q-0.125 0.0625 -0.125 0.140625q0 0.09375 0.171875 0.1875q0.125 0.0625 0.546875 0.109375q0.796875 0.109375 1.109375 0.21875q0.421875 0.15625 0.640625 0.4375q0.21875 0.28125 0.21875 0.59375q0 0.4375 -0.375 0.71875q-0.546875 0.421875 -1.40625 0.421875q-0.359375 0 -0.65625 -0.0625q-0.28125 -0.046875 -0.53125 -0.171875q-0.0625 0.046875 -0.125 0.078125q-0.0625 0.03125 -0.140625 0.03125q-0.1875 0 -0.296875 -0.125q-0.109375 -0.125 -0.109375 -0.421875l0 -0.265625q0 -0.28125 0.109375 -0.40625q0.109375 -0.125 0.296875 -0.125q0.140625 0 0.234375 0.078125q0.09375 0.078125 0.15625 0.28125q0.1875 0.15625 0.4375 0.234375q0.265625 0.078125 0.59375 0.078125q0.546875 0 0.859375 -0.171875q0.140625 -0.09375 0.140625 -0.1875q0 -0.15625 -0.203125 -0.25q-0.203125 -0.109375 -0.859375 -0.171875q-0.96875 -0.109375 -1.28125 -0.390625q-0.328125 -0.28125 -0.328125 -0.703125q0 -0.4375 0.359375 -0.71875q0.5 -0.390625 1.296875 -0.390625q0.265625 0 0.515625 0.0625q0.265625 0.046875 0.5 0.15625q0.078125 -0.0625 0.140625 -0.078125q0.0625 -0.03125 0.125 -0.03125q0.15625 0 0.265625 0.125q0.109375 0.125 0.109375 0.40625l0 0.203125q0 0.25 -0.0625 0.34375q-0.125 0.1875 -0.34375 0.1875q-0.140625 0 -0.25 -0.09375q-0.109375 -0.09375 -0.140625 -0.234375z" fill-rule="nonzero"/><path fill="#32c8cd" d="m552.71375 47.25629l0 0c0 -3.0296555 2.4560547 -5.485676 5.485718 -5.485676l58.067993 0c1.454895 0 2.8502197 0.57795334 3.8789673 1.60672c1.0287476 1.0287628 1.6066895 2.4240646 1.6066895 3.8789558l0 21.942036c0 3.0296555 -2.4559937 5.4856796 -5.4856567 5.4856796l-58.067993 0c-3.029663 0 -5.485718 -2.4560242 -5.485718 -5.4856796z" fill-rule="evenodd"/><path stroke="#ffffff" stroke-width="1.0" stroke-linejoin="round" stroke-linecap="butt" d="m552.71375 47.25629l0 0c0 -3.0296555 2.4560547 -5.485676 5.485718 -5.485676l58.067993 0c1.454895 0 2.8502197 0.57795334 3.8789673 1.60672c1.0287476 1.0287628 1.6066895 2.4240646 1.6066895 3.8789558l0 21.942036c0 3.0296555 -2.4559937 5.4856796 -5.4856567 5.4856796l-58.067993 0c-3.029663 0 -5.485718 -2.4560242 -5.485718 -5.4856796z" fill-rule="evenodd"/><path fill="#ffffff" d="m570.7611 57.572933q0 0.40625 -0.296875 0.6875q-0.28125 0.28125 -0.796875 0.28125q-0.515625 0 -0.8125 -0.28125q-0.296875 -0.28125 -0.296875 -0.6875q0 -0.421875 0.296875 -0.6875q0.296875 -0.28125 0.8125 -0.28125q0.515625 0 0.796875 0.28125q0.296875 0.265625 0.296875 0.6875zm5.826477 -8.546875l0 3.296875q0.53125 -0.359375 1.078125 -0.53125q0.5625 -0.171875 1.140625 -0.171875q1.515625 0 2.578125 1.046875q1.0625 1.046875 1.0625 2.546875q0 1.421875 -1.015625 2.375q-1.0 0.953125 -2.65625 0.953125q-0.59375 0 -1.140625 -0.15625q-0.53125 -0.140625 -1.046875 -0.4375l0 0.359375l-1.71875 0q-0.53125 0 -0.765625 -0.203125q-0.21875 -0.203125 -0.21875 -0.53125q0 -0.328125 0.234375 -0.53125q0.234375 -0.203125 0.75 -0.203125l0.25 0l0 -6.34375l-0.25 0q-0.53125 0 -0.765625 -0.203125q-0.21875 -0.203125 -0.21875 -0.53125q0 -0.328125 0.21875 -0.53125q0.234375 -0.203125 0.765625 -0.203125l1.71875 0zm4.390625 6.21875q0 -0.90625 -0.640625 -1.53125q-0.640625 -0.625 -1.5625 -0.625q-0.90625 0 -1.546875 0.625q-0.640625 0.625 -0.640625 1.515625q0 0.8125 0.5625 1.328125q0.578125 0.515625 1.625 0.515625q1.046875 0 1.625 -0.515625q0.578125 -0.515625 0.578125 -1.3125zm6.982666 -6.21875l0 7.8125l1.765625 0q0.53125 0 0.75 0.203125q0.234375 0.203125 0.234375 0.53125q0 0.328125 -0.234375 0.53125q-0.21875 0.203125 -0.75 0.203125l-4.984375 0q-0.53125 0 -0.765625 -0.203125q-0.21875 -0.203125 -0.21875 -0.53125q0 -0.328125 0.21875 -0.53125q0.234375 -0.203125 0.765625 -0.203125l1.765625 0l0 -6.34375l-1.1875 0q-0.53125 0 -0.765625 -0.203125q-0.21875 -0.203125 -0.21875 -0.53125q0 -0.328125 0.21875 -0.53125q0.234375 -0.203125 0.765625 -0.203125l2.640625 0zm11.873291 6.15625q0 0.84375 -0.46875 1.640625q-0.46875 0.78125 -1.390625 1.25q-0.921875 0.46875 -1.9375 0.46875q-1.0 0 -1.921875 -0.453125q-0.90625 -0.46875 -1.390625 -1.265625q-0.484375 -0.796875 -0.484375 -1.65625q0 -0.875 0.484375 -1.71875q0.5 -0.859375 1.40625 -1.34375q0.90625 -0.484375 1.90625 -0.484375q1.0 0 1.921875 0.5q0.9375 0.484375 1.40625 1.328125q0.46875 0.84375 0.46875 1.734375zm-1.46875 0q0 -0.703125 -0.5 -1.296875q-0.703125 -0.796875 -1.828125 -0.796875q-1.0 0 -1.671875 0.640625q-0.65625 0.625 -0.65625 1.46875q0 0.6875 0.671875 1.28125q0.671875 0.59375 1.65625 0.59375q0.984375 0 1.65625 -0.59375q0.671875 -0.59375 0.671875 -1.296875zm4.607666 -6.15625l0 3.296875q0.53125 -0.359375 1.078125 -0.53125q0.5625 -0.171875 1.140625 -0.171875q1.515625 0 2.578125 1.046875q1.0625 1.046875 1.0625 2.546875q0 1.421875 -1.015625 2.375q-1.0 0.953125 -2.65625 0.953125q-0.59375 0 -1.140625 -0.15625q-0.53125 -0.140625 -1.046875 -0.4375l0 0.359375l-1.71875 0q-0.53125 0 -0.765625 -0.203125q-0.21875 -0.203125 -0.21875 -0.53125q0 -0.328125 0.234375 -0.53125q0.234375 -0.203125 0.75 -0.203125l0.25 0l0 -6.34375l-0.25 0q-0.53125 0 -0.765625 -0.203125q-0.21875 -0.203125 -0.21875 -0.53125q0 -0.328125 0.21875 -0.53125q0.234375 -0.203125 0.765625 -0.203125l1.71875 0zm4.390625 6.21875q0 -0.90625 -0.640625 -1.53125q-0.640625 -0.625 -1.5625 -0.625q-0.90625 0 -1.546875 0.625q-0.640625 0.625 -0.640625 1.515625q0 0.8125 0.5625 1.328125q0.578125 0.515625 1.625 0.515625q1.046875 0 1.625 -0.515625q0.578125 -0.515625 0.578125 -1.3125z" fill-rule="nonzero"/><path fill="#ffffff" d="m572.0245 66.360435l0 0.265625q0.21875 -0.1875 0.484375 -0.28125q0.265625 -0.09375 0.5625 -0.09375q0.71875 0 1.125 0.4375q0.328125 0.359375 0.328125 0.921875l0 1.5q0.265625 0 0.375 0.109375q0.125 0.109375 0.125 0.28125q0 0.1875 -0.125 0.296875q-0.125 0.109375 -0.40625 0.109375l-0.71875 0q-0.296875 0 -0.421875 -0.109375q-0.125 -0.109375 -0.125 -0.296875q0 -0.171875 0.125 -0.28125q0.125 -0.109375 0.375 -0.109375l0 -1.515625q0 -0.265625 -0.140625 -0.390625q-0.1875 -0.15625 -0.546875 -0.15625q-0.28125 0 -0.5 0.109375q-0.203125 0.109375 -0.515625 0.453125l0 1.5q0.3125 0 0.390625 0.046875q0.203125 0.125 0.203125 0.34375q0 0.1875 -0.125 0.296875q-0.125 0.109375 -0.421875 0.109375l-0.90625 0q-0.28125 0 -0.40625 -0.109375q-0.125 -0.109375 -0.125 -0.296875q0 -0.21875 0.1875 -0.34375q0.09375 -0.046875 0.40625 -0.046875l0 -1.953125q-0.265625 0 -0.390625 -0.109375q-0.109375 -0.109375 -0.109375 -0.296875q0 -0.171875 0.125 -0.28125q0.125 -0.109375 0.40625 -0.109375l0.765625 0zm7.4414062 -1.515625l0 4.265625l0.140625 0q0.28125 0 0.40625 0.109375q0.125 0.109375 0.125 0.28125q0 0.1875 -0.125 0.296875q-0.109375 0.109375 -0.40625 0.109375l-0.9375 0l0 -0.203125q-0.265625 0.171875 -0.578125 0.25q-0.296875 0.078125 -0.609375 0.078125q-0.90625 0 -1.453125 -0.515625q-0.546875 -0.53125 -0.546875 -1.296875q0 -0.8125 0.578125 -1.390625q0.578125 -0.578125 1.40625 -0.578125q0.3125 0 0.609375 0.09375q0.296875 0.09375 0.59375 0.296875l0 -1.0l-0.140625 0q-0.28125 0 -0.40625 -0.109375q-0.125 -0.109375 -0.125 -0.296875q0 -0.171875 0.125 -0.28125q0.125 -0.109375 0.40625 -0.109375l0.9375 0zm-0.796875 3.390625q0 -0.5 -0.34375 -0.84375q-0.34375 -0.34375 -0.859375 -0.34375q-0.5 0 -0.84375 0.34375q-0.34375 0.34375 -0.34375 0.828125q0 0.453125 0.3125 0.734375q0.3125 0.28125 0.875 0.28125q0.578125 0 0.890625 -0.28125q0.3125 -0.28125 0.3125 -0.71875zm4.4882812 1.671875l0 -0.1875q-0.296875 0.15625 -0.671875 0.234375q-0.359375 0.09375 -0.65625 0.09375q-0.640625 0 -1.046875 -0.34375q-0.40625 -0.34375 -0.40625 -0.765625q0 -0.5 0.515625 -0.921875q0.515625 -0.4375 1.421875 -0.4375q0.359375 0 0.84375 0.078125l0 -0.203125q0 -0.171875 -0.15625 -0.28125q-0.15625 -0.125 -0.59375 -0.125q-0.34375 0 -0.921875 0.140625q-0.203125 0.0625 -0.328125 0.0625q-0.15625 0 -0.265625 -0.109375q-0.109375 -0.125 -0.109375 -0.3125q0 -0.09375 0.03125 -0.171875q0.046875 -0.078125 0.109375 -0.109375q0.078125 -0.046875 0.296875 -0.109375q0.296875 -0.09375 0.609375 -0.140625q0.3125 -0.046875 0.5625 -0.046875q0.734375 0 1.140625 0.328125q0.421875 0.3125 0.421875 0.875l0 1.65625l0.140625 0q0.28125 0 0.40625 0.109375q0.125 0.109375 0.125 0.28125q0 0.1875 -0.125 0.296875q-0.125 0.109375 -0.40625 0.109375l-0.9375 0zm0 -1.4375q-0.484375 -0.09375 -0.890625 -0.09375q-0.484375 0 -0.84375 0.234375q-0.21875 0.15625 -0.21875 0.3125q0 0.109375 0.109375 0.1875q0.203125 0.125 0.53125 0.125q0.296875 0 0.65625 -0.109375q0.375 -0.109375 0.65625 -0.3125l0 -0.34375zm3.9101562 -2.109375l0 0.5q0.5 -0.359375 0.796875 -0.484375q0.296875 -0.125 0.546875 -0.125q0.390625 0 0.75 0.296875q0.25 0.1875 0.25 0.390625q0 0.171875 -0.125 0.296875q-0.109375 0.109375 -0.28125 0.109375q-0.140625 0 -0.3125 -0.140625q-0.15625 -0.15625 -0.28125 -0.15625q-0.171875 0 -0.515625 0.21875q-0.328125 0.203125 -0.828125 0.625l0 1.21875l1.140625 0q0.296875 0 0.40625 0.109375q0.125 0.109375 0.125 0.28125q0 0.1875 -0.125 0.296875q-0.109375 0.109375 -0.40625 0.109375l-2.421875 0q-0.28125 0 -0.40625 -0.109375q-0.125 -0.109375 -0.125 -0.296875q0 -0.171875 0.125 -0.28125q0.125 -0.109375 0.40625 -0.109375l0.484375 0l0 -1.953125l-0.296875 0q-0.28125 0 -0.40625 -0.109375q-0.125 -0.109375 -0.125 -0.296875q0 -0.171875 0.125 -0.28125q0.125 -0.109375 0.40625 -0.109375l1.09375 0zm4.8007812 0l0 0.5q0.5 -0.359375 0.796875 -0.484375q0.296875 -0.125 0.546875 -0.125q0.390625 0 0.75 0.296875q0.25 0.1875 0.25 0.390625q0 0.171875 -0.125 0.296875q-0.109375 0.109375 -0.28125 0.109375q-0.140625 0 -0.3125 -0.140625q-0.15625 -0.15625 -0.28125 -0.15625q-0.171875 0 -0.515625 0.21875q-0.328125 0.203125 -0.828125 0.625l0 1.21875l1.140625 0q0.296875 0 0.40625 0.109375q0.125 0.109375 0.125 0.28125q0 0.1875 -0.125 0.296875q-0.109375 0.109375 -0.40625 0.109375l-2.421875 0q-0.28125 0 -0.40625 -0.109375q-0.125 -0.109375 -0.125 -0.296875q0 -0.171875 0.125 -0.28125q0.125 -0.109375 0.40625 -0.109375l0.484375 0l0 -1.953125l-0.296875 0q-0.28125 0 -0.40625 -0.109375q-0.125 -0.109375 -0.125 -0.296875q0 -0.171875 0.125 -0.28125q0.125 -0.109375 0.40625 -0.109375l1.09375 0zm5.6914062 3.546875l0 -0.1875q-0.296875 0.15625 -0.671875 0.234375q-0.359375 0.09375 -0.65625 0.09375q-0.640625 0 -1.046875 -0.34375q-0.40625 -0.34375 -0.40625 -0.765625q0 -0.5 0.515625 -0.921875q0.515625 -0.4375 1.421875 -0.4375q0.359375 0 0.84375 0.078125l0 -0.203125q0 -0.171875 -0.15625 -0.28125q-0.15625 -0.125 -0.59375 -0.125q-0.34375 0 -0.921875 0.140625q-0.203125 0.0625 -0.328125 0.0625q-0.15625 0 -0.265625 -0.109375q-0.109375 -0.125 -0.109375 -0.3125q0 -0.09375 0.03125 -0.171875q0.046875 -0.078125 0.109375 -0.109375q0.078125 -0.046875 0.296875 -0.109375q0.296875 -0.09375 0.609375 -0.140625q0.3125 -0.046875 0.5625 -0.046875q0.734375 0 1.140625 0.328125q0.421875 0.3125 0.421875 0.875l0 1.65625l0.140625 0q0.28125 0 0.40625 0.109375q0.125 0.109375 0.125 0.28125q0 0.1875 -0.125 0.296875q-0.125 0.109375 -0.40625 0.109375l-0.9375 0zm0 -1.4375q-0.484375 -0.09375 -0.890625 -0.09375q-0.484375 0 -0.84375 0.234375q-0.21875 0.15625 -0.21875 0.3125q0 0.109375 0.109375 0.1875q0.203125 0.125 0.53125 0.125q0.296875 0 0.65625 -0.109375q0.375 -0.109375 0.65625 -0.3125l0 -0.34375zm3.6289062 1.40625l-1.390625 -2.71875q-0.1875 -0.015625 -0.296875 -0.125q-0.09375 -0.109375 -0.09375 -0.265625q0 -0.1875 0.125 -0.296875q0.125 -0.109375 0.40625 -0.109375l0.734375 0q0.28125 0 0.40625 0.109375q0.125 0.109375 0.125 0.296875q0 0.171875 -0.125 0.28125q-0.125 0.109375 -0.390625 0.109375l0.953125 1.84375l0.9375 -1.84375q-0.265625 0 -0.390625 -0.109375q-0.109375 -0.109375 -0.109375 -0.296875q0 -0.171875 0.109375 -0.28125q0.125 -0.109375 0.421875 -0.109375l0.75 0q0.28125 0 0.40625 0.109375q0.125 0.109375 0.125 0.296875q0 0.15625 -0.109375 0.265625q-0.09375 0.109375 -0.3125 0.125l-1.828125 3.625q0.296875 0 0.390625 0.0625q0.1875 0.109375 0.1875 0.34375q0 0.171875 -0.125 0.28125q-0.125 0.109375 -0.40625 0.109375l-1.75 0q-0.28125 0 -0.40625 -0.109375q-0.125 -0.109375 -0.125 -0.28125q0 -0.1875 0.125 -0.296875q0.125 -0.109375 0.40625 -0.109375l0.796875 0l0.453125 -0.90625z" fill-rule="nonzero"/><path fill="#000000" fill-opacity="0.0" d="m419.35748 45.49989l11.24408 0l0 13.732281l-11.24408 0z" fill-rule="evenodd"/><path fill="#000000" d="m422.8828 65.58967l2.546875 0l0 1.828125q0 1.109375 -0.1875 1.75q-0.1875 0.65625 -0.71875 1.15625q-0.53125 0.515625 -1.359375 0.8125l-0.5 -1.0625q0.78125 -0.25 1.109375 -0.703125q0.328125 -0.4375 0.34375 -1.21875l-1.234375 0l0 -2.5625z" fill-rule="nonzero"/><path fill="#000000" fill-opacity="0.0" d="m528.2718 45.08625l11.24408 0l0 13.732285l-11.24408 0z" fill-rule="evenodd"/><path fill="#000000" d="m531.7971 65.17603l2.546875 0l0 1.828125q0 1.109375 -0.1875 1.75q-0.1875 0.65625 -0.71875 1.15625q-0.53125 0.515625 -1.359375 0.8125l-0.5 -1.0625q0.78125 -0.25 1.109375 -0.703125q0.328125 -0.4375 0.34375 -1.21875l-1.234375 0l0 -2.5625z" fill-rule="nonzero"/><path fill="#000000" fill-opacity="0.0" d="m1.0 1.2178478l172.06299 0l0 32.314964l-172.06299 0z" fill-rule="evenodd"/><path fill="#000000" d="m2.59375 19.834703l0 0.265625q0 1.53125 0.390625 2.84375q0.390625 1.296875 1.109375 2.25q0.71875 0.96875 1.75 1.515625q1.03125 0.53125 2.3125 0.53125q1.21875 0 2.15625 -0.453125q0.9375 -0.453125 1.625 -1.28125l0.140625 1.46875l2.828125 0l0 -20.0l-3.109375 0l0 7.234375q-0.6875 -0.75 -1.5625 -1.15625q-0.875 -0.421875 -2.046875 -0.421875q-1.296875 0 -2.34375 0.53125q-1.03125 0.515625 -1.75 1.46875q-0.71875 0.953125 -1.109375 2.28125q-0.390625 1.3125 -0.390625 2.921875zm3.125 0.265625l0 -0.265625q0 -0.953125 0.171875 -1.796875q0.1875 -0.84375 0.59375 -1.46875q0.375 -0.640625 0.984375 -1.0q0.625 -0.375 1.5 -0.375q1.03125 0 1.71875 0.46875q0.6875 0.453125 1.109375 1.234375l0 6.0625q-0.421875 0.78125 -1.109375 1.25q-0.6875 0.46875 -1.75 0.46875q-0.859375 0 -1.46875 -0.359375q-0.609375 -0.359375 -1.0 -1.0q-0.390625 -0.609375 -0.578125 -1.4375q-0.171875 -0.84375 -0.171875 -1.78125zm12.715103 -0.296875l0 0.28125q0 1.546875 0.4375 2.84375q0.453125 1.296875 1.296875 2.265625q0.84375 0.96875 2.0625 1.515625q1.21875 0.53125 2.765625 0.53125q1.546875 0 2.75 -0.53125q1.21875 -0.546875 2.0625 -1.515625q0.828125 -0.96875 1.265625 -2.265625q0.453125 -1.296875 0.453125 -2.84375l0 -0.28125q0 -1.53125 -0.453125 -2.84375q-0.4375 -1.3125 -1.265625 -2.265625q-0.84375 -0.96875 -2.0625 -1.515625q-1.21875 -0.546875 -2.765625 -0.546875q-1.546875 0 -2.765625 0.546875q-1.203125 0.546875 -2.046875 1.515625q-0.84375 0.953125 -1.296875 2.265625q-0.4375 1.3125 -0.4375 2.84375zm3.125 0.28125l0 -0.28125q0 -0.921875 0.1875 -1.765625q0.203125 -0.84375 0.640625 -1.484375q0.421875 -0.640625 1.0625 -1.015625q0.640625 -0.375 1.53125 -0.375q0.890625 0 1.53125 0.375q0.65625 0.375 1.078125 1.015625q0.40625 0.640625 0.609375 1.484375q0.21875 0.84375 0.21875 1.765625l0 0.28125q0 0.9375 -0.203125 1.796875q-0.203125 0.84375 -0.625 1.46875q-0.421875 0.640625 -1.078125 1.015625q-0.640625 0.375 -1.515625 0.375q-0.890625 0 -1.546875 -0.375q-0.640625 -0.375 -1.0625 -1.015625q-0.4375 -0.625 -0.640625 -1.46875q-0.1875 -0.859375 -0.1875 -1.796875zm19.574478 4.65625q-0.96875 0 -1.625 -0.390625q-0.640625 -0.390625 -1.015625 -1.046875q-0.390625 -0.625 -0.5625 -1.453125q-0.15625 -0.828125 -0.15625 -1.6875l0 -0.453125q0 -0.84375 0.15625 -1.65625q0.171875 -0.828125 0.5625 -1.46875q0.390625 -0.640625 1.03125 -1.03125q0.640625 -0.390625 1.609375 -0.390625q0.640625 0 1.1875 0.21875q0.5625 0.21875 0.96875 0.59375q0.390625 0.375 0.59375 0.890625q0.21875 0.5 0.21875 1.078125l2.9375 0q0.015625 -1.171875 -0.421875 -2.140625q-0.4375 -0.984375 -1.21875 -1.6875q-0.78125 -0.703125 -1.875 -1.09375q-1.078125 -0.390625 -2.359375 -0.390625q-1.609375 0 -2.828125 0.5625q-1.21875 0.5625 -2.03125 1.53125q-0.828125 0.96875 -1.234375 2.265625q-0.40625 1.28125 -0.40625 2.71875l0 0.453125q0 1.46875 0.40625 2.75q0.421875 1.28125 1.234375 2.234375q0.8125 0.96875 2.03125 1.53125q1.21875 0.5625 2.84375 0.5625q1.171875 0 2.234375 -0.375q1.0625 -0.390625 1.875 -1.0625q0.8125 -0.65625 1.28125 -1.546875q0.484375 -0.90625 0.46875 -1.9375l-2.9375 0q0 0.53125 -0.234375 0.984375q-0.234375 0.4375 -0.640625 0.75q-0.421875 0.328125 -0.96875 0.515625q-0.53125 0.171875 -1.125 0.171875z" fill-rule="nonzero"/><path fill="#32c8cd" d="m54.879684 25.100328q0 0.90625 0.59375 1.53125q0.59375 0.609375 1.65625 0.609375q1.0625 0 1.65625 -0.609375q0.609375 -0.625 0.609375 -1.53125q0 -0.90625 -0.59375 -1.53125q-0.59375 -0.640625 -1.671875 -0.640625q-1.09375 0 -1.671875 0.640625q-0.578125 0.640625 -0.578125 1.53125zm21.355728 1.875l2.8125 0l0 -14.078125l-3.109375 0l0 9.96875q-0.1875 0.390625 -0.453125 0.71875q-0.25 0.3125 -0.59375 0.546875q-0.40625 0.25 -0.9375 0.40625q-0.53125 0.140625 -1.21875 0.140625q-0.640625 0 -1.125 -0.15625q-0.484375 -0.171875 -0.796875 -0.578125q-0.3125 -0.390625 -0.453125 -1.046875q-0.140625 -0.65625 -0.140625 -1.640625l0 -8.359375l-3.109375 0l0 8.34375q0 1.578125 0.34375 2.71875q0.359375 1.140625 1.0 1.875q0.640625 0.71875 1.546875 1.0625q0.90625 0.34375 2.0 0.34375q1.28125 0 2.296875 -0.578125q1.03125 -0.59375 1.75 -1.65625l0.1875 1.96875zm16.496353 -14.34375q-1.453125 0 -2.65625 0.6875q-1.203125 0.671875 -2.0625 1.84375l-0.015625 -0.3125l-0.125 -1.953125l-2.921875 0l0 14.078125l3.109375 0l0 -8.6875q0.25 -0.625 0.609375 -1.109375q0.375 -0.484375 0.890625 -0.796875q0.484375 -0.328125 1.109375 -0.484375q0.625 -0.15625 1.40625 -0.15625q0.6875 0 1.375 0.078125q0.703125 0.078125 1.421875 0.234375l0.4375 -3.0625q-0.40625 -0.15625 -1.109375 -0.25q-0.703125 -0.109375 -1.46875 -0.109375zm6.980728 0.265625l0 2.578125l4.328125 0l0 8.921875l-4.328125 0l0 2.578125l11.609375 0l0 -2.578125l-4.140625 0l0 -11.5l-7.46875 0zm4.046875 -3.65625q0 0.5 0.234375 0.875q0.25 0.375 0.71875 0.515625q0.453125 0.140625 0.828125 0.0625q0.375 -0.078125 0.65625 -0.328125q0.546875 -0.140625 0.828125 -0.5625q0.28125 -0.421875 0.203125 -1.0q-0.078125 -0.5625 -0.515625 -0.921875q-0.421875 -0.359375 -1.125 -0.359375q-0.421875 0 -0.765625 0.125q-0.328125 0.125 -0.5625 0.34375q-0.234375 0.234375 -0.375 0.5625q-0.125 0.3125 -0.125 0.6875z" fill-rule="nonzero"/><path fill="#000000" fill-opacity="0.0" d="m1.0 79.149605l234.99213 0l0 32.314964l-234.99213 0z" fill-rule="evenodd"/><path fill="#000000" d="m2.59375 97.766464l0 0.265625q0 1.53125 0.390625 2.84375q0.390625 1.296875 1.109375 2.25q0.71875 0.96875 1.75 1.515625q1.03125 0.53125 2.3125 0.53125q1.21875 0 2.15625 -0.453125q0.9375 -0.453125 1.625 -1.28125l0.140625 1.46875l2.828125 0l0 -20.0l-3.109375 0l0 7.234375q-0.6875 -0.75 -1.5625 -1.15625q-0.875 -0.421875 -2.046875 -0.421875q-1.296875 0 -2.34375 0.53125q-1.03125 0.515625 -1.75 1.46875q-0.71875 0.953125 -1.109375 2.28125q-0.390625 1.3125 -0.390625 2.921875zm3.125 0.265625l0 -0.265625q0 -0.953125 0.171875 -1.796875q0.1875 -0.84375 0.59375 -1.46875q0.375 -0.640625 0.984375 -1.0q0.625 -0.375 1.5 -0.375q1.03125 0 1.71875 0.46875q0.6875 0.453125 1.109375 1.234375l0 6.0625q-0.421875 0.78125 -1.109375 1.25q-0.6875 0.46875 -1.75 0.46875q-0.859375 0 -1.46875 -0.359375q-0.609375 -0.359375 -1.0 -1.0q-0.390625 -0.609375 -0.578125 -1.4375q-0.171875 -0.84375 -0.171875 -1.78125zm12.715103 -0.296875l0 0.28125q0 1.546875 0.4375 2.84375q0.453125 1.296875 1.296875 2.265625q0.84375 0.96875 2.0625 1.515625q1.21875 0.53125 2.765625 0.53125q1.546875 0 2.75 -0.53125q1.21875 -0.546875 2.0625 -1.515625q0.828125 -0.96875 1.265625 -2.265625q0.453125 -1.296875 0.453125 -2.84375l0 -0.28125q0 -1.53125 -0.453125 -2.84375q-0.4375 -1.3125 -1.265625 -2.265625q-0.84375 -0.96875 -2.0625 -1.515625q-1.21875 -0.546875 -2.765625 -0.546875q-1.546875 0 -2.765625 0.546875q-1.203125 0.546875 -2.046875 1.515625q-0.84375 0.953125 -1.296875 2.265625q-0.4375 1.3125 -0.4375 2.84375zm3.125 0.28125l0 -0.28125q0 -0.921875 0.1875 -1.765625q0.203125 -0.84375 0.640625 -1.484375q0.421875 -0.640625 1.0625 -1.015625q0.640625 -0.375 1.53125 -0.375q0.890625 0 1.53125 0.375q0.65625 0.375 1.078125 1.015625q0.40625 0.640625 0.609375 1.484375q0.21875 0.84375 0.21875 1.765625l0 0.28125q0 0.9375 -0.203125 1.796875q-0.203125 0.84375 -0.625 1.46875q-0.421875 0.640625 -1.078125 1.015625q-0.640625 0.375 -1.515625 0.375q-0.890625 0 -1.546875 -0.375q-0.640625 -0.375 -1.0625 -1.015625q-0.4375 -0.625 -0.640625 -1.46875q-0.1875 -0.859375 -0.1875 -1.796875zm19.574478 4.65625q-0.96875 0 -1.625 -0.390625q-0.640625 -0.390625 -1.015625 -1.046875q-0.390625 -0.625 -0.5625 -1.453125q-0.15625 -0.828125 -0.15625 -1.6875l0 -0.453125q0 -0.84375 0.15625 -1.65625q0.171875 -0.828125 0.5625 -1.46875q0.390625 -0.640625 1.03125 -1.03125q0.640625 -0.390625 1.609375 -0.390625q0.640625 0 1.1875 0.21875q0.5625 0.21875 0.96875 0.59375q0.390625 0.375 0.59375 0.890625q0.21875 0.5 0.21875 1.078125l2.9375 0q0.015625 -1.171875 -0.421875 -2.140625q-0.4375 -0.984375 -1.21875 -1.6875q-0.78125 -0.703125 -1.875 -1.09375q-1.078125 -0.390625 -2.359375 -0.390625q-1.609375 0 -2.828125 0.5625q-1.21875 0.5625 -2.03125 1.53125q-0.828125 0.96875 -1.234375 2.265625q-0.40625 1.28125 -0.40625 2.71875l0 0.453125q0 1.46875 0.40625 2.75q0.421875 1.28125 1.234375 2.234375q0.8125 0.96875 2.03125 1.53125q1.21875 0.5625 2.84375 0.5625q1.171875 0 2.234375 -0.375q1.0625 -0.390625 1.875 -1.0625q0.8125 -0.65625 1.28125 -1.546875q0.484375 -0.90625 0.46875 -1.9375l-2.9375 0q0 0.53125 -0.234375 0.984375q-0.234375 0.4375 -0.640625 0.75q-0.421875 0.328125 -0.96875 0.515625q-0.53125 0.171875 -1.125 0.171875z" fill-rule="nonzero"/><path fill="#32c8cd" d="m54.879684 103.03209q0 0.90625 0.59375 1.53125q0.59375 0.609375 1.65625 0.609375q1.0625 0 1.65625 -0.609375q0.609375 -0.625 0.609375 -1.53125q0 -0.90625 -0.59375 -1.53125q-0.59375 -0.640625 -1.671875 -0.640625q-1.09375 0 -1.671875 0.640625q-0.578125 0.640625 -0.578125 1.53125zm18.699478 2.140625q2.046875 0 3.5 -0.8125q1.453125 -0.8125 2.15625 -1.828125l-1.65625 -1.609375q-0.65625 0.828125 -1.65625 1.28125q-1.0 0.453125 -2.171875 0.453125q-0.84375 0 -1.546875 -0.28125q-0.703125 -0.296875 -1.234375 -0.8125q-0.515625 -0.5 -0.8125 -1.125q-0.296875 -0.625 -0.453125 -1.546875l0 -0.0625l9.765625 0l0 -1.34375q0 -1.5 -0.40625 -2.78125q-0.40625 -1.28125 -1.1875 -2.203125q-0.796875 -0.90625 -1.96875 -1.421875q-1.171875 -0.515625 -2.703125 -0.515625q-1.359375 0 -2.5625 0.515625q-1.203125 0.515625 -2.109375 1.46875q-0.921875 0.9375 -1.4375 2.28125q-0.515625 1.34375 -0.515625 3.0l0 0.53125q0 1.4375 0.5 2.6875q0.5 1.25 1.421875 2.15625q0.921875 0.921875 2.21875 1.453125q1.296875 0.515625 2.859375 0.515625zm-0.375 -12.078125q0.78125 0 1.359375 0.265625q0.59375 0.265625 0.984375 0.703125q0.40625 0.453125 0.625 1.0625q0.234375 0.609375 0.234375 1.21875l0 0.203125l-6.625 0q0.140625 -0.796875 0.4375 -1.4375q0.296875 -0.640625 0.734375 -1.09375q0.453125 -0.453125 1.015625 -0.6875q0.5625 -0.234375 1.234375 -0.234375zm11.558853 -2.265625l-2.703125 0l0 14.078125l2.859375 0l0 -10.8125q0.078125 -0.203125 0.171875 -0.359375q0.109375 -0.15625 0.234375 -0.265625q0.171875 -0.171875 0.40625 -0.25q0.25 -0.09375 0.5625 -0.09375q0.28125 0 0.5 0.078125q0.234375 0.078125 0.40625 0.25q0.171875 0.171875 0.25 0.46875q0.09375 0.28125 0.09375 0.703125l0 10.28125l2.8125 0l0 -10.453125q0 -0.125 0 -0.1875q0 -0.078125 0 -0.140625q0.046875 -0.21875 0.140625 -0.390625q0.109375 -0.171875 0.265625 -0.3125q0.171875 -0.140625 0.390625 -0.21875q0.234375 -0.078125 0.53125 -0.078125q0.28125 0 0.515625 0.078125q0.25 0.078125 0.421875 0.25q0.171875 0.1875 0.25 0.484375q0.09375 0.28125 0.09375 0.703125l0 10.265625l2.859375 0l0 -10.25q0 -1.09375 -0.234375 -1.875q-0.21875 -0.796875 -0.625 -1.296875q-0.421875 -0.46875 -0.984375 -0.6875q-0.5625 -0.234375 -1.25 -0.234375q-0.515625 0 -0.953125 0.140625q-0.4375 0.125 -0.78125 0.359375q-0.28125 0.171875 -0.515625 0.4375q-0.234375 0.265625 -0.421875 0.5625q-0.125 -0.328125 -0.3125 -0.578125q-0.171875 -0.25 -0.40625 -0.4375q-0.296875 -0.25 -0.71875 -0.359375q-0.421875 -0.125 -0.9375 -0.125q-1.0 0 -1.71875 0.484375q-0.703125 0.484375 -1.109375 1.328125l-0.09375 -1.546875zm26.605728 7.1875l0 -0.28125q0 -1.203125 -0.21875 -2.265625q-0.203125 -1.0625 -0.625 -1.9375q-0.3125 -0.625 -0.71875 -1.15625q-0.40625 -0.53125 -0.9375 -0.890625q-0.609375 -0.4375 -1.375 -0.671875q-0.75 -0.25 -1.671875 -0.25q-0.6875 0 -1.28125 0.140625q-0.59375 0.140625 -1.078125 0.40625q-0.375 0.203125 -0.703125 0.484375q-0.328125 0.265625 -0.59375 0.609375l0 -7.296875l-3.125 0l0 20.0l2.8125 0l0.15625 -1.53125q0.234375 0.28125 0.484375 0.53125q0.25 0.234375 0.53125 0.4375q0.5625 0.40625 1.265625 0.609375q0.703125 0.21875 1.5625 0.21875q0.84375 0 1.5625 -0.21875q0.734375 -0.21875 1.3125 -0.609375q0.734375 -0.484375 1.25 -1.203125q0.515625 -0.734375 0.828125 -1.625q0.28125 -0.765625 0.421875 -1.640625q0.140625 -0.890625 0.140625 -1.859375zm-3.109375 -0.28125l0 0.28125q0 0.578125 -0.0625 1.125q-0.0625 0.546875 -0.1875 1.015625q-0.15625 0.625 -0.453125 1.125q-0.296875 0.5 -0.75 0.828125q-0.34375 0.234375 -0.78125 0.375q-0.421875 0.125 -0.953125 0.125q-0.578125 0 -1.0625 -0.140625q-0.46875 -0.15625 -0.828125 -0.40625q-0.328125 -0.25 -0.59375 -0.5625q-0.25 -0.328125 -0.421875 -0.71875l0 -5.828125q0.15625 -0.34375 0.359375 -0.625q0.21875 -0.296875 0.5 -0.53125q0.375 -0.3125 0.875 -0.484375q0.515625 -0.1875 1.140625 -0.1875q0.53125 0 0.9375 0.125q0.421875 0.109375 0.75 0.34375q0.5 0.34375 0.78125 0.828125q0.296875 0.484375 0.484375 1.09375q0.125 0.484375 0.1875 1.0625q0.078125 0.5625 0.078125 1.15625zm13.308853 7.4375q2.046875 0 3.5 -0.8125q1.453125 -0.8125 2.15625 -1.828125l-1.65625 -1.609375q-0.65625 0.828125 -1.65625 1.28125q-1.0 0.453125 -2.171875 0.453125q-0.84375 0 -1.546875 -0.28125q-0.703125 -0.296875 -1.234375 -0.8125q-0.515625 -0.5 -0.8125 -1.125q-0.296875 -0.625 -0.453125 -1.546875l0 -0.0625l9.765625 0l0 -1.34375q0 -1.5 -0.40625 -2.78125q-0.40625 -1.28125 -1.1875 -2.203125q-0.796875 -0.90625 -1.96875 -1.421875q-1.171875 -0.515625 -2.703125 -0.515625q-1.359375 0 -2.5625 0.515625q-1.203125 0.515625 -2.109375 1.46875q-0.921875 0.9375 -1.4375 2.28125q-0.515625 1.34375 -0.515625 3.0l0 0.53125q0 1.4375 0.5 2.6875q0.5 1.25 1.421875 2.15625q0.921875 0.921875 2.21875 1.453125q1.296875 0.515625 2.859375 0.515625zm-0.375 -12.078125q0.78125 0 1.359375 0.265625q0.59375 0.265625 0.984375 0.703125q0.40625 0.453125 0.625 1.0625q0.234375 0.609375 0.234375 1.21875l0 0.203125l-6.625 0q0.140625 -0.796875 0.4375 -1.4375q0.296875 -0.640625 0.734375 -1.09375q0.453125 -0.453125 1.015625 -0.6875q0.5625 -0.234375 1.234375 -0.234375zm9.371353 4.671875l0 0.265625q0 1.53125 0.390625 2.84375q0.390625 1.296875 1.109375 2.25q0.71875 0.96875 1.75 1.515625q1.03125 0.53125 2.3125 0.53125q1.21875 0 2.15625 -0.453125q0.9375 -0.453125 1.625 -1.28125l0.140625 1.46875l2.828125 0l0 -20.0l-3.109375 0l0 7.234375q-0.6875 -0.75 -1.5625 -1.15625q-0.875 -0.421875 -2.046875 -0.421875q-1.296875 0 -2.34375 0.53125q-1.03125 0.515625 -1.75 1.46875q-0.71875 0.953125 -1.109375 2.28125q-0.390625 1.3125 -0.390625 2.921875zm3.125 0.265625l0 -0.265625q0 -0.953125 0.171875 -1.796875q0.1875 -0.84375 0.59375 -1.46875q0.375 -0.640625 0.984375 -1.0q0.625 -0.375 1.5 -0.375q1.03125 0 1.71875 0.46875q0.6875 0.453125 1.109375 1.234375l0 6.0625q-0.421875 0.78125 -1.109375 1.25q-0.6875 0.46875 -1.75 0.46875q-0.859375 0 -1.46875 -0.359375q-0.609375 -0.359375 -1.0 -1.0q-0.390625 -0.609375 -0.578125 -1.4375q-0.171875 -0.84375 -0.171875 -1.78125zm12.871353 -0.265625l0 0.265625q0 1.53125 0.390625 2.84375q0.390625 1.296875 1.109375 2.25q0.71875 0.96875 1.75 1.515625q1.03125 0.53125 2.3125 0.53125q1.21875 0 2.15625 -0.453125q0.9375 -0.453125 1.625 -1.28125l0.140625 1.46875l2.828125 0l0 -20.0l-3.109375 0l0 7.234375q-0.6875 -0.75 -1.5625 -1.15625q-0.875 -0.421875 -2.046875 -0.421875q-1.296875 0 -2.34375 0.53125q-1.03125 0.515625 -1.75 1.46875q-0.71875 0.953125 -1.109375 2.28125q-0.390625 1.3125 -0.390625 2.921875zm3.125 0.265625l0 -0.265625q0 -0.953125 0.171875 -1.796875q0.1875 -0.84375 0.59375 -1.46875q0.375 -0.640625 0.984375 -1.0q0.625 -0.375 1.5 -0.375q1.03125 0 1.71875 0.46875q0.6875 0.453125 1.109375 1.234375l0 6.0625q-0.421875 0.78125 -1.109375 1.25q-0.6875 0.46875 -1.75 0.46875q-0.859375 0 -1.46875 -0.359375q-0.609375 -0.359375 -1.0 -1.0q-0.390625 -0.609375 -0.578125 -1.4375q-0.171875 -0.84375 -0.171875 -1.78125zm14.011978 -7.203125l0 2.578125l4.328125 0l0 8.921875l-4.328125 0l0 2.578125l11.609375 0l0 -2.578125l-4.140625 0l0 -11.5l-7.46875 0zm4.046875 -3.65625q0 0.5 0.234375 0.875q0.25 0.375 0.71875 0.515625q0.453125 0.140625 0.828125 0.0625q0.375 -0.078125 0.65625 -0.328125q0.546875 -0.140625 0.828125 -0.5625q0.28125 -0.421875 0.203125 -1.0q-0.078125 -0.5625 -0.515625 -0.921875q-0.421875 -0.359375 -1.125 -0.359375q-0.421875 0 -0.765625 0.125q-0.328125 0.125 -0.5625 0.34375q-0.234375 0.234375 -0.375 0.5625q-0.125 0.3125 -0.125 0.6875zm11.230728 17.734375l3.109375 0l0 -10.046875q0.21875 -0.359375 0.484375 -0.65625q0.28125 -0.296875 0.59375 -0.5q0.390625 -0.28125 0.890625 -0.421875q0.5 -0.15625 1.0625 -0.15625q0.6875 0 1.21875 0.15625q0.546875 0.140625 0.921875 0.5q0.375 0.34375 0.5625 0.9375q0.203125 0.578125 0.203125 1.453125l0 8.734375l3.109375 0l0 -8.78125q0 -1.484375 -0.359375 -2.53125q-0.34375 -1.046875 -0.984375 -1.734375q-0.625 -0.671875 -1.53125 -0.984375q-0.890625 -0.3125 -1.984375 -0.3125q-0.8125 0 -1.5625 0.234375q-0.734375 0.234375 -1.359375 0.671875q-0.390625 0.265625 -0.734375 0.609375q-0.34375 0.34375 -0.625 0.75l-0.203125 -2.0l-2.8125 0l0 14.078125zm15.590103 -7.140625l0 0.265625q0 1.53125 0.390625 2.84375q0.40625 1.296875 1.140625 2.25q0.734375 0.96875 1.78125 1.515625q1.046875 0.53125 2.34375 0.53125q0.71875 0 1.328125 -0.15625q0.609375 -0.140625 1.109375 -0.4375q0.34375 -0.171875 0.640625 -0.421875q0.296875 -0.25 0.5625 -0.53125l0 0.96875q0 0.796875 -0.234375 1.421875q-0.21875 0.625 -0.640625 1.046875q-0.453125 0.453125 -1.09375 0.6875q-0.640625 0.234375 -1.484375 0.234375q-0.484375 0 -0.953125 -0.109375q-0.453125 -0.09375 -0.921875 -0.296875q-0.453125 -0.21875 -0.890625 -0.546875q-0.4375 -0.328125 -0.8125 -0.78125l-1.46875 1.890625q0.46875 0.625 1.109375 1.0625q0.65625 0.4375 1.375 0.71875q0.71875 0.265625 1.4375 0.390625q0.71875 0.140625 1.3125 0.140625q1.421875 0 2.59375 -0.40625q1.1875 -0.390625 2.03125 -1.140625q0.828125 -0.765625 1.28125 -1.875q0.46875 -1.09375 0.46875 -2.515625l0 -13.6875l-2.828125 0l-0.125 1.40625q-0.265625 -0.3125 -0.5625 -0.578125q-0.296875 -0.265625 -0.640625 -0.453125q-0.515625 -0.3125 -1.15625 -0.46875q-0.640625 -0.171875 -1.421875 -0.171875q-1.3125 0 -2.359375 0.53125q-1.046875 0.515625 -1.78125 1.46875q-0.75 0.953125 -1.140625 2.28125q-0.390625 1.3125 -0.390625 2.921875zm3.125 0.265625l0 -0.265625q0 -0.953125 0.1875 -1.796875q0.203125 -0.84375 0.625 -1.46875q0.40625 -0.640625 1.03125 -1.0q0.625 -0.375 1.484375 -0.375q0.5 0 0.90625 0.109375q0.421875 0.109375 0.765625 0.296875q0.375 0.21875 0.671875 0.53125q0.296875 0.3125 0.5 0.703125l0 6.171875q-0.203125 0.375 -0.484375 0.6875q-0.265625 0.3125 -0.625 0.53125q-0.34375 0.21875 -0.78125 0.34375q-0.4375 0.109375 -0.96875 0.109375q-0.859375 0 -1.484375 -0.359375q-0.625 -0.359375 -1.03125 -1.0q-0.421875 -0.609375 -0.609375 -1.4375q-0.1875 -0.84375 -0.1875 -1.78125z" fill-rule="nonzero"/><path fill="#000000" fill-opacity="0.0" d="m1.0 121.69029l150.99213 0l0 32.314957l-150.99213 0z" fill-rule="evenodd"/><path fill="#000000" d="m2.59375 140.30714l0 0.265625q0 1.53125 0.390625 2.84375q0.390625 1.296875 1.109375 2.25q0.71875 0.96875 1.75 1.515625q1.03125 0.53125 2.3125 0.53125q1.21875 0 2.15625 -0.453125q0.9375 -0.453125 1.625 -1.28125l0.140625 1.46875l2.828125 0l0 -20.0l-3.109375 0l0 7.234375q-0.6875 -0.75 -1.5625 -1.15625q-0.875 -0.421875 -2.046875 -0.421875q-1.296875 0 -2.34375 0.53125q-1.03125 0.515625 -1.75 1.46875q-0.71875 0.953125 -1.109375 2.28125q-0.390625 1.3125 -0.390625 2.921875zm3.125 0.265625l0 -0.265625q0 -0.953125 0.171875 -1.796875q0.1875 -0.84375 0.59375 -1.46875q0.375 -0.640625 0.984375 -1.0q0.625 -0.375 1.5 -0.375q1.03125 0 1.71875 0.46875q0.6875 0.453125 1.109375 1.234375l0 6.0625q-0.421875 0.78125 -1.109375 1.25q-0.6875 0.46875 -1.75 0.46875q-0.859375 0 -1.46875 -0.359375q-0.609375 -0.359375 -1.0 -1.0q-0.390625 -0.609375 -0.578125 -1.4375q-0.171875 -0.84375 -0.171875 -1.78125zm12.715103 -0.296875l0 0.28125q0 1.546875 0.4375 2.84375q0.453125 1.296875 1.296875 2.265625q0.84375 0.96875 2.0625 1.515625q1.21875 0.53125 2.765625 0.53125q1.546875 0 2.75 -0.53125q1.21875 -0.546875 2.0625 -1.515625q0.828125 -0.96875 1.265625 -2.265625q0.453125 -1.296875 0.453125 -2.84375l0 -0.28125q0 -1.53125 -0.453125 -2.84375q-0.4375 -1.3125 -1.265625 -2.265625q-0.84375 -0.96875 -2.0625 -1.515625q-1.21875 -0.546875 -2.765625 -0.546875q-1.546875 0 -2.765625 0.546875q-1.203125 0.546875 -2.046875 1.515625q-0.84375 0.953125 -1.296875 2.265625q-0.4375 1.3125 -0.4375 2.84375zm3.125 0.28125l0 -0.28125q0 -0.921875 0.1875 -1.765625q0.203125 -0.84375 0.640625 -1.484375q0.421875 -0.640625 1.0625 -1.015625q0.640625 -0.375 1.53125 -0.375q0.890625 0 1.53125 0.375q0.65625 0.375 1.078125 1.015625q0.40625 0.640625 0.609375 1.484375q0.21875 0.84375 0.21875 1.765625l0 0.28125q0 0.9375 -0.203125 1.796875q-0.203125 0.84375 -0.625 1.46875q-0.421875 0.640625 -1.078125 1.015625q-0.640625 0.375 -1.515625 0.375q-0.890625 0 -1.546875 -0.375q-0.640625 -0.375 -1.0625 -1.015625q-0.4375 -0.625 -0.640625 -1.46875q-0.1875 -0.859375 -0.1875 -1.796875zm19.574478 4.65625q-0.96875 0 -1.625 -0.390625q-0.640625 -0.390625 -1.015625 -1.046875q-0.390625 -0.625 -0.5625 -1.453125q-0.15625 -0.828125 -0.15625 -1.6875l0 -0.453125q0 -0.84375 0.15625 -1.65625q0.171875 -0.828125 0.5625 -1.46875q0.390625 -0.640625 1.03125 -1.03125q0.640625 -0.390625 1.609375 -0.390625q0.640625 0 1.1875 0.21875q0.5625 0.21875 0.96875 0.59375q0.390625 0.375 0.59375 0.890625q0.21875 0.5 0.21875 1.078125l2.9375 0q0.015625 -1.171875 -0.421875 -2.140625q-0.4375 -0.984375 -1.21875 -1.6875q-0.78125 -0.703125 -1.875 -1.09375q-1.078125 -0.390625 -2.359375 -0.390625q-1.609375 0 -2.828125 0.5625q-1.21875 0.5625 -2.03125 1.53125q-0.828125 0.96875 -1.234375 2.265625q-0.40625 1.28125 -0.40625 2.71875l0 0.453125q0 1.46875 0.40625 2.75q0.421875 1.28125 1.234375 2.234375q0.8125 0.96875 2.03125 1.53125q1.21875 0.5625 2.84375 0.5625q1.171875 0 2.234375 -0.375q1.0625 -0.390625 1.875 -1.0625q0.8125 -0.65625 1.28125 -1.546875q0.484375 -0.90625 0.46875 -1.9375l-2.9375 0q0 0.53125 -0.234375 0.984375q-0.234375 0.4375 -0.640625 0.75q-0.421875 0.328125 -0.96875 0.515625q-0.53125 0.171875 -1.125 0.171875z" fill-rule="nonzero"/><path fill="#32c8cd" d="m54.879684 145.57277q0 0.90625 0.59375 1.53125q0.59375 0.609375 1.65625 0.609375q1.0625 0 1.65625 -0.609375q0.609375 -0.625 0.609375 -1.53125q0 -0.90625 -0.59375 -1.53125q-0.59375 -0.640625 -1.671875 -0.640625q-1.09375 0 -1.671875 0.640625q-0.578125 0.640625 -0.578125 1.53125zm18.371353 -15.640625l-3.125 0l0 3.4375l-3.40625 0l0 2.328125l3.40625 0l0 6.921875q0 1.359375 0.359375 2.328125q0.359375 0.953125 1.0 1.5625q0.625 0.625 1.515625 0.921875q0.90625 0.28125 1.96875 0.28125q0.578125 0 1.171875 -0.0625q0.59375 -0.046875 1.140625 -0.15625q0.546875 -0.09375 1.015625 -0.234375q0.484375 -0.15625 0.828125 -0.375l-0.34375 -2.140625q-0.234375 0.046875 -0.578125 0.125q-0.34375 0.0625 -0.734375 0.125q-0.40625 0.0625 -0.84375 0.109375q-0.421875 0.03125 -0.828125 0.03125q-0.5625 0 -1.03125 -0.125q-0.46875 -0.140625 -0.796875 -0.453125q-0.34375 -0.296875 -0.53125 -0.828125q-0.1875 -0.53125 -0.1875 -1.3125l0 -6.71875l5.296875 0l0 -2.328125l-5.296875 0l0 -3.4375zm18.746353 17.515625l3.171875 0l0 -0.21875q-0.265625 -0.546875 -0.40625 -1.3125q-0.125 -0.765625 -0.125 -1.703125l0 -6.265625q0 -1.203125 -0.453125 -2.109375q-0.4375 -0.921875 -1.21875 -1.53125q-0.78125 -0.59375 -1.859375 -0.890625q-1.0625 -0.3125 -2.296875 -0.3125q-1.390625 0 -2.46875 0.359375q-1.0625 0.359375 -1.796875 0.96875q-0.75 0.59375 -1.140625 1.375q-0.390625 0.78125 -0.40625 1.625l3.125 0q0 -0.390625 0.140625 -0.75q0.15625 -0.359375 0.46875 -0.609375q0.3125 -0.28125 0.78125 -0.4375q0.484375 -0.15625 1.125 -0.15625q0.703125 0 1.234375 0.1875q0.546875 0.171875 0.921875 0.5q0.359375 0.328125 0.546875 0.765625q0.1875 0.4375 0.1875 0.984375l0 0.953125l-2.265625 0q-1.53125 0 -2.734375 0.296875q-1.203125 0.28125 -2.015625 0.828125q-0.890625 0.578125 -1.359375 1.46875q-0.453125 0.890625 -0.453125 2.046875q0 0.90625 0.359375 1.6875q0.359375 0.765625 1.0 1.3125q0.640625 0.5625 1.546875 0.890625q0.90625 0.3125 2.0 0.3125q0.671875 0 1.25 -0.140625q0.59375 -0.125 1.109375 -0.359375q0.5 -0.21875 0.90625 -0.515625q0.421875 -0.3125 0.75 -0.65625q0.0625 0.40625 0.140625 0.78125q0.09375 0.359375 0.234375 0.625zm-3.796875 -2.234375q-0.59375 0 -1.046875 -0.140625q-0.4375 -0.15625 -0.734375 -0.421875q-0.296875 -0.265625 -0.453125 -0.625q-0.15625 -0.375 -0.15625 -0.8125q0 -0.515625 0.1875 -0.921875q0.1875 -0.421875 0.578125 -0.734375q0.453125 -0.34375 1.1875 -0.53125q0.734375 -0.1875 1.75 -0.1875l2.015625 0l0 2.59375q-0.171875 0.34375 -0.484375 0.65625q-0.3125 0.3125 -0.75 0.5625q-0.421875 0.25 -0.953125 0.40625q-0.53125 0.15625 -1.140625 0.15625zm10.386978 -4.90625l0 0.265625q0 1.53125 0.390625 2.84375q0.40625 1.296875 1.140625 2.25q0.734375 0.96875 1.78125 1.515625q1.046875 0.53125 2.34375 0.53125q0.71875 0 1.328125 -0.15625q0.609375 -0.140625 1.109375 -0.4375q0.34375 -0.171875 0.640625 -0.421875q0.296875 -0.25 0.5625 -0.53125l0 0.96875q0 0.796875 -0.234375 1.421875q-0.21875 0.625 -0.640625 1.046875q-0.453125 0.453125 -1.09375 0.6875q-0.640625 0.234375 -1.484375 0.234375q-0.484375 0 -0.953125 -0.109375q-0.453125 -0.09375 -0.921875 -0.296875q-0.453125 -0.21875 -0.890625 -0.546875q-0.4375 -0.328125 -0.8125 -0.78125l-1.46875 1.890625q0.46875 0.625 1.109375 1.0625q0.65625 0.4375 1.375 0.71875q0.71875 0.265625 1.4375 0.390625q0.71875 0.140625 1.3125 0.140625q1.421875 0 2.59375 -0.40625q1.1875 -0.390625 2.03125 -1.140625q0.828125 -0.765625 1.28125 -1.875q0.46875 -1.09375 0.46875 -2.515625l0 -13.6875l-2.828125 0l-0.125 1.40625q-0.265625 -0.3125 -0.5625 -0.578125q-0.296875 -0.265625 -0.640625 -0.453125q-0.515625 -0.3125 -1.15625 -0.46875q-0.640625 -0.171875 -1.421875 -0.171875q-1.3125 0 -2.359375 0.53125q-1.046875 0.515625 -1.78125 1.46875q-0.75 0.953125 -1.140625 2.28125q-0.390625 1.3125 -0.390625 2.921875zm3.125 0.265625l0 -0.265625q0 -0.953125 0.1875 -1.796875q0.203125 -0.84375 0.625 -1.46875q0.40625 -0.640625 1.03125 -1.0q0.625 -0.375 1.484375 -0.375q0.5 0 0.90625 0.109375q0.421875 0.109375 0.765625 0.296875q0.375 0.21875 0.671875 0.53125q0.296875 0.3125 0.5 0.703125l0 6.171875q-0.203125 0.375 -0.484375 0.6875q-0.265625 0.3125 -0.625 0.53125q-0.34375 0.21875 -0.78125 0.34375q-0.4375 0.109375 -0.96875 0.109375q-0.859375 0 -1.484375 -0.359375q-0.625 -0.359375 -1.03125 -1.0q-0.421875 -0.609375 -0.609375 -1.4375q-0.1875 -0.84375 -0.1875 -1.78125zm22.480728 3.0625q0 0.34375 -0.15625 0.625q-0.140625 0.265625 -0.4375 0.5q-0.375 0.296875 -0.984375 0.46875q-0.59375 0.15625 -1.40625 0.15625q-0.59375 0 -1.1875 -0.109375q-0.578125 -0.125 -1.03125 -0.421875q-0.46875 -0.265625 -0.78125 -0.71875q-0.296875 -0.453125 -0.34375 -1.09375l-3.015625 0q0 0.859375 0.40625 1.71875q0.421875 0.84375 1.234375 1.484375q0.796875 0.671875 1.96875 1.078125q1.1875 0.390625 2.703125 0.390625q1.359375 0 2.484375 -0.296875q1.125 -0.3125 1.921875 -0.875q0.796875 -0.5625 1.234375 -1.34375q0.4375 -0.78125 0.4375 -1.71875q0 -0.96875 -0.421875 -1.671875q-0.40625 -0.703125 -1.171875 -1.21875q-0.75 -0.5 -1.828125 -0.828125q-1.0625 -0.34375 -2.34375 -0.578125q-0.921875 -0.15625 -1.53125 -0.34375q-0.609375 -0.203125 -0.9375 -0.4375q-0.375 -0.21875 -0.515625 -0.515625q-0.140625 -0.296875 -0.140625 -0.65625q0 -0.34375 0.171875 -0.65625q0.171875 -0.328125 0.5 -0.5625q0.34375 -0.265625 0.859375 -0.40625q0.53125 -0.15625 1.234375 -0.15625q0.78125 0 1.34375 0.203125q0.578125 0.203125 0.9375 0.53125q0.3125 0.296875 0.46875 0.65625q0.171875 0.359375 0.171875 0.75l3.109375 0q0 -0.953125 -0.421875 -1.765625q-0.40625 -0.828125 -1.171875 -1.4375q-0.78125 -0.59375 -1.90625 -0.9375q-1.125 -0.34375 -2.53125 -0.34375q-1.3125 0 -2.390625 0.34375q-1.0625 0.328125 -1.8125 0.921875q-0.78125 0.578125 -1.1875 1.359375q-0.40625 0.765625 -0.40625 1.625q0 0.90625 0.40625 1.59375q0.40625 0.671875 1.109375 1.15625q0.734375 0.53125 1.734375 0.890625q1.015625 0.359375 2.234375 0.609375q0.984375 0.1875 1.625 0.390625q0.65625 0.203125 1.0625 0.4375q0.375 0.265625 0.53125 0.5625q0.171875 0.28125 0.171875 0.640625z" fill-rule="nonzero"/><path fill="#000000" fill-opacity="0.0" d="m485.59567 41.770615c0 -12.204723 -156.26773 -24.409447 -312.53546 -24.409447" fill-rule="evenodd"/><path stroke="#999999" stroke-width="1.0" stroke-linejoin="round" stroke-linecap="butt" d="m483.33014 39.199203l-0.2529602 -0.14105606c-0.08721924 -0.047412872 -0.17666626 -0.094810486 -0.26834106 -0.14219284c-0.36660767 -0.18953705 -0.7684021 -0.3788376 -1.2047424 -0.56786346c-0.8727112 -0.37804413 -1.8836975 -0.75497055 -3.0282593 -1.1304092c-4.578186 -1.5017548 -11.292786 -2.9796715 -19.838684 -4.409912c-17.091766 -2.8604813 -41.508606 -5.530264 -70.80881 -7.818651c-29.300201 -2.2883854 -63.483765 -4.1953716 -100.10901 -5.530264c-18.312622 -0.66744614 -37.235672 -1.1918678 -56.463913 -1.549427c-9.614136 -0.17878151 -19.304565 -0.3158455 -29.033157 -0.40821457c-4.8642883 -0.046186447 -9.738113 -0.08119583 -14.6167145 -0.10466194c-2.4392853 -0.011732101 -4.8797913 -0.020578384 -7.320877 -0.026491165c-1.2205505 -0.0029563904 -2.4412231 -0.0051784515 -3.6620026 -0.006664276l-0.23536682 -1.4305115E-4" fill-rule="evenodd"/><path fill="#999999" stroke="#999999" stroke-width="1.0" stroke-linecap="butt" d="m483.3301 39.199203l-1.5872192 -0.100364685l2.8863525 1.5748825l-1.198761 -3.0617485z" fill-rule="evenodd"/><path fill="#999999" stroke="#999999" stroke-width="1.0" stroke-linecap="butt" d="m176.4873 17.363255l1.1252747 -1.1238995l-3.090454 1.1227016l3.0890808 1.1264648z" fill-rule="evenodd"/><path fill="#000000" fill-opacity="0.0" d="m379.35944 41.770615c0 -12.204723 -103.1496 -24.409447 -206.29921 -24.409447" fill-rule="evenodd"/><path stroke="#999999" stroke-width="1.0" stroke-linejoin="round" stroke-linecap="butt" d="m377.4937 38.895912l-0.15963745 -0.1220665c-0.06341553 -0.047351837 -0.12823486 -0.09469223 -0.19451904 -0.14201355c-0.13253784 -0.094646454 -0.27087402 -0.18922806 -0.41485596 -0.283741c-0.5760803 -0.37804413 -1.2434387 -0.75497055 -1.9989319 -1.1304092c-3.0219421 -1.5017548 -7.4541626 -2.9796715 -13.095154 -4.409912c-11.281982 -2.8604813 -27.399109 -5.530264 -46.739655 -7.818651c-19.340576 -2.2883854 -41.90454 -4.1953716 -66.080246 -5.530264c-12.087845 -0.66744614 -24.578613 -1.1918678 -37.27086 -1.549427c-6.3461 -0.17878151 -12.742584 -0.3158455 -19.16426 -0.40821457c-3.2108307 -0.046186447 -6.4279633 -0.08119583 -9.648254 -0.10466194c-1.6101379 -0.011732101 -3.2210388 -0.020578384 -4.832367 -0.026491165l-1.4076691 -0.0038795471" fill-rule="evenodd"/><path fill="#999999" stroke="#999999" stroke-width="1.0" stroke-linecap="butt" d="m377.4937 38.895912l-1.5555725 -0.3310814l2.6254272 1.9795151l-0.73876953 -3.203991z" fill-rule="evenodd"/><path fill="#999999" stroke="#999999" stroke-width="1.0" stroke-linecap="butt" d="m176.4873 17.36618l1.126236 -1.1229382l-3.0914154 1.1200638l3.0881195 1.1291008z" fill-rule="evenodd"/><path fill="#000000" fill-opacity="0.0" d="m587.23346 41.770615c0 -12.204723 -207.08661 -24.409447 -414.17322 -24.409447" fill-rule="evenodd"/><path stroke="#999999" stroke-width="1.0" stroke-linejoin="round" stroke-linecap="butt" d="m584.73315 39.42683l-0.1786499 -0.08405304c-0.103881836 -0.047462463 -0.21069336 -0.09491348 -0.32043457 -0.14235306c-0.21954346 -0.09487915 -0.45080566 -0.1897049 -0.6937256 -0.2844696c-0.48583984 -0.18953705 -1.0183105 -0.3788376 -1.5965576 -0.56786346c-1.1564941 -0.37804413 -2.4962769 -0.75497055 -4.0130615 -1.1304092c-6.0669556 -1.5017548 -14.96521 -2.9796715 -26.290283 -4.409912c-22.650085 -2.8604813 -55.007355 -5.530264 -93.83609 -7.818651c-38.828766 -2.2883854 -84.12894 -4.1953716 -132.66489 -5.530264c-24.267944 -0.66744614 -49.34488 -1.1918678 -74.82623 -1.549427c-12.740662 -0.17878151 -25.582474 -0.3158455 -38.474808 -0.40821457c-6.4461975 -0.046186447 -12.904999 -0.08119583 -19.370148 -0.10466194c-3.2325745 -0.011732101 -6.4667206 -0.020578384 -9.701645 -0.026491165c-1.6174774 -0.0029563904 -3.2351532 -0.0051784515 -4.8529205 -0.006664276l-1.4264069 -6.542206E-4" fill-rule="evenodd"/><path fill="#999999" stroke="#999999" stroke-width="1.0" stroke-linecap="butt" d="m584.73315 39.426834l-1.5895996 0.0513649l3.0233765 1.2926216l-1.4851685 -2.9335594z" fill-rule="evenodd"/><path fill="#999999" stroke="#999999" stroke-width="1.0" stroke-linecap="butt" d="m176.4873 17.362741l1.1251068 -1.1240673l-3.0902863 1.1231651l3.0892487 1.1260033z" fill-rule="evenodd"/><path fill="#000000" fill-opacity="0.0" d="m235.99213 95.30708c175.62204 0 351.24408 -10.314957 351.24408 -20.629921" fill-rule="evenodd"/><path stroke="#999999" stroke-width="1.0" stroke-linejoin="round" stroke-linecap="butt" d="m239.4192 95.30396l4.804535 -0.0043945312c2.7434387 -0.004989624 5.4861755 -0.01247406 8.2276 -0.022392273c5.4828033 -0.019821167 10.960281 -0.04941559 16.427048 -0.08844757c10.933502 -0.078071594 21.824127 -0.19391632 32.628998 -0.34500885c21.609741 -0.3021927 42.876465 -0.74541473 63.457184 -1.3095169c41.161407 -1.1281967 79.578735 -2.739914 112.50787 -4.6739655c65.858246 -3.8681107 109.76376 -9.025589 109.76376 -14.183075" fill-rule="evenodd"/><path fill="#999999" stroke="#999999" stroke-width="1.0" stroke-linecap="butt" d="m239.4192 95.303955l1.1235657 -1.1256104l-3.088745 1.1274109l3.0907898 1.1217575z" fill-rule="evenodd"/><path fill="#000000" fill-opacity="0.0" d="m235.99213 95.30708c124.80316 0 249.6063 -10.314957 249.6063 -20.629921" fill-rule="evenodd"/><path stroke="#999999" stroke-width="1.0" stroke-linejoin="round" stroke-linecap="butt" d="m239.4192 95.30269l2.4225922 -0.0031204224c1.949585 -0.004989624 3.8986664 -0.01247406 5.846817 -0.022392273c3.8963013 -0.019821167 7.7887726 -0.04941559 11.67363 -0.08844757c7.7697144 -0.078071594 15.508972 -0.19391632 23.187286 -0.34500885c15.356659 -0.3021927 30.469543 -0.74541473 45.09491 -1.3095169c29.250732 -1.1281967 56.551422 -2.739914 79.95203 -4.6739655c46.801178 -3.8681107 78.00195 -9.025589 78.00195 -14.183075" fill-rule="evenodd"/><path fill="#999999" stroke="#999999" stroke-width="1.0" stroke-linecap="butt" d="m239.4192 95.30268l1.1231384 -1.1260223l-3.0883179 1.1285477l3.091217 1.1206131z" fill-rule="evenodd"/><path fill="#000000" fill-opacity="0.0" d="m235.99213 95.30708c71.68503 0 143.37009 -10.314957 143.37009 -20.629921" fill-rule="evenodd"/><path stroke="#999999" stroke-width="1.0" stroke-linejoin="round" stroke-linecap="butt" d="m239.4192 95.29912l3.2911987 -0.021942139c2.2379913 -0.019821167 4.473755 -0.04941559 6.7051544 -0.08844757c4.4628296 -0.078071594 8.908142 -0.19391632 13.318451 -0.34500885c8.820618 -0.3021927 17.50122 -0.74541473 25.901825 -1.3095169c16.801178 -1.1281967 32.48227 -2.739914 45.923218 -4.6739655c26.881897 -3.8681107 44.80316 -9.025589 44.80316 -14.183075" fill-rule="evenodd"/><path fill="#999999" stroke="#999999" stroke-width="1.0" stroke-linecap="butt" d="m239.4192 95.299126l1.1219635 -1.1271973l-3.087143 1.1317596l3.0923767 1.1174011z" fill-rule="evenodd"/></g></svg>