<svg version="1.1" viewBox="0.0 0.0 960.0 540.0" fill="none" stroke="none" stroke-linecap="square" stroke-miterlimit="10" xmlns:xlink="http://www.w3.org/1999/xlink" xmlns="http://www.w3.org/2000/svg"><clipPath id="p.0"><path d="m0 0l960.0 0l0 540.0l-960.0 0l0 -540.0z" clip-rule="nonzero"/></clipPath><g clip-path="url(#p.0)"><path fill="#ffffff" d="m0 0l960.0 0l0 540.0l-960.0 0z" fill-rule="evenodd"/><path fill="#16e7cf" d="m55.031696 112.67038l0 0c0 -30.137085 24.430935 -54.568016 54.56802 -54.568016l218.26552 0l0 0c14.472351 0 28.351929 5.749111 38.58542 15.982605c10.23349 10.233482 15.982605 24.113075 15.982605 38.58541l0 288.69073c0 30.137085 -24.430908 54.568024 -54.568024 54.568024l-218.26552 0c-30.137085 0 -54.56802 -24.430939 -54.56802 -54.568024z" fill-rule="evenodd"/><path stroke="#595959" stroke-width="1.0" stroke-linejoin="round" stroke-linecap="butt" d="m55.031696 112.67038l0 0c0 -30.137085 24.430935 -54.568016 54.56802 -54.568016l218.26552 0l0 0c14.472351 0 28.351929 5.749111 38.58542 15.982605c10.23349 10.233482 15.982605 24.113075 15.982605 38.58541l0 288.69073c0 30.137085 -24.430908 54.568024 -54.568024 54.568024l-218.26552 0c-30.137085 0 -54.56802 -24.430939 -54.56802 -54.568024z" fill-rule="evenodd"/><path fill="#000000" d="m199.83179 84.36417l0 3.453125l6.03125 0l0 2.4375l-6.03125 0l0 4.75l-3.03125 0l0 -13.0625l9.875 0l0 2.421875l-6.84375 0zm8.686966 -3.203125l2.90625 0l0 13.84375l-2.90625 0l0 -13.84375zm10.39679 14.0q-1.59375 0 -2.859375 -0.65625q-1.25 -0.671875 -1.96875 -1.84375q-0.703125 -1.1875 -0.703125 -2.671875q0 -1.5 0.703125 -2.671875q0.71875 -1.171875 1.96875 -1.828125q1.265625 -0.671875 2.859375 -0.671875q1.578125 0 2.828125 0.671875q1.25 0.65625 1.953125 1.828125q0.71875 1.171875 0.71875 2.671875q0 1.484375 -0.71875 2.671875q-0.703125 1.171875 -1.953125 1.84375q-1.25 0.65625 -2.828125 0.65625zm0 -2.390625q1.109375 0 1.828125 -0.75q0.71875 -0.765625 0.71875 -2.03125q0 -1.265625 -0.71875 -2.015625q-0.71875 -0.765625 -1.828125 -0.765625q-1.125 0 -1.859375 0.765625q-0.71875 0.75 -0.71875 2.015625q0 1.265625 0.71875 2.03125q0.734375 0.75 1.859375 0.75zm23.2836 -7.796875l-3.640625 10.03125l-2.796875 0l-2.265625 -6.234375l-2.328125 6.234375l-2.796875 0l-3.625 -10.03125l2.75 0l2.359375 6.78125l2.46875 -6.78125l2.46875 0l2.375 6.78125l2.453125 -6.78125l2.578125 0z" fill-rule="nonzero"/><path fill="#9e9e9e" d="m66.20352 167.52202l0 0c0 -28.07866 22.762253 -50.84092 50.84091 -50.84092l203.35754 0l0 0c13.483856 0 26.415436 5.3564377 35.94995 14.890968c9.534515 9.534515 14.890961 22.466095 14.890961 35.94995l0 228.80635c0 28.078674 -22.762238 50.84091 -50.84091 50.84091l-203.35754 0l0 0c-28.07866 0 -50.84091 -22.762238 -50.84091 -50.84091z" fill-rule="evenodd"/><path stroke="#595959" stroke-width="1.0" stroke-linejoin="round" stroke-linecap="butt" d="m66.20352 167.52202l0 0c0 -28.07866 22.762253 -50.84092 50.84091 -50.84092l203.35754 0l0 0c13.483856 0 26.415436 5.3564377 35.94995 14.890968c9.534515 9.534515 14.890961 22.466095 14.890961 35.94995l0 228.80635c0 28.078674 -22.762238 50.84091 -50.84091 50.84091l-203.35754 0l0 0c-28.07866 0 -50.84091 -22.762238 -50.84091 -50.84091z" fill-rule="evenodd"/><path fill="#000000" d="m201.6826 139.4294q1.734375 0 3.015625 0.578125q1.28125 0.578125 1.96875 1.640625q0.6875 1.0625 0.6875 2.515625q0 1.4375 -0.6875 2.515625q-0.6875 1.078125 -1.96875 1.65625q-1.28125 0.5625 -3.015625 0.5625l-2.625 0l0 3.59375l-3.03125 0l0 -13.0625l5.65625 0zm-0.171875 7.0q1.359375 0 2.0625 -0.578125q0.71875 -0.59375 0.71875 -1.6875q0 -1.09375 -0.71875 -1.671875q-0.703125 -0.59375 -2.0625 -0.59375l-2.453125 0l0 4.53125l2.453125 0zm12.544769 6.21875q-1.59375 0 -2.859375 -0.65625q-1.25 -0.671875 -1.96875 -1.84375q-0.70310974 -1.1875 -0.70310974 -2.671875q0 -1.5 0.70310974 -2.671875q0.71875 -1.171875 1.96875 -1.828125q1.265625 -0.671875 2.859375 -0.671875q1.578125 0 2.828125 0.671875q1.25 0.65625 1.953125 1.828125q0.71875 1.171875 0.71875 2.671875q0 1.484375 -0.71875 2.671875q-0.703125 1.171875 -1.953125 1.84375q-1.25 0.65625 -2.828125 0.65625zm0 -2.390625q1.109375 0 1.828125 -0.75q0.71875 -0.765625 0.71875 -2.03125q0 -1.265625 -0.71875 -2.015625q-0.71875 -0.765625 -1.828125 -0.765625q-1.125 0 -1.859375 0.765625q-0.71875 0.75 -0.71875 2.015625q0 1.265625 0.71875 2.03125q0.734375 0.75 1.859375 0.75zm17.657349 -11.609375l0 13.84375l-2.78125 0l0 -1.15625q-1.078125 1.3125 -3.125 1.3125q-1.421875 0 -2.578125 -0.640625q-1.140625 -0.640625 -1.796875 -1.8125q-0.640625 -1.171875 -0.640625 -2.71875q0 -1.546875 0.640625 -2.71875q0.65625 -1.1875 1.796875 -1.8125q1.15625 -0.640625 2.578125 -0.640625q1.921875 0 3.0 1.21875l0 -4.875l2.90625 0zm-5.40625 11.609375q1.09375 0 1.828125 -0.75q0.734375 -0.765625 0.734375 -2.03125q0 -1.265625 -0.734375 -2.015625q-0.734375 -0.765625 -1.828125 -0.765625q-1.125 0 -1.859375 0.765625q-0.71875 0.75 -0.71875 2.015625q0 1.265625 0.71875 2.03125q0.734375 0.75 1.859375 0.75zm11.472626 2.390625q-1.25 0 -2.453125 -0.3125q-1.1875 -0.3125 -1.890625 -0.78125l0.96875 -2.078125q0.671875 0.421875 1.625 0.703125q0.953125 0.265625 1.859375 0.265625q1.84375 0 1.84375 -0.921875q0 -0.421875 -0.5 -0.609375q-0.5 -0.1875 -1.546875 -0.328125q-1.234375 -0.171875 -2.03125 -0.421875q-0.796875 -0.25 -1.390625 -0.859375q-0.59375 -0.609375 -0.59375 -1.75q0 -0.953125 0.546875 -1.6875q0.5625 -0.734375 1.609375 -1.140625q1.0625 -0.421875 2.5 -0.421875q1.0625 0 2.109375 0.234375q1.0625 0.234375 1.75 0.640625l-0.96875 2.078125q-1.328125 -0.75 -2.890625 -0.75q-0.9375 0 -1.40625 0.265625q-0.46875 0.25 -0.46875 0.671875q0 0.46875 0.5 0.65625q0.515625 0.171875 1.609375 0.34375q1.234375 0.203125 2.015625 0.4375q0.78125 0.234375 1.359375 0.859375q0.578125 0.609375 0.578125 1.703125q0 0.9375 -0.5625 1.671875q-0.546875 0.71875 -1.625 1.125q-1.078125 0.40625 -2.546875 0.40625z" fill-rule="nonzero"/><path fill="#9e9e9e" d="m83.52878 213.87556l0 0c0 -24.706894 20.0289 -44.735794 44.73581 -44.735794l180.92209 0l0 0c11.864685 0 23.243408 4.713211 31.632996 13.102814c8.389587 8.389587 13.102814 19.76831 13.102814 31.63298l0 178.93785c0 24.70691 -20.0289 44.73581 -44.73581 44.73581l-180.92209 0l0 0c-24.70691 0 -44.73581 -20.0289 -44.73581 -44.73581z" fill-rule="evenodd"/><path stroke="#595959" stroke-width="1.0" stroke-linejoin="round" stroke-linecap="butt" d="m83.52878 213.87556l0 0c0 -24.706894 20.0289 -44.735794 44.73581 -44.735794l180.92209 0l0 0c11.864685 0 23.243408 4.713211 31.632996 13.102814c8.389587 8.389587 13.102814 19.76831 13.102814 31.63298l0 178.93785c0 24.70691 -20.0289 44.73581 -44.73581 44.73581l-180.92209 0l0 0c-24.70691 0 -44.73581 -20.0289 -44.73581 -44.73581z" fill-rule="evenodd"/><path fill="#000000" d="m202.7485 190.09993q1.734375 0 3.015625 0.578125q1.28125 0.578125 1.96875 1.640625q0.6875 1.0625 0.6875 2.515625q0 1.4375 -0.6875 2.515625q-0.6875 1.078125 -1.96875 1.65625q-1.28125 0.5625 -3.015625 0.5625l-2.625 0l0 3.59375l-3.03125 0l0 -13.0625l5.65625 0zm-0.171875 7.0q1.359375 0 2.0625 -0.578125q0.71875 -0.59375 0.71875 -1.6875q0 -1.09375 -0.71875 -1.671875q-0.703125 -0.59375 -2.0625 -0.59375l-2.453125 0l0 4.53125l2.453125 0zm17.59166 1.078125q0 0.0625 -0.046875 0.78125l-7.59375 0q0.203125 0.9375 0.96875 1.484375q0.765625 0.53125 1.90625 0.53125q0.78125 0 1.375 -0.234375q0.609375 -0.234375 1.140625 -0.734375l1.546875 1.6875q-1.421875 1.625 -4.140625 1.625q-1.703125 0 -3.015625 -0.65625q-1.296875 -0.671875 -2.015625 -1.84375q-0.703125 -1.1875 -0.703125 -2.671875q0 -1.484375 0.703125 -2.65625q0.703125 -1.1875 1.921875 -1.84375q1.21875 -0.671875 2.734375 -0.671875q1.46875 0 2.65625 0.640625q1.203125 0.625 1.875 1.8125q0.6875 1.1875 0.6875 2.75zm-5.203125 -3.0q-0.984375 0 -1.65625 0.5625q-0.671875 0.5625 -0.828125 1.53125l4.953125 0q-0.15625 -0.953125 -0.828125 -1.515625q-0.671875 -0.578125 -1.640625 -0.578125zm10.913971 -2.203125q2.328125 0 3.578125 1.109375q1.25 1.109375 1.25 3.34375l0 5.734375l-2.71875 0l0 -1.25q-0.828125 1.40625 -3.0625 1.40625q-1.15625 0 -2.015625 -0.390625q-0.84375 -0.40625 -1.296875 -1.09375q-0.4375 -0.6875 -0.4375 -1.5625q0 -1.40625 1.046875 -2.203125q1.0625 -0.796875 3.265625 -0.796875l2.3125 0q0 -0.953125 -0.578125 -1.46875q-0.578125 -0.515625 -1.734375 -0.515625q-0.796875 0 -1.578125 0.25q-0.765625 0.25 -1.3125 0.6875l-1.046875 -2.03125q0.828125 -0.578125 1.96875 -0.890625q1.140625 -0.328125 2.359375 -0.328125zm-0.21875 8.375q0.734375 0 1.3125 -0.34375q0.59375 -0.34375 0.828125 -1.015625l0 -1.03125l-2.0 0q-1.78125 0 -1.78125 1.1875q0 0.546875 0.4375 0.875q0.4375 0.328125 1.203125 0.328125zm11.0578 1.96875q-1.25 0 -2.453125 -0.3125q-1.1875 -0.3125 -1.890625 -0.78125l0.96875 -2.078125q0.671875 0.421875 1.625 0.703125q0.953125 0.265625 1.859375 0.265625q1.84375 0 1.84375 -0.921875q0 -0.421875 -0.5 -0.609375q-0.5 -0.1875 -1.546875 -0.328125q-1.234375 -0.171875 -2.03125 -0.421875q-0.796875 -0.25 -1.390625 -0.859375q-0.59375 -0.609375 -0.59375 -1.75q0 -0.953125 0.546875 -1.6875q0.5625 -0.734375 1.609375 -1.140625q1.0625 -0.421875 2.5 -0.421875q1.0625 0 2.109375 0.234375q1.0625 0.234375 1.75 0.640625l-0.96875 2.078125q-1.328125 -0.75 -2.890625 -0.75q-0.9375 0 -1.40625 0.265625q-0.46875 0.25 -0.46875 0.671875q0 0.46875 0.5 0.65625q0.515625 0.171875 1.609375 0.34375q1.234375 0.203125 2.015625 0.4375q0.78125 0.234375 1.359375 0.859375q0.578125 0.609375 0.578125 1.703125q0 0.9375 -0.5625 1.671875q-0.546875 0.71875 -1.625 1.125q-1.078125 0.40625 -2.546875 0.40625z" fill-rule="nonzero"/><path fill="#ff7673" d="m93.70202 257.45868l0 0c0 -18.633102 15.10511 -33.738205 33.738213 -33.738205l182.57082 0c8.947937 0 17.529388 3.5545502 23.856537 9.881683c6.327118 6.3271484 9.881683 14.9086 9.881683 23.856522l0 134.94879c0 18.633087 -15.105103 33.73819 -33.73822 33.73819l-182.57082 0l0 0c-18.633102 0 -33.738213 -15.105103 -33.738213 -33.73819z" fill-rule="evenodd"/><path stroke="#595959" stroke-width="1.0" stroke-linejoin="round" stroke-linecap="butt" d="m93.70202 257.45868l0 0c0 -18.633102 15.10511 -33.738205 33.738213 -33.738205l182.57082 0c8.947937 0 17.529388 3.5545502 23.856537 9.881683c6.327118 6.3271484 9.881683 14.9086 9.881683 23.856522l0 134.94879c0 18.633087 -15.105103 33.73819 -33.73822 33.73819l-182.57082 0l0 0c-18.633102 0 -33.738213 -15.105103 -33.738213 -33.73819z" fill-rule="evenodd"/><path fill="#000000" d="m190.43193 241.45955l5.9375 0q2.125 0 3.75 0.8125q1.640625 0.8125 2.546875 2.296875q0.90625 1.46875 0.90625 3.421875q0 1.953125 -0.90625 3.4375q-0.90625 1.46875 -2.546875 2.28125q-1.625 0.8125 -3.75 0.8125l-5.9375 0l0 -13.0625zm5.78125 10.578125q1.96875 0 3.125 -1.09375q1.171875 -1.09375 1.171875 -2.953125q0 -1.859375 -1.171875 -2.953125q-1.15625 -1.09375 -3.125 -1.09375l-2.75 0l0 8.09375l2.75 0zm12.20694 -6.234375q0.515625 -0.71875 1.40625 -1.09375q0.890625 -0.375 2.046875 -0.375l0 2.6875q-0.484375 -0.03125 -0.65625 -0.03125q-1.25 0 -1.96875 0.703125q-0.703125 0.6875 -0.703125 2.09375l0 4.734375l-2.90625 0l0 -10.03125l2.78125 0l0 1.3125zm5.1849365 -1.3125l2.90625 0l0 10.03125l-2.90625 0l0 -10.03125zm1.453125 -1.40625q-0.8125 0 -1.3125 -0.46875q-0.5 -0.46875 -0.5 -1.15625q0 -0.6875 0.5 -1.15625q0.5 -0.46875 1.3125 -0.46875q0.796875 0 1.296875 0.453125q0.515625 0.453125 0.515625 1.125q0 0.71875 -0.515625 1.203125q-0.5 0.46875 -1.296875 0.46875zm14.131165 1.40625l-4.234375 10.03125l-3.015625 0l-4.21875 -10.03125l3.015625 0l2.78125 6.828125l2.859375 -6.828125l2.8125 0zm10.735809 5.046875q0 0.0625 -0.046875 0.78125l-7.59375 0q0.203125 0.9375 0.96875 1.484375q0.765625 0.53125 1.90625 0.53125q0.78125 0 1.375 -0.234375q0.609375 -0.234375 1.140625 -0.734375l1.546875 1.6875q-1.421875 1.625 -4.140625 1.625q-1.703125 0 -3.015625 -0.65625q-1.296875 -0.671875 -2.015625 -1.84375q-0.703125 -1.1875 -0.703125 -2.671875q0 -1.484375 0.703125 -2.65625q0.703125 -1.1875 1.921875 -1.84375q1.21875 -0.671875 2.734375 -0.671875q1.46875 0 2.65625 0.640625q1.203125 0.625 1.875 1.8125q0.6875 1.1875 0.6875 2.75zm-5.203125 -3.0q-0.984375 0 -1.65625 0.5625q-0.671875 0.5625 -0.828125 1.53125l4.953125 0q-0.15625 -0.953125 -0.828125 -1.515625q-0.671875 -0.578125 -1.640625 -0.578125zm9.928345 -0.734375q0.515625 -0.71875 1.40625 -1.09375q0.890625 -0.375 2.046875 -0.375l0 2.6875q-0.484375 -0.03125 -0.65625 -0.03125q-1.25 0 -1.96875 0.703125q-0.703125 0.6875 -0.703125 2.09375l0 4.734375l-2.90625 0l0 -10.03125l2.78125 0l0 1.3125z" fill-rule="nonzero"/><path fill="#ffcc66" d="m102.48059 296.0595l0 0c0 -12.828918 10.399895 -23.22879 23.228813 -23.22879l186.0463 0c6.160675 0 12.069 2.4472961 16.425262 6.8035583c4.3562317 4.3562317 6.8035583 10.264587 6.8035583 16.425232l0 92.912476c0 12.828918 -10.399902 23.22879 -23.22882 23.22879l-186.0463 0c-12.828918 0 -23.228813 -10.399872 -23.228813 -23.22879z" fill-rule="evenodd"/><path stroke="#595959" stroke-width="1.0" stroke-linejoin="round" stroke-linecap="butt" d="m102.48059 296.0595l0 0c0 -12.828918 10.399895 -23.22879 23.228813 -23.22879l186.0463 0c6.160675 0 12.069 2.4472961 16.425262 6.8035583c4.3562317 4.3562317 6.8035583 10.264587 6.8035583 16.425232l0 92.912476c0 12.828918 -10.399902 23.22879 -23.22882 23.22879l-186.0463 0c-12.828918 0 -23.228813 -10.399872 -23.228813 -23.22879z" fill-rule="evenodd"/><path fill="#000000" d="m186.9666 298.13232l0 2.421875l-10.109375 0l0 -13.0625l9.875 0l0 2.421875l-6.875 0l0 2.84375l6.0625 0l0 2.34375l-6.0625 0l0 3.03125l7.109375 0zm8.45018 2.421875l-2.203125 -3.078125l-2.265625 3.078125l-3.171875 0l3.859375 -5.0625l-3.734375 -4.96875l3.265625 0l2.125 2.921875l2.1875 -2.921875l3.09375 0l-3.734375 4.90625l3.890625 5.125l-3.3125 0zm14.236252 -4.984375q0 0.0625 -0.046875 0.78125l-7.59375 0q0.203125 0.9375 0.96875 1.484375q0.765625 0.53125 1.90625 0.53125q0.78125 0 1.375 -0.234375q0.609375 -0.234375 1.140625 -0.734375l1.546875 1.6875q-1.421875 1.625 -4.140625 1.625q-1.703125 0 -3.015625 -0.65625q-1.296875 -0.671875 -2.015625 -1.84375q-0.703125 -1.1875 -0.703125 -2.671875q0 -1.484375 0.703125 -2.65625q0.703125 -1.1875 1.921875 -1.84375q1.21875 -0.671875 2.734375 -0.671875q1.46875 0 2.65625 0.640625q1.203125 0.625 1.875 1.8125q0.6875 1.1875 0.6875 2.75zm-5.203125 -3.0q-0.984375 0 -1.65625 0.5625q-0.671875 0.5625 -0.828125 1.53125l4.953125 0q-0.15625 -0.953125 -0.828125 -1.515625q-0.671875 -0.578125 -1.640625 -0.578125zm11.990845 8.140625q-1.59375 0 -2.875 -0.65625q-1.28125 -0.671875 -2.0 -1.84375q-0.71875 -1.1875 -0.71875 -2.671875q0 -1.5 0.71875 -2.671875q0.71875 -1.171875 2.0 -1.828125q1.28125 -0.671875 2.875 -0.671875q1.59375 0 2.78125 0.671875q1.1875 0.65625 1.71875 1.890625l-2.25 1.203125q-0.78125 -1.375 -2.265625 -1.375q-1.140625 0 -1.890625 0.75q-0.734375 0.734375 -0.734375 2.03125q0 1.28125 0.734375 2.03125q0.75 0.75 1.890625 0.75q1.5 0 2.265625 -1.390625l2.25 1.234375q-0.53125 1.203125 -1.71875 1.875q-1.1875 0.671875 -2.78125 0.671875zm16.291473 -10.1875l0 10.03125l-2.765625 0l0 -1.1875q-0.578125 0.640625 -1.375 1.0q-0.796875 0.34375 -1.734375 0.34375q-1.984375 0 -3.140625 -1.140625q-1.15625 -1.140625 -1.15625 -3.375l0 -5.671875l2.921875 0l0 5.234375q0 2.421875 2.03125 2.421875q1.046875 0 1.671875 -0.671875q0.640625 -0.6875 0.640625 -2.03125l0 -4.953125l2.90625 0zm9.1762085 9.546875q-0.421875 0.3125 -1.046875 0.484375q-0.625 0.15625 -1.3125 0.15625q-1.796875 0 -2.7812347 -0.90625q-0.96875 -0.921875 -0.96875 -2.703125l0 -4.125l-1.546875 0l0 -2.234375l1.546875 0l0 -2.4375l2.9062347 0l0 2.4375l2.5 0l0 2.234375l-2.5 0l0 4.09375q0 0.625 0.328125 0.96875q0.328125 0.34375 0.921875 0.34375q0.6875 0 1.171875 -0.359375l0.78125 2.046875zm6.110626 0.640625q-1.59375 0 -2.859375 -0.65625q-1.25 -0.671875 -1.96875 -1.84375q-0.703125 -1.1875 -0.703125 -2.671875q0 -1.5 0.703125 -2.671875q0.71875 -1.171875 1.96875 -1.828125q1.265625 -0.671875 2.859375 -0.671875q1.578125 0 2.828125 0.671875q1.25 0.65625 1.953125 1.828125q0.71875 1.171875 0.71875 2.671875q0 1.484375 -0.71875 2.671875q-0.703125 1.171875 -1.953125 1.84375q-1.25 0.65625 -2.828125 0.65625zm0 -2.390625q1.109375 0 1.828125 -0.75q0.71875 -0.765625 0.71875 -2.03125q0 -1.265625 -0.71875 -2.015625q-0.71875 -0.765625 -1.828125 -0.765625q-1.125 0 -1.859375 0.765625q-0.71875 0.75 -0.71875 2.015625q0 1.265625 0.71875 2.03125q0.734375 0.75 1.859375 0.75zm10.219864 -6.484375q0.515625 -0.71875 1.40625 -1.09375q0.890625 -0.375 2.046875 -0.375l0 2.6875q-0.484375 -0.03125 -0.65625 -0.03125q-1.25 0 -1.96875 0.703125q-0.703125 0.6875 -0.703125 2.09375l0 4.734375l-2.9062653 0l0 -10.03125l2.7812653 0l0 1.3125z" fill-rule="nonzero"/><path fill="#16e7cf" d="m564.71735 112.67038l0 0c0 -30.137085 24.430908 -54.568016 54.567993 -54.568016l218.26556 0l0 0c14.472351 0 28.351929 5.749111 38.58539 15.982605c10.2335205 10.233482 15.982605 24.113075 15.982605 38.58541l0 288.69073c0 30.137085 -24.430908 54.568024 -54.567993 54.568024l-218.26556 0c-30.137085 0 -54.567993 -24.430939 -54.567993 -54.568024z" fill-rule="evenodd"/><path stroke="#595959" stroke-width="1.0" stroke-linejoin="round" stroke-linecap="butt" d="m564.71735 112.67038l0 0c0 -30.137085 24.430908 -54.568016 54.567993 -54.568016l218.26556 0l0 0c14.472351 0 28.351929 5.749111 38.58539 15.982605c10.2335205 10.233482 15.982605 24.113075 15.982605 38.58541l0 288.69073c0 30.137085 -24.430908 54.568024 -54.567993 54.568024l-218.26556 0c-30.137085 0 -54.567993 -24.430939 -54.567993 -54.568024z" fill-rule="evenodd"/><path fill="#000000" d="m709.51746 84.36417l0 3.453125l6.03125 0l0 2.4375l-6.03125 0l0 4.75l-3.03125 0l0 -13.0625l9.875 0l0 2.421875l-6.84375 0zm8.686951 -3.203125l2.90625 0l0 13.84375l-2.90625 0l0 -13.84375zm10.39679 14.0q-1.59375 0 -2.859375 -0.65625q-1.25 -0.671875 -1.96875 -1.84375q-0.703125 -1.1875 -0.703125 -2.671875q0 -1.5 0.703125 -2.671875q0.71875 -1.171875 1.96875 -1.828125q1.265625 -0.671875 2.859375 -0.671875q1.578125 0 2.828125 0.671875q1.25 0.65625 1.953125 1.828125q0.71875 1.171875 0.71875 2.671875q0 1.484375 -0.71875 2.671875q-0.703125 1.171875 -1.953125 1.84375q-1.25 0.65625 -2.828125 0.65625zm0 -2.390625q1.109375 0 1.828125 -0.75q0.71875 -0.765625 0.71875 -2.03125q0 -1.265625 -0.71875 -2.015625q-0.71875 -0.765625 -1.828125 -0.765625q-1.125 0 -1.859375 0.765625q-0.71875 0.75 -0.71875 2.015625q0 1.265625 0.71875 2.03125q0.734375 0.75 1.859375 0.75zm23.28357 -7.796875l-3.640625 10.03125l-2.796875 0l-2.265625 -6.234375l-2.328125 6.234375l-2.796875 0l-3.625 -10.03125l2.75 0l2.359375 6.78125l2.46875 -6.78125l2.46875 0l2.375 6.78125l2.453125 -6.78125l2.578125 0z" fill-rule="nonzero"/><path fill="#ffcc66" d="m612.16626 296.0595l0 0c0 -12.828918 10.399902 -23.22879 23.22882 -23.22879l186.04626 0c6.1607056 0 12.069031 2.4472961 16.425293 6.8035583c4.356201 4.3562317 6.803528 10.264587 6.803528 16.425232l0 92.912476c0 12.828918 -10.399902 23.22879 -23.22882 23.22879l-186.04626 0c-12.828918 0 -23.22882 -10.399872 -23.22882 -23.22879z" fill-rule="evenodd"/><path stroke="#595959" stroke-width="1.0" stroke-linejoin="round" stroke-linecap="butt" d="m612.16626 296.0595l0 0c0 -12.828918 10.399902 -23.22879 23.22882 -23.22879l186.04626 0c6.1607056 0 12.069031 2.4472961 16.425293 6.8035583c4.356201 4.3562317 6.803528 10.264587 6.803528 16.425232l0 92.912476c0 12.828918 -10.399902 23.22879 -23.22882 23.22879l-186.04626 0c-12.828918 0 -23.22882 -10.399872 -23.22882 -23.22879z" fill-rule="evenodd"/><path fill="#000000" d="m696.6522 298.13232l0 2.421875l-10.109375 0l0 -13.0625l9.875 0l0 2.421875l-6.875 0l0 2.84375l6.0625 0l0 2.34375l-6.0625 0l0 3.03125l7.109375 0zm8.450195 2.421875l-2.203125 -3.078125l-2.265625 3.078125l-3.171875 0l3.859375 -5.0625l-3.734375 -4.96875l3.265625 0l2.125 2.921875l2.1875 -2.921875l3.09375 0l-3.734375 4.90625l3.890625 5.125l-3.3125 0zm14.236267 -4.984375q0 0.0625 -0.046875 0.78125l-7.59375 0q0.203125 0.9375 0.96875 1.484375q0.765625 0.53125 1.90625 0.53125q0.78125 0 1.375 -0.234375q0.609375 -0.234375 1.140625 -0.734375l1.546875 1.6875q-1.421875 1.625 -4.140625 1.625q-1.703125 0 -3.015625 -0.65625q-1.296875 -0.671875 -2.015625 -1.84375q-0.703125 -1.1875 -0.703125 -2.671875q0 -1.484375 0.703125 -2.65625q0.703125 -1.1875 1.921875 -1.84375q1.21875 -0.671875 2.734375 -0.671875q1.46875 0 2.65625 0.640625q1.203125 0.625 1.875 1.8125q0.6875 1.1875 0.6875 2.75zm-5.203125 -3.0q-0.984375 0 -1.65625 0.5625q-0.671875 0.5625 -0.828125 1.53125l4.953125 0q-0.15625 -0.953125 -0.828125 -1.515625q-0.671875 -0.578125 -1.640625 -0.578125zm11.990845 8.140625q-1.59375 0 -2.875 -0.65625q-1.28125 -0.671875 -2.0 -1.84375q-0.71875 -1.1875 -0.71875 -2.671875q0 -1.5 0.71875 -2.671875q0.71875 -1.171875 2.0 -1.828125q1.28125 -0.671875 2.875 -0.671875q1.59375 0 2.78125 0.671875q1.1875 0.65625 1.71875 1.890625l-2.25 1.203125q-0.78125 -1.375 -2.265625 -1.375q-1.140625 0 -1.890625 0.75q-0.734375 0.734375 -0.734375 2.03125q0 1.28125 0.734375 2.03125q0.75 0.75 1.890625 0.75q1.5 0 2.265625 -1.390625l2.25 1.234375q-0.53125 1.203125 -1.71875 1.875q-1.1875 0.671875 -2.78125 0.671875zm16.291443 -10.1875l0 10.03125l-2.765625 0l0 -1.1875q-0.578125 0.640625 -1.375 1.0q-0.796875 0.34375 -1.734375 0.34375q-1.984375 0 -3.140625 -1.140625q-1.15625 -1.140625 -1.15625 -3.375l0 -5.671875l2.921875 0l0 5.234375q0 2.421875 2.03125 2.421875q1.046875 0 1.671875 -0.671875q0.640625 -0.6875 0.640625 -2.03125l0 -4.953125l2.90625 0zm9.17627 9.546875q-0.421875 0.3125 -1.046875 0.484375q-0.625 0.15625 -1.3125 0.15625q-1.796875 0 -2.78125 -0.90625q-0.96875 -0.921875 -0.96875 -2.703125l0 -4.125l-1.546875 0l0 -2.234375l1.546875 0l0 -2.4375l2.90625 0l0 2.4375l2.5 0l0 2.234375l-2.5 0l0 4.09375q0 0.625 0.328125 0.96875q0.328125 0.34375 0.921875 0.34375q0.6875 0 1.171875 -0.359375l0.78125 2.046875zm6.1105957 0.640625q-1.59375 0 -2.859375 -0.65625q-1.25 -0.671875 -1.96875 -1.84375q-0.703125 -1.1875 -0.703125 -2.671875q0 -1.5 0.703125 -2.671875q0.71875 -1.171875 1.96875 -1.828125q1.265625 -0.671875 2.859375 -0.671875q1.578125 0 2.828125 0.671875q1.25 0.65625 1.953125 1.828125q0.71875 1.171875 0.71875 2.671875q0 1.484375 -0.71875 2.671875q-0.703125 1.171875 -1.953125 1.84375q-1.25 0.65625 -2.828125 0.65625zm0 -2.390625q1.109375 0 1.828125 -0.75q0.71875 -0.765625 0.71875 -2.03125q0 -1.265625 -0.71875 -2.015625q-0.71875 -0.765625 -1.828125 -0.765625q-1.125 0 -1.859375 0.765625q-0.71875 0.75 -0.71875 2.015625q0 1.265625 0.71875 2.03125q0.734375 0.75 1.859375 0.75zm10.219849 -6.484375q0.515625 -0.71875 1.40625 -1.09375q0.890625 -0.375 2.046875 -0.375l0 2.6875q-0.484375 -0.03125 -0.65625 -0.03125q-1.25 0 -1.96875 0.703125q-0.703125 0.6875 -0.703125 2.09375l0 4.734375l-2.90625 0l0 -10.03125l2.78125 0l0 1.3125z" fill-rule="nonzero"/><path fill="#009999" d="m419.32022 241.16798l77.73227 0l0 -19.669296l39.338562 39.338593l-39.338562 39.338562l0 -19.669281l-77.73227 0z" fill-rule="evenodd"/></g></svg>