<?xml version="1.0" encoding="utf-8"?>
<!-- Generator: Adobe Illustrator 25.0.1, SVG Export Plug-In . SVG Version: 6.00 Build 0)  -->
<svg version="1.1" id="图层_1" xmlns="http://www.w3.org/2000/svg" xmlns:xlink="http://www.w3.org/1999/xlink" x="0px" y="0px"
	 viewBox="0 0 235 100" style="enable-background:new 0 0 235 100;" xml:space="preserve">
<style type="text/css">
	.st0{fill-rule:evenodd;clip-rule:evenodd;fill:#EB6161;}
	.st1{fill-rule:evenodd;clip-rule:evenodd;fill:#009191;}
	.st2{fill-rule:evenodd;clip-rule:evenodd;fill:#FBCB67;}
</style>
<desc>Created with Sketch.</desc>
<g id="页面-2">
	<g id="Company-logo_x2F_light_x2F_Company-logo_x5F_light">
		<g id="编组">
			<g id="编组-2">
				<circle id="椭圆形备份-3" class="st0" cx="15.3" cy="84.5" r="15.3"/>
				<path id="形状结合" class="st1" d="M63.5,36.3c2,0,3.6,1.6,3.6,3.6l0,0l-0.2,29.3c0,16.7-13.4,30.3-30.1,30.6h-0.5V69.3h0.1
					L36.5,40c0-2,1.6-3.6,3.6-3.6h23.4V36.3z M110.5,36.3c2,0,3.6,1.6,3.6,3.6v41c0,2-1.6,3.6-3.6,3.6H87.1c-2,0-3.6-1.6-3.6-3.6
					v-41c0-2,1.6-3.6,3.6-3.6C87.1,36.3,110.5,36.3,110.5,36.3z M147.3,36.2h0.5c15,0.2,27.2,12.3,27.6,27.3l0,0l0,0v17.3
					c0,2-1.6,3.6-3.6,3.6l0,0H134c-2,0-3.6-1.6-3.6-3.6v-41c0-2,1.6-3.6,3.6-3.6C134,36.2,147.3,36.2,147.3,36.2z M209.2,84
					L209.2,84c-12.6-0.8-22.7-11.3-22.7-24.1c0-13.3,10.8-24.1,24.1-24.1c12.8,0,23.3,10,24.1,22.7l0,0v21.9c0,2-1.6,3.6-3.6,3.6
					H209.2z"/>
				<g id="编组-3" transform="translate(129.509779, 35.349915)">
					
						<g id="编组备份-4" transform="translate(23.180272, 24.619048) scale(1, -1) translate(-23.180272, -24.619048) translate(0.000000, 0.239796)">
						
							<g id="编组-5" transform="translate(23.060374, 24.379252) scale(-1, 1) translate(-23.060374, -24.379252) translate(0.279762, 0.000000)">
							<g id="编组-6">
								<g id="编组-7">
								</g>
							</g>
						</g>
					</g>
				</g>
				<g id="编组备份" transform="translate(83.448980, 0.000000)">
					<circle id="椭圆形" class="st2" cx="15.3" cy="15.3" r="15.3"/>
				</g>
			</g>
		</g>
	</g>
</g>
</svg>
