<svg width="196" height="196" xmlns="http://www.w3.org/2000/svg">
  <path d="M139.68 100.766c1.02 3.12 3.618 5.594 7.02 6.254 3.504.68 6.938-.743 9.041-3.4 4.03 1.698 7.396 4.123 9.892 7.196l.225.282.236.304.195.26.201.27.205.28.209.292.21.298.213.306.266.39.265.395.21.32.208.32.204.32.2.319.194.316.188.311.162.275.156.27.149.263c.12.216.233.426.336.625l.118.235c.114.23.212.444.293.64l-.14.619-.105.486-.024.097-.023.08-.043.13-.554 1.543-.463 1.314-.36 1.036c-1.888 5.462-5.605 12.384-9.609 17.967l-.002-.001c.968-4.233.548-8.244-1.42-11.649-3.107-5.373-9.452-8.167-17.405-8.17-7.56-.002-16.19 2.513-24.222 7.144a58.691 58.691 0 0 0-6.867 4.625c-4.655-2.859-10.686-2.005-13.89 2.241-3.023 4.006-2.447 9.593 1.014 13.303-2.67 5.923-2.866 11.697-.18 16.342 1.968 3.405 5.237 5.774 9.391 7.053-.468.086-.956.165-1.46.236l-.437.06a51.062 51.062 0 0 1-3.75.341l-.495.026a60.5 60.5 0 0 1-.752.031l-.507.016a64.88 64.88 0 0 1-1.543.023h-.521l-.524-.005a65.455 65.455 0 0 1-2.112-.06l-.531-.025a65.361 65.361 0 0 1-2.127-.145l-.53-.047c-3.357-.313-6.642-.892-9.462-1.773-.488-.385-1.048-1.027-1.62-1.792l-.171-.233-.172-.24-.172-.245-.185-.272-.093-.137-.184-.278-.182-.282-.224-.354-.22-.357-.257-.426-.167-.282-.161-.28-.195-.343-.186-.335-.21-.39-.132-.249-.124-.24-.116-.23-.108-.22-.099-.206-.09-.194-.079-.18a9.564 9.564 0 0 1-.036-.084l-.092-.228c-6.712-16.013 5.226-37.42 30.313-51.884 11.935-6.881 23.781-10.093 34.019-10.218Zm.557 26.94c6.147.003 10.618 1.971 12.6 5.4 1.982 3.427 1.454 8.279-1.618 13.596-3.268 5.656-9.052 11.182-16.274 15.346-7.222 4.163-14.907 6.402-21.446 6.4-6.147-.002-10.619-1.97-12.6-5.398-1.658-2.866-1.56-6.727.31-11.022 4.108 1.248 8.628.046 11.252-3.432 2.398-3.178 2.53-7.353.753-10.795a53.407 53.407 0 0 1 5.576-3.694c7.222-4.163 14.907-6.403 21.447-6.4Zm3.55-52.307c12.084 1.75 22.082 7.364 28.956 16.1h.002a74.803 74.803 0 0 1-.603 17.469h-.002c-.24-.493-.499-.978-.775-1.456-2.952-5.107-7.663-8.86-13.638-11.159-.527-3.882-3.413-7.157-7.407-7.932-4.258-.827-8.413 1.452-10.202 5.278-11.976.364-25.322 4.386-37.766 11.56-13.381 7.715-24.122 18.153-30.266 29.188-6.358 11.419-7.398 22.784-2.289 31.62.208.36.424.711.648 1.056l.227.344a75.053 75.053 0 0 1-15.44-8.204v-.002c-2.997-7.507-3.743-15.682-2.184-23.97 3.134.052 6.25-.95 8.783-3.073 5.73-4.802 6.328-13.54 1.389-19.637 6.514-8.956 15.798-17.171 27.558-24.075l.497-.29 1.128-.646c18.309-10.36 36.13-14.38 51.385-12.17ZM130.706 48.05a66.61 66.61 0 0 1 5.583.33c9.668.987 18.114 4.09 24.902 9.037l.001-.002a76.138 76.138 0 0 1 1.75 2.879 74.97 74.97 0 0 1 7.264 17.166l.545 2.074c-.194-.474-.688-1.09-1.36-1.763l-.18-.177-.187-.18-.194-.181-.2-.184-.103-.092-.21-.185-.216-.186-.22-.187-.225-.187-.23-.187-.232-.187-.235-.186-.239-.185-.24-.184-.364-.273-.243-.18-.245-.176-.366-.26-.243-.17-.242-.166-.24-.162-.239-.158-.235-.153-.233-.149-.286-.178-.334-.203-.27-.16-.21-.12-.303-.167c-5.148-2.768-11.14-4.505-17.446-5.418-17.023-2.464-36.449 1.853-56.077 12.828l-.595.335c-.396.224-.79.45-1.18.676l-.585.342c-12.74 7.483-22.906 16.491-30.118 26.438-4.453-1.521-9.445-.823-13.173 2.3-5.799 4.859-6.34 13.747-1.21 19.853a15.181 15.181 0 0 0 3.026 2.75c-.735 3.495-1.116 6.983-1.116 10.419 0 .1.004.213.01.336l.014.191.018.205.022.215.026.225.029.233.032.238.035.242.056.367.08.485.084.467.042.223.062.315.079.375.037.164.035.146.032.125.029.105.029.095.096.297.208.609.392 1.114.531 1.48.192.529c-.398-.345-.83-.752-1.287-1.205l-.276-.277-.282-.287-.43-.448-.364-.388-.37-.399-.296-.326-.298-.332-.449-.506-.299-.342-.446-.518-.295-.347-.293-.348-.29-.348-.428-.52-.28-.345-.275-.341-.268-.338-.263-.334-.38-.49c-2.087-2.72-3.944-5.619-5.494-8.3a76.126 76.126 0 0 1-1.621-2.952h.002c-.896-8.343.635-17.198 4.614-26.053 7.124-15.855 21.65-30.813 42.168-42.642 9.575-5.52 19.088-9.571 28.271-12.143 3.127 4.755 9.67 7.383 15.029 6.356 4.923-.944 8.74-4.93 9.183-9.689Zm-23.556 89.545c2.952 2.222 3.658 6.135 1.71 8.717-1.033 1.368-2.631 2.124-4.345 2.202l-.194.005c-1.462.023-2.995-.446-4.324-1.446-2.952-2.221-3.658-6.135-1.71-8.716 1.949-2.582 5.91-2.983 8.863-.762Zm23.188-105.704c1.797.284 3.56.637 5.288 1.057v-.001c5.961 3.444 12.401 8.618 17.165 13.767l-.353-.165-.372-.17-.388-.173-.608-.265-.421-.178-.476-.198c-1.601-.658-3.372-1.312-4.927-1.78-1.802-.543-3.866-.897-5.955-1.162l-.597-.073-.747-.086-.744-.08-.297-.03a73.48 73.48 0 0 0-7.504-.374c-2.853-5.284-9.642-8.437-15.447-7.5-5.448.88-9.415 5.773-9.297 11.126-9.628 2.716-19.54 6.949-29.469 12.673-21.566 12.433-36.99 28.316-44.67 45.41a64.808 64.808 0 0 0-3.157 8.56c-.238.82-.448 1.85-.614 2.926l-.057.38a36.98 36.98 0 0 0-.078.576l-.047.383-.043.382c-.114 1.076-.176 2.11-.167 2.938-2.09-6.55-3.289-14.672-3.352-21.45L23 97.878a66.462 66.462 0 0 1 1.729-5.101c5.205-13.545 15.029-26.227 28.856-36.988 2.43 1.418 5.846 1.363 8.787-.402 3.282-1.969 4.96-5.46 4.369-8.526.456-.27.916-.54 1.38-.806 21.578-12.441 43.258-17.164 62.216-14.164Zm-7.064-4.523.276.011c-17.679-.691-38.422 3.973-57.552 15.003-.483.278-.963.559-1.44.842-2.432-1.968-6.313-2.13-9.6-.159-3.653 2.192-5.319 6.27-4.08 9.547-10.824 8.575-19.26 18.392-25.13 28.787l-.264.472-.041.08-.048.102-.053.121-.081.192-.092.228-.131.335-.117.308-.232.625-.306.846-.258.728A75.108 75.108 0 0 1 34.84 57.604a78.488 78.488 0 0 1 5.681-7.752 74.776 74.776 0 0 1 20.052-16.807c19.825-11.43 42.703-12.793 62.7-5.677Zm-8.663 11.636c5.419-.945 9.824 2.277 11.13 6.29 1.127 3.464-1.276 7.11-5.175 7.858-4.35.834-9.796-2.063-11.062-5.953-1.176-3.616 1.331-7.535 5.107-8.195Z" fill="#009191" fill-rule="evenodd"/>
</svg>
