<?xml version="1.0" encoding="UTF-8"?>
<svg width="300px" height="300px" viewBox="0 0 300 300" version="1.1" xmlns="http://www.w3.org/2000/svg" xmlns:xlink="http://www.w3.org/1999/xlink">
    <title>finetuner-light</title>
    <g id="é¡µé¢-1" stroke="none" stroke-width="1" fill="none" fill-rule="evenodd">
        <path d="M233.360018,155.532473 C235.400728,161.77141 240.596005,166.71925 247.400011,168.039923 C254.407188,169.400032 261.27555,166.554994 265.482461,161.241851 C273.541679,164.635497 280.273751,169.486236 285.265742,175.632587 L285.715317,176.195577 L286.187416,176.804824 L286.57891,177.32217 L286.980699,177.86337 L287.39095,178.425869 L287.39095,178.425869 L287.807833,179.007109 L288.229514,179.604536 L288.654163,180.215595 L289.186356,180.994694 L289.716746,181.786108 L290.137355,182.424751 L290.552688,183.065526 L290.960913,183.705877 L291.360199,184.343248 L291.748713,184.975084 L292.124624,185.598829 L292.448784,186.147968 L292.760243,186.686658 L293.057188,187.213355 C293.298508,187.646605 293.52369,188.065257 293.729317,188.464543 L293.966464,188.934086 C294.193788,189.393723 294.390985,189.822729 294.55215,190.212865 L294.270668,191.451492 L294.061413,192.424062 L294.013406,192.61708 L293.967501,192.777013 L293.882742,193.037022 L292.773937,196.12398 L291.848512,198.752619 L291.128811,200.824771 C287.352448,211.747347 279.918002,225.591725 271.910022,236.757747 L271.90685,236.755582 C273.842227,228.290688 273.002023,220.267699 269.064773,213.457937 C262.851567,202.711743 250.161896,197.124556 234.256196,197.119465 C219.13569,197.114624 201.876317,202.143707 185.811308,211.405577 C180.927384,214.221278 176.327544,217.328041 172.078138,220.656129 C162.767384,214.938272 150.705558,216.646377 144.296829,225.138882 C138.252004,233.149161 139.403749,244.323336 146.32593,251.744035 C140.985849,263.590826 140.59337,275.138445 145.964518,284.428238 C149.901767,291.238 156.439731,295.976092 164.748734,298.534851 C163.811916,298.706642 162.836433,298.86414 161.827194,299.006914 L160.953981,299.125677 C158.60398,299.432706 156.084959,299.662167 153.45557,299.808908 L152.464489,299.860048 C151.966477,299.883669 151.464842,299.90436 150.959972,299.922085 L149.946031,299.953574 C148.928004,299.981089 147.898065,299.996655 146.859307,300 L145.817723,300 L144.770948,299.990314 C143.37209,299.972887 141.961219,299.933411 140.545666,299.871242 L139.483238,299.820351 C138.065802,299.746796 136.645516,299.650388 135.229713,299.530483 L134.168815,299.436138 C127.456567,298.810591 120.886793,297.651256 115.245191,295.889121 C114.27074,295.119424 113.149869,293.835217 112.007325,292.305381 L111.664036,291.83933 L111.320196,291.360154 L111.320196,291.360154 L110.976552,290.869468 L110.605361,290.326772 L110.420479,290.051709 L110.052736,289.495434 L109.688482,288.932671 L109.688482,288.932671 L109.239519,288.223218 L108.799351,287.510838 L108.285378,286.657759 L107.952569,286.093477 L107.629498,285.534702 L107.239706,284.847735 L106.867632,284.177071 L106.447146,283.399433 L106.18407,282.900674 L105.9359,282.42004 L105.703591,281.959582 L105.488092,281.521353 L105.290356,281.107402 L105.111334,280.719781 L104.951978,280.360541 C104.927111,280.303146 104.903102,280.24702 104.879972,280.192205 L104.69607,279.735409 L104.69607,279.735409 C91.2714301,247.709334 115.147155,204.894868 165.322012,175.967839 C189.192381,162.205989 212.884543,155.782814 233.360018,155.532473 Z M234.473271,209.413146 C246.767466,209.417087 255.710404,213.354609 259.674413,220.210653 C263.638421,227.066696 262.581831,236.76919 256.438147,247.403013 C249.902084,258.715987 238.333749,269.767754 223.889706,278.095097 C209.445663,286.422441 194.076674,290.900698 180.997285,290.896517 C168.70309,290.892575 159.760152,286.955053 155.796143,280.09901 C152.482313,274.367498 152.677187,266.646709 156.419616,258.055525 C164.634766,260.552036 173.673244,258.147027 178.921114,251.19283 C183.718312,244.835839 183.983056,236.486203 180.428154,229.601348 C183.901269,226.969295 187.633683,224.490203 191.58085,222.214565 C206.024893,213.887222 221.393882,209.408965 234.473271,209.413146 Z M241.575794,104.798804 C265.741956,108.297682 285.737975,119.526128 299.485963,136.997597 L299.489716,136.998221 C300.461599,148.71206 300.037543,160.439282 298.283093,171.935615 L298.280746,171.934812 C297.79969,170.949963 297.282912,169.979124 296.730148,169.023077 C290.825489,158.810539 281.403822,151.305048 269.453544,146.706384 C268.399469,138.941754 262.628854,132.392096 254.640984,130.841632 C246.12489,129.188639 237.813832,133.746852 234.236231,141.398082 C210.283431,142.126058 183.591917,150.170785 158.703034,164.519833 C131.941497,179.948513 110.459145,200.823839 98.1711084,222.893938 C85.4559883,245.731106 83.3760781,268.461101 93.5949881,286.135454 C94.0095615,286.852489 94.4414724,287.556179 94.8903786,288.246455 L95.3444602,288.934689 C84.5053177,284.707047 74.1304054,279.215429 64.4637723,272.525134 L64.4651169,272.521665 C58.4705931,257.507184 56.9788877,241.157813 60.0952072,224.580605 C66.3647392,224.68537 72.5969246,222.680171 77.6616721,218.436422 C89.1238396,208.832279 90.3170335,191.357156 80.4391375,179.162582 C93.4686374,161.250026 112.036525,144.819202 135.556535,131.012694 L136.549584,130.433244 L138.806775,129.139386 C175.423986,108.418244 211.064643,100.381272 241.575794,104.798804 Z M215.410256,50.100265 C219.193558,50.1673517 222.917538,50.3878287 226.576263,50.7612681 C245.912695,52.7349024 262.80394,58.9415129 276.379471,68.8334634 L276.38214,68.830792 C277.585282,70.714237 278.752417,72.6331007 279.882118,74.5870015 C286.273742,85.6417815 291.093528,97.1720484 294.410723,108.919747 L295.499891,113.068733 C295.111256,112.119051 294.123841,110.889578 292.779237,109.541604 L292.420527,109.187377 L292.046565,108.828409 L291.658304,108.465338 L291.256697,108.0988 L291.051187,107.914429 L290.631348,107.543883 L290.200547,107.17146 L289.759735,106.797797 L289.309866,106.42353 L288.851894,106.049296 L288.38677,105.67573 L287.915449,105.303469 L287.438884,104.933149 L286.958027,104.565407 L286.23078,104.020019 L285.743364,103.661504 L285.254993,103.307795 L284.522729,102.787631 L284.036138,102.448717 L283.551928,102.116834 L283.071051,101.79262 L282.59446,101.47671 L282.123109,101.169741 L281.657951,100.872348 L281.086663,100.515045 L280.418477,100.109095 L279.878305,99.7912742 L279.458406,99.5513112 L278.851189,99.2166807 C268.556662,93.679114 256.570431,90.2064481 243.959703,88.3806142 C209.914272,83.4513744 171.06248,92.0863928 131.805451,114.036776 L130.615724,114.706014 C129.823525,115.153284 129.037741,115.606307 128.254304,116.057978 L127.085038,116.7416 C101.606158,131.707213 81.2747582,149.723946 66.8498967,169.617852 C57.9439513,166.575016 47.9597545,167.971552 40.5048615,174.218002 C28.9068628,183.935958 27.8226625,201.712548 38.0832324,213.923127 C39.8934507,216.077375 41.9358449,217.914456 44.135836,219.425864 C42.665229,226.414825 41.9033048,233.390749 41.9033048,240.2612 C41.9033048,240.462363 41.9110387,240.688218 41.9254386,240.933885 L41.9519047,241.316635 L41.9875691,241.725443 L42.0316311,242.156647 L42.0832899,242.606589 L42.1417447,243.071607 L42.2061947,243.548041 L42.2758391,244.03223 L42.3882935,244.765049 L42.5489391,245.735123 L42.715948,246.670333 L42.7998368,247.115713 L42.923898,247.745706 L43.0818014,248.495406 L43.155732,248.823324 L43.2252475,249.115072 L43.2895471,249.366992 L43.3478301,249.575422 L43.4058237,249.765506 L43.5985931,250.360362 L44.0135018,251.577662 L44.7982809,253.806531 L45.8604663,256.766089 L46.2431022,257.823725 C45.4489417,257.133765 44.5827035,256.319631 43.6700074,255.414102 L43.1170198,254.86008 L42.554112,254.285696 L41.6938402,253.389386 L41.6938402,253.389386 L40.9650048,252.614 L40.2278748,251.816019 L39.6338127,251.163432 L39.037209,250.499924 L38.140228,249.487628 L37.5426505,248.803703 L36.6499733,247.768158 L36.0591079,247.07365 L35.4730794,246.377663 L34.8931177,245.681769 L34.0372401,244.641547 L33.4778252,243.952772 L32.9287811,243.269599 L32.3913376,242.5936 L31.8667244,241.926349 L31.1065516,240.945317 C26.9315513,235.507775 23.2170943,229.707911 20.1178067,224.347466 C18.9881056,222.393565 17.9075079,220.42481 16.8756314,218.442626 L16.8792826,218.441654 C15.088096,201.755742 18.1509363,184.045114 26.1074865,166.336409 C40.3552003,134.625612 69.4066119,104.710605 110.443674,81.0517369 C129.593414,70.0114443 148.619667,61.9093763 166.986173,56.7665505 C173.240733,66.2754738 186.326732,71.5313298 197.043924,69.4771281 C206.889582,67.5899763 214.523749,59.6179597 215.410256,50.100265 Z M168.29778,229.190736 C174.201975,233.633501 175.614243,241.460602 171.717665,246.624139 C169.652478,249.360815 166.456005,250.872284 163.02852,251.027108 L162.639565,251.038833 C159.715722,251.083195 156.649836,250.145979 153.992948,248.146735 C148.088754,243.70397 146.676485,235.876869 150.573063,230.713332 C154.469642,225.549794 162.393586,224.747971 168.29778,229.190736 Z M214.6731,17.7820348 C218.267743,18.3508064 221.795078,19.056406 225.25017,19.8955804 L225.250926,19.8939728 C237.172252,26.7827852 250.05293,37.1290645 259.579669,47.428071 L258.87304,47.0978264 L258.13019,46.7586801 L257.354589,46.4122824 L257.354589,46.4122824 L256.137377,45.8826996 L255.295091,45.5253935 L254.344919,45.1307163 C251.141273,43.8145913 247.599248,42.5053237 244.489036,41.5690078 C240.88548,40.4841729 236.757936,39.7760397 232.580275,39.2459413 L231.385703,39.0991575 L229.892395,38.9277341 L228.403459,38.7678298 L227.810184,38.7066428 C222.901171,38.2055889 217.894516,37.9571199 212.802703,37.960023 C207.095635,27.3912512 193.517317,21.0857378 181.908138,22.9606032 C171.011886,24.7203321 163.078301,34.5060938 163.313516,45.2127313 C144.058562,50.6434485 124.234094,59.1092162 104.376278,70.5577315 C61.2448326,95.4240623 30.3958136,127.190113 15.0359595,161.376175 C12.4755456,167.074828 10.3703534,172.792783 8.72103926,178.499167 C8.24691151,180.13958 7.82614434,182.199616 7.49356075,184.349732 L7.37989661,185.1118 C7.32495205,185.494168 7.27288127,185.878133 7.22387564,186.261886 L7.13000798,187.02857 L7.04465428,187.791466 C6.81520161,189.944598 6.6923682,192.013345 6.71097703,193.668165 C2.53150907,180.566786 0.132602089,164.324514 0.00528210118,150.768223 L0,149.756778 C1.00153069,146.349274 2.15325539,142.946082 3.45730087,139.553097 C13.8689556,112.463097 33.5158324,87.0991415 61.1696241,65.5786609 C66.0290246,68.4142065 72.8622692,68.3036006 78.7434615,64.7748786 C85.3076038,60.8363859 88.6635095,53.8531729 87.4818209,47.7215957 C88.3947125,47.1805509 89.3146302,46.6430349 90.2406647,46.1091534 C133.397852,21.2279817 176.758576,11.7829129 214.6731,17.7820348 Z M200.545562,8.73554296 L201.098669,8.75877293 C165.739938,7.37567643 124.254508,16.7049375 85.9934876,38.7633496 C85.0270375,39.3205317 84.0671535,39.882045 83.1138547,40.4478185 C78.2493872,36.5120946 70.4871925,36.1863463 63.9142012,40.1301484 C56.6079618,44.5139002 53.2763662,52.6697176 55.752529,59.2247299 C34.1055885,76.3733352 17.2351112,96.0072819 5.49439651,116.797202 L4.96562271,117.741504 L4.88346823,117.903717 L4.78885652,118.105883 L4.68178758,118.348001 L4.51965108,118.732975 L4.3353684,119.188976 L4.07387197,119.85886 L3.83976037,120.474673 L3.37677582,121.723255 L2.76460242,123.416559 L2.24733863,124.872984 C5.58453456,105.171387 12.8407869,86.2030844 23.6808759,69.2085099 C27.1323125,63.8363176 30.9298232,58.6497139 35.0426084,53.7036601 C46.0224868,40.5843863 59.4566696,29.1349503 75.146979,20.089104 C114.796013,-2.76953162 160.552807,-5.49522258 200.545562,8.73554296 Z M183.220989,32.0088547 C194.057155,30.1172047 202.868648,36.5624757 205.479453,44.586213 C207.734102,51.5153814 202.928742,58.8086268 195.130506,60.3033419 C186.42876,61.9712361 175.538609,56.1783549 173.006949,48.3978505 C170.654018,41.1666318 175.667936,33.3273773 183.220989,32.0088547 Z" id="finetuner-light" fill="#009191"></path>
    </g>
</svg>