<?xml version="1.0" encoding="UTF-8"?>
<svg width="320px" height="320px" viewBox="0 0 320 320" version="1.1" xmlns="http://www.w3.org/2000/svg" xmlns:xlink="http://www.w3.org/1999/xlink">
    <title>hub-light</title>
    <g id="hub-light" stroke="none" stroke-width="1" fill="none" fill-rule="evenodd">
        <rect id="矩形备份-11" fill-rule="nonzero" x="0" y="0" width="320" height="320"></rect>
        <g id="dark-hub" transform="translate(38.000000, 38.000000)" fill="#009191" fill-rule="nonzero">
            <g id="编组-3">
                <path d="M121.683117,242.140812 C113.137912,242.138425 104.72309,240.070334 97.1727124,236.116947 L16.8640924,194.06989 C6.48878631,188.641175 0,177.991767 0,166.39251 C0,154.793253 6.48878631,144.143845 16.8640924,138.715131 C22.2573159,135.885287 28.9513706,137.910706 31.8156821,143.239029 C34.6799935,148.567353 32.6299053,155.180855 27.2366818,158.010698 C24.1043478,159.656454 22.1467807,162.875469 22.1467807,166.38051 C22.1467807,169.885552 24.1043478,173.104567 27.2366818,174.750323 L107.52101,216.80938 C116.376754,221.455746 126.98948,221.455746 135.845224,216.80938 L216.129552,174.750323 C219.261886,173.104567 221.219453,169.885552 221.219453,166.38051 C221.219453,162.875469 219.261886,159.656454 216.129552,158.010698 C210.736329,155.180855 208.68624,148.567353 211.550552,143.239029 C214.414863,137.910706 221.108918,135.885287 226.502141,138.715131 C236.877447,144.143845 243.366234,154.793253 243.366234,166.39251 C243.366234,177.991767 236.877447,188.641175 226.502141,194.06989 L146.193521,236.116947 C138.643143,240.070334 130.228322,242.138425 121.683117,242.140812 Z" id="路径备份"></path>
                <path d="M100.417287,139.036349 L12.0682597,92.2180724 C4.64278772,88.2806526 0,80.5644523 0,72.1609183 C0,63.7573843 4.64278772,56.041184 12.0682597,52.1037642 L100.417287,5.2854873 C113.718382,-1.7618291 129.647852,-1.7618291 142.948947,5.2854873 L231.297974,52.1037642 C238.723446,56.041184 243.366234,63.7573843 243.366234,72.1609183 C243.366234,80.5644523 238.723446,88.2806526 231.297974,92.2180724 L142.948947,139.036349 C129.647852,146.083665 113.718382,146.083665 100.417287,139.036349 L100.417287,139.036349 Z" id="路径"></path>
            </g>
        </g>
    </g>
</svg>