<?xml version="1.0" encoding="UTF-8"?>
<svg width="1317px" height="400px" viewBox="0 0 1317 400" version="1.1" xmlns="http://www.w3.org/2000/svg" xmlns:xlink="http://www.w3.org/1999/xlink">
    <title>logo-light</title>
    <g id="Jina" stroke="none" stroke-width="1" fill="none" fill-rule="evenodd">
        <g id="logo-light">
            <path d="M618.052131,323.486374 C641.358798,323.486374 660.168798,316.646374 674.482131,302.966374 C688.795464,289.286374 695.952131,270.666374 695.952131,247.106374 L695.952131,247.106374 L695.952131,56.7263739 L652.252131,56.7263739 L652.252131,247.106374 C652.252131,258.506374 649.338798,267.689707 643.512131,274.656374 C637.685464,281.623041 629.198798,285.106374 618.052131,285.106374 C606.905464,285.106374 598.482131,281.686374 592.782131,274.846374 C587.082131,268.006374 584.105464,258.759707 583.852131,247.106374 L583.852131,247.106374 L540.152131,247.106374 C540.152131,270.666374 547.308798,289.286374 561.622131,302.966374 C575.935464,316.646374 594.745464,323.486374 618.052131,323.486374 Z M789.115464,83.7063739 C796.842131,83.7063739 803.365464,81.0463739 808.685464,75.7263739 C814.005464,70.4063739 816.665464,63.8197072 816.665464,55.9663739 C816.665464,48.1130406 814.005464,41.5263739 808.685464,36.2063739 C803.365464,30.8863739 796.842131,28.2263739 789.115464,28.2263739 C781.388798,28.2263739 774.865464,30.8863739 769.545464,36.2063739 C764.225464,41.5263739 761.565464,48.1130406 761.565464,55.9663739 C761.565464,63.8197072 764.225464,70.4063739 769.545464,75.7263739 C774.865464,81.0463739 781.388798,83.7063739 789.115464,83.7063739 Z M810.585464,320.826374 L810.585464,111.446374 L767.265464,111.446374 L767.265464,320.826374 L810.585464,320.826374 Z M911.918798,320.826374 L911.918798,203.786374 C911.918798,185.039707 916.668798,170.663041 926.168798,160.656374 C935.668798,150.649707 948.525464,145.646374 964.738798,145.646374 C980.952131,145.646374 993.745461,150.649707 1003.1188,160.656374 C1012.49213,170.663041 1017.1788,185.039707 1017.1788,203.786374 L1017.1788,203.786374 L1017.1788,320.826374 L1060.1188,320.826374 L1060.1188,197.326374 C1060.1188,169.206374 1052.45546,147.293041 1037.1288,131.586374 C1021.80213,115.879707 1002.3588,108.026374 978.798798,108.026374 C948.145464,108.026374 925.852131,120.186374 911.918798,144.506374 L911.918798,144.506374 L911.918798,111.446374 L868.598798,111.446374 L868.598798,320.826374 L911.918798,320.826374 Z M1200.59213,324.246374 C1217.0588,324.246374 1231.4988,320.383041 1243.91213,312.656374 C1256.32546,304.929707 1266.0788,294.606374 1273.17213,281.686374 L1273.17213,281.686374 L1273.17213,320.826374 L1316.87213,320.826374 L1316.87213,111.446374 L1273.17213,111.446374 L1273.17213,148.686374 C1266.33213,136.526374 1256.64213,126.709707 1244.10213,119.236374 C1231.56213,111.763041 1217.0588,108.026374 1200.59213,108.026374 C1172.47213,108.026374 1148.97546,117.969707 1130.10213,137.856374 C1111.2288,157.743041 1101.79213,183.583041 1101.79213,215.376374 C1101.79213,247.169707 1111.29213,273.263041 1130.29213,293.656374 C1149.29213,314.049707 1172.72546,324.246374 1200.59213,324.246374 Z M1209.71213,286.626374 C1192.48546,286.626374 1177.60213,280.103041 1165.06213,267.056374 C1152.52213,254.009707 1146.25213,236.719707 1146.25213,215.186374 C1146.25213,193.653041 1152.52213,176.679707 1165.06213,164.266374 C1177.60213,151.853041 1192.48546,145.646374 1209.71213,145.646374 C1226.9388,145.646374 1241.82213,151.979707 1254.36213,164.646374 C1266.90213,177.313041 1273.17213,194.413041 1273.17213,215.946374 C1273.17213,237.479707 1266.8388,254.706374 1254.17213,267.626374 C1241.7588,280.293041 1226.9388,286.626374 1209.71213,286.626374 Z" id="Jina" fill="#009191" fill-rule="nonzero"></path>
            <path d="M40.4363876,311.841891 C56.3258533,324.108902 78.1698637,331.409313 105.968419,333.743127 C133.766974,336.07694 165.741287,335.179884 201.891357,331.05196 L305.126766,320.976522 C335.971015,307.780788 356.395042,296.318108 366.398847,286.588484 C376.402652,276.858859 383.603036,262.351303 388,243.065814 C385.291354,230.482978 372.76463,225.661495 350.419827,228.601363 C316.902623,233.011164 249.661861,237.83428 221.563903,240.374647 C202.831931,242.068225 176.501064,242.965281 142.5713,243.065814 C96.9307792,249.786775 67.6679199,257.485603 54.7827222,266.162297 C41.8975245,274.83899 37.115413,290.065522 40.4363876,311.841891 Z M25.1924362,116.421416 C32.5137856,132.824598 56.1242274,142.412078 96.0237615,145.183856 C155.873063,149.341523 239.631375,133.917868 283.26663,100.670497 C312.356801,78.5055831 318.896378,59.6586752 302.885363,44.1297731 C281.533297,49.4323982 247.389614,55.0230985 200.454316,60.9018742 C153.519018,66.7806499 105.073653,71.1769627 55.1182208,74.0908128 L39.4519991,92.4396433 L25.1924362,116.421416 Z" id="形状结合" fill="#FFCC66"></path>
            <path d="M102.243715,376.521674 C133.928795,353.047863 168.909366,337.527271 207.18543,329.959897 C264.599526,318.608836 327.444551,294.058074 337.969148,289.15334 C348.493745,284.248606 385.893855,271.060482 388,240.374647 C388,276.412469 352.20747,335.303838 304.527861,364.468991 C256.848252,393.634145 204.569278,404.841486 166.801924,398.101883 C141.623687,393.608815 120.104284,386.415412 102.243715,376.521674 Z M251.036069,7.98137699 C204.264782,-4.8357844 159.245404,-2.21579506 115.977936,15.841345 C51.0767346,42.9270551 16.5819822,102.839476 25.1924362,116.421416 C31.7575404,102.954396 39.4845505,96.8809278 55.9842047,91.026924 C72.4838589,85.1729202 154.783222,73.1149798 171.475536,67.3198924 C179.096617,64.674074 203.217206,61.2971255 226.969156,44.3111201 C238.943178,35.7479991 246.965483,23.6380848 251.036069,7.98137699 Z" id="形状结合" fill="#FF7673"></path>
            <ellipse id="椭圆形" fill="#009191" cx="194" cy="199.331104" rx="107.034483" ry="107.023411"></ellipse>
            <path d="M302.885363,44.1297731 C307.345794,53.0781034 306.485594,64.5287077 300.304764,78.4815861 C285.543796,111.803646 229.101035,126.637473 221.375609,129.369024 C213.650182,132.100575 57.6523743,164.445995 48.7014922,167.261884 C39.7506102,170.077772 0,185.896502 0,220.525143 C0,255.153784 12.5310554,278.492422 16.8630627,284.671001 C21.19507,290.849581 30.8287855,304.884712 40.6792876,311.365691 C34.4510595,294.229983 60.0484227,277.23164 71.9122645,270.700161 C83.7761064,264.168683 142.663942,246.156253 177.526125,239.649061 C212.388309,233.141868 273.119085,219.567296 306.138079,204.479421 C339.157073,189.391546 363.63208,175.698634 369.998833,138.275885 C374.325567,112.844038 361.609383,89.5844401 346.958767,72.1082567 C337.19169,60.4574678 322.500555,51.1313066 302.885363,44.1297731 Z" id="路径-9" fill="#FF9F73"></path>
        </g>
    </g>
</svg>