<?xml version="1.0" encoding="UTF-8"?>
<svg width="320px" height="320px" viewBox="0 0 320 320" version="1.1" xmlns="http://www.w3.org/2000/svg" xmlns:xlink="http://www.w3.org/1999/xlink">
    <title>search-light</title>
    <g id="search-light" stroke="none" stroke-width="1" fill="none" fill-rule="evenodd">
        <rect id="矩形备份-11" fill-rule="nonzero" x="0" y="0" width="320" height="320"></rect>
        <g id="编组备份-2" transform="translate(27.000000, 18.000000)" fill="#009191" fill-rule="nonzero">
            <g id="search-colorful-2-(1)">
                <path d="M165.295524,101.952691 L166.582532,101.968193 C192.44837,102.933592 207.00581,113.3955 218.597796,128.683119 C213.291049,181.686643 166.804284,220.403364 114.010375,218.255437 C87.1495665,216.648969 63.6861632,204.622546 46.9256305,186.484804 C75.5846637,147.146636 121.973344,102.80211 164.014221,101.96469 L165.295524,101.952691 Z" id="路径" fill-opacity="0.8"></path>
                <path d="M23.6480487,150.19735 L23.6679223,150.170599 C33.7271641,135.795416 49.840923,121.512919 71.4270511,127.261184 C112.476738,138.992337 151.0094,163.023902 174.503123,162.345197 C196.862258,161.69927 205.891339,155.24631 215.688098,146.394342 C203.749662,190.357759 161.14823,220.877892 113.415262,218.984605 C70.1827534,216.463877 35.7096704,187.751889 23.6480487,150.19735 Z" id="路径" fill-opacity="0.8"></path>
                <path d="M227.246104,202.707902 L267.205826,238.583809 C275.485501,246.017365 276.155576,258.720333 268.703506,266.976137 C261.344034,275.129356 248.790531,275.874994 240.512417,268.709147 L240.234475,268.464122 L198.031592,230.573896 C209.114031,222.790815 218.967881,213.386795 227.246104,202.707902 Z M0.551174276,112.572456 C4.13647909,46.8775443 61.5013563,-3.28947905 127.231945,0.29387976 C192.962533,5.07169158 244.351902,61.21098 239.571495,126.905892 C234.791089,192.600803 178.621314,242.767826 112.890726,239.184468 C47.1601369,235.601108 -3.03413054,178.267368 0.551174276,112.572456 Z M125.773526,20.7645805 C71.9855607,18.5688788 23.6861642,60.2872078 21.4907369,114.081895 C19.2953096,167.876582 59.9107115,215.084165 114.796389,218.377718 C168.584354,220.573419 215.786038,179.952941 219.079179,125.060403 C221.252651,71.8036629 181.46723,25.0029432 127.415786,20.876524 L125.773526,20.7645805 Z" id="形状"></path>
            </g>
        </g>
    </g>
</svg>